<svg width="480" height="380" viewBox="0 0 480 380" fill="none" xmlns="http://www.w3.org/2000/svg">
<path opacity="0.5" d="M322.837 217.273C322.892 207.53 308.731 199.558 291.207 199.466C273.684 199.375 259.434 207.199 259.379 216.942C259.324 226.685 273.485 234.657 291.009 234.748C308.532 234.84 322.782 227.016 322.837 217.273Z" fill="#D5DBF7"/>
<path opacity="0.5" d="M141.743 347.156C141.798 337.413 127.637 329.44 110.113 329.349C92.5898 329.258 78.3398 337.082 78.2851 346.825C78.2304 356.568 92.3916 364.54 109.915 364.631C127.439 364.723 141.689 356.898 141.743 347.156Z" fill="#D5DBF7"/>
<path opacity="0.5" d="M290.028 350.389C290.098 337.919 271.974 327.716 249.547 327.599C227.119 327.482 208.881 337.496 208.811 349.965C208.741 362.435 226.865 372.638 249.293 372.755C271.72 372.872 289.958 362.858 290.028 350.389Z" fill="#D5DBF7"/>
<path opacity="0.5" d="M114.893 246.585C114.953 235.803 99.2946 226.981 79.9182 226.88C60.5419 226.779 44.7852 235.437 44.7246 246.219C44.6641 257.001 60.3226 265.824 79.699 265.925C99.0753 266.026 114.832 257.367 114.893 246.585Z" fill="#D5DBF7"/>
<path opacity="0.5" fill-rule="evenodd" clip-rule="evenodd" d="M169.499 79.218L123.214 53.4877C122.114 52.8737 121.2 51.992 120.565 50.9309C119.929 49.8697 119.594 48.6663 119.593 47.4411V3.50662C119.595 2.89049 119.766 2.28583 120.087 1.75304C120.408 1.22024 120.869 0.777956 121.423 0.47034C121.977 0.162724 122.605 0.000548228 123.245 1.38751e-06C123.884 -0.000545453 124.513 0.160555 125.067 0.467223L171.351 26.1975C172.453 26.8103 173.368 27.6917 174.003 28.7532C174.639 29.8146 174.974 31.0186 174.973 32.2441V76.1786C174.971 76.7948 174.8 77.3994 174.479 77.9322C174.158 78.465 173.697 78.9073 173.143 79.2149C172.589 79.5225 171.961 79.6847 171.321 79.6852C170.682 79.6858 170.053 79.5247 169.499 79.218Z" fill="#D5DBF7"/>
<path opacity="0.5" fill-rule="evenodd" clip-rule="evenodd" d="M106.256 70.5508L84.8076 58.6183C84.2957 58.3336 83.8714 57.923 83.5782 57.4286C83.2849 56.9341 83.1332 56.3735 83.1385 55.8041V35.4611C83.1307 35.1721 83.2039 34.8864 83.3503 34.6342C83.4968 34.3819 83.7111 34.1723 83.9708 34.0275C84.2304 33.8826 84.5258 33.8079 84.8258 33.8111C85.1258 33.8144 85.4193 33.8955 85.6755 34.0459L107.107 45.9783C107.619 46.263 108.043 46.6736 108.336 47.168C108.629 47.6625 108.781 48.2231 108.776 48.7926V69.1356C108.782 69.4222 108.708 69.705 108.563 69.955C108.417 70.2049 108.205 70.4128 107.948 70.5571C107.691 70.7014 107.398 70.7769 107.101 70.7758C106.803 70.7747 106.511 70.697 106.256 70.5508Z" fill="#D5DBF7"/>
<path opacity="0.5" fill-rule="evenodd" clip-rule="evenodd" d="M328.831 198.847L295.332 180.225C294.535 179.778 293.874 179.137 293.414 178.367C292.954 177.596 292.712 176.723 292.712 175.835V144.058C292.715 143.611 292.839 143.173 293.072 142.787C293.305 142.401 293.64 142.08 294.041 141.858C294.443 141.635 294.899 141.517 295.362 141.517C295.826 141.516 296.282 141.633 296.684 141.855L330.166 160.493C330.967 160.933 331.633 161.569 332.097 162.338C332.56 163.106 332.804 163.979 332.803 164.867V196.644C332.801 197.091 332.676 197.529 332.443 197.915C332.21 198.301 331.875 198.621 331.474 198.844C331.072 199.067 330.616 199.185 330.153 199.185C329.689 199.186 329.233 199.069 328.831 198.847Z" fill="#D5DBF7"/>
<path opacity="0.5" fill-rule="evenodd" clip-rule="evenodd" d="M288.572 100.929L333.755 75.7935C334.834 75.1952 335.729 74.3327 336.351 73.2934C336.972 72.2541 337.297 71.0749 337.293 69.8755V27.0185C337.296 26.4153 337.133 25.8222 336.821 25.2991C336.509 24.7761 336.059 24.3416 335.517 24.0397C334.975 23.7378 334.36 23.5792 333.734 23.5798C333.108 23.5805 332.493 23.7404 331.952 24.0434L286.769 49.1787C285.695 49.7781 284.803 50.6387 284.182 51.6743C283.561 52.71 283.233 53.8845 283.231 55.0806V98.002C283.242 98.5991 283.415 99.1832 283.731 99.6968C284.048 100.21 284.497 100.636 285.036 100.931C285.575 101.226 286.185 101.381 286.805 101.381C287.424 101.381 288.034 101.225 288.572 100.929Z" fill="#D5DBF7"/>
<path opacity="0.5" fill-rule="evenodd" clip-rule="evenodd" d="M7.66124 234.42L72.4057 198.414C73.9359 197.546 75.2034 196.306 76.082 194.819C76.9605 193.332 77.4194 191.65 77.413 189.939V128.556C77.4129 127.692 77.1769 126.843 76.7287 126.095C76.2804 125.347 75.6356 124.726 74.8592 124.294C74.0828 123.862 73.202 123.635 72.3055 123.635C71.409 123.635 70.5282 123.862 69.7518 124.294L5.00738 160.317C3.47728 161.181 2.2095 162.417 1.33078 163.902C0.452056 165.386 -0.00680856 167.067 7.63503e-05 168.776V230.191C0.00591769 231.052 0.246161 231.896 0.696817 232.64C1.14747 233.383 1.79276 234 2.56821 234.428C3.34366 234.856 4.22212 235.081 5.11585 235.079C6.00957 235.078 6.88726 234.851 7.66124 234.42Z" fill="#D5DBF7"/>
<path fill-rule="evenodd" clip-rule="evenodd" d="M31.998 202.9C30.9082 203.761 29.7471 204.536 28.5263 205.215C22.5843 208.528 17.36 208.078 14.3223 204.685L28.6598 186.448L31.998 202.9Z" fill="#D5DBF7"/>
<path fill-rule="evenodd" clip-rule="evenodd" d="M45.6172 176.929C45.6172 185.999 39.7921 196.821 32.0641 202.9L28.6592 186.449V167.569C37.9895 162.327 45.6172 166.524 45.6172 176.929Z" fill="#D5DBF7"/>
<path fill-rule="evenodd" clip-rule="evenodd" d="M28.6589 167.569V186.448L14.4548 204.733C12.4357 202.222 11.4278 199.092 11.6173 195.92C11.5506 185.467 19.1784 172.795 28.6589 167.569Z" fill="#D5DBF7"/>
<path fill-rule="evenodd" clip-rule="evenodd" d="M72.8915 153.917L50.0415 166.251V163.115L72.8915 150.781V153.917Z" fill="#D5DBF7"/>
<path fill-rule="evenodd" clip-rule="evenodd" d="M72.8898 166.187L50.0398 178.506V175.37L72.8898 163.035V166.187Z" fill="#D5DBF7"/>
<path fill-rule="evenodd" clip-rule="evenodd" d="M72.8898 178.44L50.0398 190.774V187.622L72.8898 175.304V178.44Z" fill="#D5DBF7"/>
<path d="M218.2 286.72C218.25 277.972 205.541 270.814 189.815 270.732C174.089 270.65 161.301 277.675 161.252 286.423C161.202 295.172 173.911 302.33 189.637 302.412C205.363 302.494 218.151 295.468 218.2 286.72Z" fill="#8B9AE2"/>
<path d="M170.898 266.922L162.319 282.231L217.483 283.116L208.92 267.71L170.898 266.922Z" fill="#8B9AE2"/>
<path d="M203.763 278.114C196.069 282.392 183.551 282.376 175.806 278.114C168.061 273.853 168.011 266.857 175.723 262.564C183.434 258.27 195.935 258.302 203.68 262.564C211.425 266.825 211.475 273.853 203.763 278.114Z" fill="#B9C2EE"/>
<path d="M200.207 276.154C196.972 277.736 193.395 278.561 189.767 278.561C186.139 278.561 182.562 277.736 179.327 276.154C173.552 272.938 173.518 267.743 179.327 264.543C182.565 262.961 186.145 262.136 189.775 262.136C193.406 262.136 196.986 262.961 200.224 264.543C205.932 267.759 205.966 272.954 200.207 276.154Z" fill="#E3E7FB"/>
<path opacity="0.5" d="M174.972 270.33C175.122 269.204 116.103 195.567 116.103 195.567H270.878L204.481 270.748L174.972 270.33Z" fill="#D5DBF7"/>
<path fill-rule="evenodd" clip-rule="evenodd" d="M277.787 199.314C277.787 199.314 266.454 212.067 263.433 212.935C260.412 213.804 263.133 216.779 265.453 217.02C267.773 217.261 275.15 216.94 277.303 214.897C279.456 212.855 285.532 210.684 285.532 210.684C285.602 207.033 285.038 203.397 283.863 199.926L277.787 199.314Z" fill="#202443"/>
<path fill-rule="evenodd" clip-rule="evenodd" d="M273.815 109.259C273.815 109.259 272.346 137.482 272.881 146.744C273.415 156.007 275.685 201.936 275.685 201.936C279.015 202.748 282.503 202.748 285.833 201.936C287.869 166.702 287.819 156.57 288.403 151.328C288.987 146.085 289.705 130.888 289.705 130.888C294.078 122.172 289.505 110.819 287.352 108.085C285.199 105.351 273.815 109.259 273.815 109.259Z" fill="#323657"/>
<path fill-rule="evenodd" clip-rule="evenodd" d="M296.298 211.457C295.914 216.619 293.995 222.714 293.494 225.785C293.29 226.801 293.309 227.847 293.55 228.855C293.792 229.864 294.25 230.812 294.896 231.639C295.647 232.62 304.694 229.741 305.929 226.38C307.164 223.019 304.627 220.076 304.443 213.772C304.074 213.098 303.569 212.501 302.956 212.018C302.344 211.534 301.637 211.174 300.878 210.958C300.119 210.742 299.322 210.675 298.536 210.761C297.749 210.846 296.988 211.083 296.298 211.457Z" fill="#202443"/>
<path fill-rule="evenodd" clip-rule="evenodd" d="M283.228 111.446C283.228 111.446 284.78 137.176 287.234 145.699C289.687 154.222 291.907 179.341 292.959 183.732C294.01 188.122 295.279 215.139 295.279 215.139C298.563 215.956 302.009 215.956 305.294 215.139C305.16 189.827 305.811 169.242 305.294 162.295C304.776 155.348 305.494 134.764 305.494 134.764C307.831 125.115 307.964 123.973 305.494 117.605C303.024 111.237 292.375 106.203 283.228 111.446Z" fill="#323657"/>
<path fill-rule="evenodd" clip-rule="evenodd" d="M278.088 50.4812C268.891 52.9738 264.001 75.2627 261.364 80.3123C258.726 85.3618 237.295 86.5197 237.295 86.5197C236.01 90.8617 239.665 95.4127 239.665 95.4127C260.362 94.5765 267.656 92.9201 271.495 85.0563C275.334 77.1925 288.804 53.1668 278.088 50.4812Z" fill="#323657"/>
<path fill-rule="evenodd" clip-rule="evenodd" d="M278.089 50.4821C286.267 50.1283 305.212 54.2291 311.471 61.8999C317.73 69.5707 308.65 83.1113 306.463 91.2807C304.277 99.4501 307.465 119.938 307.465 121.916C297.784 128.091 274.45 128.879 271.83 119.648C270.745 109.614 273.131 97.6811 273.265 91.8114C272.948 79.1874 267.34 54.213 278.089 50.4821Z" fill="white"/>
<path fill-rule="evenodd" clip-rule="evenodd" d="M285.115 52.3467C279.841 70.1488 278.606 90.138 279.123 97.6802C279.641 105.222 279.841 129.666 279.841 129.666C273.715 126.563 271.028 120.87 271.028 118.281C271.028 115.691 273.348 93.5956 273.265 91.8105C273.181 90.0255 270.177 69.7468 271.028 60.6286C271.879 51.5104 278.089 50.4812 278.089 50.4812H285.967L285.115 52.3467Z" fill="#323657"/>
<path fill-rule="evenodd" clip-rule="evenodd" d="M280.041 30.8623C276.436 31.9558 280.041 39.8358 280.041 39.8358V30.8623Z" fill="#3B56D7"/>
<path fill-rule="evenodd" clip-rule="evenodd" d="M279.841 31.89C279.083 34.564 278.806 37.3435 279.023 40.1076C279.523 43.6937 279.857 50.8339 283.162 53.1175C286.467 55.401 291.191 52.7476 294.328 50.1906C296.297 48.5795 297.894 46.5901 299.017 44.3497C300.141 42.1094 300.767 39.6676 300.855 37.1808C300.855 31.4719 298.601 24.4603 290.055 24.8141C281.51 25.1679 279.841 31.89 279.841 31.89Z" fill="#FFD7C0"/>
<path fill-rule="evenodd" clip-rule="evenodd" d="M296.465 45.125C296.465 45.125 295.797 52.4742 297.8 55.192C297.933 57.0092 292.559 64.68 287.184 63.3453C284.063 62.5573 284.447 59.0515 284.447 59.0515C284.622 56.0037 284.622 52.949 284.447 49.9012L296.465 45.125Z" fill="#FFD7C0"/>
<path fill-rule="evenodd" clip-rule="evenodd" d="M277.737 25.7315C276.518 29.977 277.92 31.4886 281.626 32.7108C285.331 33.933 295.196 31.1027 295.196 31.1027C294.692 33.4272 294.978 35.8464 296.013 38.0016C297.683 33.531 299.135 35.8145 299.352 39.3846C299.569 42.9547 297.382 42.9225 297.382 42.9225C297.301 44.3478 297.705 45.7596 298.534 46.9429C302.506 44.3055 307.897 26.632 300.754 26.23C300.62 20.0708 280.357 16.6615 277.737 25.7315Z" fill="#3B56D7"/>
<path fill-rule="evenodd" clip-rule="evenodd" d="M298.133 54.0178C291.773 66.883 288.435 78.7511 288.652 89.397C288.869 100.043 291.156 131.096 291.156 131.096C302.188 128.523 309.699 125.516 311.853 121.898C307.129 109.885 305.41 101.812 306.378 98.4026C307.346 94.9933 315.675 68.9414 311.385 61.2062C307.229 56.9125 298.133 54.0178 298.133 54.0178Z" fill="#323657"/>
<path fill-rule="evenodd" clip-rule="evenodd" d="M308.416 59.0839C316.027 62.7344 321.518 80.2632 327.327 85.6826C330.665 88.7542 346.855 92.7585 351.362 92.871C353.114 96.6984 349.976 100.912 349.976 100.912C322.253 98.4031 321.034 96.9236 312.505 86.4385C301.923 73.509 298.234 56.5752 308.416 59.0839Z" fill="#323657"/>
<path fill-rule="evenodd" clip-rule="evenodd" d="M296.715 52.2983C297.14 52.9069 297.614 53.4823 298.134 54.0191C298.134 54.0191 295.363 59.8405 294.378 62.3975C293.519 64.2037 292.267 65.8107 290.706 67.1093L287.117 63.3463C292.125 60.8376 296.715 52.2983 296.715 52.2983Z" fill="white"/>
<path fill-rule="evenodd" clip-rule="evenodd" d="M350.793 94.0459C352.969 93.4615 355.211 93.1374 357.469 93.081C359.611 92.973 361.742 92.715 363.845 92.3091C364.43 92.3091 364.213 94.4801 360.223 94.9625C363.562 95.7988 366.382 96.3616 368.335 95.7344C370.288 95.1072 370.004 97.6803 368.335 99.4332C366.666 101.186 363.779 101.459 361.809 101.668C357.747 101.481 353.729 100.778 349.858 99.5779C349.124 95.2359 350.793 94.0459 350.793 94.0459Z" fill="#FFD7C0"/>
<path fill-rule="evenodd" clip-rule="evenodd" d="M284.883 54.1477C285.216 53.7617 286.001 61.4004 287.186 63.3462C286.118 64.4042 284.885 65.2941 283.531 65.9836C283.531 65.9836 282.162 57.4283 284.883 54.1477Z" fill="white"/>
<path fill-rule="evenodd" clip-rule="evenodd" d="M287.501 63.1846L284.447 64.9857C284.847 66.2575 285.099 67.5681 285.198 68.8935H288.052L290.172 65.9827L287.501 63.1846Z" fill="#00B15C"/>
<path fill-rule="evenodd" clip-rule="evenodd" d="M285.197 68.8944C280.941 90.138 281.375 103.26 281.375 103.26L283.528 109.098L288.185 102.569C288.185 102.569 284.847 77.6106 288.052 68.8944C287.656 68.5619 287.149 68.3787 286.625 68.3787C286.1 68.3787 285.593 68.5619 285.197 68.8944Z" fill="#00B15C"/>
<path fill-rule="evenodd" clip-rule="evenodd" d="M85.4051 82.1279C85.4051 82.1279 99.6425 91.7768 105.601 94.9931C111.56 98.2093 134.861 85.5693 134.861 85.5693C134.861 85.5693 138.015 87.1775 136.63 92.0019C121.374 101.892 110.141 106.572 105.601 105.591C101.061 104.61 87.3913 96.8746 82.7512 94.4945C78.1111 92.1145 79.0124 81.5651 85.4051 82.1279Z" fill="#00CA69"/>
<path fill-rule="evenodd" clip-rule="evenodd" d="M82.7527 238.457C83.0364 242.429 83.4203 246.402 83.4203 246.402H84.3383C84.3383 246.402 84.3383 240.403 85.3064 241.658C85.1729 238.393 82.7527 238.457 82.7527 238.457Z" fill="#202443"/>
<path fill-rule="evenodd" clip-rule="evenodd" d="M95.4207 245.228C95.8714 245.228 96.4723 244.761 96.9897 244.07C96.055 242.993 95.137 241.947 94.5194 241.111C92.5332 238.474 89.3285 232.588 89.1783 229.95C89.0281 227.313 90.6972 199.685 91.1645 196.308C91.6319 192.931 92.9338 180.227 92.8336 179.423C92.7335 178.619 80.5157 183.958 80.5157 183.958C80.6659 185.003 82.3183 191.612 81.6507 195.874C80.983 200.135 79.9816 202.95 80.5157 209.913C81.0498 216.876 84.6383 228.037 83.4199 233.328C83.4279 233.419 83.4279 233.51 83.4199 233.601C86.9417 238.329 88.2102 247.56 95.4207 245.228Z" fill="#FFD7C0"/>
<path fill-rule="evenodd" clip-rule="evenodd" d="M97.0899 244.07C96.5725 244.762 95.9716 245.228 95.5209 245.228C88.277 247.56 87.0085 238.329 83.4199 233.601C82.285 238.619 82.7857 239.214 83.7371 239.937C85.9788 242.018 87.6676 244.589 88.6609 247.431C89.2785 250.213 98.4252 249.924 100.111 249.345C101.196 248.927 99.0928 246.45 97.0899 244.07Z" fill="#202443"/>
<path fill-rule="evenodd" clip-rule="evenodd" d="M70.2506 207.758C69.9001 210.846 68.014 234.646 68.3311 238.618C68.834 241.751 69.542 244.85 70.4509 247.897C70.9293 249.306 71.0887 250.798 70.9182 252.271C70.1838 254.314 70.1504 260.312 66.7455 258.993C63.3405 257.675 61.0872 253.413 61.7382 248.75C62.3891 244.086 61.6046 241.835 61.7382 239.101C61.8717 236.367 60.0691 218.967 59.6852 212.807C59.3013 206.648 61.5212 203.689 61.6714 199.589C61.5663 195.335 61.1873 191.092 60.5364 186.884C60.5364 186.884 75.2412 179.471 74.0227 188.412C72.8043 197.353 70.6011 204.686 70.2506 207.758Z" fill="#FFD7C0"/>
<path fill-rule="evenodd" clip-rule="evenodd" d="M55.0616 139.91C53.0587 149.559 57.8323 156.072 58.7003 158.259C59.5682 160.446 56.7808 187.929 56.7808 187.929C64.5088 199.395 91.4981 192.336 95.9212 185.147C95.3204 168.213 93.8015 140.489 93.9517 137.546C94.1019 134.603 55.0616 139.91 55.0616 139.91Z" fill="#323657"/>
<path fill-rule="evenodd" clip-rule="evenodd" d="M71.5192 252.496C71.3022 256.629 70.1505 260.36 66.7455 258.929C63.3406 257.497 61.0873 253.348 61.7382 248.685C63.5743 253.831 70.5678 253.606 70.4176 247.833C70.9161 249.356 71.2845 250.915 71.5192 252.496Z" fill="#202443"/>
<path fill-rule="evenodd" clip-rule="evenodd" d="M81.3821 50.2375C86.0389 54.4991 87.5744 58.2783 86.9068 62.4112C86.2392 66.5441 85.4547 71.9153 87.6746 73.4913C82.9344 77.0292 73.9713 71.8832 74.1549 70.9826C74.3385 70.082 79.1622 56.5093 79.5962 56.5093L81.3821 50.2375Z" fill="#3B56D7"/>
<path fill-rule="evenodd" clip-rule="evenodd" d="M85.4057 82.1257C75.3911 77.3013 58.3496 80.1155 51.6732 87.1753C44.9968 94.235 59.0339 107.309 61.354 114.835C63.674 122.361 47.6506 143.46 53.0085 149.925C63.3736 155.634 93.2672 151.742 96.0713 143.235C95.9711 130.627 88.1597 119.579 90.0124 114.289C90.1126 110.928 95.1199 99.96 93.1169 95.7145C88.9108 87.111 89.7954 84.7631 85.4057 82.1257Z" fill="#00CA69"/>
<path fill-rule="evenodd" clip-rule="evenodd" d="M84.171 55.9293C84.9429 58.601 85.2309 61.3809 85.0222 64.1469C84.5048 67.733 84.171 74.8732 80.8662 77.1568C77.5613 79.4403 72.8378 76.7869 69.7166 74.23C67.7485 72.6188 66.1513 70.6294 65.0275 68.389C63.9037 66.1487 63.2779 63.7069 63.1904 61.2201C63.1069 55.5112 65.427 48.4997 73.9895 48.8534C82.552 49.2072 84.171 55.9293 84.171 55.9293Z" fill="#FFD7C0"/>
<path fill-rule="evenodd" clip-rule="evenodd" d="M69.5995 72.2698C69.5995 72.2698 70.1669 79.6351 68.4978 82.3528C68.381 84.154 72.8542 91.8409 77.294 90.49C79.8978 89.7181 79.5807 86.2124 79.5807 86.2124C79.3136 83.5268 79.5807 77.062 79.5807 77.062L69.5995 72.2698Z" fill="#FFD7C0"/>
<path fill-rule="evenodd" clip-rule="evenodd" d="M76.3258 56.1895C75.8521 57.8709 74.9554 59.4138 73.7152 60.6817C72.475 61.9495 70.9295 62.9032 69.2155 63.4584C68.3475 71.2739 70.267 76.822 72.8875 78.0442C65.8105 80.5368 61.6878 78.6392 59.7517 74.9566C57.8155 71.2739 56.3133 55.6589 64.2916 50.8344C72.2699 46.01 76.3258 56.1895 76.3258 56.1895Z" fill="#3B56D7"/>
<path fill-rule="evenodd" clip-rule="evenodd" d="M76.3262 56.1893C78.7797 59.4056 84.2377 59.5504 85.139 59.4056C85.0222 46.9747 72.554 45.7203 68.448 50.1909C71.8363 56.318 76.3262 56.1893 76.3262 56.1893Z" fill="#3B56D7"/>
<path fill-rule="evenodd" clip-rule="evenodd" d="M66.6607 113.89C67.1447 113.68 64.2405 91.5524 64.2405 91.5524L84.4867 87.6929L85.3546 121.866L66.9945 125.999L66.6607 113.89Z" fill="white"/>
<path fill-rule="evenodd" clip-rule="evenodd" d="M77.478 108.244C77.478 108.244 83.9208 102.182 85.3562 100.782C86.7916 99.3834 86.7749 101.249 84.9055 104.513C87.8264 105.173 89.6791 108.92 89.9128 110.238C90.1465 111.557 86.4244 114.934 85.3729 115.336C83.5933 115.542 81.7946 115.542 80.0151 115.336L77.478 108.244Z" fill="#FFD7C0"/>
<path fill-rule="evenodd" clip-rule="evenodd" d="M54.8944 85.6495C60.4191 86.0355 61.3038 114.837 61.3038 114.837C61.3038 114.837 76.4258 108.067 77.4773 108.244C83.0688 109.402 79.9977 115.336 79.9977 115.336C68.1637 124.004 63.3067 128.973 57.5983 127.895C51.89 126.818 47.4502 106.99 47.5837 97.9518C47.7173 88.9141 51.3893 85.4083 54.8944 85.6495Z" fill="#00CA69"/>
<path d="M284.814 137.626C284.867 161.618 275.136 184.669 257.719 201.814C240.301 218.959 216.591 228.827 191.695 229.291H187.789C169.057 228.933 150.852 223.254 135.457 212.967C120.061 202.68 108.161 188.242 101.249 171.464C94.336 154.686 92.719 136.315 96.6002 118.656C100.481 100.996 109.688 84.8334 123.065 72.1951C136.443 59.5568 153.395 51.0053 171.797 47.6132C190.199 44.2211 209.231 46.1394 226.505 53.1275C243.78 60.1155 258.529 71.8623 268.902 86.8945C279.275 101.927 284.81 119.575 284.814 137.626Z" fill="#606BF1"/>
<path d="M279.774 167.151C273.474 184.951 261.643 200.454 245.887 211.555C230.13 222.657 211.211 228.82 191.695 229.209H187.79C168.277 228.817 149.362 222.652 133.609 211.551C117.856 200.449 106.027 184.949 99.728 167.151C112.48 148.657 147.965 135.342 189.743 135.342C231.52 135.342 267.005 148.657 279.774 167.151Z" fill="#6E78F1"/>
<path d="M91.899 137.641C91.7321 122.926 101.914 109.128 120.441 98.804C158.413 77.673 220.403 77.7856 258.609 99.0292C277.136 109.337 287.417 123.039 287.584 137.625H286.566C286.416 123.409 276.301 110.013 258.191 99.8815C220.169 78.7826 158.646 78.7022 120.941 99.6081C102.698 109.755 92.7502 123.248 92.9171 137.592L91.899 137.641Z" fill="#BEE1F4"/>
<path d="M159.013 222.873C152.844 222.939 146.762 221.471 141.354 218.611L141.838 217.759C154.573 224.593 171.497 222.857 189.49 212.934C227.079 192.029 257.673 141.195 257.673 99.6246C257.673 78.7187 249.712 63.0232 235.808 56.6389L236.259 55.7544C250.513 62.3156 258.691 78.2684 258.691 99.6246C258.691 141.436 227.88 192.72 189.991 213.803C179.075 219.801 168.526 222.873 159.013 222.873Z" fill="#BEE1F4"/>
<path d="M220.453 222.872C210.956 222.872 200.424 219.801 189.492 213.722C151.603 192.655 120.792 141.355 120.792 99.5435C120.792 78.2195 128.97 62.2346 143.224 55.6733L143.658 56.5578C129.771 62.9904 121.81 78.6055 121.81 99.5435C121.81 141.114 152.388 191.947 189.992 212.853C207.985 222.856 224.91 224.593 237.629 217.678L238.129 218.53C232.724 221.42 226.635 222.916 220.453 222.872Z" fill="#BEE1F4"/>
<path d="M189.741 213.786C135.946 213.786 92.1824 179.629 92.1824 137.625H93.2005C93.2005 179.083 136.597 212.822 189.741 212.822C242.885 212.822 286.282 179.051 286.282 137.625H287.367C287.367 179.629 243.536 213.786 189.741 213.786Z" fill="#BEE1F4"/>
<path d="M160.232 225.48C161.618 225.207 160.099 222.939 162.586 223.213C165.073 223.486 171.182 225.303 173.685 223.727C176.189 222.151 172.016 220.27 174.921 219.466C177.825 218.661 180.595 217.214 181.029 215.461C181.463 213.708 181.58 212.518 179.36 212.116C177.14 211.714 174.921 209.447 172.984 208.9C171.048 208.353 167.576 208.643 165.507 207.437C163.437 206.231 158.43 202.226 156.494 202.098C154.557 201.969 150.401 202.098 152.471 201.422C154.541 200.747 156.076 200.891 155.108 199.959C154.14 199.026 151.77 194.62 150.101 193.414C148.432 192.208 143.859 191.146 141.756 188.589C139.898 185.965 138.273 183.194 136.898 180.307C136.898 180.307 130.94 178.699 128.87 176.174C126.8 173.65 124.697 171.093 123.462 170.835C122.227 170.578 121.109 169.629 120.274 169.501C119.44 169.372 118.889 170.691 117.921 171.237C116.953 171.784 115.968 169.501 115.417 167.764C114.866 166.027 112.93 166.686 112.079 165.223C111.19 163.565 110.667 161.747 110.543 159.884C110.694 158.951 112.212 155.88 111.795 154.4C111.378 152.921 109.024 151.328 108.34 149.865C107.656 148.402 109.308 145.732 110.276 144.397C111.244 143.063 112.346 142.789 110.961 141.583C109.575 140.377 107.873 140.248 108.173 141.583C108.474 142.918 106.955 143.288 105.836 140.634C104.718 137.981 104.318 131.709 106.537 129.377C108.757 127.046 107.372 123.91 109.876 124.44C112.379 124.971 112.93 126.836 113.481 128.718C114.032 130.6 115.15 130.985 115 128.316C116.306 129.859 117.298 131.627 117.921 133.526C118.321 133.928 118.889 133.928 118.889 134.716C118.583 136.753 118.394 138.803 118.321 140.859C118.472 142.741 118.321 144.478 119.156 144.204C119.99 143.931 120.691 140.329 120.691 138.061C120.691 135.794 121.242 133.382 122.494 133.237C123.746 133.092 124.981 131.902 126.5 132.175C127.307 132.325 128.144 132.208 128.873 131.843C129.603 131.479 130.184 130.887 130.522 130.165C130.94 128.702 135.797 124.296 137.199 124.36C138.601 124.424 139.836 126.29 141.071 125.968C142.306 125.646 140.837 122.623 143.107 122.35C145.377 122.076 147.597 121.417 147.998 122.35C148.399 123.282 145.227 123.829 146.212 124.489C147.197 125.148 148.983 123.958 150.218 124.087C151.453 124.215 154.941 125.293 155.075 123.958C155.208 122.623 155.492 120.999 154.374 121.883C153.256 122.768 153.406 123.958 152.571 122.897C151.737 121.835 150.785 121.642 151.052 120.066C151.319 118.49 153.406 116.85 152.855 116.48C152.304 116.11 149.25 115.949 148.832 115.419C148.415 114.888 150.084 113.28 152.438 113.81C154.791 114.341 156.177 116.207 157.712 116.078C159.248 115.949 161.451 113.81 161.451 115.274C161.451 116.737 158.68 118.844 158.263 120.098C157.846 121.353 158.547 121.996 160.483 122.527C162.419 123.057 162.285 124.923 163.387 124.392C164.489 123.861 165.19 119.857 163.938 119.182C162.686 118.506 161.167 120.79 162.135 117.976C163.103 115.161 165.19 114.759 164.355 112.235C163.521 109.71 161.868 106.767 161.868 105.705C161.868 104.644 163.12 99.0156 163.12 99.0156C163.12 99.0156 161.317 101.026 160.066 100.624C158.814 100.222 157.979 99.4176 158.68 98.4849C159.381 97.5522 161.034 95.944 160.616 95.8154C160.327 95.6862 160.081 95.4797 159.91 95.2203C159.738 94.9609 159.647 94.6595 159.648 94.352C159.461 93.4975 159.027 92.7115 158.396 92.0845C157.979 91.5377 157.979 90.7497 157.295 90.8784C156.61 91.007 155.492 92.7438 155.075 93.8052C154.658 94.8666 152.304 95.156 152.304 96.0887C152.304 97.0215 152.571 99.691 150.218 100.093C147.864 100.495 146.613 100.093 146.212 100.752C145.811 101.412 144.025 105.432 143.107 105.159C142.189 104.885 142.64 103.293 143.107 101.556C143.575 99.8196 145.227 100.222 144.96 98.4849C144.693 96.7481 143.708 97.5522 143.992 95.944C144.276 94.3359 142.79 92.0845 143.107 91.409C143.425 90.7336 144.777 90.605 144.676 89.5436C144.576 88.4822 144.96 85.2659 147.731 85.1373C150.877 84.9351 153.989 84.3957 157.011 83.5291C157.408 83.2945 157.864 83.1703 158.33 83.1703C158.795 83.1703 159.252 83.2945 159.648 83.5291C160.199 83.9312 160.199 83.899 161.451 83.1754C162.703 82.4517 166.709 80.3289 167.276 80.8596C167.844 81.3903 167.276 84.4619 166.024 85.6841C164.772 86.9062 163.938 88.4822 162.97 88.2249C162.002 87.9676 159.515 86.4881 160.199 87.5495C160.883 88.6109 162.703 89.029 162.703 89.817C162.703 90.605 162.002 93.966 162.97 94.4967C163.938 95.0274 164.088 92.6312 164.505 92.4865C164.923 92.3418 164.639 95.3008 165.607 94.368C166.507 92.9531 167.029 91.3452 167.126 89.6883C167.276 88.627 166.575 88.3536 167.276 88.627C167.977 88.9003 167.276 91.5538 168.511 91.5538C169.746 91.5538 172.534 91.1517 171.432 89.6883C170.331 88.2249 169.763 85.8127 170.18 85.5554C170.481 85.4213 170.74 85.2146 170.933 84.9553C171.126 84.6961 171.246 84.3931 171.282 84.0759C171.282 83.2879 172.684 79.541 170.731 79.0103C168.778 78.4796 167.693 79.6696 168.795 78.4796C169.5 77.6545 170.018 76.6956 170.314 75.6653C169.52 75.5546 168.71 75.617 167.945 75.848C167.179 76.079 166.477 76.4728 165.891 77.0001C164.355 78.7369 164.772 79.2676 164.355 79.5409C163.938 79.8143 161.017 81.6798 160.616 81.0044C160.216 80.3289 162.97 78.8655 163.254 78.4796C163.781 77.1361 164.429 75.8393 165.19 74.6039C163.189 75.6143 161.244 76.7254 159.364 77.9328C158.129 79.0103 155.759 79.4123 156.026 79.0103C156.293 78.6082 163.237 75.794 161.568 75.2633C159.899 74.7326 156.861 77.1448 156.31 76.0674C155.759 74.9899 157.278 75.6653 156.727 74.5879C156.177 73.5104 154.224 75.1346 154.641 73.2692C155.058 71.4037 154.224 71.0017 155.476 70.857C156.727 70.7122 156.861 69.6669 157.829 68.0588C158.797 66.4507 158.931 62.1891 160.049 62.0443C161.167 61.8996 168.778 58.1687 169.479 56.5766C170.18 54.9846 172.667 53.5051 169.88 54.0358C167.092 54.5665 164.622 55.4992 165.039 54.9685C165.457 54.4378 165.173 53.0066 162.82 53.9232C160.466 54.8399 152.705 56.9787 152.288 58.3134C151.87 59.6482 153.256 59.7769 148.398 62.8484C143.541 65.92 139.402 70.1976 137.182 71.5324C134.962 72.8672 135.246 74.3306 133.293 75.1346C131.34 75.9387 130.94 75.408 129.271 77.4021C127.602 79.3962 121.109 83.8347 119.857 85.6841C114.964 91.7919 110.996 98.5385 108.073 105.722C104.201 116.126 101.981 126.016 102.114 128.412C102.248 130.809 101.831 139.766 102.949 141.374C104.262 143.439 105.067 145.766 105.302 148.177C105.586 150.846 107.789 152.309 108.49 153.918C109.191 155.526 108.774 159.128 108.908 160.189C109.041 161.251 112.363 167.137 112.646 168.069C112.93 169.002 113.481 167.008 114.032 168.069C115.118 170.099 115.733 172.333 115.834 174.614C115.834 177.429 112.096 177.557 113.064 180.098C114.032 182.639 123.312 197.45 127.201 202.789C132.158 208.774 137.942 214.076 144.393 218.549L160.232 225.48Z" fill="#9CA4FF"/>
<path d="M129.053 163.936C129.336 165.544 121.775 161.138 121.358 159.835C120.941 158.533 124.696 161.733 124.262 160.334C123.828 158.935 122.593 157.728 123.444 157.519C124.296 157.31 128.802 162.215 129.053 163.936Z" fill="#BEE1F4"/>
<path d="M121.877 156.006C120.675 155.524 118.138 155.106 118.539 153.498C118.939 151.89 116.252 147.387 115.518 146.486C114.783 145.586 113.031 144.38 113.849 144.187C114.666 143.994 115.818 145.393 117.27 146.985C118.722 148.577 121.944 154.205 122.578 155.025C123.212 155.846 124.28 156.955 121.877 156.006Z" fill="#BEE1F4"/>
<path d="M179.778 104.725C179.778 103.68 180.713 102.426 179.161 102.329C177.609 102.233 176.24 106.43 176.34 99.7239C176.44 93.0179 176.841 90.3162 178.143 89.6087C179.445 88.9011 179.311 88.0005 179.962 86.8105C180.613 85.6205 179.161 85.2023 180.396 82.6936C181.246 80.7054 181.246 78.4744 180.396 76.4862C179.979 75.0871 181.231 73.688 183.617 72.9805C186.004 72.2729 187.99 72.3854 189.86 71.9834C191.729 71.5814 191.412 70.0858 193.081 70.8738C194.75 71.6618 195.468 74.4921 196.937 73.3825C198.406 72.2729 199.007 72.9804 198.606 73.9775C198.205 74.9745 197.504 76.1807 198.739 77.3868C199.975 78.5929 199.541 80.394 199.858 82.4042C200.175 84.4144 197.888 82.6936 197.671 84.0123C197.454 85.331 199.34 85.8938 199.858 87.711C200.375 89.5282 200.375 91.2329 198.306 91.7314C196.236 92.2299 192.898 90.7183 192.163 92.1334C191.118 93.6806 189.795 95.0364 188.257 96.1377C186.972 97.1348 186.972 95.8322 185.921 97.4403C184.869 99.0485 181.865 103.873 181.297 104.339C180.73 104.806 179.728 105.819 179.778 104.725Z" fill="#9CA4FF"/>
<path d="M160.232 74.1861C159.431 75.36 157.227 74.2825 157.628 72.6744C158.029 71.0663 156.176 69.2812 158.68 68.8792C161.183 68.4771 161.167 69.9727 162.101 68.3807C162.7 67.3947 163.613 66.6219 164.705 66.1775C164.705 66.1775 167.826 63.7653 167.092 65.8719C166.357 67.9786 161.183 72.787 160.232 74.1861Z" fill="#9CA4FF"/>
<path d="M175.204 73.8794C174.035 73.6864 171.865 72.8824 175.204 71.8853C178.542 70.8883 182.998 67.2699 184.968 67.9775C186.937 68.6851 185.802 70.647 185.802 70.647C185.802 70.647 178.325 74.3779 175.204 73.8794Z" fill="#9CA4FF"/>
<path d="M203.679 99.6102C199.806 101.218 198.438 94.5928 200.123 94.9949C201.809 95.3969 203.261 93.3867 205.131 94.8019C207 96.2171 206.182 98.6132 203.679 99.6102Z" fill="#9CA4FF"/>
<path d="M212.943 75.8894C209.104 74.2812 207.635 73.4772 207.936 72.7857C208.236 72.0942 207.301 68.5241 209.605 70.9041C211.908 73.2842 213.527 76.1145 212.943 75.8894Z" fill="#9CA4FF"/>
<path d="M288.92 137.482C288.92 136.984 287.568 136.582 287.051 138.978C286.533 141.374 287.985 144.687 285.482 143.979C282.978 143.272 281.86 141.181 280.908 139.975C280.171 139.028 279.374 138.126 278.522 137.273C277.17 135.778 274.065 132.979 274.9 132.175C275.734 131.371 275.317 130.76 277.286 131.966C279.256 133.172 282.477 135.376 282.678 136.582C282.878 137.788 283.846 142.291 285.382 141.406C286.917 140.522 286.216 133.189 286.016 131.387C285.816 129.586 286.216 121.272 285.699 119.166C285.181 117.059 284.146 114.968 283.512 114.856C282.878 114.743 282.578 115.467 282.895 117.059C283.212 118.651 284.564 121.883 282.995 120.114C281.426 118.345 278.839 115.869 279.773 115.66C280.708 115.451 281.025 117.557 281.226 115.66C281.426 113.762 280.808 111.848 281.96 112.443C283.112 113.038 279.673 101.733 279.573 99.5783C279.473 97.4234 267.99 67.6245 228.666 51.4948C189.342 35.3652 180.545 47.3458 180.545 47.3458C180.011 48.1499 174.503 49.6455 174.086 50.7551C173.669 51.8647 173.251 51.6557 171.599 51.8486C169.947 52.0416 166.091 52.6527 169.212 52.8618C172.333 53.0708 182.298 50.6425 186.788 50.2405C189.956 50.0601 193.134 50.2981 196.235 50.9481C199.139 51.2536 206.25 51.3501 206.25 51.3501C206.25 51.3501 205.148 53.8588 207.919 53.6015C208.712 53.4706 209.525 53.5063 210.303 53.7061C211.081 53.9059 211.805 54.2652 212.425 54.7594C213.377 55.2579 211.19 55.6599 211.607 56.1585C212.025 56.657 214.729 56.7535 218.985 59.3747C223.241 61.996 225.01 60.8864 226.362 61.1919C227.714 61.4975 222.106 61.4814 224.493 63.2825C226.88 65.0837 232.388 66.3219 232.504 67.8014C232.621 69.2809 231.87 71.7253 232.805 72.9153C233.893 74.5628 234.837 76.2948 235.626 78.0935C236.777 80.2806 241.034 82.5963 237.512 82.2908C233.99 81.9852 231.687 81.7923 233.139 81.0847C234.591 80.3771 235.425 78.0935 233.356 78.4956C231.286 78.8976 224.092 78.9941 223.258 79.7017C222.423 80.4093 223.675 82.0978 224.393 85.3945C225.013 88.0974 225.053 90.8939 224.509 93.6121C224.092 97.5199 224.192 97.2948 225.227 99.8678C226.262 102.441 228.465 103.92 228.866 103.084C229.266 102.248 228.248 98.8547 230.435 99.8678C232.621 100.881 234.073 103.422 234.791 104.033C235.509 104.644 236.777 105.126 237.095 104.033C237.412 102.939 235.008 98.7099 235.325 97.9219C235.642 97.1339 234.174 95.9118 234.174 95.9118C233.074 95.179 232.239 94.1332 231.787 92.9206C231.67 91.8354 231.354 90.7789 230.852 89.8008C230.018 88.1123 229.083 86.1986 229.917 86.1986C230.752 86.1986 231.269 86.6971 231.987 89.1093C232.241 90.345 232.896 91.4712 233.856 92.3256C234.899 93.1132 236.187 93.5382 237.512 93.5317C238.53 93.3387 238.43 90.7335 239.899 91.1356C241.367 91.5376 238.029 92.9206 238.747 94.2232C239.465 95.5258 242.502 96.941 242.386 97.536C242.269 98.131 239.682 96.6354 239.899 97.6486C240.547 98.9856 241.384 100.23 242.386 101.347C242.903 102.055 242.703 104.355 241.668 103.952C240.633 103.55 240.616 101.347 239.899 103.341C239.181 105.335 239.581 106.156 238.43 106.654C238.035 106.783 237.655 106.95 237.295 107.153C236.36 107.651 234.908 108.246 234.174 107.153C233.439 106.059 234.174 105.545 233.239 104.547C232.304 103.55 231.37 101.846 231.269 103.036C231.151 103.55 231.165 104.084 231.31 104.591C231.456 105.099 231.728 105.564 232.104 105.947C233.039 107.153 234.174 107.844 233.957 108.857C233.74 109.87 231.787 109.951 231.47 112.074C231.153 114.196 231.887 114.18 231.052 115.29C230.218 116.4 230.218 116.383 230.218 117.38C230.179 118.338 229.775 119.249 229.083 119.937C228.565 120.404 227.213 118.78 227.531 119.937C227.848 121.095 228.766 121.546 227.731 121.787C226.696 122.028 224.192 122.092 224.81 122.703C225.68 123.352 226.733 123.733 227.831 123.797C228.666 123.797 229.7 125.293 230.335 126.193C230.978 127.287 231.263 128.543 231.153 129.795C230.952 130.503 226.379 131.709 224.927 132.111C223.475 132.513 222.64 132.513 222.54 133.221C222.531 134.582 222.887 135.923 223.575 137.112C224.393 138.721 222.957 139.621 223.475 140.618C223.992 141.615 225.144 142.532 224.71 143.416C224.276 144.301 225.962 143.223 227.731 143.931C229.5 144.639 228.866 146.038 230.335 145.234C231.803 144.429 230.635 143.625 231.887 143.32C233.139 143.014 234.491 143.722 234.591 142.628C234.691 141.535 236.46 138.528 236.26 138.222C236.06 137.916 234.591 137.916 235.325 136.614C236.301 134.879 237.132 133.072 237.812 131.211C237.812 130.712 235.943 128.702 237.812 128.509C239.682 128.316 239.581 128.911 240.316 128.107C241.05 127.303 241.251 123.797 243.103 124.199C244.956 124.601 246.024 126.097 247.793 126.306C249.563 126.515 252.367 126.997 253.201 128.3C254.036 129.602 252.467 132.015 252.467 132.015C252.467 132.015 250.798 132.706 251.332 133.108C251.866 133.51 254.553 133.912 254.553 133.51C254.553 133.108 252.984 132.513 253.719 131.806C254.456 130.784 254.755 129.528 254.553 128.3C254.236 127.801 252.367 127.206 253.402 126.804C254.436 126.402 255.688 126.997 255.388 126.193C255.087 125.389 252.884 124.81 251.849 124.698C250.59 124.687 249.349 124.413 248.211 123.893C247.276 123.298 246.124 122.896 245.924 122.189C245.724 121.481 244.055 119.68 245.507 119.937C246.959 120.195 248.094 121.385 249.463 121.546C250.831 121.706 255.471 122.446 255.421 122.945C255.371 123.443 254.754 124.054 256.323 124.858C257.641 125.396 258.791 126.255 259.661 127.351C260.078 128.155 260.812 129.747 261.23 128.461C261.433 127.335 261.5 126.191 261.43 125.051C261.53 124.247 257.374 123.347 258.509 122.752C259.644 122.157 260.078 122.141 259.978 121.433C259.878 120.725 259.444 118.522 261.113 119.986C262.782 121.449 263.817 124.054 265.386 124.054C266.955 124.054 266.721 123.845 267.055 122.848C267.389 121.851 267.372 121.642 268.607 121.546C269.842 121.449 269.241 117.638 270.276 118.731C271.874 121.264 273.004 124.044 273.614 126.949C273.731 128.557 271.645 128.863 271.127 130.053C270.61 131.243 270.193 133.365 267.689 133.558C265.185 133.751 264.267 133.558 263.533 135.167C262.799 136.775 264.05 137.691 263.433 139.428C262.815 141.165 262.815 141.776 261.046 141.165C259.277 140.554 258.025 141.969 257.825 140.875C257.624 139.782 255.021 142.58 253.669 142.275C252.317 141.969 252.934 141.47 251.799 141.165C250.664 140.859 251.482 140.506 251.282 139.428C251.082 138.351 249.396 137.064 249.913 136.662C250.431 136.26 249.713 135.167 248.878 135.858C248.044 136.55 249.095 136.759 247.126 137.675C245.674 138.114 244.275 138.701 242.953 139.428C241.918 140.264 242.653 140.377 240.883 141.036C239.114 141.696 238.28 141.133 238.28 142.146C238.28 143.159 237.445 143.834 235.993 144.735C234.541 145.636 235.158 146.038 233.806 146.343C232.769 146.451 231.723 146.451 230.685 146.343C230.068 146.44 228.615 146.44 228.716 147.453C228.816 148.466 228.515 150.749 227.581 151.361C226.646 151.972 226.329 151.361 225.912 153.355C225.494 155.349 226.112 155.156 226.229 156.651C226.253 157.576 226.037 158.491 225.6 159.315C225.162 160.138 224.518 160.842 223.725 161.363C222.056 162.264 220.888 160.865 220.854 162.569C220.761 163.775 220.236 164.912 219.369 165.786C218.734 166.686 218.634 166.799 218.851 168.6C219.068 170.401 216.448 170.69 216.03 172.604C215.613 174.518 215.096 174.598 215.713 175.82C216.331 177.043 217.382 177.734 216.965 179.921C216.597 181.392 216.111 182.832 215.513 184.231C215.196 185.437 216.448 186.949 216.548 188.444C216.648 189.94 218.534 189.843 219.569 191.146C220.604 192.449 222.273 192.256 222.79 193.446C223.308 194.636 224.66 194.555 225.912 195.247C227.163 195.938 227.464 197.353 230.802 196.758C234.14 196.163 233.907 194.845 236.41 194.459C238.914 194.073 238.897 193.446 242.018 192.449C245.14 191.452 245.757 188.943 247.944 188.235C250.13 187.528 250.748 187.142 251.899 187.64C253.051 188.139 250.03 190.053 252.417 189.039C254.804 188.026 254.904 186.338 256.873 186.547C258.843 186.756 257.925 187.045 257.508 188.943C257.09 190.84 254.904 193.349 255.638 193.767C256.373 194.185 258.86 194.571 259.477 195.681C260.095 196.791 258.025 197.289 258.759 198.672C259.494 200.055 260.111 200.087 259.077 200.682C258.042 201.277 255.238 205.941 254.286 207.195C253.335 208.45 253.552 209.801 255.221 210.106C256.89 210.412 285.465 170.626 287.969 160.431C290.472 150.235 288.92 137.981 288.92 137.482ZM265.336 112.234C263.032 112.846 264.802 115.965 263.967 116.448C262.765 117.155 260.128 118.458 259.611 115.049C259.093 111.639 256.189 106.236 258.259 107.523C260.328 108.809 259.811 111.35 260.746 109.436C261.68 107.523 263.149 106.735 262.098 106.638C261.046 106.542 260.746 108.439 260.746 106.236C260.746 104.033 259.911 101.926 260.746 103.116C261.58 104.306 260.545 106.027 263.149 106.027C265.753 106.027 267.305 105.126 267.606 107.233C267.906 109.34 267.606 111.639 265.336 112.234ZM273.681 105.625C272.012 105.625 271.912 102.827 269.725 102.409C267.539 101.991 265.369 101.814 264.852 98.9994C264.334 96.1852 263.183 92.5668 264.217 93.4031C265.252 94.2393 266.187 97.134 266.504 97.1661C266.821 97.1983 268.891 98.3079 268.741 97.9059C268.59 97.5038 270.143 96.6033 270.56 97.6003C270.977 98.5974 270.76 99.3854 271.178 99.9482C271.595 100.511 273.781 102.216 274.416 102.859C275.05 103.502 275.2 105.625 273.748 105.625H273.681Z" fill="#9CA4FF"/>
<path d="M223.441 120.515C223.558 120.821 224.259 118.312 226.445 117.814C228.632 117.315 229.216 117.01 228.665 116.109C228.114 115.209 227.697 115.611 227.897 114.71C228.098 113.81 225.727 113.102 225.31 112.41C224.893 111.719 223.741 110.802 223.441 110.304C223.14 109.805 221.872 109.805 221.772 109.098C221.672 108.39 222.907 106.702 221.772 106.702C220.637 106.702 219.685 107.297 219.685 106.702C219.685 106.107 220.103 103.871 218.968 105.19C217.833 106.509 218.45 107.602 218.45 108.31C218.45 109.017 219.802 110.609 219.685 110.899C219.569 111.188 220.002 109.403 220.32 109.998C220.637 110.593 220.103 111.51 220.737 111.413C221.371 111.317 222.706 111.301 222.807 111.799C222.907 112.298 223.708 113.102 223.574 113.407C223.441 113.713 222.389 114.003 222.506 114.308C222.623 114.614 222.907 114.807 222.907 115.305C222.907 115.804 222.089 116.72 222.506 116.817C222.923 116.913 224.175 115.82 223.574 117.01C223.312 117.556 223.164 118.148 223.141 118.75C223.119 119.352 223.22 119.952 223.441 120.515Z" fill="#9CA4FF"/>
<path d="M217.517 118.908C216.599 118.715 217.2 117.01 217.3 116.302C217.4 115.595 216.048 115.804 216.048 114.694C216.048 113.585 217.717 114.485 217.517 113.585C217.316 112.684 218.034 112.893 218.869 112.845C219.703 112.797 219.903 114.292 220.221 114.887C220.538 115.482 221.155 115.788 220.221 116.592C219.286 117.396 218.451 119.052 217.517 118.908Z" fill="#9CA4FF"/>
<path d="M245.79 133.076C244.638 132.674 244.221 130.568 244.438 130.166C244.655 129.764 246.508 128.96 246.725 130.664C246.942 132.369 247.76 133.768 245.79 133.076Z" fill="#9CA4FF"/>
<path d="M172.817 75.4888C171.849 75.0224 169.379 73.7198 170.213 72.9962C171.048 72.2725 172.917 71.0825 172.817 72.4816C172.717 73.8806 174.269 76.1964 172.817 75.4888Z" fill="#9CA4FF"/>
<path d="M167.193 72.9954C165.891 73.3491 164.272 73.6225 164.172 72.9954C164.072 72.3682 165.106 71.3872 165.941 71.3872C166.776 71.3872 168.378 72.6737 167.193 72.9954Z" fill="#9CA4FF"/>
<path d="M229.783 71.3718C229.618 71.5817 229.405 71.7519 229.16 71.869C228.916 71.9862 228.646 72.0472 228.373 72.0472C228.1 72.0472 227.83 71.9862 227.585 71.869C227.341 71.7519 227.127 71.5817 226.962 71.3718C226.245 70.7768 221.771 68.3806 220.286 67.4801C218.8 66.5795 217.065 65.2447 217.165 65.0035C217.572 64.8368 218.025 64.8015 218.455 64.9029C218.885 65.0043 219.27 65.2371 219.552 65.5664C220.169 66.4669 224.442 68.5736 226.228 69.2812C228.014 69.9888 230.918 70.2782 229.783 71.3718Z" fill="#9CA4FF"/>
<path d="M190.359 192.237C165.222 192.237 140.052 186.898 120.874 176.156C102.347 165.848 92.0656 152.146 91.8987 137.561H92.9168C93.0671 151.777 103.182 165.188 121.375 175.304C159.314 196.403 220.837 196.515 258.525 175.545C276.768 165.398 286.733 151.905 286.566 137.561H287.584C287.751 152.275 277.569 166.057 259.042 176.397C240.132 186.979 215.262 192.237 190.359 192.237Z" fill="#9CA4FF"/>
<path d="M141.354 218.611C128.084 211.471 120.79 196.225 120.79 175.689C120.79 133.878 151.602 82.5939 189.49 61.5112C206.832 51.8623 223.44 49.7878 236.225 55.6736L235.775 56.5581C223.273 50.817 207.016 52.8754 189.958 62.3635C152.353 83.2694 121.775 134.119 121.775 175.689C121.775 195.856 128.885 210.795 141.804 217.758L141.354 218.611Z" fill="#9CA4FF"/>
<path d="M238.129 218.611L237.628 217.758C250.564 210.795 257.657 195.856 257.657 175.689C257.657 134.119 227.063 83.2854 189.474 62.3635C172.416 52.8754 156.093 50.817 143.641 56.5581L143.207 55.6736C156.026 49.7878 172.633 51.8623 189.942 61.5112C227.83 82.5939 258.642 133.878 258.642 175.689C258.692 196.241 251.398 211.487 238.129 218.611Z" fill="#BEE1F4"/>
<path d="M190.242 44.1282H189.224V231.139H190.242V44.1282Z" fill="#9CA4FF"/>
<path d="M287.367 137.627H286.349C286.349 96.1691 242.952 62.4463 189.808 62.4463C136.664 62.4463 93.2674 96.2173 93.2674 137.627H92.2493C92.2493 95.6384 136.013 61.4653 189.808 61.4653C243.603 61.4653 287.367 95.6384 287.367 137.627Z" fill="#9CA4FF"/>
<path fill-rule="evenodd" clip-rule="evenodd" d="M119.824 350.835C123.15 351.742 126.52 352.488 129.922 353.07C133.678 353.585 136.365 352.99 137.25 354.276C138.134 355.563 136.182 358.924 132.877 360.049C129.572 361.175 122.779 359.872 120.275 360.387C117.771 360.902 111.429 361.995 109.91 360.516C108.391 359.036 109.91 351.703 109.91 351.703L119.824 350.835Z" fill="#202443"/>
<path fill-rule="evenodd" clip-rule="evenodd" d="M84.6564 342.777L96.0062 330.539C100.53 329.285 105.303 329.027 104.686 333.048C104.151 336.618 98.2428 338.194 94.1869 341.667L90.4481 344.884C87.7609 347.183 84.3225 345.173 84.6564 342.793" fill="#202443"/>
<path fill-rule="evenodd" clip-rule="evenodd" d="M157.279 185.548C160.192 183.74 162.55 181.214 164.106 178.231C165.172 176.039 165.849 173.691 166.109 171.284C166.222 169.127 165.676 166.986 164.54 165.124C164.456 164.962 164.336 164.82 164.189 164.706C163.622 164.369 162.954 164.98 162.604 165.526C160.745 168.787 158.612 171.895 156.228 174.821C156.43 173.71 156.784 172.628 157.279 171.605C158.097 169.997 156.679 169.997 156.679 169.997C154.887 171.862 153.492 174.047 152.573 176.43C152.172 178.038 151.187 182.139 151.187 182.139L151.705 182.589L151.02 183.505C151.02 183.505 155.594 186.545 157.279 185.548Z" fill="#FFD7C0"/>
<path fill-rule="evenodd" clip-rule="evenodd" d="M85.5913 195.567C85.5913 195.567 69.9018 201.067 82.1196 216.634L85.5913 195.567Z" fill="#00CA69"/>
<path fill-rule="evenodd" clip-rule="evenodd" d="M95.4219 165.013C99.143 164.384 102.957 164.483 106.638 165.303C109.078 165.901 111.292 167.152 113.025 168.91C114.759 170.668 115.941 172.863 116.436 175.241C117.771 180.291 118.105 188.701 115.151 193.397C113.281 196.324 109.109 195.777 106.121 195.005C102.116 194.133 98.302 192.587 94.8544 190.438C90.7317 187.447 88.5452 180.869 88.2948 176.125C88.0778 172.041 90.2811 165.817 95.4219 165.013Z" fill="#FFD7C0"/>
<path fill-rule="evenodd" clip-rule="evenodd" d="M95.4224 189.361C95.853 189.811 96.322 190.225 96.8245 190.6C99.5961 192.676 102.784 194.176 106.188 195.006C106.772 195.151 107.39 195.279 108.024 195.392L107.74 198.608C103.901 199.621 100.179 198.061 97.5422 197.354C95.5727 196.823 92.5349 196.341 92.5349 194.347L95.4391 189.41L95.4224 189.361Z" fill="#FFD7C0"/>
<path fill-rule="evenodd" clip-rule="evenodd" d="M91.2159 165.945C87.8777 168.036 88.0947 173.117 88.2616 176.43C88.512 181.174 90.782 187.446 94.938 190.437C96.4716 191.79 98.3391 192.742 100.363 193.203C100.973 192.855 101.558 192.468 102.115 192.045C102.951 191.465 103.581 190.65 103.919 189.711C104.256 188.773 104.285 187.757 104.001 186.803C103.384 184.889 103.334 182.589 104.452 181.978C106.288 181.013 107.506 184.439 107.506 184.439C107.885 184.341 108.237 184.165 108.539 183.924C108.841 183.683 109.085 183.381 109.254 183.041C109.424 182.7 109.515 182.328 109.522 181.951C109.528 181.573 109.45 181.198 109.292 180.853C108.773 179.504 108.773 178.02 109.292 176.671C112.547 176.671 114.049 172.458 115.084 171.847C117.287 170.657 118.022 170.239 117.671 168.164C117.478 166.826 116.84 165.585 115.852 164.626C113.851 163.351 111.646 162.4 109.326 161.812C100.246 159.738 93.2856 161.281 91.2159 165.945Z" fill="#3B56D7"/>
<path fill-rule="evenodd" clip-rule="evenodd" d="M84.7242 257.673C80.8018 263.012 90.5994 277.823 87.9289 296.268C86.1096 308.764 82.5711 329.734 83.4056 341.57C83.5725 343.725 92.3186 345.269 94.6887 334.832C98.728 317.142 103.769 306.014 105.555 292.248L104.603 252.302L84.7242 257.673Z" fill="#323657"/>
<path fill-rule="evenodd" clip-rule="evenodd" d="M97.259 255.729C96.1741 272.325 108.525 292.636 107.708 306.031C106.856 319.845 108.425 336.586 108.459 351.606C108.459 351.606 121.144 357.38 121.711 348.39C123.564 319.106 129.389 309.971 121.528 256.372L97.259 255.729Z" fill="#323657"/>
<path fill-rule="evenodd" clip-rule="evenodd" d="M120.225 239.663C120.375 229.024 119.486 218.396 117.572 207.918C116.103 205.86 114.273 204.064 112.164 202.611L108.108 197.787C102.97 196.575 97.9051 195.093 92.9356 193.348L85.5916 195.487C79.5995 197.931 77.63 205.393 80.2838 212.839C80.2838 213.177 86.3761 230.078 87.0604 236.334C87.0604 236.945 82.5371 253.525 81.519 260.295C81.519 260.295 85.892 264.139 87.1105 265.12C95.9901 275.749 125.066 262.852 126.167 257.191C126.568 255.165 122.996 248.572 120.225 239.663Z" fill="#00CA69"/>
<path d="M110.444 219.046C104.569 219.174 99.4448 211.632 102.666 206.888C103.516 205.208 105.004 203.906 106.822 203.254C111.679 201.903 126.134 205.151 135.347 205.36C142.708 196.708 150.87 181.318 150.87 181.318C152.399 181.311 153.899 181.715 155.203 182.485C156.506 183.255 157.56 184.36 158.247 185.677C145.796 216.521 141.706 217.003 141.022 217.711C140.338 218.418 110.444 219.046 110.444 219.046Z" fill="#00CA69"/>
<path fill-rule="evenodd" clip-rule="evenodd" d="M240.851 349.177C237.526 350.084 234.155 350.83 230.753 351.412C226.997 351.927 224.327 351.332 223.425 352.618C222.524 353.905 224.494 357.266 227.815 358.392C231.137 359.517 237.913 358.215 240.417 358.729C242.92 359.244 249.263 360.338 250.782 358.858C252.301 357.379 250.782 350.029 250.782 350.029L240.851 349.177Z" fill="#202443"/>
<path fill-rule="evenodd" clip-rule="evenodd" d="M276.035 341.119L264.686 328.865C260.146 327.627 255.389 327.37 255.99 331.39C256.524 334.96 262.432 336.52 266.488 339.994L270.244 343.21C272.931 345.526 276.369 343.5 276.035 341.136" fill="#202443"/>
<path fill-rule="evenodd" clip-rule="evenodd" d="M275.967 256.017C279.873 261.356 270.075 276.167 272.763 294.612C274.582 307.108 278.12 328.094 277.269 339.93C277.119 342.085 268.373 343.629 266.003 333.192C261.964 315.502 256.906 304.374 255.137 290.592L256.072 250.662L275.967 256.017Z" fill="#323657"/>
<path fill-rule="evenodd" clip-rule="evenodd" d="M263.417 254.071C264.502 270.667 252.168 290.962 252.985 304.374C253.82 318.188 252.268 334.929 252.218 349.933C252.218 349.933 239.549 355.722 238.982 346.716C237.112 317.432 231.287 308.298 239.149 254.698L263.417 254.071Z" fill="#323657"/>
<path fill-rule="evenodd" clip-rule="evenodd" d="M279.422 140.344C280.021 137.057 279.698 133.676 278.487 130.55C277.529 128.31 276.199 126.235 274.548 124.407C272.974 122.873 270.975 121.806 268.79 121.335C268.609 121.295 268.42 121.295 268.239 121.335C267.588 121.496 267.621 122.381 267.788 122.944C269.012 126.471 269.928 130.092 270.526 133.766C269.805 132.856 269.215 131.855 268.773 130.791C268.105 129.183 267.104 130.164 267.104 130.164C267.319 132.715 268.051 135.201 269.257 137.481C270.225 138.848 273.363 142.306 273.363 142.306C273.513 142.981 273.597 143.399 273.597 143.399C273.597 143.399 279.021 142.225 279.422 140.344Z" fill="#FFD7C0"/>
<path d="M268.708 191.419C268.708 191.419 276.687 171.945 277.237 165.786C277.788 159.626 272.931 142.869 272.931 142.869C272.931 142.869 277.137 136.823 280.008 136.26C286.968 150.363 288.838 161.862 288.838 169.404C288.838 176.946 280.342 204.654 280.492 204.445C280.642 204.236 261.715 206.343 268.708 191.419Z" fill="#00CA69"/>
<path fill-rule="evenodd" clip-rule="evenodd" d="M240.451 238.005C240.311 227.367 241.199 216.74 243.105 206.26C244.588 204.204 246.422 202.404 248.529 200.937L255.99 196.885C258.861 196.193 258.31 194.762 261.131 193.926C265.683 192.583 270.549 192.583 275.101 193.926C281.093 196.37 282.228 200.262 279.574 207.708C279.574 208.029 278.089 227.359 277.405 233.615C277.405 234.226 278.156 256.756 279.157 263.526C279.157 263.526 274.784 267.37 273.582 268.351C261.982 274.558 237.463 268.511 236.361 262.851C235.961 260.696 237.68 246.914 240.451 238.005Z" fill="#00CA69"/>
<path d="M250.197 171.172C250.197 171.172 248.629 176.801 248.328 177.943C248.127 179.114 248.127 180.309 248.328 181.481C248.428 182.236 247.043 184.343 247.227 185.292C247.41 186.241 248.328 191.966 250.197 193.59C252.067 195.214 255.555 194.651 255.555 194.651C255.404 196.557 255.404 198.471 255.555 200.376C255.856 201.036 263.901 200.457 267.339 198.559C270.777 196.661 269.526 191.499 269.526 191.499L260.896 171.172H250.197Z" fill="#FFD7C0"/>
<path d="M250.197 171.173C249.707 168.908 249.707 166.571 250.197 164.306C251.098 161.444 259.11 161.717 261.88 162.585C264.651 163.454 274.649 166.59 275.233 168.873C275.581 170.285 275.581 171.755 275.233 173.167C275.233 173.167 277.153 176.383 276.902 178.184C276.652 179.986 269.475 191.5 269.475 191.5C269.475 191.5 264.935 192.063 263.349 190.776C261.763 189.49 260.261 184.488 258.175 183.909C256.088 183.33 255.354 187.126 255.354 187.126L254.019 186.129C254.019 186.129 254.753 181.964 253.869 180.532C253.248 179.58 252.496 178.714 251.632 177.959L252.834 173.521L250.197 171.173Z" fill="#3B56D7"/>
<path fill-rule="evenodd" clip-rule="evenodd" d="M202.045 233.502C198.853 234.794 195.36 235.238 191.93 234.789C189.45 234.387 187.054 233.6 184.836 232.457C182.928 231.325 181.403 229.682 180.446 227.729C180.364 227.568 180.313 227.394 180.296 227.215C180.296 226.571 181.231 226.394 181.965 226.41C185.803 226.783 189.667 226.842 193.515 226.587C192.453 226.116 191.33 225.78 190.177 225.59C188.341 225.333 189.192 224.239 189.192 224.239C191.82 223.872 194.498 224.008 197.071 224.642L202.746 226.764L202.846 227.424H204.014C204.014 227.424 203.914 232.714 202.045 233.502Z" fill="#FFD7C0"/>
<path d="M257.19 215.17C260.628 210.587 257.056 202.305 251.181 202.128C249.257 201.855 247.297 202.304 245.707 203.382C241.818 206.486 236.426 219.801 231.402 227.247C219.835 228.212 202.043 226.009 202.043 226.009C201.172 227.218 200.67 228.637 200.593 230.106C200.517 231.576 200.868 233.036 201.609 234.323C234.991 241.865 237.778 238.874 238.78 238.729C239.781 238.585 257.157 215.218 257.19 215.17Z" fill="#00CA69"/>
<path opacity="0.75" fill-rule="evenodd" clip-rule="evenodd" d="M275.952 105.673C275.952 104.807 275.775 103.95 275.431 103.15C275.087 102.35 274.583 101.623 273.947 101.011C273.312 100.398 272.558 99.9126 271.727 99.5812C270.897 99.2499 270.007 99.0793 269.108 99.0793C268.21 99.0793 267.32 99.2499 266.49 99.5812C265.659 99.9126 264.905 100.398 264.27 101.011C263.634 101.623 263.13 102.35 262.786 103.15C262.442 103.95 262.265 104.807 262.265 105.673C262.267 107.236 262.861 108.746 263.934 109.918L269.159 115.949L274.416 109.918C275.434 108.723 275.978 107.218 275.952 105.673Z" fill="white"/>
<path d="M269.107 109.163C271.108 109.163 272.729 107.601 272.729 105.673C272.729 103.746 271.108 102.184 269.107 102.184C267.107 102.184 265.485 103.746 265.485 105.673C265.485 107.601 267.107 109.163 269.107 109.163Z" fill="#6E78F1"/>
<path opacity="0.75" fill-rule="evenodd" clip-rule="evenodd" d="M231.887 104.112C231.893 103.046 231.632 101.994 231.125 101.046C230.618 100.099 229.881 99.2832 228.976 98.6694C228.071 98.0557 227.026 97.662 225.929 97.5218C224.832 97.3816 223.716 97.4991 222.677 97.8643C221.637 98.2295 220.705 98.8316 219.959 99.6192C219.213 100.407 218.676 101.356 218.394 102.387C218.112 103.418 218.092 104.499 218.338 105.539C218.583 106.578 219.085 107.545 219.803 108.357L225.044 114.388L230.301 108.357C231.337 107.169 231.899 105.664 231.887 104.112Z" fill="white"/>
<path fill-rule="evenodd" clip-rule="evenodd" d="M228.648 104.113C228.648 104.804 228.435 105.479 228.037 106.053C227.638 106.627 227.071 107.075 226.408 107.338C225.746 107.602 225.017 107.67 224.313 107.534C223.61 107.398 222.965 107.064 222.459 106.575C221.953 106.085 221.61 105.462 221.472 104.784C221.334 104.106 221.408 103.404 221.685 102.766C221.962 102.129 222.428 101.585 223.026 101.203C223.624 100.822 224.326 100.62 225.043 100.623C226.001 100.627 226.918 100.997 227.593 101.651C228.269 102.305 228.648 103.19 228.648 104.113Z" fill="#6E78F1"/>
<path d="M232.288 157.647C232.004 133.782 196.752 100.622 166.124 95.3959C153.506 93.2571 136.732 95.1065 128.486 116.125L127.501 115.852C133.393 88.0789 157.679 73.7021 179.127 71.7723C199.723 69.9069 217.149 79.1698 224.96 95.991C228.632 83.1258 236.727 75.9052 246.942 76.4842C258.175 77.1274 268.157 87.0175 269.659 98.9982L268.657 99.1108C267.205 87.5804 257.641 78.0602 246.875 77.4491C236.744 76.8701 228.966 84.2194 225.578 97.6152L225.211 99.0786L224.61 97.6795C217.299 80.4241 199.907 70.8718 179.227 72.7211C159.632 74.4901 137.65 86.8245 129.988 110.448C139.068 93.8039 154.457 92.4048 166.308 94.3667C197.32 99.6575 233.072 133.332 233.306 157.583L232.288 157.647Z" fill="#00CA69"/>
<path opacity="0.75" fill-rule="evenodd" clip-rule="evenodd" d="M134.812 121.03C134.816 119.964 134.552 118.914 134.043 117.968C133.535 117.022 132.796 116.208 131.891 115.597C130.986 114.985 129.94 114.593 128.844 114.455C127.747 114.316 126.633 114.435 125.594 114.801C124.556 115.167 123.625 115.77 122.88 116.558C122.135 117.345 121.6 118.295 121.318 119.325C121.037 120.356 121.018 121.436 121.263 122.475C121.509 123.514 122.011 124.48 122.728 125.291L127.952 131.322L133.21 125.291C134.252 124.099 134.82 122.589 134.812 121.03Z" fill="white"/>
<path fill-rule="evenodd" clip-rule="evenodd" d="M131.574 121.028C131.578 121.718 131.368 122.395 130.972 122.971C130.576 123.547 130.012 123.996 129.35 124.263C128.689 124.53 127.96 124.601 127.256 124.468C126.552 124.335 125.906 124.004 125.397 123.517C124.889 123.029 124.543 122.408 124.401 121.73C124.26 121.053 124.331 120.351 124.605 119.712C124.878 119.073 125.343 118.527 125.939 118.143C126.534 117.759 127.235 117.554 127.952 117.554C128.91 117.554 129.829 117.919 130.508 118.57C131.186 119.221 131.57 120.105 131.574 121.028Z" fill="#9CA4FF"/>
<path opacity="0.75" fill-rule="evenodd" clip-rule="evenodd" d="M239.598 164.242C239.601 163.176 239.338 162.126 238.829 161.18C238.32 160.234 237.582 159.42 236.677 158.808C235.771 158.197 234.726 157.805 233.629 157.666C232.533 157.528 231.418 157.647 230.38 158.013C229.341 158.379 228.41 158.982 227.666 159.769C226.921 160.557 226.385 161.507 226.104 162.537C225.822 163.567 225.803 164.648 226.049 165.687C226.294 166.725 226.797 167.692 227.513 168.503L232.754 174.534L238.012 168.503C239.05 167.31 239.612 165.799 239.598 164.242Z" fill="white"/>
<path fill-rule="evenodd" clip-rule="evenodd" d="M236.36 164.24C236.363 164.931 236.153 165.608 235.756 166.184C235.36 166.761 234.794 167.21 234.132 167.477C233.469 167.743 232.74 167.813 232.035 167.679C231.331 167.545 230.684 167.212 230.177 166.723C229.669 166.234 229.324 165.611 229.185 164.932C229.046 164.254 229.119 163.551 229.395 162.913C229.671 162.274 230.138 161.73 230.736 161.347C231.334 160.965 232.037 160.763 232.755 160.766C233.709 160.77 234.624 161.137 235.299 161.788C235.974 162.438 236.355 163.32 236.36 164.24Z" fill="#9CA4FF"/>
<path opacity="0.5" fill-rule="evenodd" clip-rule="evenodd" d="M358.24 322.001L293.495 285.995C291.964 285.128 290.696 283.889 289.817 282.402C288.938 280.915 288.48 279.231 288.488 277.52V216.105C288.485 215.242 288.718 214.393 289.164 213.644C289.61 212.895 290.254 212.273 291.029 211.841C291.805 211.409 292.685 211.181 293.581 211.182C294.477 211.182 295.357 211.41 296.133 211.843L360.81 247.866C362.348 248.721 363.623 249.956 364.503 251.442C365.383 252.928 365.836 254.614 365.818 256.325V317.74C365.814 318.594 365.58 319.432 365.137 320.172C364.694 320.912 364.059 321.527 363.293 321.958C362.528 322.388 361.659 322.619 360.773 322.626C359.886 322.634 359.013 322.418 358.24 322.001Z" fill="#D5DBF7"/>
<path fill-rule="evenodd" clip-rule="evenodd" d="M327.644 289.546L318.18 284.288V259.506L327.644 264.765V289.546Z" fill="#00CA69"/>
<path fill-rule="evenodd" clip-rule="evenodd" d="M312.756 281.265L303.292 276.006V241.849L312.756 247.108V281.265Z" fill="#8B9AE2"/>
<path fill-rule="evenodd" clip-rule="evenodd" d="M342.533 297.828L333.086 292.57V242.396L342.533 247.654V297.828Z" fill="#00B15C"/>
<path opacity="0.5" fill-rule="evenodd" clip-rule="evenodd" d="M197.24 379.524L150.956 353.793C149.854 353.177 148.94 352.292 148.304 351.228C147.668 350.164 147.334 348.958 147.334 347.731V303.844C147.331 303.226 147.499 302.619 147.819 302.083C148.139 301.547 148.6 301.103 149.156 300.794C149.712 300.486 150.342 300.324 150.984 300.326C151.625 300.328 152.255 300.493 152.808 300.805L199.093 326.535C200.198 327.145 201.117 328.025 201.756 329.087C202.395 330.149 202.732 331.354 202.731 332.582V376.484C202.73 377.103 202.56 377.71 202.238 378.245C201.916 378.78 201.453 379.224 200.897 379.532C200.34 379.84 199.709 380.002 199.067 380C198.425 379.999 197.795 379.834 197.24 379.524Z" fill="#D5DBF7"/>
</svg>
