<svg width="480" height="380" viewBox="0 0 480 380" fill="none" xmlns="http://www.w3.org/2000/svg">
<path d="M377.174 31.431C297.535 13.6934 220.766 15.2929 140.308 26.0002C97.0196 31.7593 45.0777 39.7144 22.8456 83.3479C7.26348 113.924 25.643 122.261 35.5611 146.937C45.2004 170.941 25.2459 186.17 14.2972 204.649C2.64349 224.308 -4.86761 254.689 3.67635 276.741C37.2008 363.235 182.069 366.237 256.225 360.688C320.918 355.84 447.668 359.667 475.303 282.518C489.966 241.578 465.61 199.6 465.675 158.31C465.717 131.469 472.407 104.937 457.267 80.475C439.135 51.159 409.202 38.564 377.174 31.431Z" fill="#8B9AE2" fill-opacity="0.2"/>
<path d="M158.125 118.806C159.359 121.766 161.001 124.539 163.006 127.042L160.103 133.131L165.964 137.527L171.823 141.923L176.853 137.432C179.819 138.656 182.942 139.458 186.132 139.813L188.381 146.165L195.633 145.129L202.886 144.093L203.268 137.366C206.229 136.132 209.001 134.49 211.504 132.486L217.591 135.388L221.971 129.538L226.368 123.677L221.883 118.636C223.106 115.67 223.907 112.546 224.262 109.357L230.616 107.108L229.58 99.8556L228.544 92.6028L221.817 92.225C220.583 89.2647 218.939 86.4924 216.934 83.9891L219.837 77.9005L213.976 73.5064L208.118 69.1101L203.085 73.5992C200.119 72.3758 196.995 71.5742 193.806 71.2177L191.555 64.8662L184.309 65.9134L177.058 66.9495L176.683 73.6655C173.723 74.9001 170.951 76.5427 168.447 78.5456L162.361 75.6449L157.964 81.5037L153.568 87.3647L158.059 92.3973C156.835 95.3634 156.033 98.4868 155.678 101.676L149.317 103.912L150.353 111.162L151.387 118.415L158.125 118.806ZM186.337 80.1031C191.363 79.3855 196.489 80.1745 201.067 82.3702C205.645 84.566 209.469 88.0699 212.055 92.4389C214.642 96.8079 215.875 101.846 215.598 106.915C215.321 111.985 213.547 116.859 210.501 120.92C207.454 124.982 203.272 128.049 198.482 129.733C193.692 131.418 188.511 131.644 183.593 130.384C178.674 129.123 174.24 126.433 170.851 122.652C167.462 118.872 165.27 114.171 164.552 109.145C164.075 105.808 164.261 102.409 165.098 99.1437C165.935 95.878 167.407 92.8091 169.43 90.1123C171.453 87.4155 173.987 85.1435 176.888 83.4261C179.789 81.7087 183 80.5796 186.337 80.1031Z" fill="#B9C2EE"/>
<path d="M324.821 192C326.656 196.405 329.101 200.53 332.083 204.256L327.763 213.316L336.485 219.858L345.204 226.4L352.689 219.717C357.103 221.538 361.751 222.731 366.497 223.261L369.843 232.712L380.636 231.17L391.429 229.628L391.998 219.618C396.403 217.783 400.528 215.338 404.254 212.356L413.311 216.676L419.83 207.97L426.372 199.249L419.698 191.747C421.519 187.332 422.71 182.685 423.239 177.939L432.694 174.592L431.152 163.8L429.61 153.007L419.6 152.445C417.763 148.039 415.318 143.914 412.334 140.189L416.654 131.128L407.932 124.59L399.214 118.047L391.725 124.728C387.311 122.907 382.663 121.714 377.918 121.184L374.568 111.732L363.785 113.29L352.995 114.832L352.436 124.826C348.032 126.663 343.907 129.108 340.18 132.088L331.123 127.772L324.581 136.49L318.039 145.212L324.722 152.701C322.9 157.115 321.708 161.763 321.179 166.508L311.714 169.835L313.256 180.625L314.794 191.418L324.821 192ZM366.802 134.406C374.282 133.338 381.91 134.512 388.722 137.78C395.535 141.047 401.225 146.261 405.074 152.763C408.923 159.264 410.757 166.761 410.346 174.305C409.934 181.849 407.294 189.102 402.76 195.146C398.227 201.19 392.003 205.754 384.875 208.26C377.748 210.767 370.037 211.104 362.718 209.228C355.4 207.353 348.801 203.349 343.758 197.723C338.714 192.098 335.452 185.103 334.384 177.623C333.675 172.657 333.951 167.6 335.197 162.74C336.442 157.881 338.632 153.314 341.643 149.301C344.653 145.288 348.424 141.907 352.741 139.351C357.058 136.795 361.836 135.115 366.802 134.406Z" fill="#B9C2EE"/>
<path d="M1.23584 268.306C1.80498 271.182 2.61923 274.004 3.66964 276.741C37.2008 363.235 182.069 366.237 256.225 360.688C320.918 355.841 447.668 359.667 475.303 282.518C476.944 277.907 478.148 273.15 478.897 268.312L1.23584 268.306Z" fill="#8B9AE2"/>
<path d="M378.386 128.954C375.736 133.397 374.593 138.2 374.58 143.51C374.553 150.317 369.019 145.257 369.811 158.688C370.337 167.624 365.78 192.825 366.911 201.698L401.934 200.295C401.069 195.11 396.306 146.18 396.02 143.776C395.228 137.097 392.397 129.571 387.454 124.363C387.358 124.263 384.3 126.763 383.914 126.993C382.517 127.84 380.991 128.452 379.396 128.807C379.124 128.851 378.769 128.905 378.386 128.954Z" fill="#00CA69"/>
<path d="M340.55 140.819C341.837 140.537 349.221 143.448 349.894 141.402C350.459 139.686 348.933 136.873 348.933 136.873C344.752 129.935 335.457 117.735 331.466 113.417C327.544 109.172 327.272 115.651 327.272 115.651C329.82 121.955 334.063 132.562 340.55 140.819Z" fill="#FFE1BD"/>
<path d="M345.885 131.644C350.929 131.255 357.452 131.644 359.417 131.32C370.852 129.457 381.75 128.154 382.716 133.397C383.809 139.335 371.678 143.206 361.769 144.359C353.151 145.362 347.175 144.225 338.098 143.517C338.669 139.889 342.381 133.942 345.885 131.644Z" fill="#00CA69"/>
<path d="M324.151 102.504C324.807 102.629 325.538 102.839 325.712 103.009C327.7 104.955 329.096 106.583 330.118 109.197C330.439 110.021 334.818 120.603 335.046 120.557L330.205 120.396C327.249 116.276 323.653 112.548 321.86 107.754C321.17 105.909 321.398 101.977 324.151 102.504Z" fill="#FFE1BD"/>
<path d="M399.389 104.872C399.54 106.059 399.958 107.196 400.611 108.198C401.448 109.434 402.565 110.363 403.449 111.549C404.751 113.319 405.233 115.646 405.885 117.731C406.94 121.104 406.63 124.716 407.37 128.212C407.803 130.254 408.323 132.636 409.195 134.532C409.94 136.15 411.312 137.564 411.964 139.194C413.766 143.709 410.728 149.85 406.77 152.283C402.494 154.913 396.002 154.193 391.643 152.133C387.974 150.398 387.757 146.499 387.338 142.784C386.838 138.379 386.158 133.163 383.804 129.316C380.603 124.086 375.242 119.985 373.11 114.139C371.916 110.875 370.68 107.501 369.971 104.086C369.327 100.944 369.321 97.7042 369.955 94.5602C370.23 93.1707 370.448 90.9747 371.207 89.7729C371.965 88.571 373.201 88.2649 374.633 87.7288C376.514 87.0251 378.319 85.7741 380.257 85.2715C385.04 84.0316 391.208 87.7288 393.899 91.5265C395.46 93.7158 398.177 96.1217 398.775 98.7556C399.228 100.757 399.083 102.87 399.389 104.872Z" fill="#3B56D7"/>
<path d="M389.906 105.953C389.536 107.816 386.841 110.305 386.163 108.712C385.75 107.738 385.382 105.585 385.754 103.73C386.127 101.876 385.815 101.628 387.51 101.968C389.205 102.307 390.278 104.092 389.906 105.953Z" fill="#FFE1BD"/>
<path d="M386.439 112.159C386.153 108.406 375.162 115.385 375.162 115.385L376.338 129.709C376.338 129.709 376.454 129.133 381.859 129.262C385.152 129.338 387.947 129.18 387.782 126.099C387.681 124.193 386.539 113.459 386.439 112.159Z" fill="#FFE1BD"/>
<path d="M386.604 115.78C385.042 120.811 380.581 124.439 375.909 124.066L375.162 115.385C375.162 115.385 386.153 108.406 386.439 112.159C386.47 112.557 386.597 113.841 386.765 115.483C386.692 115.571 386.638 115.672 386.604 115.78Z" fill="#DFAC87"/>
<path d="M374.411 118.461C378.038 120.186 383.881 118.075 385.877 114.739C387.043 112.849 387.575 110.634 387.396 108.42C387.22 105.875 386.479 103.608 386.281 101.048C386.226 99.941 386.055 98.8432 385.77 97.7726C385.257 96.0475 384.248 94.5117 382.87 93.3561C381.511 92.2168 379.725 91.8973 378.067 91.3455C376.666 90.8831 375.073 90.2777 373.57 90.3715C372.533 90.4341 372.008 91.1892 371.301 91.8973C367.493 95.7464 366.748 102.62 367.832 107.727C368.629 111.538 370.677 116.685 374.411 118.461Z" fill="#FFE1BD"/>
<path d="M371.098 208.226C371.442 215.374 373.581 220.083 375.134 224.154C383.22 245.376 389.083 265.482 392.507 271.256C396.253 277.572 407.3 266.223 407.3 266.223C407.3 266.223 392.059 203.003 388.545 198.928C385.032 194.853 370.824 202.489 371.098 208.226Z" fill="#DBAAB5"/>
<path d="M371.098 208.226C371.441 215.374 373.58 220.083 375.133 224.154C383.22 245.376 389.082 265.482 392.507 271.257C396.252 277.572 408.225 268.799 408.225 268.799C408.225 268.799 394.699 203.385 391.186 199.323C387.672 195.262 370.823 202.489 371.098 208.226Z" fill="#323657"/>
<path d="M394.488 279.819C394.488 279.819 397.283 288.902 419.181 315.94C422.108 319.554 423.277 314.325 423.277 314.325C423.277 314.325 406.211 273.982 403.302 270.093C400.393 266.203 394.488 279.819 394.488 279.819Z" fill="#FFE1BD"/>
<path d="M402.166 302.17C394.468 288.185 391.75 270.119 391.75 270.119C391.75 270.119 404.937 264.345 407.846 268.223C409.316 270.182 414.623 281.821 419.589 293.067C415.723 294.988 402.206 302.159 402.166 302.17Z" fill="#323657"/>
<path d="M371.644 204.931C367.642 210.868 366.547 215.917 365.355 220.121C359.158 241.963 356.033 258.724 355.328 265.401C354.556 272.706 365.984 273.102 365.984 273.102C365.984 273.102 391.563 213.31 391.177 207.949C390.791 202.587 374.856 200.172 371.644 204.931Z" fill="#DBAAB5"/>
<path d="M355.558 279.654C355.558 279.654 353.997 289.362 362.445 323.128C363.573 327.643 367.107 323.104 367.107 323.104C367.107 323.104 368.555 285.415 367.553 280.659C366.551 275.903 355.558 279.654 355.558 279.654Z" fill="#FFE1BD"/>
<path d="M352.547 310.134C349.776 289.412 353.968 268.033 353.968 268.033C353.968 268.033 366.601 268.406 367.605 273.153C368.169 275.834 372.564 299.451 372.718 310.134H352.547Z" fill="#323657"/>
<path d="M355.724 254.832C357.39 245.516 359.569 236.299 362.251 227.223C365.294 216.92 367.866 207.884 372.086 198.03C373.171 195.499 371.738 184.749 373.389 183.652C377.237 181.097 387.073 184.215 392.318 185.252C393.569 185.5 394.363 186.145 395.441 186.815C397.203 187.932 399.53 193.922 400.125 195.919C401.749 201.352 400.527 208.13 397.636 212.747C395.322 216.447 393.139 220.224 391.013 224.033C389.188 227.306 386.926 230.228 385.052 233.516C380.869 240.85 378.15 248.828 375.098 256.716C374.065 259.383 367.513 272.036 367.475 273.888C367.315 283.679 358.575 269.764 355.574 268.886C353.845 268.381 353.946 268.062 354.05 266.205C354.131 264.785 354.336 263.368 354.548 261.961C354.908 259.569 355.3 257.193 355.724 254.832Z" fill="#323657"/>
<path d="M372.599 188.703C371.752 171.754 368.461 146.819 370.592 144.408C374.346 140.164 374.522 130.891 377.239 127.488C381.304 122.404 384.824 120.014 389.893 127.377C391.615 129.872 393.743 144.835 394.149 146.705C395.041 150.847 395.392 171.484 396.413 188.107L372.599 188.703Z" fill="#FFE1BD"/>
<path d="M372.6 188.703C371.723 176.291 370.889 166.024 369.811 158.688C369.485 156.465 368.809 154.314 368.441 152.122C368.1 150.096 369.061 147.308 369.876 145.478C370.69 143.649 371.576 141.75 372.365 139.865C373.155 137.979 373.748 136.091 374.355 134.175C374.543 133.578 375.549 129.24 376.14 129.189C376.205 129.189 378.469 128.99 379.366 128.798C380.96 128.443 382.486 127.83 383.883 126.984C384.269 126.76 387.327 124.254 387.423 124.354C392.367 129.562 395.197 137.088 395.989 143.767C396.275 146.18 395.844 183.053 396.712 188.238L372.6 188.703Z" fill="white"/>
<path d="M378.386 128.954C375.736 133.397 374.594 138.2 374.58 143.51C374.556 149.627 374.803 155.797 375.156 161.909C375.682 170.845 377.099 191.786 378.219 200.659L401.912 200.291C401.047 195.106 396.284 146.175 395.998 143.772C395.206 137.092 392.375 129.566 387.432 124.359C387.336 124.258 384.278 126.758 383.892 126.988C382.494 127.835 380.969 128.448 379.374 128.802C379.124 128.851 378.77 128.905 378.386 128.954Z" fill="white"/>
<path d="M378.386 128.954C375.736 133.397 374.594 138.2 374.58 143.51C374.556 149.627 374.803 155.797 375.156 161.909C375.682 170.845 377.099 191.786 378.219 200.659L401.912 200.291C401.047 195.106 396.284 146.175 395.998 143.772C395.206 137.092 392.375 129.566 387.432 124.359C387.336 124.258 384.278 126.758 383.892 126.988C382.494 127.835 380.969 128.448 379.374 128.802C379.124 128.851 378.77 128.905 378.386 128.954Z" fill="#00CA69"/>
<path d="M378.559 83.7523C376.853 84.1321 375.14 84.9006 373.469 85.2714C370.912 86.0354 367 88.4592 365.648 90.8071C360.541 99.5888 376.737 99.5575 380.257 102.223C381.373 103.06 381.968 104.2 382.918 105.013C385.125 106.905 385.843 104.899 386.189 102.98C386.104 103.455 386.206 103.098 386.494 101.908C387.123 99.3006 387.108 97.1716 388.623 94.902C389.961 92.907 390.472 89.2836 389.08 87.1837C387.447 84.7263 383.445 83.6674 380.674 83.5378C379.963 83.5141 379.252 83.5863 378.559 83.7523Z" fill="#3B56D7"/>
<path d="M350.872 326.019C352.21 325.825 352.618 326.019 353.955 325.796C355.28 325.563 356.563 325.134 357.763 324.525C359.141 323.777 360.451 322.907 361.675 321.927C361.799 321.83 361.929 321.741 362.064 321.661C363.868 322.494 364.901 322.441 366.833 321.621C366.991 321.562 367.122 321.449 367.203 321.301C367.26 321.346 367.311 321.397 367.355 321.453C367.665 321.851 367.721 322.398 367.801 322.878C367.937 323.772 368.357 327.494 368.174 328.376C367.915 329.623 361.14 331.108 358.918 331.247C355.924 331.432 353.64 331.557 350.684 331.079C347.795 330.606 348.612 326.35 350.872 326.019Z" fill="#202443"/>
<path d="M408.72 321.493C409.903 320.846 410.356 320.875 411.533 320.204C412.693 319.524 413.745 318.676 414.657 317.687C415.69 316.506 416.616 315.235 417.425 313.889C417.506 313.755 417.596 313.626 417.695 313.505C419.676 313.659 420.626 313.248 422.157 311.807C422.279 311.695 422.358 311.543 422.38 311.378C422.448 311.4 422.514 311.43 422.576 311.468C423.004 311.731 423.245 312.227 423.482 312.652C423.928 313.445 425.605 316.787 425.739 317.676C425.929 318.936 420.093 322.686 418.056 323.591C415.315 324.809 413.218 325.72 410.28 326.301C407.429 326.864 406.719 322.588 408.72 321.493Z" fill="#202443"/>
<path d="M146.94 166.138C147.96 164.813 151.565 161.398 153.889 162.229C155.837 162.924 156.042 163.929 156.04 163.927C160.133 174.524 163.076 184.459 164.807 192.724C166.509 200.854 160.254 195.999 160.254 195.999C155.794 187.87 150.925 180.574 146.94 166.138Z" fill="#FFE1BD"/>
<path d="M152.56 162.937C150.945 146.312 147.639 144.949 144.752 137.023C140.514 125.407 128.376 113.623 124.731 120.715C122.946 124.194 142.472 159.946 145.254 166.735C147.585 166.411 149.825 163.799 152.56 162.937Z" fill="#DBAAB5"/>
<path d="M144.206 168.815C141.721 163.158 131.385 140.443 130.239 138.35C123.546 126.191 120.272 120.988 125.538 116.315C131.506 111.022 140.262 124.133 145.651 134.926C149.221 142.054 150.8 145.872 154.59 159.655C154.677 163.96 148.119 171.375 144.206 168.815Z" fill="#00CA69"/>
<path d="M166.674 196.7C165.706 195.079 164.796 193.83 163.018 192.981L162.873 193.044C162.937 193.233 163 193.426 163.065 193.618C163.065 193.618 162.708 193.126 163.14 193.841L163.201 194.015C162.614 193.568 161.969 193.37 161.282 193.732C159.025 194.924 160.655 198.269 161.282 199.973C161.838 201.35 162.544 202.661 163.386 203.883C163.785 204.497 165.454 206.776 166.364 206.608C167.453 206.409 169.554 205.471 169.46 204.557C169.413 204.099 166.812 199.835 166.56 199.629C167.174 200.15 167.823 201.164 168.746 201.121C169.67 201.079 167.441 197.724 166.674 196.7Z" fill="#FFE1BD"/>
<path d="M164.548 190.955C162.786 182.987 159.179 167.617 154.287 159.061C151.625 157.558 152.033 160.459 150.084 159.763C147.759 158.934 144.382 165.171 143.362 166.496C146.967 179.555 154.347 186.241 158.443 193.526L164.548 190.955Z" fill="#00CA69"/>
<path d="M156.698 190.602C157.316 191.601 157.898 192.57 158.434 193.506L164.548 190.944C164.305 189.84 164.038 188.694 163.752 187.519L156.698 190.602Z" fill="white"/>
<path d="M331.863 298.021L284.608 318.766H141.95V198.635H309.735L331.863 298.021Z" fill="#8094F1"/>
<path d="M141.95 297.21V318.766H284.608L331.863 298.021L331.682 297.21H141.95Z" fill="#4A41A3"/>
<path d="M284.608 318.766H116.823L141.382 198.635H309.167L284.608 318.766Z" fill="white"/>
<path opacity="0.7" d="M231.577 303.445L248.482 225.313L231.606 225.302L215.105 303.445H231.577Z" fill="#3B56D7"/>
<path d="M254.195 303.445L273.908 215.229L256.986 215.218L237.727 303.445H254.195Z" fill="#00CA69"/>
<path d="M209.226 303.445L221.674 243.973L204.89 243.964L192.748 303.445H209.226Z" fill="#8FA6D6"/>
<path opacity="0.7" d="M163.73 303.445L168.41 279.442L151.795 279.437L147.237 303.445H163.73Z" fill="#BBC7FF"/>
<path d="M185.712 303.446L194.247 261.175L177.543 261.17L169.227 303.446H185.712Z" fill="#BBC7FF"/>
<g opacity="0.7">
<path opacity="0.7" d="M275.122 311.048H129.228C129.041 311.048 128.856 311.007 128.688 310.926C128.519 310.846 128.37 310.729 128.253 310.584C128.135 310.439 128.051 310.269 128.008 310.087C127.964 309.905 127.962 309.716 128.001 309.533L149.479 208.069C149.505 207.901 149.566 207.739 149.656 207.594C149.747 207.45 149.867 207.325 150.007 207.228C150.147 207.131 150.306 207.064 150.473 207.031C150.641 206.997 150.813 206.998 150.98 207.034C151.147 207.069 151.305 207.138 151.444 207.237C151.583 207.335 151.701 207.461 151.79 207.607C151.879 207.752 151.938 207.914 151.963 208.083C151.987 208.253 151.977 208.425 151.933 208.59L130.774 308.537H275.124C275.457 308.537 275.775 308.669 276.011 308.904C276.246 309.14 276.378 309.459 276.378 309.792C276.378 310.125 276.246 310.444 276.011 310.68C275.775 310.915 275.457 311.048 275.124 311.048H275.122Z" fill="#AEB3EE"/>
</g>
<path d="M126.237 70.2571C123.87 69.2943 121.356 69.3858 118.915 69.9957C117.906 70.2795 116.867 70.4482 115.819 70.4984C111.875 70.657 109.796 76.0363 109.35 79.3113C109.113 81.1118 109.432 83.0152 109.548 84.8135C109.852 89.5338 112.448 94.8372 117.537 95.7487C120.776 96.3295 124.472 95.3019 127.02 93.2355C133.396 88.0617 135.194 73.9051 126.237 70.2571Z" fill="#3B56D7"/>
<path d="M51.5962 193.622V204.468H53.8047V196.24H67.6869V204.468H69.8976V193.622H51.5962Z" fill="#2A2B3C"/>
<path d="M104.283 267.086C104.283 267.086 99.7368 278.727 109.113 316.197C109.862 319.197 112.196 319.007 113.445 318.04C114.282 317.392 114.286 316.17 114.286 316.17C114.286 316.17 118.705 273.479 117.592 268.212C116.479 262.944 104.283 267.086 104.283 267.086Z" fill="#DBAAB5"/>
<path d="M116.347 180.906H94.6172C94.6172 181.003 94.6172 181.101 94.6172 181.192C94.6321 185.362 94.6663 189.527 94.7198 193.687C94.8626 204.222 94.6283 201.506 95.2373 212.03C95.7571 220.977 102.287 261.623 103.224 263.799C104.174 266 103.721 269.999 105.613 271.663C108.622 274.308 114.507 275.709 117.032 272.405C118.739 270.171 117.969 258.724 118.279 255.873C118.543 253.456 118.534 250.979 118.643 248.725C119.089 239.644 118.473 230.54 118.438 221.455C118.389 208.726 118.353 196.437 116.347 180.906Z" fill="#323657"/>
<path d="M126.957 320.044C125.478 319.82 125.018 320.044 123.535 319.787C122.064 319.529 120.641 319.054 119.31 318.377C118 317.725 116.091 316.393 114.966 315.493C114.83 315.385 114.686 315.287 114.536 315.2C112.528 316.125 111.388 316.063 109.244 315.154C109.069 315.089 108.923 314.963 108.834 314.798C108.771 314.849 108.714 314.907 108.664 314.97C108.321 315.417 108.26 316.016 108.178 316.55C108.028 317.544 107.562 321.672 107.765 322.651C108.053 324.033 115.573 325.682 118.027 325.834C121.346 326.042 123.881 326.18 127.16 325.649C130.37 325.13 129.462 320.41 126.957 320.044Z" fill="#202443"/>
<path d="M112.336 88.5018C112.783 90.5615 115.796 93.2846 116.528 91.5086C116.974 90.4229 117.351 88.0371 116.914 85.9752C116.477 83.9132 116.818 83.6452 114.942 84.045C113.066 84.4449 111.899 86.4398 112.336 88.5018Z" fill="#FFE1BD"/>
<path d="M116.104 93.0991C117.329 89.1048 127.528 99.343 127.528 99.343L122.77 114.563C122.77 114.563 122.785 113.913 116.903 112.731C113.316 112.012 110.844 112.635 111.772 109.34C112.345 107.303 115.68 94.4819 116.104 93.0991Z" fill="#FFE1BD"/>
<path d="M115.044 96.9794C115.504 102.806 119.454 107.823 124.605 108.56L127.528 99.343C127.528 99.343 117.333 89.1048 116.104 93.0991C115.974 93.5235 116.327 92.268 115.758 94.0061C115.811 94.1088 115.033 96.8409 115.044 96.9794Z" fill="#DFAC87"/>
<path d="M129.701 102.164C125.698 104.128 119.189 101.867 116.927 98.1946C115.609 96.1118 114.988 93.6624 115.156 91.2023C115.314 88.3741 116.108 85.8408 116.289 83.0104C116.334 81.7817 116.509 80.5613 116.809 79.3691C117.358 77.4461 118.461 75.7275 119.979 74.4276C121.471 73.1431 123.45 72.7678 125.279 72.1378C126.841 71.6039 128.587 70.9113 130.256 70.9918C131.409 71.0476 132.005 71.8853 132.795 72.6538C137.073 76.8737 137.992 84.4937 136.861 90.1702C136.02 94.4013 133.821 100.143 129.701 102.164Z" fill="#FFE1BD"/>
<path d="M88.6049 265.826C88.6049 265.826 93.1513 277.467 83.7752 314.937C83.0234 317.937 80.69 317.745 79.4408 316.78C78.6042 316.132 78.5997 314.91 78.5997 314.91C78.5997 314.91 76.3466 271.446 77.4598 266.179C78.573 260.911 88.6049 265.826 88.6049 265.826Z" fill="#DBAAB5"/>
<path d="M77.2504 180.906C76.8145 181.793 76.508 182.738 76.3402 183.712C74.4708 197.925 74.4976 207.361 74.4462 220.195C74.4106 229.278 75.4055 257.39 75.9565 267.948C76.1796 272.105 85.4062 275.052 88.4155 272.416C90.3072 270.751 91.6345 269.326 92.5849 267.126C93.5352 264.925 96.9215 216.598 97.4413 207.647C98.0503 197.129 98.0213 202.956 98.1641 192.425C98.2161 188.587 98.2481 184.747 98.26 180.906H77.2504Z" fill="#323657"/>
<path d="M115.188 175.103C120.234 156.952 129.862 130.77 128.14 127.638C125.108 122.127 130.089 126.883 127.977 122.538C124.816 116.039 112.428 107.209 105.138 113.937C102.666 116.218 102.972 122.451 102.077 124.377C100.094 128.641 94.7022 150.898 89.5513 168.644L115.188 175.103Z" fill="#DBAAB5"/>
<path d="M126.926 112.108C125.928 111.492 124.884 110.957 123.803 110.506C120.378 112.441 114.88 110.542 112.553 107.707C112.489 107.627 112.433 107.542 112.383 107.452C111.305 107.272 110.207 107.105 109.088 106.952C106.144 106.632 102.594 106.728 100.495 107.443C91.8956 110.403 90.865 120.586 90.4255 123.286C88.3263 136.181 81.5023 158.1 78.7071 170.199C76.3648 180.237 74.3169 194.036 74.3169 194.036L120.233 204.379C121.159 203.878 133.23 141.448 134.711 132.314C136.683 120.11 132.34 115.506 126.926 112.108Z" fill="#00CA69"/>
<path d="M67.9077 153.137C69.5116 152.67 74.435 152.046 75.8225 154.09C76.9848 155.804 76.5565 156.735 76.5565 156.733C73.6074 167.706 70.1229 177.462 66.6451 185.156C63.2252 192.724 61.0391 185.104 61.0391 185.104C62.2325 175.909 62.6095 167.141 67.9077 153.137Z" fill="#FFE1BD"/>
<path d="M70.9822 158.632C70.2751 158.393 66.9066 156.161 67.9082 153.136C74.179 134.195 78.8123 129.68 83.8852 122.169C90.8007 111.934 101.468 103.873 105.97 110.455C109.95 116.263 94.7581 123.501 85.5917 139.165C84.0993 141.712 79.8474 149.665 73.6213 157.073C73.3869 157.567 73.0103 157.979 72.5401 158.257C72.0698 158.535 71.5273 158.665 70.9822 158.632Z" fill="#DBAAB5"/>
<path d="M75.8162 157.564C79.593 152.679 94.1333 128.539 95.7507 126.794C105.18 116.616 109.974 115.579 105.994 109.769C101.495 103.183 89.8056 112.244 82.0424 121.486C75.2942 129.528 71.6603 136.885 65.8691 150.722C64.7448 154.877 71.3993 159.099 75.8162 157.564Z" fill="#00CA69"/>
<path d="M96.2009 320.506C94.7219 320.283 94.2624 320.495 92.7789 320.251C91.3091 319.993 89.8859 319.517 88.556 318.839C87.2443 318.189 85.337 316.858 84.2126 315.958C84.076 315.85 83.9322 315.751 83.7821 315.663C81.7744 316.588 80.6322 316.527 78.4884 315.618C78.3141 315.552 78.1687 315.426 78.0779 315.263C78.0149 315.313 77.958 315.37 77.9084 315.433C77.5649 315.88 77.5046 316.48 77.4243 317.014C77.2749 318.008 76.8064 322.137 77.0116 323.113C77.2972 324.498 84.8194 326.145 87.2733 326.299C90.5949 326.504 93.1291 326.645 96.4084 326.113C99.614 325.595 98.7083 320.872 96.2009 320.506Z" fill="#202443"/>
<path d="M115.368 316.201C116.573 303.729 118.413 272.094 117.599 268.214C116.483 262.946 104.29 267.097 104.29 267.097C104.29 267.097 98.8489 278.765 108.51 315.931L115.368 316.201Z" fill="#323657"/>
<path d="M84.8354 316.272C92.6008 282.699 92.9599 263.375 92.9599 263.375C92.9599 263.375 75.7047 256.992 76.1531 266.739C76.3427 270.838 76.7376 303.412 77.5362 316.438L84.8354 316.272Z" fill="#323657"/>
<path d="M82.7828 203.722H42.4478V239.206H82.7828V203.722Z" fill="#131521"/>
<path d="M80.5411 203.722H40.2061V239.206H80.5411V203.722Z" fill="#2A2B3C"/>
<path d="M80.5411 203.722H40.2061V219.945H80.5411V203.722Z" fill="#38394F"/>
<path d="M65.8016 189.469C65.9756 187.588 65.98 186.04 65.0453 184.304L64.8914 184.269C64.8312 184.463 64.7709 184.655 64.7085 184.847C64.7085 184.847 64.7085 184.237 64.6371 185.071L64.5835 185.245C64.3783 184.535 63.9701 183.996 63.2027 183.882C60.6774 183.507 60.0216 187.173 59.5286 188.924C59.1292 190.347 58.9976 191.853 58.9196 193.323C58.8303 195.007 59.8431 195.972 60.9273 197.223C61.4314 197.398 64.6237 198.358 64.5791 196.951C64.5791 196.71 63.6176 196.08 63.4882 195.711C62.9662 194.219 63.8251 192.97 64.0214 191.569C64.3002 192.389 64.0638 193.723 64.8892 194.27C65.7146 194.817 65.8239 190.747 65.8016 189.469Z" fill="#FFE1BD"/>
<path d="M61.9607 220.173C61.9607 220.345 61.9268 220.515 61.8611 220.674C61.7954 220.832 61.6992 220.977 61.5778 221.098C61.4564 221.22 61.3123 221.316 61.1537 221.382C60.9951 221.448 60.8251 221.482 60.6534 221.482H56.5465C56.1998 221.482 55.8673 221.344 55.6221 221.098C55.377 220.853 55.2393 220.52 55.2393 220.173C55.2393 219.825 55.377 219.492 55.6221 219.247C55.8673 219.001 56.1998 218.864 56.5465 218.864H60.6534C61.0001 218.864 61.3326 219.001 61.5778 219.247C61.8229 219.492 61.9607 219.825 61.9607 220.173Z" fill="#F9B253"/>
<path d="M67.4792 183.576C71.367 174.614 74.5946 165.38 77.1364 155.947C77.1364 155.947 76.9847 155.804 75.8224 154.09C74.4349 152.037 67.8205 149.566 66.2166 150.027C61.4226 162.698 62.0205 173.727 61.0322 182.019L67.4792 183.576Z" fill="#00CA69"/>
<path d="M61.3535 178.648C61.262 179.816 61.1616 180.947 61.0322 182.026L67.4792 183.576C67.9343 182.534 68.3931 181.455 68.8556 180.339L61.3535 178.648Z" fill="white"/>
<path d="M112.827 158.974C112.827 158.974 105.566 170.825 104.241 170.59C102.668 170.309 101.983 156.534 101.983 156.534L115.326 114.194L118.895 114.994L112.827 158.974Z" fill="#3B56D7"/>
<path d="M120.903 113.289C120.456 115.231 118.705 116.484 116.97 116.093C115.234 115.702 114.181 113.812 114.618 111.873C115.056 109.934 117.043 108.299 118.779 108.69C120.514 109.081 121.331 111.35 120.903 113.289Z" fill="#3B56D7"/>
<path d="M113.764 103.25L118.77 108.699L112.77 114.534L107.442 106.715C107.442 106.715 110.612 102.826 113.764 103.25Z" fill="white"/>
<path d="M118.77 108.699L120.331 116.238L128.157 112.923C128.157 112.923 127.804 108.531 125.085 107.439L118.77 108.699Z" fill="white"/>
<path d="M141.567 70.7216C141.866 68.7111 140.675 68.4229 138.923 68.2956C137.212 68.1727 135.466 68.2956 133.748 67.9873C131.838 67.6455 130.275 66.8994 128.512 66.2001C125.469 64.9871 122.027 65.0631 118.817 65.9187C114.001 67.2009 109.702 74.086 109.379 79.1727C109.272 80.8526 109.99 80.6136 110.98 81.974C111.427 82.5928 112.04 83.3792 112.698 83.7947C113.278 84.1588 114.211 84.0583 114.887 84.1387C115.237 83.8304 115.835 84.6704 116.002 85.0323C116.256 85.6221 116.256 86.6743 117.164 86.6117C117.978 86.5536 118.46 85.6399 118.692 84.9765C119.183 83.5646 119.308 82.0723 119.685 80.6292C120.459 77.667 123.196 78.2813 125.646 78.3774C129.844 78.5427 133.677 78.8063 137.647 76.8896C139.829 75.824 141.221 73.0427 141.567 70.7216Z" fill="#3B56D7"/>
<path d="M333.08 75.9936L344.045 82.9792L314.884 124.846L284.911 106.284C284.166 105.823 283.275 105.662 282.417 105.835C281.559 106.008 280.799 106.5 280.291 107.213L254.973 142.724L207.79 109.592C207.411 109.326 206.982 109.139 206.529 109.042C206.076 108.945 205.609 108.941 205.154 109.029C204.7 109.117 204.268 109.296 203.884 109.555C203.5 109.814 203.172 110.148 202.92 110.537L182.918 141.334C179.349 146.839 175.383 152.281 172.211 158.013C171.608 160.372 171.829 161.254 172.447 162.336C173.562 164.279 176.262 164.246 177.685 162.056L206.752 117.295L253.822 150.342C254.567 150.864 255.487 151.071 256.383 150.918C257.279 150.764 258.078 150.262 258.607 149.522L284.038 113.855L314.043 132.437C314.792 132.901 315.691 133.06 316.555 132.882C317.418 132.703 318.18 132.2 318.685 131.476L349.878 86.6898L361.532 94.1154L362.823 58.3008L333.08 75.9936Z" fill="#00B15C"/>
<path d="M343.587 154.765C344.609 153.932 348.633 158.833 354.982 152.102C356.223 150.789 349.285 147.451 349.287 147.453C342.427 143.153 328.628 136.478 323.122 134.434C317.706 132.423 320.385 138.316 320.385 138.316C325.504 142.795 334.075 150.335 343.587 154.765Z" fill="#FFE1BD"/>
<path d="M347.809 144.969C352.48 143.023 388.014 129.24 390.566 133.918C393.466 139.219 389.344 144.621 374.081 150.88C366.05 154.171 357.573 155.067 348.719 157.229C348.132 153.601 345.194 148.24 347.809 144.969Z" fill="#00CA69"/>
<path d="M311.67 128.007C312.312 127.821 313.059 127.678 313.291 127.752C315.942 128.587 317.916 129.398 320.013 131.277C320.682 131.867 329.351 139.319 329.534 139.181L325.144 141.227C320.651 138.89 315.759 137.193 311.997 133.728C310.547 132.392 308.975 128.782 311.67 128.007Z" fill="#FFE1BD"/>
</svg>
