<svg width="480" height="380" viewBox="0 0 480 380" fill="none" xmlns="http://www.w3.org/2000/svg">
<path d="M12.0978 163.094C13.7916 167.16 16.0479 170.967 18.8006 174.406L14.8135 182.768L22.8635 188.807L30.9105 194.845L37.8196 188.676C41.8936 190.358 46.1835 191.459 50.5637 191.947L53.6526 200.671L63.6142 199.248L73.5758 197.825L74.1008 188.585C78.1665 186.891 81.9743 184.635 85.4127 181.882L93.7722 185.869L99.7892 177.835L105.827 169.785L99.6678 162.86C101.348 158.786 102.448 154.496 102.936 150.116L111.662 147.027L110.239 137.066L108.816 127.104L99.5768 126.585C97.8819 122.519 95.6246 118.712 92.871 115.273L96.8581 106.911L88.808 100.875L80.7611 94.8372L73.8489 101.003C69.7745 99.3226 65.4848 98.2216 61.1048 97.7319L58.0129 89.0083L48.0604 90.4466L38.1018 91.8696L37.5859 101.094C33.5211 102.79 29.7136 105.046 26.274 107.797L17.9145 103.813L11.8763 111.86L5.838 119.91L12.0067 126.822C10.3251 130.896 9.22397 135.186 8.73577 139.566L0 142.637L1.42309 152.595L2.84314 162.557L12.0978 163.094ZM50.8459 109.936C57.7493 108.95 64.79 110.034 71.0776 113.05C77.3652 116.066 82.6173 120.878 86.1697 126.879C89.7222 132.88 91.4154 139.799 91.0353 146.762C90.6553 153.725 88.2189 160.419 84.0345 165.998C79.85 171.576 74.1053 175.789 67.5268 178.102C60.9483 180.416 53.8315 180.727 47.0763 178.996C40.3212 177.264 34.2311 173.569 29.5761 168.377C24.9211 163.184 21.9104 156.728 20.9246 149.825C20.27 145.241 20.5247 140.573 21.6742 136.088C22.8236 131.602 24.8453 127.387 27.6238 123.683C30.4022 119.979 33.8831 116.859 37.8675 114.5C41.852 112.141 46.262 110.59 50.8459 109.936Z" fill="#5D6FC3"/>
<path d="M365.11 149.139C366.791 153.21 369.036 157.025 371.779 160.471L367.767 168.822L375.799 174.884L383.828 180.946L390.756 174.798C394.825 176.491 399.111 177.605 403.49 178.106L406.553 186.839L416.519 185.446L426.485 184.052L427.037 174.814C431.108 173.132 434.922 170.887 438.369 168.145L446.716 172.157L452.757 164.14L458.819 156.108L452.68 149.165C454.372 145.096 455.485 140.809 455.986 136.431L464.721 133.368L463.328 123.402L461.934 113.436L452.696 112.89C451.014 108.819 448.768 105.005 446.024 101.558L450.036 93.2076L442.004 87.1485L433.975 81.0865L427.044 87.2317C422.975 85.5393 418.689 84.4256 414.31 83.9229L411.244 75.1902L401.287 76.599L391.325 77.9925L390.781 87.2153C386.712 88.8989 382.897 91.1438 379.45 93.8845L371.102 89.8757L365.04 97.9047L358.978 105.937L365.126 112.867C363.432 116.936 362.319 121.223 361.817 125.602L353.073 128.646L354.466 138.609L355.857 148.575L365.11 149.139ZM404.015 96.0965C410.921 95.1313 417.959 96.2358 424.237 99.2703C430.516 102.305 435.754 107.133 439.289 113.144C442.823 119.155 444.496 126.08 444.095 133.042C443.695 140.004 441.238 146.69 437.037 152.256C432.836 157.823 427.079 162.018 420.494 164.312C413.909 166.606 406.791 166.896 400.041 165.145C393.291 163.393 387.212 159.68 382.572 154.474C377.933 149.268 374.941 142.803 373.976 135.897C373.335 131.311 373.603 126.644 374.766 122.162C375.929 117.68 377.963 113.471 380.752 109.775C383.542 106.079 387.032 102.969 391.023 100.622C395.015 98.2751 399.429 96.7373 404.015 96.0965Z" fill="#5D6FC3"/>
<rect x="403.152" width="11.9867" height="12.4861" fill="#C9D1F4"/>
<rect x="403.152" y="161.44" width="11.9867" height="12.4861" fill="#C9D1F4"/>
<path opacity="0.45" d="M230.064 376.843C229.875 380.349 189.43 381.038 139.715 378.391C90.0002 375.744 49.8149 370.739 50.0447 367.233C50.2744 363.727 90.6795 363.038 140.394 365.695C190.109 368.352 230.254 373.317 230.064 376.843Z" fill="#EBEBEB"/>
<path d="M217.629 377.841L71.2422 363.967L40.2766 353.918L72.5807 349.873L219.008 363.687C224.302 364.187 227.498 367.683 227.129 371.568C226.729 375.454 222.933 378.291 217.629 377.841Z" fill="#00CA69"/>
<path d="M71.251 363.967L40.2954 353.918L72.5795 349.853L71.251 363.967Z" fill="white"/>
<path d="M55.1589 352.05L40.2954 353.918L54.5496 358.543L55.1589 352.05Z" fill="#202443"/>
<path d="M218.946 363.69L199.772 361.877L198.439 375.989L217.612 377.801L218.946 363.69Z" fill="white"/>
<path d="M212.381 363.069L206.345 362.499L205.011 376.61L211.047 377.18L212.381 363.069Z" fill="#00B15C"/>
<path opacity="0.2" d="M55.698 264.318C86.4592 264.318 111.396 260.217 111.396 255.158C111.396 250.099 86.4592 245.998 55.698 245.998C24.9369 245.998 0 250.099 0 255.158C0 260.217 24.9369 264.318 55.698 264.318Z" fill="#EBEBEB"/>
<path d="M280.18 310.216H183.601L194.093 268.965L196.454 259.609L201.088 241.493H262.693L267.327 259.609L269.688 268.965L280.18 310.216Z" fill="#5D6FC3"/>
<path d="M317.269 321.599H146.511C144.545 321.599 142.659 320.818 141.268 319.428C139.878 318.037 139.097 316.151 139.097 314.185C139.097 312.218 139.878 310.333 141.268 308.942C142.659 307.552 144.545 306.771 146.511 306.771H317.269C318.244 306.768 319.21 306.958 320.112 307.33C321.014 307.701 321.833 308.247 322.523 308.936C323.214 309.625 323.761 310.443 324.135 311.344C324.509 312.244 324.701 313.21 324.701 314.185C324.701 315.16 324.509 316.126 324.135 317.026C323.761 317.927 323.214 318.745 322.523 319.434C321.833 320.123 321.014 320.668 320.112 321.04C319.21 321.412 318.244 321.602 317.269 321.599Z" fill="#8B9AE2"/>
<path d="M406.508 35.8123H57.4162C52.8759 35.8123 49.1953 39.4929 49.1953 44.0331V251.942C49.1953 256.482 52.8759 260.163 57.4162 260.163H406.508C411.048 260.163 414.729 256.482 414.729 251.942V44.0331C414.729 39.4929 411.048 35.8123 406.508 35.8123Z" fill="#8B9AE2"/>
<path d="M407.616 53.2026H56.3675C52.4064 53.2026 49.1953 56.2401 49.1953 59.987V220.225C49.1953 223.972 52.4064 227.009 56.3675 227.009H407.616C411.577 227.009 414.789 223.972 414.789 220.225V59.987C414.789 56.2401 411.577 53.2026 407.616 53.2026Z" fill="#C9D1F4"/>
<rect x="49.1953" y="53.2026" width="11.9867" height="12.4861" fill="#C9D1F4"/>
<rect x="49.1953" y="214.523" width="11.9867" height="12.4861" fill="#C9D1F4"/>
<path opacity="0.3" d="M81.1605 227.099H382.825L391.705 53.4619C391.296 53.3864 390.882 53.3463 390.466 53.342H73.5589C73.1434 53.3463 72.729 53.3864 72.3203 53.4619L81.1605 227.099Z" fill="#5D6FC3"/>
<path d="M382.766 2.86865H81.2312V227.129H382.766V2.86865Z" fill="white"/>
<path d="M253.598 137.639H241.551C238.682 137.639 236.357 139.964 236.357 142.833V154.879C236.357 157.748 238.682 160.074 241.551 160.074H253.598C256.466 160.074 258.792 157.748 258.792 154.879V142.833C258.792 139.964 256.466 137.639 253.598 137.639Z" fill="#3B56D7"/>
<path d="M290.607 137.639H278.56C275.692 137.639 273.366 139.964 273.366 142.833V154.879C273.366 157.748 275.692 160.074 278.56 160.074H290.607C293.476 160.074 295.801 157.748 295.801 154.879V142.833C295.801 139.964 293.476 137.639 290.607 137.639Z" fill="#8B9AE2"/>
<path d="M364.625 137.639H352.579C349.71 137.639 347.384 139.964 347.384 142.833V154.879C347.384 157.748 349.71 160.074 352.579 160.074H364.625C367.494 160.074 369.819 157.748 369.819 154.879V142.833C369.819 139.964 367.494 137.639 364.625 137.639Z" fill="#8B9AE2"/>
<path d="M327.617 137.639H315.57C312.702 137.639 310.376 139.964 310.376 142.833V154.879C310.376 157.748 312.702 160.074 315.57 160.074H327.617C330.486 160.074 332.811 157.748 332.811 154.879V142.833C332.811 139.964 330.486 137.639 327.617 137.639Z" fill="#00B15C"/>
<path d="M176.675 198.49H160.952L154.929 227.099H183.547L176.675 198.49Z" fill="#C5E7FF"/>
<path d="M128.079 140.246H94.4866V227.099H128.079V140.246Z" fill="#C5E7FF"/>
<path d="M157.695 227.099H124.102L135.579 180.381H151.122L157.695 227.099Z" fill="#C5E7FF"/>
<path d="M227.787 64.8894H94.1362V126.801H227.787V64.8894Z" fill="#00B15C"/>
<path d="M125.113 114.994C135.688 114.994 144.261 106.421 144.261 95.8452C144.261 85.2697 135.688 76.6965 125.113 76.6965C114.537 76.6965 105.964 85.2697 105.964 95.8452C105.964 106.421 114.537 114.994 125.113 114.994Z" fill="white"/>
<path d="M123.683 104.795C123.457 105.021 123.189 105.2 122.895 105.323C122.6 105.445 122.284 105.508 121.965 105.508C121.645 105.508 121.329 105.445 121.035 105.323C120.74 105.2 120.472 105.021 120.247 104.795L113.314 97.863C113.088 97.6375 112.909 97.3697 112.787 97.0749C112.665 96.7801 112.602 96.464 112.602 96.1449C112.602 95.8257 112.665 95.5097 112.787 95.2149C112.909 94.92 113.088 94.6522 113.314 94.4268C113.54 94.2009 113.807 94.0216 114.102 93.8993C114.397 93.7771 114.713 93.7141 115.032 93.7141C115.351 93.7141 115.668 93.7771 115.962 93.8993C116.257 94.0216 116.525 94.2009 116.75 94.4268L123.683 101.359C123.909 101.585 124.088 101.852 124.21 102.147C124.332 102.442 124.395 102.758 124.395 103.077C124.395 103.396 124.332 103.712 124.21 104.007C124.088 104.302 123.909 104.57 123.683 104.795Z" fill="#3B56D7"/>
<path d="M120.347 104.665C120.121 104.44 119.942 104.172 119.82 103.877C119.697 103.582 119.634 103.266 119.634 102.947C119.634 102.628 119.697 102.312 119.82 102.017C119.942 101.722 120.121 101.454 120.347 101.229L132.334 89.2422C132.793 88.7902 133.412 88.5369 134.057 88.5369C134.701 88.5369 135.32 88.7902 135.78 89.2422C136.232 89.7018 136.485 90.3207 136.485 90.9653C136.485 91.61 136.232 92.2288 135.78 92.6884L123.793 104.675C123.335 105.131 122.714 105.385 122.068 105.384C121.422 105.382 120.803 105.123 120.347 104.665Z" fill="#3B56D7"/>
<path d="M370.019 64.8894H236.368V126.801H370.019V64.8894Z" fill="#C5E7FF"/>
<path d="M378.69 7.26367H85.2964V21.4179H378.69V7.26367Z" fill="#C5E7FF"/>
<path d="M314.781 11.3789H149.205V17.3023H314.781V11.3789Z" fill="#9CD7FF"/>
<path d="M366.474 18.0717C366.412 18.0121 366.363 17.9407 366.33 17.8618C366.296 17.7828 366.279 17.698 366.279 17.6122C366.279 17.5265 366.296 17.4416 366.33 17.3627C366.363 17.2838 366.412 17.2124 366.474 17.1527L373.017 10.6C373.141 10.4798 373.308 10.4126 373.481 10.4126C373.654 10.4126 373.821 10.4798 373.946 10.6C374.066 10.7248 374.133 10.8913 374.133 11.0645C374.133 11.2378 374.066 11.4043 373.946 11.529L367.393 18.0717C367.333 18.1333 367.262 18.1823 367.183 18.2158C367.104 18.2493 367.019 18.2665 366.933 18.2665C366.848 18.2665 366.763 18.2493 366.684 18.2158C366.605 18.1823 366.533 18.1333 366.474 18.0717Z" fill="white"/>
<path d="M373.945 18.0718C374.064 17.9487 374.131 17.7839 374.131 17.6123C374.131 17.4407 374.064 17.2758 373.945 17.1528L367.392 10.6001C367.269 10.4805 367.104 10.4136 366.932 10.4136C366.761 10.4136 366.596 10.4805 366.473 10.6001C366.411 10.6606 366.362 10.7328 366.328 10.8126C366.295 10.8923 366.277 10.978 366.277 11.0646C366.277 11.1511 366.295 11.2368 366.328 11.3166C366.362 11.3963 366.411 11.4686 366.473 11.529L373.016 18.0718C373.076 18.1337 373.148 18.1829 373.228 18.2165C373.308 18.2501 373.394 18.2674 373.48 18.2674C373.567 18.2674 373.652 18.2501 373.732 18.2165C373.812 18.1829 373.884 18.1337 373.945 18.0718Z" fill="white"/>
<path d="M357.203 10.9193C357.878 10.9193 358.539 11.1197 359.101 11.495C359.662 11.8704 360.1 12.404 360.359 13.0282C360.617 13.6524 360.685 14.3393 360.553 15.002C360.421 15.6647 360.096 16.2734 359.618 16.7511C359.141 17.2289 358.532 17.5543 357.869 17.6861C357.206 17.8179 356.52 17.7502 355.895 17.4917C355.271 17.2331 354.738 16.7952 354.362 16.2335C353.987 15.6717 353.786 15.0112 353.786 14.3355C353.786 13.4295 354.146 12.5606 354.787 11.9199C355.428 11.2792 356.297 10.9193 357.203 10.9193ZM357.203 9.92042C356.329 9.91844 355.474 10.1757 354.747 10.6596C354.02 11.1436 353.452 11.8324 353.117 12.639C352.781 13.4456 352.692 14.3336 352.861 15.1907C353.03 16.0478 353.45 16.8354 354.067 17.4539C354.684 18.0724 355.471 18.4938 356.328 18.665C357.184 18.8362 358.073 18.7493 358.88 18.4155C359.687 18.0816 360.377 17.5157 360.863 16.7894C361.349 16.0632 361.608 15.2092 361.608 14.3355C361.608 13.1663 361.144 12.0448 360.318 11.2171C359.492 10.3894 358.372 9.92307 357.203 9.92042Z" fill="white"/>
<path d="M348.172 18.0516H340.181C340.049 18.0516 339.922 17.999 339.828 17.9053C339.735 17.8117 339.682 17.6846 339.682 17.5522C339.682 17.4197 339.735 17.2927 339.828 17.199C339.922 17.1054 340.049 17.0527 340.181 17.0527H348.172C348.305 17.0527 348.432 17.1054 348.526 17.199C348.619 17.2927 348.672 17.4197 348.672 17.5522C348.669 17.6838 348.616 17.8094 348.523 17.9025C348.43 17.9956 348.304 18.0491 348.172 18.0516Z" fill="white"/>
<path d="M98.4718 17.7621H90.4806C90.3482 17.7621 90.2211 17.7095 90.1275 17.6158C90.0338 17.5221 89.9812 17.3951 89.9812 17.2626C89.9812 17.1302 90.0338 17.0031 90.1275 16.9095C90.2211 16.8158 90.3482 16.7632 90.4806 16.7632H98.4718C98.6034 16.7657 98.729 16.8192 98.8221 16.9123C98.9152 17.0054 98.9686 17.131 98.9712 17.2626C98.9712 17.3951 98.9186 17.5221 98.8249 17.6158C98.7313 17.7095 98.6042 17.7621 98.4718 17.7621Z" fill="white"/>
<path d="M98.4718 14.8356H90.4806C90.3482 14.8356 90.2211 14.7829 90.1275 14.6893C90.0338 14.5956 89.9812 14.4686 89.9812 14.3361C89.9812 14.2037 90.0338 14.0766 90.1275 13.983C90.2211 13.8893 90.3482 13.8367 90.4806 13.8367H98.4718C98.6042 13.8367 98.7313 13.8893 98.8249 13.983C98.9186 14.0766 98.9712 14.2037 98.9712 14.3361C98.9712 14.4686 98.9186 14.5956 98.8249 14.6893C98.7313 14.7829 98.6042 14.8356 98.4718 14.8356Z" fill="white"/>
<path d="M98.4718 11.9083H90.4806C90.3482 11.9083 90.2211 11.8557 90.1275 11.762C90.0338 11.6684 89.9812 11.5413 89.9812 11.4089C89.9812 11.2764 90.0338 11.1494 90.1275 11.0557C90.2211 10.962 90.3482 10.9094 90.4806 10.9094H98.4718C98.6042 10.9094 98.7313 10.962 98.8249 11.0557C98.9186 11.1494 98.9712 11.2764 98.9712 11.4089C98.9686 11.5405 98.9152 11.6661 98.8221 11.7592C98.729 11.8523 98.6034 11.9058 98.4718 11.9083Z" fill="white"/>
<path d="M211.205 99.5909H155.167C154.463 99.5909 153.787 99.311 153.288 98.8127C152.79 98.3144 152.51 97.6386 152.51 96.9339C152.513 96.23 152.794 95.5557 153.291 95.058C153.789 94.5603 154.463 94.2795 155.167 94.2769H211.205C211.911 94.2769 212.587 94.5565 213.087 95.0545C213.587 95.5525 213.869 96.2283 213.872 96.9339C213.869 97.6395 213.587 98.3153 213.087 98.8133C212.587 99.3113 211.911 99.591 211.205 99.5909Z" fill="white"/>
<path d="M211.205 87.6044H155.167C154.463 87.6044 153.787 87.3244 153.288 86.8261C152.79 86.3279 152.51 85.652 152.51 84.9473C152.513 84.2434 152.794 83.5691 153.291 83.0714C153.789 82.5737 154.463 82.2929 155.167 82.2903H211.205C211.911 82.2903 212.587 82.5699 213.087 83.0679C213.587 83.5659 213.869 84.2417 213.872 84.9473C213.869 85.6529 213.587 86.3287 213.087 86.8268C212.587 87.3248 211.911 87.6044 211.205 87.6044Z" fill="white"/>
<path d="M211.205 111.588H155.167C154.462 111.585 153.786 111.303 153.288 110.803C152.79 110.303 152.51 109.626 152.51 108.921C152.513 108.217 152.794 107.543 153.291 107.045C153.789 106.547 154.463 106.266 155.167 106.264H211.205C211.911 106.264 212.587 106.543 213.087 107.041C213.587 107.539 213.869 108.215 213.872 108.921C213.869 109.627 213.588 110.304 213.088 110.804C212.588 111.303 211.911 111.585 211.205 111.588Z" fill="white"/>
<g style="mix-blend-mode:multiply" opacity="0.15">
<path d="M158.805 184.916H155.928V184.746C155.928 184.275 155.741 183.822 155.407 183.489C155.074 183.156 154.622 182.968 154.15 182.968H140.385C139.916 182.971 139.466 183.159 139.135 183.493C138.803 183.826 138.617 184.276 138.617 184.746V186.744C138.617 187.214 138.803 187.665 139.135 187.998C139.466 188.331 139.916 188.519 140.385 188.522H154.15C154.622 188.522 155.074 188.335 155.407 188.001C155.741 187.668 155.928 187.216 155.928 186.744V186.574H157.926V191.569H147.268C147.046 191.571 146.834 191.661 146.677 191.817C146.52 191.974 146.431 192.186 146.429 192.408V198.801C145.907 198.976 145.453 199.31 145.131 199.756C144.808 200.202 144.633 200.738 144.631 201.288V205.283C143.908 205.774 143.161 206.227 142.393 206.642C141.814 206.898 141.291 207.266 140.856 207.726C140.42 208.185 140.08 208.727 139.856 209.319C134.971 210.488 128.409 212.086 122.375 213.175C115.263 214.473 108.95 215.103 107.332 215.282L106.553 215.392C106.236 215.002 105.858 214.664 105.434 214.393C105.434 214.393 100 215.392 95.8849 216.071C95.5453 216.121 94.1968 216.461 92.2389 216.761C92.159 216.091 92.1191 215.512 92.1091 215.033C93.6952 214.525 95.0255 213.427 95.825 211.966C97.3764 209.308 98.2088 206.292 98.2404 203.215C98.2719 200.137 97.5014 197.105 96.0048 194.416C96.0048 194.416 93.3078 183.038 80.3422 186.514C71.6419 188.842 69.3544 204.664 68.855 214.833L67.966 214.323C62.4427 211.051 58.2884 205.893 56.269 199.8C55.5394 197.676 54.9914 195.493 54.6308 193.277C55.32 192.707 56.0392 191.609 55.9893 189.461C55.9094 185.376 56.5587 184.287 57.0881 183.568C57.6175 182.848 55.8894 181.77 54.7407 184.566L53.592 187.323C53.592 187.323 52.0337 181.23 49.986 179.472C49.8901 179.369 49.7718 179.289 49.6401 179.239C49.5085 179.189 49.3671 179.169 49.2268 179.182V192.657C49.5306 192.941 49.8658 193.189 50.2257 193.397C49.764 198.14 50.4032 202.925 52.0936 207.381C52.8714 209.428 53.8766 211.382 55.0903 213.205C57.2535 216.474 59.9955 219.321 63.1813 221.605C64.9711 222.889 66.8813 223.996 68.8849 224.912C69.2745 225.081 69.6341 225.221 69.9937 225.341C69.854 225.981 69.7473 226.628 69.6741 227.279C71.7972 228.017 74.0061 228.48 76.2467 228.657C76.2467 228.657 85.7162 235.26 79.4632 249.634C77.9049 253.21 76.5964 256.756 75.4676 260.162H105.135C104.226 256.555 103.01 253.033 101.499 249.634C96.3544 238.367 103.137 236.149 103.297 228.388C105.107 228.262 106.842 227.613 108.291 226.52C108.291 226.52 108.441 225.591 108.511 224.232C113.815 223.458 119.051 222.276 124.173 220.696C130.115 218.907 135.863 216.531 141.334 213.604C142.341 214.13 143.48 214.349 144.611 214.233V216.911C144.611 217.61 144.889 218.281 145.383 218.775C145.878 219.27 146.548 219.548 147.248 219.548C147.947 219.548 148.618 219.27 149.112 218.775C149.607 218.281 149.885 217.61 149.885 216.911V213.025C153.491 211.287 156.188 207.731 154.06 206.972C152.692 206.643 151.27 206.602 149.885 206.852V201.318C149.883 200.769 149.709 200.234 149.389 199.788C149.068 199.342 148.617 199.007 148.097 198.831V193.277H158.785C159.007 193.277 159.221 193.188 159.378 193.031C159.536 192.874 159.624 192.66 159.624 192.438V185.765C159.624 185.545 159.539 185.334 159.386 185.175C159.233 185.017 159.025 184.924 158.805 184.916Z" fill="black"/>
</g>
<g style="mix-blend-mode:multiply" opacity="0.15">
<path d="M379.299 62.7017C376.871 63.8704 373.925 69.3843 373.925 69.3843L373.435 66.3876C372.946 63.391 370.998 63.9903 371.347 64.8294C371.697 65.6684 372.087 66.8971 371.048 70.8227C370.802 71.4893 370.716 72.204 370.795 72.9099C370.875 73.6159 371.119 74.2933 371.507 74.8882C370.636 76.9405 369.586 78.9125 368.371 80.7816C365.054 86.0177 359.956 89.8777 354.017 91.6495C353.427 90.0513 353.018 89.0724 353.018 89.0724C348.234 93.1073 342.058 95.1049 335.817 94.6362C336.146 92.6565 336.26 90.6471 336.157 88.6429C337.339 88.1616 338.464 87.552 339.513 86.8249C342.739 85.8959 345.227 82.8293 346.905 79.6029C349.602 74.3588 349.482 66.8471 343.738 62.6218C337.995 58.3965 333.35 58.7162 326.258 59.0658C325.747 60.2453 325.522 61.5289 325.602 62.8118C325.682 64.0947 326.064 65.3405 326.717 66.4476C324.171 68.5038 322.258 71.2375 321.197 74.3337C320.137 77.4299 319.973 80.7627 320.724 83.9481C321.463 87.3943 324.37 89.392 328.046 89.8615C328.034 90.9793 327.937 92.0947 327.756 93.1978L327.286 93.068C323.091 92.3388 313.941 87.0746 313.941 87.0746C312.723 87.8363 311.668 88.8309 310.835 90.0014L310.176 89.392C308.289 87.3827 306.776 85.0518 305.71 82.5097C305.441 81.7705 305.071 81.0513 304.851 80.2622C304.632 79.4731 304.412 78.664 304.202 77.8549C304.075 77.4551 303.988 77.0435 303.942 76.6263L303.753 75.3776L303.543 74.139C303.462 73.7308 303.415 73.3165 303.403 72.9004C303.353 72.0713 303.303 71.2522 303.243 70.4531C303.164 69.68 303.134 68.9026 303.153 68.1257C303.153 67.5464 303.153 66.987 303.153 66.4376C303.942 65.9981 304.831 65.0292 305.151 62.8915C305.701 58.7961 306.52 57.8372 307.149 57.2179C307.778 56.5985 306.15 55.2201 304.612 57.7373C304.072 58.5863 303.723 59.1557 303.483 59.5253L303.023 60.2745C303.023 60.2745 302.374 53.8916 300.546 51.734C298.718 49.5764 295.602 55.3999 296.351 60.1246C296.82 63.1213 297.59 64.8494 298.548 65.8383L298.109 67.3666C297.87 68.1929 297.703 69.0385 297.61 69.8938C297.48 70.7828 297.35 71.7017 297.22 72.6307C297.143 73.1096 297.106 73.5941 297.11 74.0791C297.11 74.5685 297.11 75.078 297.11 75.5574C297.11 76.0369 297.11 76.5563 297.11 77.0757C297.092 77.5865 297.119 78.0979 297.19 78.604C297.31 79.6029 297.44 80.6718 297.57 81.7006C297.699 82.7295 298.059 83.7483 298.299 84.7572C299.372 88.4872 301.186 91.9626 303.633 94.9758C304.531 96.0414 305.502 97.0427 306.54 97.9725C306.25 98.6518 306.1 99.0913 306.1 99.0913C307.723 100.61 309.586 101.848 311.614 102.757C312.383 103.117 313.152 103.426 313.881 103.696C314.611 103.966 315.33 104.196 315.979 104.385C316.978 104.665 317.827 104.875 318.496 105.015C318.936 105.105 319.295 105.164 319.545 105.204L319.925 105.264C320.069 109.38 319.952 113.5 319.575 117.601C319.475 118.719 319.365 119.808 319.235 120.867C319.176 121.396 319.116 121.926 319.046 122.445C318.636 125.552 318.127 128.439 317.607 130.926C317.517 131.345 317.437 131.755 317.348 132.154C317.178 132.954 316.998 133.713 316.828 134.432L316.678 135.061H315.679L315.55 126.87C315.532 126.418 315.342 125.989 315.019 125.672C314.696 125.354 314.264 125.172 313.812 125.162C313.591 125.156 313.372 125.193 313.167 125.273C312.962 125.353 312.775 125.474 312.617 125.628C312.46 125.781 312.335 125.965 312.25 126.169C312.165 126.372 312.122 126.59 312.123 126.81L312.493 149.096L313.901 235L314.101 247.146L314.311 260.132H363.446V259.253L363.047 223.013L362.917 210.867L362.787 198.69L362.647 186.484L362.517 174.238L362.377 161.961L362.108 137.309L361.998 127.5C361.99 127.051 361.807 126.623 361.488 126.308C361.169 125.992 360.739 125.814 360.29 125.812C360.071 125.805 359.854 125.842 359.65 125.922C359.447 126.001 359.262 126.121 359.106 126.274C358.95 126.427 358.827 126.61 358.744 126.812C358.66 127.014 358.619 127.231 358.622 127.45L358.712 135.601L353.397 135.521C353.148 134.971 352.908 134.422 352.678 133.863C352.069 132.364 351.52 130.866 351.04 129.308C350.561 127.749 350.141 126.251 349.781 124.753C348.321 118.594 347.543 112.293 347.464 105.964C347.744 105.964 348.033 105.964 348.323 105.964C349.18 105.928 350.032 105.821 350.87 105.644C352.822 105.208 354.714 104.537 356.504 103.646L356.993 103.396C356.854 102.258 356.654 101.139 356.434 100.05H356.574C360.216 98.6818 363.572 96.6496 366.473 94.0569C368.094 92.6105 369.542 90.9815 370.788 89.2023C373.47 85.3173 375.198 80.8548 375.832 76.1768C376.835 75.8881 377.735 75.321 378.428 74.5413C379.121 73.7615 379.579 72.8011 379.748 71.7717C380.547 67.5663 381.736 61.533 379.299 62.7017ZM343.409 180.571H331.292C331.192 177.644 331.082 174.577 330.972 171.401H342.12C342.56 174.577 342.989 177.684 343.409 180.601V180.571ZM340.821 162.591C341.101 164.379 341.381 166.207 341.641 168.054L330.882 168.074C330.823 166.077 330.773 164.079 330.753 162.081C330.753 161.012 330.753 159.954 330.753 158.915H340.292C340.442 160.143 340.632 161.362 340.871 162.611L340.821 162.591ZM330.882 148.726C330.882 147.957 330.962 147.258 331.012 146.588H331.752C332.468 146.713 333.192 146.779 333.919 146.788C334.945 146.783 335.97 146.71 336.986 146.568H337.985C338.174 147.497 338.384 148.566 338.604 149.705C338.934 151.463 339.303 153.461 339.683 155.618H330.693C330.743 153.091 330.803 150.744 330.882 148.726ZM314.71 134.522V134.322H314.77C314.752 134.388 314.739 134.454 314.73 134.522H314.71ZM314.9 143.312L314.79 138.158C316.339 138.687 317.877 139.157 319.405 139.526C319.405 139.626 319.405 139.726 319.405 139.836C319.405 139.946 319.405 140.126 319.355 140.295V140.585C319.355 140.645 319.355 140.705 319.355 140.765C319.295 141.434 319.245 142.283 319.205 143.302L314.9 143.312ZM315.17 155.688L314.97 146.638H319.086C319.086 147.188 319.086 147.747 319.086 148.346C319.086 150.544 319.275 153.031 319.495 155.688H315.17ZM315.24 159.035H319.895C320.025 160.243 320.164 161.472 320.324 162.72C320.557 164.512 320.814 166.316 321.093 168.134H315.51L315.24 159.035ZM315.51 171.501H321.583C322.142 174.647 322.762 177.744 323.411 180.66H315.709L315.51 171.501ZM315.789 184.047H324.22C324.639 185.765 325.069 187.37 325.508 188.861C324.864 189.511 324.373 190.295 324.07 191.159C323.8 191.827 323.721 192.556 323.84 193.266H315.989L315.789 184.047ZM359.551 247.926L359.86 257.445H317.398L317.198 247.946L359.551 247.926ZM359.441 244.44H317.118L316.898 235H359.151L359.441 244.44ZM358.732 222.104L359.031 231.504H316.818L316.608 222.124L358.732 222.104ZM358.622 218.648L316.538 218.698L316.339 209.369L358.292 209.309L358.622 218.648ZM357.852 193.187H353.667C353.672 193.097 353.672 193.007 353.667 192.917C353.575 192.449 353.406 192.001 353.168 191.588C352.519 190.413 351.525 189.465 350.321 188.871C350.521 187.383 350.7 185.735 350.86 183.967H357.583L357.852 193.187ZM357.453 180.571H351.06C351.24 177.674 351.36 174.577 351.4 171.401H357.133L357.453 180.571ZM357.053 168.035H351.43C351.43 165.957 351.38 163.889 351.29 161.861C351.29 160.863 351.25 159.884 351.17 158.925H356.764L357.053 168.035ZM356.654 155.568H350.97C350.77 152.871 350.531 150.354 350.291 148.157C350.221 147.587 350.161 147.048 350.091 146.518H356.364L356.654 155.568ZM354.656 137.668C353.852 136.547 353.109 135.383 352.429 134.182H355.955L356.234 143.172H349.602C349.542 142.783 349.482 142.443 349.432 142.113V142.023C349.382 141.734 349.342 141.464 349.292 141.224C349.242 140.985 349.292 141.045 349.242 140.955C349.192 140.865 349.242 140.795 349.242 140.725C349.242 140.655 349.182 140.415 349.152 140.295C349.092 139.976 349.022 139.666 348.942 139.366C350.882 138.925 352.79 138.357 354.656 137.668ZM345.546 196.603H350.631C350.71 196.603 350.78 196.603 350.86 196.603H357.942L358.232 205.882L316.279 205.942L316.079 196.673L345.227 196.623L345.546 196.603ZM343.918 183.947C344.198 185.765 344.477 187.473 344.757 189.001C343.829 189.635 343.112 190.533 342.699 191.578C342.47 192.081 342.348 192.625 342.34 193.177H335.068C335.187 192.691 335.187 192.184 335.068 191.698C334.944 191.243 334.752 190.808 334.498 190.41C333.781 189.278 332.736 188.393 331.502 187.872C331.502 186.644 331.502 185.335 331.422 183.967L343.918 183.947Z" fill="black"/>
</g>
<g style="mix-blend-mode:multiply" opacity="0.15">
<path d="M293.345 178.953L281.478 174.797C280.037 174.36 278.485 174.473 277.123 175.115C275.761 175.758 274.686 176.883 274.107 178.274L268.882 190.5C268.573 191.148 268.402 191.854 268.38 192.573C268.359 193.291 268.488 194.006 268.759 194.671C269.03 195.337 269.436 195.939 269.953 196.438C270.47 196.938 271.085 197.324 271.759 197.572L283.616 201.727L283.796 201.777C283.996 202.297 284.215 202.876 284.425 203.555C284.733 204.767 285.462 205.83 286.483 206.552C285.993 208.869 285.534 211.547 284.865 214.413C284.665 215.352 284.485 216.311 284.265 217.28C284.045 218.249 283.776 219.198 283.536 220.167C283.107 222.115 282.477 223.993 281.948 225.831C281.103 228.403 280.102 230.922 278.951 233.372C278.378 232.309 277.751 231.275 277.073 230.276C270.92 236.489 266.285 239.545 262.889 240.984C263.076 239.759 263.196 238.525 263.249 237.288C265.094 236.442 266.782 235.291 268.243 233.882C270.791 231.44 272.69 228.402 273.767 225.041C273.994 225.163 274.249 225.225 274.506 225.221C277.323 225.171 280.999 217.8 277.972 216.571C277.375 216.322 276.712 216.272 276.084 216.431C276.084 215.982 276.084 215.532 276.084 215.083C275.405 206.372 270.69 202.527 260.781 203.995C257.946 204.408 255.28 205.598 253.08 207.433C250.879 209.269 249.23 211.678 248.315 214.393C248.315 214.573 248.245 214.743 248.195 214.923C247.589 214.652 246.907 214.602 246.268 214.783C242.931 215.562 244.27 223.283 246.987 223.723C247.42 223.788 247.861 223.681 248.215 223.423C248.067 226.827 248.721 230.218 250.123 233.322C250.912 235.206 252.361 236.737 254.199 237.627C254.156 238.889 254.009 240.146 253.759 241.383C249.164 239.685 242.921 233.832 242.921 233.832H242.871C242.732 233.602 242.592 233.362 242.422 233.103C242.142 232.672 241.888 232.225 241.663 231.764C240.371 229.324 239.398 226.73 238.766 224.043C238.606 223.263 238.336 222.504 238.226 221.675L237.807 219.218C237.657 218.389 237.637 217.53 237.527 216.701C237.417 215.872 237.308 215.043 237.308 214.204C237.308 213.364 237.228 212.565 237.198 211.766C237.168 210.967 237.088 210.198 237.118 209.439C237.148 208.68 237.118 207.751 237.118 206.972C237.262 206.953 237.406 206.926 237.547 206.892C238.546 206.612 239.875 205.793 241.003 203.535C241.483 202.586 241.902 201.807 242.302 201.168L243.86 201.707C245.301 202.145 246.854 202.032 248.216 201.39C249.578 200.747 250.653 199.622 251.232 198.231L256.426 186.055C256.734 185.406 256.904 184.7 256.925 183.983C256.945 183.265 256.816 182.55 256.545 181.885C256.275 181.22 255.869 180.618 255.353 180.119C254.837 179.619 254.223 179.232 253.549 178.983L241.693 174.827C240.25 174.389 238.696 174.502 237.333 175.144C235.969 175.787 234.892 176.912 234.311 178.303L229.097 190.53C228.788 191.178 228.618 191.883 228.597 192.6C228.576 193.318 228.704 194.032 228.974 194.697C229.243 195.362 229.648 195.964 230.163 196.464C230.678 196.964 231.291 197.352 231.963 197.602L232.902 197.932C232.902 198.111 232.813 198.291 232.773 198.461C232.153 201.697 232.263 203.775 232.862 205.074C232.433 206.292 231.983 207.711 231.534 209.279C231.294 210.11 231.101 210.954 230.955 211.806L230.455 214.523C230.265 215.452 230.235 216.411 230.126 217.38C230.016 218.349 229.916 219.378 229.926 220.327C229.936 221.276 229.926 222.325 229.926 223.323C229.926 224.322 230.066 225.321 230.136 226.27C230.459 229.806 231.308 233.273 232.653 236.559C232.903 237.212 233.193 237.849 233.522 238.467C233.768 239.003 234.041 239.526 234.341 240.035C234.89 240.934 235.34 241.623 235.579 242.033C234.581 243.801 233.961 245.119 233.961 245.119C237.617 253.57 243.331 255.667 243.331 255.667C243.221 257.196 243.121 258.714 243.011 260.212H272.978C273.387 254.878 273.977 251.392 273.977 251.392C279.061 251.532 283.047 246.767 283.047 246.767C283.047 246.268 283.047 245.768 282.957 245.279C283.573 244.518 284.143 243.72 284.665 242.892C285.056 242.279 285.413 241.646 285.734 240.994C286.154 240.267 286.53 239.517 286.862 238.746C288.494 235.071 289.684 231.215 290.408 227.259C291.69 220.277 292.026 213.154 291.407 206.083C292.766 204.984 293.625 202.726 293.535 198.451C293.485 197.061 293.187 195.691 292.656 194.406L296.232 186.045C296.545 185.395 296.718 184.686 296.74 183.965C296.763 183.244 296.634 182.527 296.362 181.858C296.09 181.19 295.681 180.587 295.161 180.086C294.642 179.586 294.023 179.2 293.345 178.953Z" fill="black"/>
</g>
<path d="M319.315 350.441C318.87 350.441 318.443 350.265 318.128 349.95C317.814 349.635 317.637 349.208 317.637 348.763V124.643C317.637 124.198 317.814 123.771 318.128 123.456C318.443 123.141 318.87 122.965 319.315 122.965C319.76 122.965 320.187 123.141 320.501 123.456C320.816 123.771 320.993 124.198 320.993 124.643V348.763C320.993 349.208 320.816 349.635 320.501 349.95C320.187 350.265 319.76 350.441 319.315 350.441Z" fill="#5D6FC3"/>
<path d="M365.166 350.441C364.721 350.441 364.294 350.265 363.979 349.95C363.664 349.635 363.488 349.208 363.488 348.763V124.643C363.488 124.198 363.664 123.771 363.979 123.456C364.294 123.141 364.721 122.965 365.166 122.965C365.611 122.965 366.038 123.141 366.352 123.456C366.667 123.771 366.844 124.198 366.844 124.643V348.763C366.844 349.208 366.667 349.635 366.352 349.95C366.038 350.265 365.611 350.441 365.166 350.441Z" fill="#5D6FC3"/>
<path d="M365.164 136.19H319.315C318.87 136.19 318.443 136.013 318.128 135.698C317.814 135.384 317.637 134.957 317.637 134.512C317.637 134.067 317.814 133.64 318.128 133.325C318.443 133.011 318.87 132.834 319.315 132.834H365.164C365.609 132.834 366.036 133.011 366.35 133.325C366.665 133.64 366.842 134.067 366.842 134.512C366.842 134.957 366.665 135.384 366.35 135.698C366.036 136.013 365.609 136.19 365.164 136.19Z" fill="#5D6FC3"/>
<path d="M365.164 148.647H319.315C318.87 148.647 318.443 148.47 318.128 148.155C317.814 147.84 317.637 147.413 317.637 146.968C317.637 146.523 317.814 146.097 318.128 145.782C318.443 145.467 318.87 145.29 319.315 145.29H365.164C365.609 145.29 366.036 145.467 366.35 145.782C366.665 146.097 366.842 146.523 366.842 146.968C366.842 147.413 366.665 147.84 366.35 148.155C366.036 148.47 365.609 148.647 365.164 148.647Z" fill="#5D6FC3"/>
<path d="M365.164 161.082H319.315C318.87 161.082 318.443 160.905 318.128 160.591C317.814 160.276 317.637 159.849 317.637 159.404C317.637 158.959 317.814 158.532 318.128 158.217C318.443 157.903 318.87 157.726 319.315 157.726H365.164C365.609 157.726 366.036 157.903 366.35 158.217C366.665 158.532 366.842 158.959 366.842 159.404C366.842 159.849 366.665 160.276 366.35 160.591C366.036 160.905 365.609 161.082 365.164 161.082Z" fill="#5D6FC3"/>
<path d="M365.164 173.549H319.315C319.085 173.567 318.853 173.537 318.635 173.461C318.416 173.385 318.216 173.264 318.046 173.107C317.876 172.95 317.741 172.76 317.648 172.548C317.556 172.336 317.508 172.107 317.508 171.876C317.508 171.644 317.556 171.416 317.648 171.204C317.741 170.992 317.876 170.801 318.046 170.644C318.216 170.487 318.416 170.367 318.635 170.291C318.853 170.215 319.085 170.185 319.315 170.203H365.164C365.395 170.185 365.627 170.215 365.845 170.291C366.064 170.367 366.264 170.487 366.434 170.644C366.603 170.801 366.739 170.992 366.831 171.204C366.924 171.416 366.972 171.644 366.972 171.876C366.972 172.107 366.924 172.336 366.831 172.548C366.739 172.76 366.603 172.95 366.434 173.107C366.264 173.264 366.064 173.385 365.845 173.461C365.627 173.537 365.395 173.567 365.164 173.549Z" fill="#5D6FC3"/>
<path d="M365.164 186.055H319.315C319.085 186.073 318.853 186.043 318.635 185.967C318.416 185.891 318.216 185.77 318.046 185.613C317.876 185.456 317.741 185.266 317.648 185.054C317.556 184.842 317.508 184.613 317.508 184.382C317.508 184.15 317.556 183.922 317.648 183.71C317.741 183.498 317.876 183.307 318.046 183.15C318.216 182.993 318.416 182.873 318.635 182.797C318.853 182.721 319.085 182.691 319.315 182.709H365.164C365.395 182.691 365.627 182.721 365.845 182.797C366.064 182.873 366.264 182.993 366.434 183.15C366.603 183.307 366.739 183.498 366.831 183.71C366.924 183.922 366.972 184.15 366.972 184.382C366.972 184.613 366.924 184.842 366.831 185.054C366.739 185.266 366.603 185.456 366.434 185.613C366.264 185.77 366.064 185.891 365.845 185.967C365.627 186.043 365.395 186.073 365.164 186.055Z" fill="#5D6FC3"/>
<path d="M365.164 198.461H319.315C318.87 198.461 318.443 198.284 318.128 197.969C317.814 197.655 317.637 197.228 317.637 196.783C317.637 196.338 317.814 195.911 318.128 195.596C318.443 195.282 318.87 195.105 319.315 195.105H365.164C365.609 195.105 366.036 195.282 366.35 195.596C366.665 195.911 366.842 196.338 366.842 196.783C366.842 197.228 366.665 197.655 366.35 197.969C366.036 198.284 365.609 198.461 365.164 198.461Z" fill="#5D6FC3"/>
<path d="M365.164 210.917H319.315C318.87 210.917 318.443 210.741 318.128 210.426C317.814 210.111 317.637 209.684 317.637 209.239C317.637 208.794 317.814 208.367 318.128 208.053C318.443 207.738 318.87 207.561 319.315 207.561H365.164C365.609 207.561 366.036 207.738 366.35 208.053C366.665 208.367 366.842 208.794 366.842 209.239C366.842 209.684 366.665 210.111 366.35 210.426C366.036 210.741 365.609 210.917 365.164 210.917Z" fill="#5D6FC3"/>
<path d="M365.164 223.373H319.315C318.87 223.373 318.443 223.196 318.128 222.882C317.814 222.567 317.637 222.14 317.637 221.695C317.637 221.25 317.814 220.823 318.128 220.508C318.443 220.194 318.87 220.017 319.315 220.017H365.164C365.609 220.017 366.036 220.194 366.35 220.508C366.665 220.823 366.842 221.25 366.842 221.695C366.842 222.14 366.665 222.567 366.35 222.882C366.036 223.196 365.609 223.373 365.164 223.373Z" fill="#5D6FC3"/>
<path d="M365.164 235.82H319.315C319.085 235.837 318.853 235.807 318.635 235.731C318.416 235.655 318.216 235.535 318.046 235.378C317.876 235.221 317.741 235.03 317.648 234.818C317.556 234.606 317.508 234.378 317.508 234.146C317.508 233.915 317.556 233.686 317.648 233.474C317.741 233.262 317.876 233.072 318.046 232.915C318.216 232.758 318.416 232.637 318.635 232.561C318.853 232.485 319.085 232.455 319.315 232.473H365.164C365.395 232.455 365.627 232.485 365.845 232.561C366.064 232.637 366.264 232.758 366.434 232.915C366.603 233.072 366.739 233.262 366.831 233.474C366.924 233.686 366.972 233.915 366.972 234.146C366.972 234.378 366.924 234.606 366.831 234.818C366.739 235.03 366.603 235.221 366.434 235.378C366.264 235.535 366.064 235.655 365.845 235.731C365.627 235.807 365.395 235.837 365.164 235.82Z" fill="#5D6FC3"/>
<path d="M365.164 248.276H319.315C319.085 248.293 318.853 248.263 318.635 248.187C318.416 248.111 318.216 247.991 318.046 247.834C317.876 247.677 317.741 247.486 317.648 247.274C317.556 247.062 317.508 246.834 317.508 246.602C317.508 246.371 317.556 246.142 317.648 245.93C317.741 245.719 317.876 245.528 318.046 245.371C318.216 245.214 318.416 245.093 318.635 245.018C318.853 244.942 319.085 244.911 319.315 244.929H365.164C365.395 244.911 365.627 244.942 365.845 245.018C366.064 245.093 366.264 245.214 366.434 245.371C366.603 245.528 366.739 245.719 366.831 245.93C366.924 246.142 366.972 246.371 366.972 246.602C366.972 246.834 366.924 247.062 366.831 247.274C366.739 247.486 366.603 247.677 366.434 247.834C366.264 247.991 366.064 248.111 365.845 248.187C365.627 248.263 365.395 248.293 365.164 248.276Z" fill="#5D6FC3"/>
<path d="M365.164 260.731H319.315C318.87 260.731 318.443 260.554 318.128 260.24C317.814 259.925 317.637 259.498 317.637 259.053C317.637 258.608 317.814 258.181 318.128 257.867C318.443 257.552 318.87 257.375 319.315 257.375H365.164C365.609 257.375 366.036 257.552 366.35 257.867C366.665 258.181 366.842 258.608 366.842 259.053C366.842 259.498 366.665 259.925 366.35 260.24C366.036 260.554 365.609 260.731 365.164 260.731Z" fill="#5D6FC3"/>
<path d="M365.164 273.188H319.315C318.87 273.188 318.443 273.011 318.128 272.696C317.814 272.382 317.637 271.955 317.637 271.51C317.637 271.065 317.814 270.638 318.128 270.323C318.443 270.008 318.87 269.832 319.315 269.832H365.164C365.609 269.832 366.036 270.008 366.35 270.323C366.665 270.638 366.842 271.065 366.842 271.51C366.842 271.955 366.665 272.382 366.35 272.696C366.036 273.011 365.609 273.188 365.164 273.188Z" fill="#5D6FC3"/>
<path d="M365.164 285.644H319.315C318.87 285.644 318.443 285.467 318.128 285.152C317.814 284.838 317.637 284.411 317.637 283.966C317.637 283.521 317.814 283.094 318.128 282.779C318.443 282.464 318.87 282.288 319.315 282.288H365.164C365.609 282.288 366.036 282.464 366.35 282.779C366.665 283.094 366.842 283.521 366.842 283.966C366.842 284.411 366.665 284.838 366.35 285.152C366.036 285.467 365.609 285.644 365.164 285.644Z" fill="#5D6FC3"/>
<path d="M365.164 298.09H319.315C319.085 298.108 318.853 298.078 318.635 298.002C318.416 297.926 318.216 297.805 318.046 297.648C317.876 297.491 317.741 297.301 317.648 297.089C317.556 296.877 317.508 296.648 317.508 296.417C317.508 296.185 317.556 295.957 317.648 295.745C317.741 295.533 317.876 295.342 318.046 295.185C318.216 295.028 318.416 294.908 318.635 294.832C318.853 294.756 319.085 294.726 319.315 294.744H365.164C365.395 294.726 365.627 294.756 365.845 294.832C366.064 294.908 366.264 295.028 366.434 295.185C366.603 295.342 366.739 295.533 366.831 295.745C366.924 295.957 366.972 296.185 366.972 296.417C366.972 296.648 366.924 296.877 366.831 297.089C366.739 297.301 366.603 297.491 366.434 297.648C366.264 297.805 366.064 297.926 365.845 298.002C365.627 298.078 365.395 298.108 365.164 298.09Z" fill="#5D6FC3"/>
<path d="M365.164 310.546H319.315C318.87 310.546 318.443 310.369 318.128 310.055C317.814 309.74 317.637 309.313 317.637 308.868C317.637 308.423 317.814 307.996 318.128 307.681C318.443 307.367 318.87 307.19 319.315 307.19H365.164C365.609 307.19 366.036 307.367 366.35 307.681C366.665 307.996 366.842 308.423 366.842 308.868C366.842 309.313 366.665 309.74 366.35 310.055C366.036 310.369 365.609 310.546 365.164 310.546Z" fill="#5D6FC3"/>
<path d="M365.164 323.002H319.315C318.87 323.002 318.443 322.825 318.128 322.511C317.814 322.196 317.637 321.769 317.637 321.324C317.637 320.879 317.814 320.452 318.128 320.138C318.443 319.823 318.87 319.646 319.315 319.646H365.164C365.609 319.646 366.036 319.823 366.35 320.138C366.665 320.452 366.842 320.879 366.842 321.324C366.842 321.769 366.665 322.196 366.35 322.511C366.036 322.825 365.609 323.002 365.164 323.002Z" fill="#5D6FC3"/>
<path d="M365.164 335.459H319.315C318.87 335.459 318.443 335.282 318.128 334.967C317.814 334.652 317.637 334.226 317.637 333.78C317.637 333.335 317.814 332.909 318.128 332.594C318.443 332.279 318.87 332.102 319.315 332.102H365.164C365.609 332.102 366.036 332.279 366.35 332.594C366.665 332.909 366.842 333.335 366.842 333.78C366.842 334.226 366.665 334.652 366.35 334.967C366.036 335.282 365.609 335.459 365.164 335.459Z" fill="#5D6FC3"/>
<path d="M309.906 64.8897C310.685 64.4502 311.584 63.4813 311.904 61.3437C312.493 57.2982 313.312 56.3492 313.952 55.7C314.591 55.0507 313.073 53.7022 311.475 56.2693C310.945 57.1284 310.586 57.6878 310.356 58.0673L309.906 64.8897Z" fill="#FFE1BD"/>
<path d="M369.859 31.3367H94.1362V57.6774H369.859V31.3367Z" fill="#9CD7FF"/>
<path d="M343.631 40.6286H341.843V43.7087H340.834V36.0946H343.354C344.212 36.0946 344.871 36.2898 345.331 36.6803C345.795 37.0708 346.027 37.639 346.027 38.3851C346.027 38.8593 345.898 39.2724 345.64 39.6245C345.385 39.9766 345.029 40.2398 344.573 40.4142L346.361 43.646V43.7087H345.284L343.631 40.6286ZM341.843 39.8075H343.386C343.884 39.8075 344.28 39.6785 344.573 39.4206C344.869 39.1626 345.017 38.8174 345.017 38.3851C345.017 37.9145 344.876 37.5536 344.594 37.3026C344.315 37.0516 343.91 36.9243 343.38 36.9209H341.843V39.8075ZM353.039 41.2927C352.945 42.0981 352.647 42.7204 352.145 43.1596C351.646 43.5954 350.982 43.8133 350.153 43.8133C349.253 43.8133 348.531 43.4908 347.988 42.8459C347.447 42.2009 347.177 41.338 347.177 40.2573V39.5251C347.177 38.8174 347.303 38.1951 347.554 37.6582C347.808 37.1213 348.167 36.7099 348.631 36.4241C349.094 36.1347 349.631 35.99 350.241 35.99C351.05 35.99 351.699 36.2166 352.187 36.6698C352.675 37.1196 352.959 37.7436 353.039 38.542H352.03C351.943 37.9354 351.753 37.4961 351.46 37.2242C351.171 36.9522 350.764 36.8163 350.241 36.8163C349.6 36.8163 349.096 37.0533 348.73 37.5275C348.368 38.0016 348.186 38.6762 348.186 39.5513V40.2887C348.186 41.1149 348.359 41.7721 348.704 42.2602C349.049 42.7483 349.532 42.9923 350.153 42.9923C350.71 42.9923 351.137 42.8668 351.434 42.6158C351.734 42.3613 351.932 41.9203 352.03 41.2927H353.039ZM360.266 43.7087H359.257V40.1893H355.419V43.7087H354.415V36.0946H355.419V39.3683H359.257V36.0946H360.266V43.7087Z" fill="#5D6FC3"/>
<path d="M361.439 48.6978H102.547V49.9464H361.439V48.6978Z" fill="#5D6FC3"/>
<path d="M310.316 58.0671L309.846 58.8063C309.846 58.8063 309.327 52.5433 307.589 50.4656C305.851 48.3879 302.734 54.1914 303.373 58.8163C304.173 64.5799 306.22 65.7186 308.568 65.2591C309.025 65.2521 309.473 65.1246 309.866 64.8895L310.316 58.0671Z" fill="#FFE1BD"/>
<path d="M323.561 46.6398C323.426 46.6395 323.296 46.5856 323.201 46.49L319.895 43.2137C319.803 43.1203 319.752 42.9948 319.752 42.864C319.752 42.7333 319.803 42.6078 319.895 42.5144C319.941 42.4676 319.996 42.4305 320.057 42.4051C320.118 42.3798 320.183 42.3667 320.249 42.3667C320.315 42.3667 320.381 42.3798 320.441 42.4051C320.502 42.4305 320.557 42.4676 320.604 42.5144L323.87 45.7708C323.962 45.8659 324.014 45.993 324.014 46.1254C324.014 46.2578 323.962 46.385 323.87 46.48C323.79 46.5687 323.68 46.6255 323.561 46.6398Z" fill="#5D6FC3"/>
<path d="M317.177 36.3412C317.968 36.342 318.733 36.6167 319.344 37.1187C319.954 37.6206 320.372 38.3187 320.525 39.094C320.679 39.8693 320.559 40.6738 320.185 41.3704C319.812 42.0671 319.209 42.6128 318.479 42.9146C317.748 43.2165 316.936 43.2557 316.18 43.0257C315.424 42.7956 314.771 42.3106 314.332 41.6531C313.894 40.9957 313.696 40.2065 313.774 39.42C313.853 38.6336 314.201 37.8985 314.76 37.3401C315.077 37.0221 315.454 36.77 315.869 36.5986C316.284 36.4271 316.728 36.3396 317.177 36.3412ZM317.177 35.3423C316.156 35.3421 315.165 35.6963 314.376 36.3445C313.586 36.9927 313.045 37.8948 312.846 38.897C312.647 39.8992 312.802 40.9394 313.284 41.8403C313.766 42.7412 314.545 43.4471 315.49 43.8375C316.434 44.2279 317.484 44.2787 318.462 43.9813C319.439 43.6838 320.283 43.0566 320.85 42.2064C321.417 41.3562 321.671 40.3358 321.57 39.3191C321.468 38.3024 321.017 37.3523 320.294 36.6309C319.885 36.2215 319.399 35.8969 318.864 35.6758C318.329 35.4546 317.756 35.3413 317.177 35.3423Z" fill="#5D6FC3"/>
<path d="M321.043 44.6324C320.78 44.6286 320.529 44.5209 320.344 44.3327L319.585 43.5835C319.492 43.4904 319.418 43.3798 319.368 43.2581C319.317 43.1365 319.291 43.006 319.291 42.8743C319.291 42.7426 319.317 42.6122 319.368 42.4905C319.418 42.3688 319.492 42.2582 319.585 42.1651C319.678 42.072 319.789 41.9981 319.91 41.9477C320.032 41.8973 320.163 41.8713 320.294 41.8713C320.426 41.8713 320.556 41.8973 320.678 41.9477C320.8 41.9981 320.91 42.072 321.003 42.1651L321.753 42.9243C321.939 43.1114 322.043 43.3646 322.043 43.6285C322.043 43.8924 321.939 44.1455 321.753 44.3327C321.66 44.4271 321.55 44.5022 321.428 44.5536C321.306 44.605 321.176 44.6318 321.043 44.6324Z" fill="#5D6FC3"/>
<path d="M334.699 62.9718C330.593 65.7986 324.829 72.1116 326.757 81.8708C327.966 88.0239 336.227 89.4124 343.449 85.4068C346.403 83.7979 348.794 81.3218 350.298 78.3123C351.802 75.3027 352.347 71.9045 351.859 68.5756C350.97 63.3514 341.271 58.4468 334.699 62.9718Z" fill="#FFE1BD"/>
<path d="M337.036 97.6932C336.744 97.6945 336.452 97.661 336.167 97.5933C335.142 97.3551 334.253 96.7221 333.692 95.8319C333.13 94.9417 332.943 93.866 333.17 92.8386C334.299 87.7343 333.76 85.7165 333.75 85.6965C333.772 85.787 333.805 85.8743 333.85 85.9562L341.182 82.7798C341.551 83.6388 342.64 87.0251 340.972 94.5567C340.775 95.4515 340.276 96.2514 339.56 96.8224C338.843 97.3934 337.952 97.7009 337.036 97.6932Z" fill="#FFE1BD"/>
<path d="M334.599 66.8775C334.599 66.8775 331.712 71.3725 330.603 72.9808C330.603 72.9808 332.541 74.4491 333.85 72.741C335.158 71.0329 336.117 67.8265 338.844 67.8764C340.622 67.8764 340.372 69.7743 339.593 71.2926C338.405 73.6001 336.497 74.7887 335.278 74.6389C335.278 74.6389 332.072 79.7432 338.544 83.3792C345.017 87.0151 349.772 82.2704 352.529 77.0063C355.286 71.7421 355.216 64.2904 349.642 60.2449C344.068 56.1994 339.503 56.6189 332.561 57.1284C332.521 57.1284 329.974 61.8132 334.599 66.8775Z" fill="#3B56D7"/>
<path d="M377.831 69.5742C376.706 72.4222 375.322 75.1607 373.695 77.7551C370.269 83.183 364.998 87.1912 358.852 89.0426C357.215 89.5409 355.546 89.928 353.857 90.2013C349.972 90.8405 348.424 92.0093 348.244 95.1258C348.15 95.7882 348.254 96.4636 348.541 97.0676C348.829 97.6715 349.288 98.1774 349.862 98.522C351.051 99.2112 352.909 99.461 355.426 99.0214C357.588 98.6143 359.705 97.9988 361.749 97.1835C365.38 95.7537 368.72 93.6755 371.608 91.0503C373.228 89.571 374.679 87.916 375.933 86.1158C379.151 81.4573 381.031 76.0055 381.367 70.3534L377.831 69.5742Z" fill="#FFE1BD"/>
<path d="M306.28 61.7029C305.85 62.9115 305.411 64.33 304.951 65.9082C304.712 66.7262 304.535 67.5609 304.422 68.4054C304.282 69.2944 304.132 70.2034 303.992 71.1224C303.908 71.594 303.865 72.0719 303.862 72.5508C303.862 73.0403 303.862 73.5497 303.812 74.0192V75.5075C303.784 76.0108 303.801 76.5155 303.862 77.0158C303.962 78.0147 304.072 79.0136 304.172 80.0724C304.272 81.1313 304.611 82.0702 304.831 83.0691C305.802 86.7029 307.501 90.1014 309.826 93.058C310.701 94.1278 311.656 95.1295 312.682 96.0547C313.102 96.4242 313.462 96.7639 313.781 97.0535L314.59 97.6329C316.658 99.1113 318.496 99.6307 319.844 99.371C320.502 99.2572 321.11 98.9459 321.586 98.4784C322.063 98.0109 322.385 97.4094 322.511 96.7539C322.955 95.5825 322.955 94.2893 322.511 93.1179C321.848 91.9616 320.899 90.9951 319.755 90.311L319.205 89.9415C318.975 89.7816 318.726 89.5619 318.426 89.3321C317.701 88.7497 317.008 88.1295 316.348 87.4742C314.533 85.5123 313.094 83.2337 312.103 80.7517C311.853 80.0225 311.514 79.3133 311.304 78.5342L310.705 76.1768C310.591 75.7823 310.517 75.3773 310.485 74.9681L310.315 73.7395L310.135 72.5109C310.06 72.1089 310.02 71.7011 310.015 71.2922C310.015 70.4731 309.945 69.664 309.906 68.8849C309.835 68.1212 309.818 67.3535 309.856 66.5874C309.906 65.0991 309.916 63.7107 309.856 62.492L306.28 61.7029Z" fill="#FFE1BD"/>
<path d="M327.396 139.876C327.396 139.876 331.391 148.866 340.471 148.866C349.551 148.866 354.985 144.281 353.457 134.672C353.506 134.662 334.717 131.455 327.396 139.876Z" fill="#323657"/>
<path d="M355.695 192.268C357.254 182.955 357.976 173.521 357.852 164.079C357.852 158.995 357.563 154.18 357.253 150.335C356.943 146.489 356.504 143.612 356.254 142.434C355.175 136.31 352.308 133.963 348.263 135.341C344.217 136.72 342.869 139.107 343.868 144.591C344.058 145.66 344.587 148.247 345.176 151.813C345.766 155.379 346.465 159.894 347.064 164.749C348.363 174.438 349.322 185.406 350.52 192.208L355.695 192.268Z" fill="#005C91"/>
<path d="M336.765 193.047C337.065 185.865 336.645 174.397 336.765 164.259C336.815 159.184 337.005 154.46 337.284 150.784C337.564 147.108 337.934 144.521 338.083 143.492C338.463 140.795 338.443 139.137 337.794 138.058C337.406 137.485 336.942 136.967 336.415 136.52C336.104 136.209 335.817 135.875 335.556 135.521C335.248 135.133 334.914 134.766 334.557 134.422C334.199 134.059 333.797 133.744 333.359 133.483C332.961 133.221 332.497 133.075 332.02 133.063C330.936 133.098 329.899 133.515 329.093 134.242C327.305 135.76 326.147 138.368 325.677 141.774C325.34 144.618 325.187 147.481 325.218 150.344C325.247 155.164 325.527 159.978 326.057 164.768C327.166 175.336 329.453 186.814 331.671 193.736L336.765 193.047Z" fill="#323657"/>
<path d="M355.695 192.268C357.254 182.955 357.976 173.521 357.852 164.079C357.852 158.995 357.563 154.18 357.253 150.335C356.943 146.489 356.504 143.612 356.254 142.434C355.175 136.31 352.308 133.963 348.263 135.341C344.217 136.72 342.869 139.107 343.868 144.591C344.058 145.66 344.587 148.247 345.176 151.813C345.766 155.379 346.465 159.894 347.064 164.749C348.363 174.438 349.322 185.406 350.52 192.208L355.695 192.268Z" fill="#323657"/>
<path d="M356.523 144.221C356.413 143.432 356.313 142.803 356.234 142.393C355.984 140.193 355.103 138.111 353.696 136.4C353.696 135.851 353.596 135.281 353.507 134.682C353.507 134.682 343.578 132.994 335.347 135.301C335.096 135.007 334.83 134.727 334.548 134.462C334.19 134.1 333.787 133.784 333.349 133.523C332.951 133.261 332.487 133.116 332.01 133.104C330.926 133.138 329.889 133.556 329.084 134.282C327.296 135.801 326.137 138.408 325.668 141.814C325.598 142.254 325.528 142.913 325.458 143.732C335.624 146.384 346.279 146.551 356.523 144.221Z" fill="#004973"/>
<path d="M333.05 90.8005C334.129 90.9703 347.464 95.8948 358.402 86.3255C360.254 90.8904 361.513 95.6742 362.147 100.56C362.147 100.56 357.203 103.396 352.708 103.287C352.708 103.287 352.209 125.782 362.048 139.716C362.048 139.716 341.55 147.647 319.954 139.716C323.781 127.862 325.687 115.473 325.598 103.017C325.598 103.017 317.178 102.018 312.163 97.1235C312.163 97.1235 315.659 87.674 320.064 85.0569C320.064 85.0569 328.934 90.1612 333.05 90.8005Z" fill="#00CA69"/>
<path d="M352.709 103.287C357.204 103.396 362.148 100.56 362.148 100.56C362.148 100.56 356.155 102.887 350.661 101.279C350.661 101.279 349.412 128.169 362.048 139.716C352.209 125.782 352.709 103.287 352.709 103.287Z" fill="#00B15C"/>
<path d="M329.034 101.918C316.938 100.92 312.163 97.1238 312.163 97.1238C317.158 102.038 325.598 103.017 325.598 103.017C325.687 115.473 323.781 127.863 319.954 139.716C328.775 127.84 329.034 101.918 329.034 101.918Z" fill="#00B15C"/>
<path d="M377.891 72.681C377.891 72.681 375.364 71.7321 376.423 67.7865C377.481 63.8409 377.112 62.6222 376.772 61.7931C376.433 60.9641 378.36 60.3348 378.82 63.2915L379.269 66.2881C379.269 66.2881 382.266 60.7343 384.653 59.5157C387.041 58.297 385.852 64.3303 385.043 68.5057C384.234 72.681 379.829 74.0395 377.891 72.681Z" fill="#FFE1BD"/>
<path d="M353.039 190.26C351.993 190.257 350.97 190.567 350.103 191.151C349.236 191.735 348.564 192.566 348.174 193.536C347.75 194.336 347.633 195.263 347.844 196.143C348.021 196.822 348.42 197.423 348.978 197.848C349.535 198.274 350.22 198.5 350.921 198.491H356.075C356.534 198.497 356.989 198.402 357.407 198.214C357.825 198.025 358.197 197.748 358.497 197.4C358.797 197.053 359.017 196.644 359.142 196.203C359.267 195.761 359.295 195.298 359.222 194.845C359.139 194.386 358.98 193.943 358.752 193.536C358.21 192.503 357.385 191.646 356.373 191.066C355.361 190.486 354.204 190.206 353.039 190.26Z" fill="#202443"/>
<path d="M333.879 189.461C332.836 189.523 331.835 189.895 331.005 190.531C330.176 191.166 329.555 192.036 329.224 193.027C328.858 193.855 328.797 194.786 329.054 195.654C329.273 196.32 329.709 196.893 330.292 197.282C330.875 197.672 331.572 197.854 332.271 197.801L337.415 197.482C337.873 197.461 338.321 197.34 338.728 197.127C339.134 196.914 339.489 196.615 339.767 196.25C340.045 195.885 340.24 195.464 340.337 195.016C340.435 194.568 340.433 194.103 340.332 193.656C340.22 193.204 340.038 192.773 339.792 192.378C339.186 191.38 338.307 190.575 337.26 190.059C336.213 189.542 335.04 189.335 333.879 189.461Z" fill="#202443"/>
<path d="M91.1496 187.103C94.1462 191.099 97.6723 198.86 92.7978 207.53C89.7212 213.004 81.4404 211.736 75.8166 205.682C73.5114 203.229 72.0132 200.128 71.5238 196.797C71.0345 193.467 71.5775 190.066 73.0797 187.053C75.5769 182.368 86.315 180.74 91.1496 187.103Z" fill="#FFE1BD"/>
<path d="M85.8751 220.526C84.9672 220.525 84.0866 220.215 83.3785 219.647C82.6704 219.078 82.177 218.286 81.9795 217.4C80.3113 209.858 81.4001 206.472 81.7697 205.613L89.1016 208.799C89.1458 208.717 89.1794 208.63 89.2015 208.54C89.2015 208.54 88.6521 210.537 89.7808 215.672C90.011 216.701 89.8252 217.779 89.2639 218.671C88.7026 219.564 87.8112 220.198 86.7841 220.436C86.4852 220.499 86.1805 220.529 85.8751 220.526Z" fill="#FFE1BD"/>
<path d="M47.5183 186.324C46.5003 191.895 47.0183 197.638 49.0167 202.936C49.7948 204.983 50.7999 206.936 52.0133 208.76C54.2088 212.004 56.9778 214.82 60.1842 217.07C61.9741 218.354 63.8842 219.461 65.8879 220.377C68.2153 221.375 70.0832 221.615 71.4018 221.226C72.0426 221.028 72.611 220.646 73.0356 220.128C73.4603 219.609 73.7224 218.976 73.7891 218.309C74.3585 215.242 73.1398 213.744 69.5238 212.186C67.9576 211.515 66.4361 210.744 64.9689 209.878C59.4518 206.602 55.3021 201.445 53.2819 195.354C52.3452 192.445 51.6764 189.456 51.2841 186.424L47.5183 186.324Z" fill="#FFE1BD"/>
<path d="M136.718 205.273C136.868 204.384 137.467 203.206 139.365 202.177C142.951 200.229 143.58 199.12 143.95 198.301C144.32 197.482 146.098 198.461 144.27 200.828L143.17 203.206L136.718 205.273Z" fill="#FFE1BD"/>
<path d="M144.24 201.228C144.017 201.225 143.804 201.135 143.647 200.976C143.489 200.817 143.401 200.602 143.401 200.379V187.903C143.404 187.681 143.493 187.469 143.65 187.312C143.807 187.156 144.019 187.066 144.24 187.064C144.462 187.066 144.674 187.156 144.831 187.312C144.988 187.469 145.077 187.681 145.08 187.903V200.379C145.08 200.602 144.991 200.817 144.834 200.976C144.677 201.135 144.464 201.225 144.24 201.228Z" fill="#8B9AE2"/>
<path d="M143.401 187.903C143.404 187.681 143.493 187.469 143.65 187.312C143.807 187.156 144.019 187.066 144.24 187.064H155.778C155.999 187.066 156.211 187.156 156.368 187.312C156.525 187.469 156.614 187.681 156.617 187.903C156.617 188.126 156.529 188.341 156.372 188.5C156.214 188.659 156.001 188.749 155.778 188.752H144.24C144.017 188.749 143.804 188.659 143.647 188.5C143.489 188.341 143.401 188.126 143.401 187.903Z" fill="#8B9AE2"/>
<path d="M155.778 180.381C156.001 180.384 156.214 180.475 156.372 180.634C156.529 180.792 156.617 181.007 156.617 181.23V187.903C156.617 188.126 156.529 188.341 156.372 188.5C156.214 188.659 156.001 188.749 155.778 188.752C155.667 188.752 155.557 188.73 155.454 188.687C155.352 188.644 155.259 188.582 155.181 188.503C155.103 188.424 155.041 188.33 155 188.227C154.958 188.124 154.937 188.014 154.939 187.903V181.23C154.937 181.119 154.958 181.009 155 180.906C155.041 180.803 155.103 180.71 155.181 180.631C155.259 180.552 155.352 180.489 155.454 180.446C155.557 180.403 155.667 180.381 155.778 180.381Z" fill="#8B9AE2"/>
<path d="M156.617 181.23C156.614 181.452 156.525 181.664 156.368 181.821C156.211 181.978 155.999 182.067 155.778 182.069H147.637C147.415 182.067 147.203 181.978 147.046 181.821C146.889 181.664 146.8 181.452 146.798 181.23C146.798 181.007 146.886 180.792 147.043 180.634C147.2 180.475 147.413 180.384 147.637 180.381H155.778C156.001 180.384 156.214 180.475 156.372 180.634C156.529 180.792 156.617 181.007 156.617 181.23Z" fill="#8B9AE2"/>
<path d="M151.113 178.443H137.358C136.376 178.443 135.58 179.239 135.58 180.221V182.239C135.58 183.221 136.376 184.017 137.358 184.017H151.113C152.095 184.017 152.891 183.221 152.891 182.239V180.221C152.891 179.239 152.095 178.443 151.113 178.443Z" fill="#64B5EF"/>
<path d="M144.241 215.023C143.542 215.02 142.873 214.741 142.379 214.247C141.885 213.753 141.606 213.084 141.604 212.385V196.783C141.606 196.084 141.885 195.415 142.379 194.921C142.873 194.427 143.542 194.148 144.241 194.146C144.939 194.148 145.609 194.427 146.103 194.921C146.597 195.415 146.875 196.084 146.878 196.783V212.375C146.878 213.076 146.6 213.748 146.106 214.244C145.612 214.74 144.941 215.02 144.241 215.023Z" fill="#5D6FC3"/>
<path d="M142.442 203.196C142.442 203.196 148.495 201.527 151.052 202.436C153.61 203.345 149.224 208.28 144.67 209.269C138.976 210.507 137.198 208.979 136.818 206.622C136.671 206.188 136.637 205.724 136.718 205.273L142.442 203.196Z" fill="#FFE1BD"/>
<path d="M139.256 204.275C134.262 205.433 126.45 207.431 119.348 208.71C112.246 209.988 105.923 210.638 104.305 210.817C100.11 211.317 98.5116 212.715 98.6015 215.812C98.6914 218.908 100.819 220.257 105.374 219.717C110.723 218.945 116.003 217.756 121.166 216.161C128.478 213.944 136.29 210.548 140.675 207.661L139.256 204.275Z" fill="#FFE1BD"/>
<path d="M97.9628 331.024C99.2803 326.914 100.213 322.691 100.75 318.408C101.396 313.407 101.786 308.376 101.918 303.335C102.126 296.339 101.956 289.336 101.409 282.358C100.81 276.505 98.5122 274.257 94.2369 274.837C89.9617 275.416 88.3535 277.983 88.9228 283.607C89.1426 285.774 90.2614 294.155 91.1803 303.634C91.6398 308.379 92.0294 313.374 92.3191 318.018C92.6087 322.663 92.6887 326.889 92.8784 330.195L97.9628 331.024Z" fill="#FFE1BD"/>
<path d="M53.5908 312.065C55.6242 312.574 57.7189 312.796 59.8139 312.724C62.3989 312.615 64.9462 312.064 67.3455 311.096C71.353 309.46 74.8868 306.847 77.6241 303.494C78.0936 302.925 78.5331 302.335 78.9526 301.726C79.0525 301.576 79.1624 301.436 79.2623 301.267L79.5819 300.717L80.1812 299.609C81.319 297.186 82.1898 294.648 82.7783 292.037C83.3078 289.769 83.7073 287.682 83.967 285.844C84.5264 282.178 84.7561 279.481 84.8161 278.362C85.1257 272.589 83.118 270.111 78.8227 270.111C74.5275 270.111 72.5897 272.319 72.3 277.643C72.2401 278.642 72.1701 281.189 71.9504 284.495C71.8605 286.153 71.6807 287.981 71.4509 289.889C71.2414 291.701 70.8805 293.492 70.3721 295.243L70.2123 295.723L70.1724 295.933C70.1724 296.023 70.0725 296.122 70.0225 296.222C69.8298 296.634 69.613 297.034 69.3733 297.421C68.8992 298.231 68.3614 299.003 67.765 299.728C65.4233 302.596 62.3006 304.722 58.775 305.852C57.2297 306.312 55.6496 306.646 54.0503 306.85L53.5908 312.065Z" fill="#FFE1BD"/>
<path d="M92.8582 211.636C91.7794 211.806 80.522 214.773 72.1613 210.867C69.09 214.128 67.1528 218.294 66.6374 222.744C68.7478 223.478 70.943 223.941 73.1702 224.122C73.1702 224.122 82.6396 230.725 76.3866 245.099C68.9848 262.08 67.0669 278.312 63.8206 282.907C63.8206 282.907 84.3277 290.828 105.914 282.907C105.914 282.907 105.354 260.162 98.472 245.099C93.3177 233.831 100.11 231.614 100.27 223.852C102.081 223.727 103.816 223.078 105.264 221.985C105.264 221.985 106.793 212.575 102.378 209.998C102.398 209.958 96.9737 211.027 92.8582 211.636Z" fill="#00CA69"/>
<path d="M50.3646 189.431C50.3646 189.431 53.0416 189.111 52.9617 185.026C52.8818 180.94 53.5311 179.842 54.0605 179.122C54.5899 178.403 52.8618 177.324 51.7131 180.121L50.5544 182.878C50.5544 182.878 49.0061 176.785 46.9484 175.027C44.8907 173.269 44.641 179.412 44.4212 183.667C44.2015 187.923 48.1171 190.27 50.3646 189.431Z" fill="#FFE1BD"/>
<path d="M92.7477 327.557C92.7477 327.557 97.3725 328.556 99.0407 327.557C100.841 328.39 102.829 328.734 104.804 328.556C108.3 328.296 110.658 328.746 110.218 330.794C109.779 332.841 96.7832 334.719 93.4469 333.101C91.6489 332.222 92.7477 327.158 92.7477 327.158" fill="#202443"/>
<path d="M57.2678 306.231C57.2678 306.231 54.7906 310.226 55.1202 312.144C53.7361 313.563 52.7477 315.319 52.2534 317.239C51.2545 320.605 50.0758 322.673 48.2579 321.564C46.4399 320.455 49.1569 307.579 51.8239 305.012C53.2523 303.624 57.6474 306.381 57.6474 306.381" fill="#202443"/>
<path d="M92.9787 189.98C92.9787 189.98 84.4781 200.269 82.6002 220.576C82.6002 220.576 72.5314 223.133 65.709 219.038C65.709 219.038 64.3405 185.545 77.3161 182.079C90.2917 178.613 92.9787 189.98 92.9787 189.98Z" fill="#3B56D7"/>
<path d="M91.8185 194.146C91.8185 194.146 90.2802 190.54 87.3835 191.728C84.4867 192.917 87.3835 199.72 90.0505 199.72C92.7175 199.72 91.8185 194.146 91.8185 194.146Z" fill="#FFE1BD"/>
<path d="M258.643 210.208C255.107 214.613 251.961 223.333 257.225 233.312C260.541 239.605 268.892 240.574 275.435 233.872C281.977 227.169 281.808 216.091 279.131 210.707C276.453 205.323 264.317 203.146 258.643 210.208Z" fill="#FFE1BD"/>
<path d="M265.395 249.604C264.927 249.603 264.462 249.529 264.017 249.384C263.45 249.204 262.924 248.913 262.469 248.529C262.014 248.145 261.64 247.675 261.367 247.146C261.094 246.617 260.929 246.04 260.879 245.447C260.83 244.854 260.898 244.257 261.08 243.69C261.762 240.922 261.888 238.047 261.449 235.23C261.309 234.069 261.621 232.9 262.322 231.964C263.023 231.029 264.058 230.4 265.212 230.209C266.365 230.019 267.547 230.281 268.512 230.941C269.477 231.601 270.149 232.608 270.39 233.751C270.509 234.461 271.498 240.863 269.71 246.447C269.42 247.364 268.845 248.163 268.069 248.731C267.293 249.299 266.356 249.604 265.395 249.604Z" fill="#FFE1BD"/>
<path d="M291.576 204.374C291.097 207.091 290.877 210.637 290.327 214.363C290.207 215.302 290.108 216.261 289.978 217.23C289.848 218.199 289.658 219.148 289.498 220.117C289.239 222.064 288.769 223.942 288.4 225.78C287.711 228.93 286.707 232.002 285.403 234.95C285.175 235.488 284.908 236.009 284.604 236.508C284.397 236.932 284.164 237.343 283.905 237.737C283.435 238.386 283.145 238.956 282.906 239.175C281.907 240.604 281.387 241.443 281.317 242.492C281.296 243.849 281.506 245.2 281.937 246.487C282.087 247.269 282.526 247.966 283.166 248.439C283.806 248.913 284.601 249.129 285.393 249.044C287.151 248.944 289.388 247.656 291.106 245.219C291.651 244.452 292.151 243.655 292.605 242.831C292.943 242.225 293.249 241.601 293.524 240.963C293.88 240.234 294.19 239.484 294.453 238.716C295.773 235.007 296.629 231.148 297 227.229C297.734 219.525 297.317 211.755 295.761 204.174L291.576 204.374Z" fill="#FFE1BD"/>
<path d="M242.333 206.911C243.331 206.632 244.56 205.813 245.499 203.555C247.257 199.27 248.426 198.421 249.305 197.911C250.184 197.402 248.865 195.504 246.418 197.851L244.69 199.52L242.333 206.911Z" fill="#FFE1BD"/>
<path d="M257.288 179.255L245.018 175.122C242.094 174.136 238.924 175.709 237.939 178.633L233.806 190.903C232.821 193.827 234.393 196.997 237.318 197.982L249.588 202.115C252.512 203.1 255.681 201.527 256.666 198.603L260.799 186.333C261.784 183.409 260.212 180.24 257.288 179.255Z" fill="#8B9AE2"/>
<path d="M244.688 199.519L243.979 200.208C243.979 200.208 245.117 193.216 243.779 190.409C242.44 187.602 237.416 193.176 236.847 198.4C236.147 204.973 238.085 206.791 240.792 206.931C241.301 207.044 241.83 207.027 242.331 206.881L244.688 199.519Z" fill="#FFE1BD"/>
<path d="M292.115 206.911C291.116 206.632 289.878 205.813 288.949 203.555C287.181 199.27 286.012 198.421 285.143 197.911C284.274 197.402 285.572 195.504 288.02 197.851L289.748 199.52L292.115 206.911Z" fill="#FFE1BD"/>
<path d="M295.712 178.964L283.484 174.806C280.569 173.815 277.403 175.374 276.412 178.289L272.254 190.517C271.263 193.431 272.822 196.597 275.737 197.588L287.965 201.746C290.879 202.737 294.045 201.178 295.036 198.264L299.194 186.036C300.185 183.121 298.626 179.955 295.712 178.964Z" fill="#00B15C"/>
<path d="M289.748 199.519L290.467 200.208C290.467 200.208 289.319 193.216 290.657 190.409C291.996 187.602 297.03 193.176 297.589 198.4C298.289 204.973 296.361 206.791 293.644 206.931C293.138 207.044 292.612 207.027 292.115 206.881L289.748 199.519Z" fill="#FFE1BD"/>
<path d="M237.537 204.944C237.207 206.182 236.868 207.641 236.538 209.249C236.374 210.084 236.254 210.928 236.178 211.776C236.089 212.655 235.999 213.564 235.909 214.493C235.819 215.422 235.859 216.381 235.839 217.35C235.819 218.319 235.789 219.348 235.839 220.297L236.109 223.293C236.214 224.283 236.371 225.266 236.578 226.24C237.216 229.814 238.363 233.279 239.984 236.528C240.28 237.183 240.614 237.82 240.983 238.436C241.333 239.016 241.612 239.555 241.982 240.005C242.611 240.904 243.071 241.593 243.4 242.002C244.979 244 246.687 244.999 248.115 245.079C248.854 245.119 249.588 244.942 250.227 244.569C250.867 244.196 251.382 243.644 251.711 242.981C253.569 239.985 253.509 238.257 251.282 235.599C251.062 235.35 250.722 234.87 250.223 234.261C249.973 233.971 249.743 233.572 249.454 233.182C249.136 232.753 248.842 232.306 248.575 231.844C247.088 229.42 245.895 226.828 245.019 224.122C244.779 223.343 244.449 222.584 244.269 221.755L243.64 219.298C243.41 218.469 243.321 217.61 243.141 216.78C242.961 215.951 242.781 215.122 242.701 214.283C242.621 213.444 242.481 212.645 242.382 211.846C242.282 211.047 242.142 210.278 242.102 209.518C241.972 208.02 241.822 206.622 241.642 205.403L237.537 204.944Z" fill="#FFE1BD"/>
<path d="M252.75 295.773C252.75 295.773 257.255 305.302 267.553 305.971C280.868 306.84 284.025 300.817 282.367 289.919C282.367 289.939 261.07 286.243 252.75 295.773Z" fill="#323657"/>
<path d="M292.826 356.435C293.145 348.444 292.246 335.668 290.878 324.241C289.509 312.814 287.721 302.715 287.132 300.108C285.644 293.385 282.697 291.018 277.972 292.277C273.247 293.535 271.799 296.682 273.247 303.184C273.857 305.702 276.244 315.411 278.891 326.389C281.538 337.366 284.535 349.733 287.042 357.264L292.826 356.435Z" fill="#323657"/>
<path d="M255.457 358.333C257.455 350.402 259.543 337.486 261.63 326.069C262.629 320.365 263.718 315.081 264.627 310.886C265.536 306.69 266.345 303.734 266.625 302.495C267.394 299.309 267.524 296.991 266.884 295.203C266.245 293.415 264.827 292.136 262.519 291.297C260.212 290.458 258.284 290.578 256.636 291.847C254.988 293.115 253.639 295.543 252.79 299.139C252.46 300.537 251.791 303.933 251.102 308.448C250.413 312.963 249.883 318.627 249.504 324.59C248.745 336.527 248.745 349.732 249.604 357.913L255.457 358.333Z" fill="#323657"/>
<path d="M263.028 241.783C264.257 241.973 270.57 245.069 283.945 230.266C283.945 230.266 290.388 238.347 291.307 246.717C291.307 246.717 287.731 251.482 282.637 251.342C282.637 251.342 280.769 276.055 287.811 294.344C282.4 297.047 276.477 298.571 270.433 298.818C264.39 299.064 258.363 298.026 252.75 295.773C252.75 295.773 252.84 277.733 252.42 255.617C252.42 255.617 246.527 253.52 242.132 245.069C242.132 245.069 245.058 236.778 250.063 233.822C250.063 233.822 258.374 240.994 263.028 241.783Z" fill="#00CA69"/>
<path d="M256.067 218.019C256.067 218.019 255.068 213.944 251.762 214.733C248.455 215.522 250.483 223.233 253.26 223.673C256.037 224.112 256.067 218.019 256.067 218.019Z" fill="#FFE1BD"/>
<path d="M278.94 219.228C278.94 219.228 280.518 215.332 283.655 216.561C286.792 217.789 283.745 225.161 280.928 225.211C278.111 225.261 278.94 219.228 278.94 219.228Z" fill="#FFE1BD"/>
<path d="M253.778 214.383C254.446 211.699 255.905 209.277 257.966 207.432C260.026 205.587 262.594 204.403 265.335 204.034C275.124 202.566 280.159 206.412 281.607 215.122C283.056 223.832 277.052 232.513 267.623 232.103C265.473 232.05 263.362 231.521 261.441 230.555C259.52 229.589 257.838 228.209 256.514 226.514C255.19 224.82 254.258 222.853 253.785 220.755C253.312 218.658 253.31 216.482 253.778 214.383Z" fill="#3B56D7"/>
<path d="M422.181 322.673H357.483V372.288H422.181V322.673Z" fill="#00B15C"/>
<path d="M374.714 311.895L357.483 322.673H422.191L404.96 311.895H374.714Z" fill="#8B9AE2"/>
<path d="M404.95 311.895H374.714V322.683H404.95V311.895Z" fill="#5D6FC3"/>
<path d="M357.483 322.673L366.803 334.33H389.837H412.382L422.191 322.673H357.483Z" fill="#00CA69"/>
<path d="M404.96 311.895L422.191 317.289L435.666 326.499L422.191 322.673L404.96 311.895Z" fill="#00CA69"/>
<path d="M289.928 354.607C288.742 354.599 287.581 354.947 286.594 355.606C285.608 356.265 284.841 357.204 284.394 358.303C283.907 359.222 283.772 360.288 284.015 361.299C284.213 362.07 284.665 362.751 285.297 363.235C285.929 363.718 286.705 363.976 287.501 363.966H293.344C293.862 363.974 294.376 363.868 294.849 363.657C295.322 363.446 295.744 363.134 296.084 362.743C296.425 362.352 296.676 361.892 296.82 361.394C296.965 360.896 296.999 360.373 296.92 359.861C296.82 359.341 296.642 358.839 296.391 358.373C295.781 357.197 294.849 356.22 293.705 355.553C292.561 354.886 291.251 354.558 289.928 354.607Z" fill="#202443"/>
<path d="M251.33 355.866C250.147 355.885 248.996 356.253 248.021 356.925C247.047 357.597 246.294 358.542 245.856 359.642C245.492 360.378 245.34 361.201 245.42 362.018C245.499 362.836 245.806 363.615 246.306 364.267L248.254 365.265L256.125 365.176C256.704 365.17 257.261 364.954 257.693 364.568C258.125 364.182 258.402 363.653 258.472 363.078C258.656 361.861 258.443 360.617 257.863 359.532C257.234 358.364 256.286 357.399 255.129 356.75C253.972 356.101 252.655 355.794 251.33 355.866Z" fill="#202443"/>
<path d="M374.715 311.895L355.936 317.289L342.451 326.499L357.484 322.673L374.715 311.895Z" fill="#00CA69"/>
</svg>
