<svg width="480" height="380" viewBox="0 0 480 380" fill="none" xmlns="http://www.w3.org/2000/svg">
<path opacity="0.95" d="M281.378 174.85H187.554C180.142 174.85 174.125 168.834 174.125 161.422V67.6068C174.125 60.1949 180.142 54.1785 187.554 54.1785H281.378C288.79 54.1785 294.807 60.1949 294.807 67.6068V161.422C294.784 168.857 288.79 174.85 281.378 174.85Z" fill="url(#paint0_linear)"/>
<path d="M262.39 147.376H206.521V150.144H262.39V147.376Z" fill="#96BFE6"/>
<path d="M254.473 156.092H214.437V158.86H254.473V156.092Z" fill="#96BFE6"/>
<path opacity="0.95" d="M463.991 289.872H330.452C321.712 289.872 314.643 282.803 314.643 274.064V111.85C314.643 103.111 321.712 96.0422 330.452 96.0422H463.991C472.73 96.0422 479.8 103.111 479.8 111.85V274.064C479.8 282.803 472.73 289.872 463.991 289.872Z" fill="url(#paint1_linear)"/>
<path d="M402.632 210.4H389.523V212.825H402.632V210.4Z" fill="#4598E6"/>
<path d="M416.039 232.613H339.809V237.302H416.039V232.613Z" fill="#96BFE6"/>
<path d="M401.442 255.169H339.809V259.858H401.442V255.169Z" fill="#96BFE6"/>
<path d="M375.933 243.891H339.809V248.58H375.933V243.891Z" fill="#96BFE6"/>
<path d="M435.965 115.373V117.752H449.944V130.86H452.323V115.373H435.965ZM341.113 130.86H343.492V117.752H357.471V115.373H341.136V130.86H341.113ZM449.921 198.482V211.59H435.965V213.969H452.3V198.482H449.921ZM343.492 198.482H341.113V213.969H357.448V211.59H343.469V198.482H343.492Z" fill="#4598E6"/>
<path d="M444.91 260.224C437.201 260.224 430.932 253.956 430.932 246.247C430.932 238.538 437.201 232.27 444.91 232.27C452.62 232.27 458.889 238.538 458.889 246.247C458.866 253.956 452.597 260.224 444.91 260.224ZM444.91 234.992C438.688 234.992 433.654 240.047 433.654 246.247C433.654 252.469 438.71 257.502 444.91 257.502C451.11 257.502 456.166 252.446 456.166 246.247C456.166 240.025 451.11 234.992 444.91 234.992Z" fill="#4598E6"/>
<path d="M444.018 251.737L437.658 245.4L439.58 243.479L444.018 247.917L450.241 241.694L452.14 243.616L444.018 251.737Z" fill="#4598E6"/>
<path d="M226.653 379.752C351.83 379.752 453.307 375 453.307 369.138C453.307 363.275 351.83 358.523 226.653 358.523C101.476 358.523 0 363.275 0 369.138C0 375 101.476 379.752 226.653 379.752Z" fill="#8B9AE2"/>
<path opacity="0.95" d="M275.109 58.708H193.777V128.48H275.109V58.708Z" fill="url(#paint2_linear)"/>
<path d="M265.523 101.189C262.847 94.0975 256.418 90.8491 253.375 89.8426C252.3 89.4765 250.355 88.8589 248.319 88.1955C244.659 87.0059 240.632 85.7249 240.632 85.7249H227.98C227.98 85.7249 223.588 87.1889 218.944 88.836C214.643 90.3458 210.136 91.9929 208.603 92.7478C205.423 94.3263 200.069 105.696 198.994 107C198.445 107.663 195.951 112.101 193.503 117.042H207.139C208.58 114.572 209.701 112.65 209.701 112.65C209.701 112.65 210.57 114.549 211.6 117.042H255.297C255.983 114.137 256.418 110.477 256.418 110.477C256.418 110.477 258.752 113.657 261.314 117.042H273.897C270.831 111.872 267.033 105.192 265.523 101.189Z" fill="#00CA69"/>
<path d="M235.828 50.9298C235.828 50.9298 245.734 52.4854 244.224 67.9725C242.714 83.4597 233.974 82.1786 233.402 82.1786C232.808 82.1558 224.64 82.4531 224 63.5575C223.977 63.5346 223.702 49.5572 235.828 50.9298Z" fill="#EEA886"/>
<path d="M244.361 63.6031C244.361 63.6031 245.437 62.4364 245.848 63.626C246.237 64.7927 244.361 70.0313 244.293 70.26C244.293 70.26 244.087 70.7176 243.835 70.4659C243.584 70.2143 244.361 63.6031 244.361 63.6031Z" fill="#EEA886"/>
<path d="M224.251 63.3971C224.251 63.3971 223.199 62.2076 222.764 63.3742C222.353 64.5409 224.091 69.8024 224.183 70.054C224.183 70.054 224.366 70.5116 224.64 70.2599C224.892 70.0312 224.251 63.3971 224.251 63.3971Z" fill="#EEA886"/>
<path d="M244.361 65.9594L242.943 67.8581C242.943 67.8581 242.988 63.6947 242.76 63.0541C242.531 62.4136 242.188 60.4234 242.005 59.943C241.822 59.4854 233.494 57.1521 226.173 60.6293C226.173 60.6293 226.493 63.626 225.784 63.8777C225.075 64.1522 225.418 68.7503 225.418 68.7503L224.251 67.4464C224.251 67.4464 222.467 55.5279 222.901 54.2926C223.336 53.0573 224.755 45.5768 239.808 50.0147C239.808 50.0147 244.498 49.031 245.436 52.2566C246.397 55.4821 244.361 65.9594 244.361 65.9594Z" fill="#3B56D7"/>
<path d="M241.868 85.4274C241.868 85.4045 240.586 84.8097 240.586 84.8097C239.969 83.4372 240.426 77.6037 240.426 77.6037C240.426 77.6037 227.82 74.4011 228.186 76.8488C228.553 79.2966 227.111 84.9927 227.111 84.9927L220.637 88.1954C220.637 88.1954 227.523 106.702 235.439 104.3C243.355 101.921 246.352 87.5091 246.352 87.5091L241.868 85.4274Z" fill="#EEA886"/>
<path d="M228.369 79.5704C228.369 79.5704 230.405 82.2012 233.928 82.2012C236.239 82.2012 237.909 81.5606 240.22 79.2959C240.22 79.2959 239.213 83.5737 233.951 83.9626C233.951 83.9855 230.131 84.4659 228.369 79.5704Z" fill="#A77860"/>
<path d="M191.993 141.703C191.993 141.703 199.268 145.271 197.461 154.948C195.653 164.625 194.876 165.929 196.889 169.703C198.902 173.478 201.281 189.628 199.474 192.671C197.667 195.736 177.054 179.243 174.217 165.402C171.357 151.562 176.024 145.409 177.671 143.121C179.296 140.811 185.564 138.454 191.993 141.703Z" fill="#3B56D7"/>
<path d="M189.248 366.324H190.895V358.546C190.895 358.546 194.121 360.696 196.157 363.67C198.193 366.644 200.984 366.393 205.217 366.21C209.472 366.027 209.266 364.311 208.9 361.909C208.511 359.507 204.21 358.729 202.815 358.363C201.419 357.974 198.262 352.53 197.232 351.203C195.837 349.396 195.105 347.657 195.105 347.657C195.105 347.657 194.304 344.431 190.392 347.657C186.457 350.883 187.601 357.105 188.035 357.677C188.47 358.226 189.248 366.324 189.248 366.324Z" fill="#163342"/>
<path d="M197.552 358.34C199.016 359.301 202.814 358.34 202.814 358.34C201.739 356.945 195.104 347.634 195.104 347.634C191.078 345.278 189.476 348.526 189.476 348.526C191.124 349.03 196.088 357.402 197.552 358.34Z" fill="#EEA886"/>
<path d="M239.945 214.93C239.945 214.93 242.576 215.433 243.491 214.197C244.269 213.145 246.008 212.345 246.557 212.093C247.289 211.75 249.119 209.897 249.531 210.812C249.966 211.727 246.649 214.014 246.054 214.632C245.459 215.25 249.302 215.524 249.943 216.119C250.606 216.714 249.783 223.051 247.175 222.547C244.567 222.044 242.096 219.802 241.615 219.802C241.135 219.802 239.694 219.528 239.694 219.528L239.945 214.93Z" fill="#EEA886"/>
<path d="M249.371 215.867C249.371 215.867 257.264 217.903 257.675 218.475C258.087 219.047 257.95 219.481 257.195 219.321C256.44 219.161 249.508 217.583 249.508 217.583C249.508 217.583 258.43 221.563 258.888 221.952C259.14 222.181 258.934 223.027 258.522 222.959C258.11 222.913 249.027 219.459 249.027 219.459C249.027 219.459 257.355 223.187 257.63 223.645C257.858 224.034 257.469 224.743 256.829 224.514C256.188 224.285 248.25 221.243 248.25 221.243C248.25 221.243 254.152 224.331 254.152 224.857C254.152 225.178 254.015 225.887 252.505 225.04C251.018 224.194 247.266 222.57 247.266 222.57L249.371 215.867Z" fill="#EEA886"/>
<path d="M167.879 366.849H168.886V361.153C168.886 361.153 170.693 363.006 171.517 365.728C172.34 368.451 175.292 369.274 179.799 369.137C184.306 369 184.374 367.238 183.985 364.562C183.596 361.908 179.799 360.513 179.799 360.513C178.083 358.98 173.827 352.689 173.827 352.689C173.827 352.689 171.105 351.957 168.954 353.696C166.804 355.411 167.49 359.323 167.536 360.33C167.627 361.336 167.879 366.849 167.879 366.849Z" fill="#163342"/>
<path d="M170.99 230.92C170.99 230.92 165.637 237.897 164.173 246.178C162.708 254.459 165.042 282.231 164.973 286.303C164.905 290.398 161.107 300.578 161.862 308.264C162.617 315.973 165.614 354.314 165.614 354.314L173.827 352.689C173.827 352.689 173.347 313.594 173.827 310.369C174.308 307.143 175.269 295.339 175.452 294.012C175.635 292.685 187.531 257.73 187.531 251.76C187.531 245.789 183.916 221.197 170.99 230.92Z" fill="#1D3B54"/>
<path d="M197.941 233.642C197.941 233.642 206.749 267.27 207.801 271.937C208.854 276.604 210.364 280.447 210.364 282.414C210.364 287.012 208.648 294.378 208.648 294.378L197.46 347.909H186.799C186.799 347.909 192.748 315.79 192.908 309.522C193.068 303.231 197.918 294.287 196.957 291.633C195.996 288.98 181.652 258.257 181.652 258.257C181.652 258.257 170.762 223.874 197.941 233.642Z" fill="#1D3B54"/>
<path d="M179.799 360.513L173.828 352.689L168.955 353.696C168.955 353.696 170.259 357.196 172.638 359.827C175.452 362.938 179.799 360.513 179.799 360.513Z" fill="#EEA886"/>
<path d="M194.303 176.497C194.303 176.497 197.941 176.84 200.686 179.791C203.432 182.742 206.017 187.432 206.726 188.987C207.435 190.566 217.525 205.092 218.051 205.413C218.577 205.733 223.633 207.426 226.996 208.569C232.167 210.308 242.553 214.083 242.553 214.083L240.494 220.602C240.494 220.602 220.956 214.22 216.083 213.007C210.112 211.543 196.34 193.883 196.34 193.883C196.34 193.883 186.044 181.85 194.303 176.497Z" fill="#285173"/>
<path d="M187.943 173.935C187.943 173.935 192.656 176.154 194.281 176.475C195.905 176.795 202.265 185.03 203.363 188.05C204.484 191.047 203.363 195.576 201.075 200.861C198.788 206.145 200.938 207.929 199.909 213.214C198.856 218.498 199.199 238.309 199.405 241.26C199.611 244.211 168.817 248.649 162.732 243.296C162.732 243.296 166.85 225.452 171.723 220.351C172.775 219.253 172.661 211.91 171.952 210.08C171.242 208.25 163.121 194.593 163.121 194.593C163.121 194.593 162.526 180.73 166.072 177.984C169.138 175.605 177.511 174.759 179.021 174.233C180.508 173.707 184.878 173.478 187.943 173.935Z" fill="#3B56D7"/>
<path d="M190.208 168.514C190.208 168.514 190.071 169.818 189.911 171.556C189.842 172.243 189.774 173.02 189.728 173.798C189.545 176.154 189.385 178.671 189.476 179.952C189.476 179.952 184.58 184.847 179.021 174.233C179.021 174.233 181.355 169.863 179.593 163.893C177.808 157.922 190.208 168.514 190.208 168.514Z" fill="#EEA886"/>
<path d="M203.889 202.827C203.889 202.827 205.056 195.004 203.821 190.246C203.821 190.246 203.821 194.34 201.579 200.151L203.889 202.827Z" fill="#183C59"/>
<path d="M175.246 174.988C175.246 174.988 178.609 184.916 187.852 184.184C197.095 183.452 192.222 175.789 192.222 175.789C192.222 175.789 189.911 174.462 189.271 174.347C188.63 174.233 179.067 174.096 179.067 174.096L175.246 174.988Z" fill="#EEA886"/>
<path d="M192.222 175.811C192.222 175.811 197.049 189.194 197.049 202.828C197.049 216.462 197.438 238.675 199.131 245.698C200.824 252.721 205.628 274.407 205.628 274.407L209.403 272.463C209.403 272.463 200.343 237.828 199.657 235.335C198.971 232.841 200.183 206.465 200.824 204.246C201.464 202.027 204.233 192.213 203.798 189.468C203.249 186.037 200.046 180.936 194.853 176.566L192.222 175.811Z" fill="#285173"/>
<path d="M177.076 174.576C177.076 174.576 180.073 184.207 181.606 196.537C183.138 208.867 176.938 266.103 172.775 279.097L156.668 276.489C156.668 276.489 160.146 236.044 164.836 228.678C169.526 221.312 171.036 214.792 165.957 199.442C160.878 184.069 168.176 176.474 168.176 176.474C168.176 176.474 175.657 174.736 177.076 174.576Z" fill="#285173"/>
<path d="M194.441 215.41L174.925 249.243L153.191 236.684L171.883 202.37L194.441 215.41Z" fill="#616161"/>
<path d="M192.107 216.553L174.743 246.612L155.457 235.472L172.066 205.001L192.107 216.553Z" fill="#E0CEC7"/>
<path d="M185.701 213.854L186.913 211.75L179.112 207.243L177.602 209.187L185.701 213.854Z" fill="#616161"/>
<path d="M184.763 237.874C184.763 237.874 183.871 237.874 183.482 237.691C183.482 237.691 182.796 237.302 182.293 237.051C182.132 236.982 181.995 236.913 181.904 236.868C181.515 236.73 180.6 236.547 179.73 235.953C178.861 235.358 175.818 231.812 175.818 231.812L177.259 229.616L178.312 227.374C178.312 227.374 184.741 227.786 185.61 228.243C185.701 228.289 185.77 228.335 185.839 228.381C186.525 228.838 186.868 229.479 187.189 229.776C187.303 229.89 188.47 231.011 188.424 231.492C188.378 232.155 188.058 232.613 187.646 232.819C187.646 232.819 187.486 234.122 186.845 234.74C186.845 234.74 186.731 235.953 185.724 236.479C185.724 236.479 185.473 237.691 184.763 237.874Z" fill="#EEA886"/>
<path d="M171.517 176.497C171.517 176.497 165.591 174.804 162.183 181.324C158.774 187.867 158.797 190.658 158.339 193.837C157.904 196.857 155.983 205.07 155.777 205.939C155.571 206.785 151.201 216.919 153.214 220.465C155.228 224.034 175.772 234.511 175.635 235.289C175.498 236.067 179.181 227.374 179.181 227.374C179.181 227.374 170.876 222.753 169.504 221.312C167.284 219.001 162.64 216.508 163.578 213.625C164.699 210.24 168.085 198.87 168.863 197.2C169.687 195.53 176.527 178.625 171.517 176.497Z" fill="#285173"/>
<path d="M190.941 142.778C190.941 142.778 201.51 146.095 195.768 164.327C190.026 182.559 175.612 162.222 177.122 151.105C178.632 139.987 190.941 142.778 190.941 142.778Z" fill="#EEA987"/>
<path d="M196.843 153.415C196.843 153.415 191.603 158.562 182.818 159.203C182.818 159.203 179.432 163.16 179.181 164.716C179.181 164.716 171.333 151.356 180.988 143.35C190.597 135.343 200.366 150.121 196.843 153.415Z" fill="#3B56D7"/>
<path d="M182.91 159.569C182.842 158.242 182.018 155.223 180.05 156.069C178.083 156.916 180.165 163.069 181.469 162.68C181.492 162.68 183.07 162.703 182.91 159.569Z" fill="#EEA987"/>
<path d="M189.888 171.556C189.819 172.242 189.751 173.02 189.705 173.798C189.705 173.798 185.038 173.523 181.927 166.592C182.132 166.889 185.541 171.899 189.888 171.556Z" fill="#A77860"/>
<path d="M74.2395 338.209C81.0114 333.451 88.9272 300.258 89.4077 280.493C89.6593 270.359 92.6335 266.149 95.2873 262.421C97.8039 258.852 100 255.787 98.719 248.741C96.294 235.267 102.677 229.433 102.746 229.387L102.013 228.541C101.739 228.793 95.0814 234.786 97.6209 248.947C98.8105 255.535 96.843 258.303 94.3722 261.78C91.7641 265.44 88.5383 269.993 88.2866 280.47C87.7833 301.676 79.6845 333.016 73.5989 337.294L74.2395 338.209Z" fill="url(#paint3_linear)"/>
<path d="M60.0549 328.532C59.4143 327.091 58.7508 325.581 57.9959 324.003C54.1295 315.836 50.6977 314.486 45.024 312.267C43.6284 311.718 42.0727 311.101 40.334 310.323C32.2122 306.663 33.7679 301.287 35.1635 296.529C35.3465 295.865 35.5524 295.202 35.7126 294.538C36.4218 291.747 35.0491 290.352 32.9672 288.224C31.4115 286.646 29.4897 284.679 28.0027 281.59C26.3783 278.205 27.2019 276.375 28.1857 275.46C30.2447 273.515 35.0034 273.858 39.4875 276.306C40.883 277.061 42.0269 278.273 43.2395 279.554C46.0992 282.551 49.6682 286.28 58.6822 286.326C63.8298 286.349 66.6438 287.058 68.0851 288.705C69.7323 290.558 69.4349 293.349 69.0002 297.192C68.8401 298.519 68.6799 300.029 68.5884 301.676C67.9707 311.398 73.7131 318.421 73.7817 318.49C77.2135 322.585 81.4459 331.049 79.6157 336.287C78.8607 338.483 77.1448 339.856 74.5367 340.382C73.5072 340.588 72.5463 340.702 71.677 340.702C65.4084 340.68 63.0977 335.464 60.0549 328.532ZM39.007 277.29C35.0034 275.094 30.7023 274.659 29.0093 276.26C27.7281 277.473 28.323 279.577 29.0551 281.11C30.4506 284.038 32.2351 285.845 33.7908 287.447C35.9642 289.666 37.6801 291.427 36.8107 294.836C36.6506 295.499 36.4447 296.185 36.2388 296.849C34.8661 301.584 33.5392 306.045 40.7915 309.316C42.4845 310.071 44.0631 310.689 45.4358 311.238C51.1782 313.48 54.9531 314.967 59.0025 323.545C59.7575 325.147 60.4209 326.634 61.0615 328.098C64.5619 336.036 66.6895 340.84 74.3308 339.284C76.5271 338.849 77.9456 337.706 78.5861 335.921C80.1876 331.323 76.3441 323.271 72.9581 319.222C72.7065 318.924 66.8725 311.81 67.5131 301.607C67.6275 299.937 67.7877 298.427 67.9478 297.078C68.3368 293.509 68.6342 290.947 67.3072 289.46C66.0947 288.11 63.4408 287.492 58.7279 287.47C49.2335 287.424 45.5044 283.512 42.4845 280.355C41.272 279.074 40.2425 277.976 39.007 277.29Z" fill="#00CA69"/>
<path d="M74.445 347.153L75.566 347.085C75.5203 346.032 74.1018 321.258 64.1499 314.029C53.237 306.068 49.8053 297.535 48.1581 291.793C46.2363 285.045 36.3987 283.238 35.9869 283.146L35.781 284.244C35.8725 284.267 45.3441 286.006 47.0828 292.091C48.7758 297.993 52.299 306.777 63.4864 314.921C73.0266 321.852 74.445 346.902 74.445 347.153Z" fill="url(#paint4_linear)"/>
<path d="M72.5693 352.712C70.2357 351.546 70.3043 346.856 70.4416 339.764C70.6018 330.797 70.8305 318.535 66.1405 307.235C61.1531 295.247 65.5915 291.747 69.8925 288.339C74.697 284.541 79.2497 280.95 70.5331 264.776C66.5295 257.342 65.2483 252.309 66.5295 248.946C67.7878 245.629 71.3339 244.325 75.0859 242.953C81.5604 240.596 88.8814 237.897 87.9434 224.217C87.646 220.031 88.1493 217.446 89.4991 216.096C90.9633 214.632 93.1139 214.792 95.6304 214.975C99.4053 215.25 103.684 215.57 107.413 210.697C107.802 209.485 111.371 198.642 115.626 196.766C116.518 196.377 117.41 196.377 118.234 196.789C121.185 198.207 122.878 199.877 123.45 201.89C124.434 205.413 121.849 209.393 118.875 213.991C114.185 221.22 108.854 229.433 114.368 239.201C121.666 252.103 117.822 256.633 112.469 262.878C109.403 266.469 105.948 270.518 103.615 277.13C101.762 282.46 104.942 287.538 108.008 292.434C111.874 298.587 115.855 304.97 107.458 310.483C93.5714 319.611 79.8445 349.441 79.7073 349.738L79.6615 349.853L79.5471 349.944C76.9848 351.957 75.1316 352.895 73.7132 352.895C73.3014 352.964 72.9124 352.895 72.5693 352.712ZM106.841 309.614C114.322 304.695 110.959 299.319 107.07 293.097C104.004 288.202 100.526 282.643 102.563 276.832C104.942 270.015 108.488 265.874 111.622 262.214C116.861 256.084 120.316 252.034 113.384 239.819C107.527 229.456 113.292 220.58 117.914 213.465C120.751 209.096 123.221 205.298 122.352 202.279C121.872 200.586 120.362 199.145 117.731 197.887C117.205 197.635 116.655 197.635 116.061 197.887C112.103 199.602 108.465 211.086 108.442 211.223L108.419 211.315L108.351 211.384C104.233 216.805 99.4053 216.462 95.5389 216.165C93.2282 216.005 91.398 215.867 90.277 216.965C89.1788 218.04 88.7899 220.42 89.0415 224.217C90.0482 238.743 81.9493 241.694 75.4519 244.074C71.7914 245.4 68.6571 246.567 67.559 249.404C66.4151 252.446 67.6505 257.182 71.494 264.296C80.6681 281.316 75.5434 285.365 70.556 289.277C66.3922 292.548 62.48 295.636 67.1472 306.846C71.9287 318.352 71.6999 330.751 71.5398 339.81C71.4254 345.987 71.3339 350.882 73.0497 351.729C74.0564 352.232 75.9552 351.385 78.7235 349.235C79.8445 346.81 92.9995 318.718 106.841 309.614Z" fill="#00CA69"/>
<path d="M50.652 222.73C57.7213 220.305 56.2571 233.939 59.2313 244.005C62.2283 254.093 92.4503 248.397 79.7758 273.629C67.0785 298.862 95.8363 282.071 87.2341 304.1C78.6548 326.13 86.4791 349.67 77.1448 343.699C67.8106 337.705 71.9058 309.98 62.2054 306.685C52.5051 303.391 50.9037 299.548 60.5353 290.581C70.1441 281.613 35.3465 272.737 43.9487 254.642C52.5051 236.547 42.4845 225.521 50.652 222.73Z" fill="#00CA69"/>
<path d="M73.896 342.235C74.7882 338.46 82.3837 305.29 75.2915 301.264C69.0458 297.718 69.206 283.969 70.1668 270.998C71.0362 259.515 56.2569 254.139 55.6392 253.91L55.2732 254.962C55.4105 255.008 69.8465 260.269 69.0687 270.907C68.062 284.244 67.9705 298.381 74.7425 302.224C80.1188 305.267 75.1771 331.94 72.7978 341.96L73.896 342.235Z" fill="white"/>
<path d="M100.572 330.431L90.4597 368.702H67.9247L57.8354 330.431H100.572Z" fill="url(#paint5_linear)"/>
<path d="M100.572 330.431C100.572 330.431 78.3571 334.594 78.3571 368.725H67.9247L57.8354 330.431H100.572Z" fill="url(#paint6_linear)"/>
<path opacity="0.95" d="M384.284 89.3626H317.685C311.6 89.3626 306.658 84.4214 306.658 78.3363V20.5512C306.658 14.4661 311.6 9.5249 317.685 9.5249H384.284C390.369 9.5249 395.311 14.4661 395.311 20.5512V78.3363C395.311 84.4214 390.369 89.3626 384.284 89.3626Z" fill="url(#paint7_linear)"/>
<path d="M354.153 74.2412H347.129V75.5451H354.153V74.2412Z" fill="#4598E6"/>
<path d="M356.99 2.52442C356.99 2.52442 362.664 5.63558 360.857 13.2762C359.049 20.9168 358.363 21.9463 359.827 25.0346C361.291 28.1228 362.572 41.0707 361.017 43.4499C359.461 45.829 343.652 31.8974 341.891 20.7567C340.129 9.61602 344.087 4.88067 345.482 3.1192C346.878 1.35774 352.003 -0.312221 356.99 2.52442Z" fill="#3B56D7"/>
<path d="M367.629 65.7312H361.566C361.269 62.7344 360.994 60.6527 361.063 60.3553C361.154 59.852 355.023 43.793 354.451 42.4433C353.879 41.1164 351.637 37.5478 351.34 34.2078C351.042 30.8451 355.412 29.4954 355.412 29.4954C361.314 30.5477 363.328 38.7144 363.328 38.7144C363.328 38.7144 365.799 55.2768 367.057 59.9435C367.377 61.1559 367.56 63.2606 367.629 65.7312Z" fill="#EEA886"/>
<path d="M364.586 42.7181L355.549 46.5155C355.549 46.5155 347.244 25.9041 354.199 28.2146C361.154 30.5251 364.266 34.8258 364.586 42.7181Z" fill="#385369"/>
<path d="M362.572 52.4177C362.298 54.4537 361.222 61.7055 361.474 63.6728C361.52 63.9931 361.657 64.748 361.84 65.7545H340.06C340.632 63.6957 341.158 61.8656 341.479 60.7904C342.531 57.2903 341.524 56.3524 340.998 53.5387C340.792 52.4406 340.06 50.3589 339.259 48.0026C338.985 47.2248 338.71 46.4013 338.459 45.5778C337.498 42.6039 337.063 39.5613 336.789 37.7999C335.485 29.4272 341.913 28.6265 341.913 28.6265C344.316 28.1919 348.502 26.8879 348.502 26.8879L355.045 28.2605C355.045 28.2605 355.663 28.4893 356.578 29.1756C357.013 29.4958 357.516 29.9305 358.042 30.4566C358.752 31.1887 360.193 33.2933 361.611 35.6038C362.046 36.3129 362.481 37.045 362.893 37.7541C364.219 40.0646 365.18 41.9176 365.135 44.0222C365.135 46.0582 362.847 50.3818 362.572 52.4177Z" fill="#385369"/>
<path d="M355.045 28.2144C355.045 28.2144 359.14 35.2374 357.63 35.7636C356.097 36.2897 348.067 34.5054 344.91 27.8942C344.91 27.8942 350.195 25.4922 355.045 28.2144Z" fill="#EEA886"/>
<path d="M354.45 31.4169C354.45 31.4169 350.813 32.9496 347.495 27.8711C347.495 27.8711 348.388 22.1063 346.512 18.7664C344.636 15.4265 354.702 22.7697 354.702 22.7697C354.702 22.7697 354.542 23.456 354.359 24.4626C354.267 24.9887 354.176 25.5835 354.107 26.224C354.061 26.7502 354.015 27.3221 353.993 27.8711C353.97 29.1979 354.061 30.5018 354.45 31.4169Z" fill="#EEA886"/>
<path d="M345.391 39.2861C344.636 43.1522 339.26 47.9791 339.26 47.9791C338.985 47.2013 338.711 46.3777 338.459 45.5542C342.165 43.1751 345.391 39.2861 345.391 39.2861Z" fill="#393D63"/>
<path d="M344.041 42.3518C343.698 43.7702 342.119 57.9991 342.302 58.5024C342.394 58.7769 343.172 62.0711 343.927 65.7313H336.903C336.194 63.375 335.759 61.4077 335.851 60.3096C336.308 55.5056 334.661 40.1786 334.661 40.1786C334.661 40.1786 333.197 30.9138 340.884 29.7471C340.884 29.7471 345.437 30.3418 345.711 33.7046C346.009 37.0674 344.384 40.9564 344.041 42.3518Z" fill="#EEA886"/>
<path d="M334.112 44.3195L343.652 46.5385C343.652 46.5385 351.225 31.8292 344.407 29.1526C337.223 26.3389 332.396 36.3129 334.112 44.3195Z" fill="#385369"/>
<path d="M356.121 3.32536C356.121 3.32536 364.426 6.36789 359.164 20.6883C353.902 35.0088 343.172 18.2406 344.796 9.45616C346.398 0.648851 356.121 3.32536 356.121 3.32536Z" fill="#EEA987"/>
<path d="M360.422 12.0411C360.422 12.0411 356.053 15.9529 349.006 16.136C349.006 16.136 347.359 20.1393 347.107 21.3746C347.107 21.3746 340.175 9.45612 348.137 3.4397C356.144 -2.5996 363.374 9.54763 360.422 12.0411Z" fill="#3B56D7"/>
<path d="M349.967 16.982C349.967 15.9297 349.417 13.482 347.816 14.0767C346.214 14.6715 347.656 19.6585 348.708 19.4069C348.708 19.4069 349.989 19.4984 349.967 16.982Z" fill="#EEA987"/>
<path d="M354.039 27.6654C350.15 26.5903 348.64 22.8615 348.594 22.7471C351.774 26.8419 354.153 26.2471 354.153 26.2471C354.085 26.7961 354.085 27.1164 354.039 27.6654Z" fill="#A77860"/>
<path d="M372.043 23.9596V25.2407H379.547V32.2866H380.828V23.9825H372.043V23.9596ZM321.139 32.2637H322.42V25.2178H329.925V23.9368H321.162V32.2637H321.139ZM379.547 68.5681V75.6139H372.043V76.895H380.806V68.591H379.547V68.5681ZM322.398 68.5681H321.116V76.8721H329.879V75.5911H322.375V68.5681H322.398Z" fill="#4598E6"/>
<path d="M239.168 133.902H229.765V135.641H239.168V133.902Z" fill="#4598E6"/>
<path d="M262.595 66.7378V68.4306H272.616V77.8327H274.309V66.7378H262.595ZM194.601 77.8327H196.294V68.4306H206.315V66.7378H194.601V77.8327ZM272.616 126.33V135.732H262.595V137.425H274.309V126.33H272.616ZM196.294 126.33H194.601V137.425H206.315V135.732H196.294V126.33Z" fill="#4598E6"/>
<path d="M444.269 197.406H436.331C436.193 197.086 436.079 196.812 435.965 196.583C433.608 191.024 421.46 178.259 421.46 178.259C421.46 178.259 421.46 178.259 421.46 178.282C421.46 178.282 421.46 178.282 421.46 178.305C421.46 178.305 421.46 178.305 421.46 178.328C421.46 178.351 421.437 178.373 421.437 178.373C421.437 178.396 421.414 178.442 421.414 178.488C421.414 178.511 421.391 178.534 421.391 178.556C421.391 178.579 421.368 178.602 421.368 178.602C420.865 180.455 418.417 189.72 417.204 197.406H363.441C363.326 196.697 363.166 196.011 363.006 195.393C362.526 193.495 362.183 191.596 361.977 189.834C361.977 189.743 361.954 189.651 361.954 189.583C361.908 189.263 361.885 188.942 361.839 188.622C361.382 183.795 361.725 180.089 361.748 179.723C361.588 180.043 360.512 184.024 359.094 188.942C358.316 191.642 357.424 194.616 356.555 197.429H343.857L359.78 151.471C360.124 151.197 364.264 149.206 367.284 147.765C370.35 146.301 374.079 144.151 377.419 142.321C379.135 141.383 380.76 140.536 382.155 139.896L382.361 139.804C384.672 138.752 386.227 138.043 386.227 138.043C386.273 138.043 386.639 137.997 387.234 137.951C390.46 137.631 400.503 136.693 403.867 136.51C404.141 136.487 404.37 136.487 404.553 136.464C404.713 136.464 404.827 136.464 404.896 136.464C405.308 136.487 407.39 137.219 410.112 138.249C410.227 138.294 410.318 138.317 410.433 138.363C410.57 138.409 410.684 138.455 410.821 138.5C411.05 138.592 411.302 138.683 411.531 138.775C412.011 138.958 412.514 139.164 413.018 139.37C413.201 139.438 413.361 139.507 413.544 139.576C418.989 141.726 425.212 144.402 426.699 145.478C427.683 146.187 430.725 151.929 434.272 159.02C438.069 171.167 442.736 188.736 444.269 197.406Z" fill="#00CA69"/>
<path d="M404.805 134.84C404.668 142.069 390.666 146.026 390.666 146.026C390.666 146.026 384.809 138.683 386.205 137.997C386.754 137.722 386.983 136.624 387.051 135.389C387.12 134.222 387.051 132.941 386.983 132.118C386.937 131.615 386.891 131.271 386.891 131.271C386.891 131.271 388.882 129.167 391.444 126.65C395.882 122.258 401.991 116.631 402.014 118.873C402.014 118.987 401.991 119.124 401.968 119.307C400.893 124.317 404.805 134.84 404.805 134.84Z" fill="#EEA886"/>
<path d="M399.428 124.248C399.405 124.294 398.811 125.186 397.804 126.444C395.653 129.144 391.627 133.582 387.074 135.366C387.143 134.199 387.074 132.918 387.005 132.095C386.548 132.072 386.067 132.026 385.61 131.935C386.845 129.761 388.653 127.474 388.653 127.474L391.467 126.627L399.428 124.248Z" fill="#A77860"/>
<path d="M402.105 118.964C400.892 121.595 399.748 123.517 399.428 124.271C399.222 124.775 398.627 125.575 397.804 126.468C395.493 128.961 391.215 132.232 387.005 132.118C386.548 132.095 386.067 132.049 385.61 131.958C383.917 131.592 381.904 130.791 380.805 128.641C372.066 111.552 378.403 97.575 378.403 97.575C378.403 97.575 402.265 90.8265 405.994 98.0097C408.579 103.02 404.942 112.788 402.105 118.964Z" fill="#EEA886"/>
<path d="M378.358 97.5522C378.358 97.5522 376.139 97.4378 375.59 93.2286C375.04 89.088 376.139 87.9214 376.139 87.9214C376.139 87.9214 385.999 83.8036 389.522 83.2546C393.068 82.7285 401.762 82.2023 403.798 84.5357C403.798 84.5357 408.763 83.3919 410.113 91.6044C412.263 104.644 402.815 117.317 402.815 117.317C402.815 117.317 402.906 108.784 401.007 107.663C399.131 106.543 397.507 109.219 397.507 109.219L393.663 109.905C393.663 109.905 399.497 97.3006 392.497 96.8202C385.519 96.3855 382.384 98.2843 378.358 97.5522Z" fill="#3B56D7"/>
<path d="M397.643 105.834C398.009 102.082 404.804 100.641 404.347 104.576C403.889 108.51 400.549 112.285 398.993 112.17C397.46 112.033 397.369 108.716 397.643 105.834Z" fill="#EEA886"/>
<path d="M437.406 159.318C435.187 152.226 433.288 146.622 432.418 146.027C430.931 144.952 419.149 141.726 413.567 139.53C413.384 139.461 413.201 139.393 413.041 139.324C412.537 139.118 412.034 138.935 411.554 138.729C411.302 138.638 411.073 138.546 410.844 138.455C410.707 138.409 410.593 138.363 410.455 138.318C410.341 138.272 410.249 138.226 410.135 138.203L410.112 138.226C409.609 138.775 407.024 141.726 403.935 146.118C398.147 154.331 390.62 167.645 391.787 179.929C392.153 183.864 392.61 189.537 393.388 195.897C393.434 196.4 393.503 196.903 393.571 197.407H419.652C419.973 190.75 420.545 181.988 421.391 178.602C421.391 178.579 421.414 178.557 421.414 178.557C421.414 178.534 421.414 178.511 421.437 178.488C421.437 178.442 421.46 178.419 421.46 178.374C421.46 178.351 421.483 178.328 421.483 178.328V178.305V178.282C421.483 178.282 427.797 188.142 428.117 197.407H444.521C443.697 188.805 441.181 171.488 437.406 159.318Z" fill="#3C4145"/>
<path d="M382.27 139.919C382.27 139.919 380.302 146.484 377.763 162.841C377.671 163.39 377.58 163.939 377.511 164.511C377.511 164.579 377.488 164.648 377.488 164.717C377.42 165.083 377.374 165.472 377.305 165.86C377.305 165.906 377.282 165.952 377.282 165.998C377.237 166.249 377.191 166.524 377.168 166.776C377.076 167.416 376.985 168.079 376.87 168.743C375.91 175.423 374.651 186.037 373.347 197.361H363.029C362.48 194.204 361.954 191.345 361.977 189.4C361.954 189.446 361.931 189.492 361.931 189.537C361.107 191.825 360.192 194.296 359.277 196.72C359.186 196.949 359.117 197.155 359.026 197.384H341.249L358.957 151.082C359.3 150.808 363.876 148.36 366.873 146.919C370.03 145.409 373.988 143.579 377.511 141.955C379.204 141.177 380.783 140.445 382.132 139.827L382.27 139.919Z" fill="#3C4145"/>
<path d="M406.223 156.115L399.405 159.958L402.311 162.932L395.928 197.407H393.526C392.633 190.429 392.13 184.184 391.741 179.929C389.957 160.919 408.923 139.507 410.089 138.203C411.005 138.546 411.988 138.935 412.995 139.324L406.223 156.115Z" fill="#51565C"/>
<path d="M382.361 139.759C382.361 139.759 379.822 148.063 376.848 168.789C375.887 175.468 374.606 186.083 373.325 197.407H372.318L370.991 164.831L374.24 161.308L371.357 157.717L377.534 141.978C379.227 141.2 380.806 140.468 382.155 139.85L382.361 139.759Z" fill="#51565C"/>
<path d="M410.455 138.272L404.804 134.84C404.804 134.84 404.644 137.929 390.666 146.027L394.624 157.213L410.455 138.272Z" fill="#19DD7B"/>
<path d="M386.96 136.395C386.96 136.395 387.188 139.735 390.689 146.026L382.933 156.114L382.361 139.735L386.96 136.395Z" fill="#19DD7B"/>
<path d="M390.688 146.027C390.688 146.027 392.198 152.02 391.649 153.713C391.649 153.713 388.355 154.903 385.976 153.416C385.976 153.416 387.669 149.206 390.688 146.027Z" fill="#3B56D7"/>
<path d="M388.881 166.432C387.303 177.207 387.303 188.119 387.875 197.384H381.263C381.171 196.08 381.08 194.707 381.011 193.289C379.776 171.923 387.325 152.844 387.325 152.844L390.689 151.998C390.689 152.02 389.613 161.468 388.881 166.432Z" fill="#3B56D7"/>
<path d="M362.205 179.746C361.953 184.87 361.999 189.423 361.999 189.423C361.999 189.445 361.999 189.583 361.976 189.811C361.976 189.72 361.953 189.628 361.953 189.56C361.13 191.847 360.215 194.318 359.299 196.743C359.094 193.952 359.025 191.344 359.094 188.919C359.46 174.553 363.989 167.027 363.989 167.027C362.937 169.52 362.434 174.896 362.205 179.746Z" fill="#2D3133"/>
<path d="M300.344 197.453L279.205 209.074L257.974 175.675L283.643 166.753L300.344 197.453Z" fill="#292C47"/>
<path d="M299.017 196.469L279.227 207.335L259.392 176.086L283.391 167.736L299.017 196.469Z" fill="white"/>
<path d="M306.246 190.613C306.246 190.613 302.563 188.851 300.961 187.936C299.337 187.021 295.196 185.763 294.853 185.443C294.51 185.145 282.545 184.413 281.812 183.773C281.08 183.155 280.371 185.237 283.483 185.923C286.594 186.609 290.918 188.257 291.147 189.469C291.375 190.681 287.967 190.979 287.601 191.962C287.257 192.969 287.692 192.74 288.195 192.946C288.676 193.152 292.268 191.185 293.846 191.734C295.425 192.306 297.827 191.528 299.04 191.94C300.252 192.351 306.132 194.319 306.132 194.319L306.246 190.613Z" fill="#EEA886"/>
<path d="M278.175 204.887C278.175 204.887 275.087 202.096 273.577 200.929C272.09 199.763 269.276 196.331 268.864 196.148C268.452 195.942 263.099 184.939 262.206 184.504C261.337 184.07 263.03 182.583 264.883 185.236C266.736 187.89 269.985 191.321 271.22 191.07C272.456 190.818 271.403 187.478 272.204 186.769C273.005 186.06 272.982 186.563 273.371 186.929C273.76 187.318 273.279 191.459 274.423 192.717C275.567 193.975 275.773 196.56 276.619 197.544C277.489 198.527 281.63 203.286 281.63 203.286L278.175 204.887Z" fill="#EEA886"/>
<path d="M344.751 353.582C344.751 353.582 345.414 358.226 345.506 358.912C345.597 359.598 352.941 358.5 352.941 358.5L353.536 352.964C353.536 352.987 345.666 352.941 344.751 353.582Z" fill="#424773"/>
<path d="M345.437 358.34C345.437 358.34 343.103 361.131 340.861 362.366C338.596 363.579 335.073 364.059 333.723 365.34C332.762 366.255 330.223 370.167 339.58 370.099C348.937 370.03 353.444 370.648 354.45 369.138C355.457 367.628 353.009 358.043 353.009 358.043C353.009 358.043 350.79 358.821 345.437 358.34Z" fill="#292C47"/>
<path d="M292.04 353.582C292.04 353.582 292.703 358.226 292.795 358.912C292.886 359.598 300.23 358.5 300.23 358.5L300.825 352.964C300.848 352.987 292.978 352.941 292.04 353.582Z" fill="#424773"/>
<path d="M292.726 358.34C292.726 358.34 290.392 361.131 288.15 362.366C285.885 363.579 277.603 364.585 276.277 365.844C275.316 366.759 273.714 370.419 286.892 370.076C296.249 369.824 300.756 370.625 301.763 369.115C302.769 367.605 300.321 358.02 300.321 358.02C300.321 358.02 298.217 358.866 292.726 358.34Z" fill="#292C47"/>
<path d="M338.664 234.329C338.664 234.329 345.574 245.309 345.07 255.238C344.544 265.166 347.587 276.009 348.616 286.372C349.783 297.925 354.519 325.284 354.679 331.484C354.862 337.66 353.947 357.403 353.947 357.403L344.475 357.608C344.475 357.608 336.514 309.774 334.455 304.879C332.396 300.006 322.169 265.189 321.826 261.3C321.437 257.411 338.664 234.329 338.664 234.329Z" fill="#292C47"/>
<path d="M302.289 235.816C302.289 235.816 297.073 263.016 296.387 269.101C295.7 275.186 295.243 298.496 294.9 302.294C294.556 306.091 292.612 351.981 290.781 357.608H302.907C302.907 357.608 312.218 324.255 312.218 308.47C312.218 292.686 319.402 274.156 324.046 263.748C328.69 253.339 339.306 253.087 342.166 233.78C342.143 233.78 306.133 229.685 302.289 235.816Z" fill="#292C47"/>
<path d="M327.135 142.023C327.135 142.023 317.869 138.569 313.591 145.615C309.313 152.684 309.724 166.821 314.392 168.56C319.059 170.298 326.082 169.383 328.484 164.968C330.887 160.553 333.037 154.171 332.946 149.893C332.831 145.615 329.56 143.259 327.135 142.023Z" fill="#EEA886"/>
<path d="M315.398 168.88C315.398 168.88 315.787 171.374 315.146 172.609C314.505 173.844 327.157 173.867 327.157 173.867C327.157 173.867 328.187 167.165 330.131 161.491C332.076 155.841 315.398 168.88 315.398 168.88Z" fill="#EEA886"/>
<path d="M330.131 161.514C330.131 161.514 329.262 162.955 325.693 162.406C322.124 161.857 317.777 157.099 316.29 156.573C314.803 156.047 314.78 155.177 314.78 155.177L313.842 156.55L312.264 156.641C312.264 156.641 313.705 152.409 311.531 150.671C309.358 148.932 313.796 136.945 325.235 140.925C325.235 140.925 334.021 143.35 333.7 148.337C333.38 153.324 332.099 159.02 330.131 161.514Z" fill="#3B56D7"/>
<path d="M314.392 172.472C314.392 172.472 314.437 170.116 315.49 169.887C316.565 169.658 327.295 168.629 328.599 169.155V171.9C328.599 171.9 326.082 173.456 314.392 172.472Z" fill="#E2D2CA"/>
<path d="M315.032 153.347C315.238 152.501 317.365 150.122 318.189 152.684C319.013 155.246 316.954 158.7 315.81 158.403C314.643 158.106 314.506 155.475 315.032 153.347Z" fill="#EEA886"/>
<path d="M271.815 200.312C271.815 200.312 271.837 200.312 271.815 200.312C271.769 200.357 271.747 200.357 271.815 200.312Z" fill="#323657"/>
<path d="M346.352 260.842C346.352 260.842 340.655 262.512 330.955 263.587C321.254 264.662 297.004 263.198 296.866 262.055C296.706 260.911 302.082 219.391 301.785 217.24C301.488 215.113 301.305 207.472 301.305 207.472C301.19 209.554 299.063 218.087 296.5 222.73C295.562 224.4 292.451 229.685 290.964 228.472C283.711 222.685 272.455 200.838 271.746 200.655C272.341 200.403 277.077 198.207 277.74 198.001C278.312 197.818 283.551 203.354 286.731 206.786C288.15 208.318 289.156 209.439 289.156 209.439C290.071 207.381 293.412 194.387 294.441 189.88C296.775 179.746 296.432 179.312 296.432 179.312C303.524 177.161 314.299 172.792 314.299 172.792L328.507 172.22C328.507 172.22 341.547 175.102 346.695 177.413C347.175 177.642 347.175 189.057 348.525 192.054L344.27 201.044C344.27 201.044 341.799 218.842 341.296 226.757C341.044 230.394 346.352 260.842 346.352 260.842Z" fill="#00CA69"/>
<path d="M349.212 206.534C348.846 207.724 347.153 208.753 346.054 209.188C345.345 209.463 344.567 209.554 343.789 209.417L343.24 209.302L333.494 207.495C333.494 207.495 331.367 182.949 346.809 177.07C347.198 177.207 352.62 195.554 349.212 206.534Z" fill="#00CA69"/>
<path d="M346.054 209.188C345.345 209.463 344.567 209.554 343.789 209.417L343.24 209.303L344.201 196.766L346.054 209.188Z" fill="#197C4A"/>
<path d="M289.248 209.096L288.058 214.129C288.058 214.129 286.777 209.073 286.823 206.443C288.241 207.975 289.248 209.096 289.248 209.096Z" fill="#24935B"/>
<path d="M329.765 142.847C329.765 142.847 341.914 141.314 329.971 161.628L329.765 142.847Z" fill="#3B56D7"/>
<path d="M267.743 173.89L266.507 171.762L276.253 168.399L277.489 170.504L267.743 173.89Z" fill="#292C47"/>
<g opacity="0.95">
<path opacity="0.95" d="M453.398 82.9113H460.307L458.18 78.519H451.293L453.398 82.9113Z" fill="url(#paint8_linear)"/>
<path opacity="0.95" d="M450.173 82.9113H451.82L449.715 78.519H448.068L450.173 82.9113Z" fill="url(#paint9_linear)"/>
<path opacity="0.95" d="M426.356 77.6956H454.268L453.353 75.4995H425.418L426.356 77.6956Z" fill="url(#paint10_linear)"/>
</g>
<path d="M276.391 7.90095H265.844C265.478 7.90095 265.203 7.60356 265.203 7.26042V4.9728C265.203 4.60679 265.501 4.33228 265.844 4.33228H276.391C276.757 4.33228 277.031 4.62966 277.031 4.9728V7.26042C277.031 7.60356 276.757 7.90095 276.391 7.90095Z" fill="url(#paint11_linear)"/>
<path d="M276.391 16.4559H265.844C265.478 16.4559 265.203 16.1585 265.203 15.8154V13.5277C265.203 13.1617 265.501 12.8872 265.844 12.8872H276.391C276.757 12.8872 277.031 13.1846 277.031 13.5277V15.8154C277.031 16.1585 276.757 16.4559 276.391 16.4559Z" fill="url(#paint12_linear)"/>
<path d="M276.391 24.9883H265.844C265.478 24.9883 265.203 24.691 265.203 24.3478V22.0602C265.203 21.6942 265.501 21.4197 265.844 21.4197H276.391C276.757 21.4197 277.031 21.7171 277.031 22.0602V24.3478C277.031 24.7138 276.757 24.9883 276.391 24.9883Z" fill="url(#paint13_linear)"/>
<path d="M284.649 7.90022H282.567C282.201 7.90022 281.927 7.60282 281.927 7.25968V4.97207C281.927 4.60605 282.224 4.33154 282.567 4.33154H284.649C285.015 4.33154 285.29 4.62893 285.29 4.97207V7.25968C285.29 7.60282 284.992 7.90022 284.649 7.90022Z" fill="url(#paint14_linear)"/>
<path d="M284.649 16.4559H282.567C282.201 16.4559 281.927 16.1585 281.927 15.8154V13.5277C281.927 13.1617 282.224 12.8872 282.567 12.8872H284.649C285.015 12.8872 285.29 13.1846 285.29 13.5277V15.8154C285.29 16.1585 284.992 16.4559 284.649 16.4559Z" fill="url(#paint15_linear)"/>
<path d="M284.649 24.9883H282.567C282.201 24.9883 281.927 24.691 281.927 24.3478V22.0602C281.927 21.6942 282.224 21.4197 282.567 21.4197H284.649C285.015 21.4197 285.29 21.7171 285.29 22.0602V24.3478C285.29 24.7138 284.992 24.9883 284.649 24.9883Z" fill="url(#paint16_linear)"/>
<path d="M238.824 200.449H251.201L247.427 192.602H235.05L238.824 200.449Z" fill="url(#paint17_linear)"/>
<path d="M233.036 200.449H235.988L232.19 192.603H229.261L233.036 200.449Z" fill="url(#paint18_linear)"/>
<defs>
<linearGradient id="paint0_linear" x1="234.468" y1="192.574" x2="234.468" y2="83.1115" gradientUnits="userSpaceOnUse">
<stop stop-color="#FBFBFC"/>
<stop offset="1" stop-color="white"/>
</linearGradient>
<linearGradient id="paint1_linear" x1="397.224" y1="318.341" x2="397.224" y2="142.516" gradientUnits="userSpaceOnUse">
<stop stop-color="#FBFBFC"/>
<stop offset="1" stop-color="white"/>
</linearGradient>
<linearGradient id="paint2_linear" x1="234.457" y1="209.765" x2="234.457" y2="81.2006" gradientUnits="userSpaceOnUse">
<stop stop-color="#D1D7E0"/>
<stop offset="1" stop-color="#EBEBFF"/>
</linearGradient>
<linearGradient id="paint3_linear" x1="102.748" y1="283.388" x2="73.6038" y2="283.388" gradientUnits="userSpaceOnUse">
<stop stop-color="#3076A1"/>
<stop offset="1" stop-color="#48C9B6"/>
</linearGradient>
<linearGradient id="paint4_linear" x1="75.5745" y1="315.147" x2="35.8072" y2="315.147" gradientUnits="userSpaceOnUse">
<stop stop-color="#3076A1"/>
<stop offset="1" stop-color="#48C9B6"/>
</linearGradient>
<linearGradient id="paint5_linear" x1="61.1872" y1="408.05" x2="78.5691" y2="333.113" gradientUnits="userSpaceOnUse">
<stop stop-color="#C9C4C1"/>
<stop offset="1" stop-color="#FFF6DE"/>
</linearGradient>
<linearGradient id="paint6_linear" x1="57.8263" y1="349.572" x2="100.563" y2="349.572" gradientUnits="userSpaceOnUse">
<stop stop-color="#C9C4C1"/>
<stop offset="1" stop-color="#FFF6DE"/>
</linearGradient>
<linearGradient id="paint7_linear" x1="350.986" y1="101.089" x2="350.986" y2="28.6673" gradientUnits="userSpaceOnUse">
<stop stop-color="#FBFBFC"/>
<stop offset="1" stop-color="white"/>
</linearGradient>
<linearGradient id="paint8_linear" x1="451.293" y1="80.7169" x2="460.3" y2="80.7169" gradientUnits="userSpaceOnUse">
<stop stop-color="#D1D7E0"/>
<stop offset="1" stop-color="#EBEBFF"/>
</linearGradient>
<linearGradient id="paint9_linear" x1="448.067" y1="80.7169" x2="451.821" y2="80.7169" gradientUnits="userSpaceOnUse">
<stop stop-color="#D1D7E0"/>
<stop offset="1" stop-color="#EBEBFF"/>
</linearGradient>
<linearGradient id="paint10_linear" x1="425.426" y1="76.598" x2="454.276" y2="76.598" gradientUnits="userSpaceOnUse">
<stop stop-color="#D1D7E0"/>
<stop offset="1" stop-color="#EBEBFF"/>
</linearGradient>
<linearGradient id="paint11_linear" x1="265.203" y1="6.11645" x2="277.036" y2="6.11645" gradientUnits="userSpaceOnUse">
<stop stop-color="#D1D7E0"/>
<stop offset="1" stop-color="#EBEBFF"/>
</linearGradient>
<linearGradient id="paint12_linear" x1="265.203" y1="14.6659" x2="277.036" y2="14.6659" gradientUnits="userSpaceOnUse">
<stop stop-color="#D1D7E0"/>
<stop offset="1" stop-color="#EBEBFF"/>
</linearGradient>
<linearGradient id="paint13_linear" x1="265.203" y1="23.2158" x2="277.036" y2="23.2158" gradientUnits="userSpaceOnUse">
<stop stop-color="#D1D7E0"/>
<stop offset="1" stop-color="#EBEBFF"/>
</linearGradient>
<linearGradient id="paint14_linear" x1="281.921" y1="6.11572" x2="285.288" y2="6.11572" gradientUnits="userSpaceOnUse">
<stop stop-color="#D1D7E0"/>
<stop offset="1" stop-color="#EBEBFF"/>
</linearGradient>
<linearGradient id="paint15_linear" x1="281.921" y1="14.6659" x2="285.288" y2="14.6659" gradientUnits="userSpaceOnUse">
<stop stop-color="#D1D7E0"/>
<stop offset="1" stop-color="#EBEBFF"/>
</linearGradient>
<linearGradient id="paint16_linear" x1="281.921" y1="23.2158" x2="285.288" y2="23.2158" gradientUnits="userSpaceOnUse">
<stop stop-color="#D1D7E0"/>
<stop offset="1" stop-color="#EBEBFF"/>
</linearGradient>
<linearGradient id="paint17_linear" x1="235.043" y1="196.531" x2="251.21" y2="196.531" gradientUnits="userSpaceOnUse">
<stop stop-color="#D1D7E0"/>
<stop offset="1" stop-color="#EBEBFF"/>
</linearGradient>
<linearGradient id="paint18_linear" x1="229.251" y1="196.531" x2="235.989" y2="196.531" gradientUnits="userSpaceOnUse">
<stop stop-color="#D1D7E0"/>
<stop offset="1" stop-color="#EBEBFF"/>
</linearGradient>
</defs>
</svg>
