<svg width="480" height="380" viewBox="0 0 480 380" fill="none" xmlns="http://www.w3.org/2000/svg">
<path d="M426.122 76.0079L227.932 274.103L218.181 283.852L197.361 304.662L149.078 352.921L0 203.914L36.2652 167.676L80.6513 212.039L123.309 254.677L149.078 280.435L174.848 254.677L331.874 97.7166L389.857 39.762L426.122 76.0079Z" fill="#8B9AE2"/>
<path d="M228.188 239.431V274.397L218.437 284.146L197.617 304.956V239.431H228.188Z" fill="#5D6FC4"/>
<path d="M344.9 111.413V157.748L218.436 284.152H94.3329C90.7714 284.151 87.3561 282.735 84.8383 280.218C82.3205 277.7 80.9063 274.286 80.9069 270.726V111.413C80.9063 109.651 81.2532 107.906 81.9278 106.277C82.6023 104.649 83.5912 103.169 84.8381 101.923C86.0849 100.677 87.5652 99.6883 89.1943 99.0141C90.8235 98.3399 92.5696 97.9931 94.3329 97.9937H331.472C331.694 97.9937 331.907 97.9937 332.13 98.0099C335.573 98.1783 338.819 99.6639 341.197 102.159C343.574 104.654 344.9 107.968 344.9 111.413Z" fill="#5D6FC4"/>
<path d="M334.155 77.8882V167.776L247.216 254.676H90.8297V77.8882H334.155Z" fill="white"/>
<path d="M91.242 99.5325L334.563 99.5325V78.1801L91.242 78.1801V99.5325Z" fill="#3B56D7"/>
<path d="M133.206 84.8213H104.306C102.703 84.8213 101.403 86.1203 101.403 87.7227V89.9883C101.403 91.5907 102.703 92.8897 104.306 92.8897H133.206C134.809 92.8897 136.109 91.5907 136.109 89.9883V87.7227C136.109 86.1203 134.809 84.8213 133.206 84.8213Z" fill="#F5F7FF"/>
<path d="M345.09 267.397H345.103C345.056 267.42 345.05 267.42 345.09 267.397Z" fill="#323657"/>
<path d="M444.92 96.587C442.459 95.3949 439.787 94.7018 437.057 94.5479C434.327 94.3941 431.593 94.7825 429.015 95.6906C426.436 96.5988 424.062 98.0088 422.032 99.839C420.001 101.669 418.353 103.884 417.184 106.354C416.015 108.825 415.347 111.502 415.218 114.232C415.09 116.962 415.505 119.69 416.438 122.259C417.371 124.829 418.804 127.187 420.654 129.2C422.504 131.212 424.735 132.838 427.218 133.983C427.639 134.181 428.064 134.365 428.492 134.534C433.489 136.507 439.058 136.46 444.022 134.403C448.985 132.346 452.953 128.439 455.087 123.511C457.221 118.582 457.353 113.016 455.456 107.992C453.558 102.967 449.78 98.8773 444.92 96.587ZM450.095 121.912C448.415 125.47 445.444 128.256 441.784 129.705C438.124 131.153 434.049 131.155 430.388 129.711C430.068 129.584 429.75 129.449 429.434 129.306C426.66 127.994 424.337 125.889 422.76 123.258C421.183 120.626 420.422 117.587 420.573 114.523C420.724 111.459 421.781 108.509 423.609 106.046C425.438 103.582 427.957 101.716 430.846 100.683C433.736 99.6507 436.867 99.4977 439.844 100.244C442.821 100.99 445.509 102.601 447.57 104.875C449.63 107.148 450.97 109.981 451.419 113.015C451.869 116.05 451.408 119.149 450.095 121.922V121.912Z" fill="#F0F0F0"/>
<path d="M422.325 122.484L417.737 124.888C415.742 121.075 414.984 116.735 415.569 112.472C416.154 108.209 418.052 104.233 421.001 101.098L424.77 104.647C422.561 106.999 421.138 109.979 420.7 113.176C420.262 116.372 420.83 119.625 422.325 122.484Z" fill="#3B56D7"/>
<path d="M430.388 129.717L428.492 134.534C428.064 134.365 427.639 134.181 427.218 133.983C423.149 132.067 419.82 128.873 417.738 124.888L422.326 122.485C423.887 125.472 426.383 127.867 429.434 129.302C429.75 129.452 430.068 129.59 430.388 129.717Z" fill="#8B9AE2"/>
<path d="M434.403 135.908C432.376 135.744 430.384 135.281 428.492 134.533L430.388 129.717C431.807 130.277 433.3 130.624 434.82 130.747L434.403 135.908Z" fill="#8B9AE2"/>
<path d="M429.712 149.542H391.067V148.773H428.944V132.409H429.712V149.542Z" fill="#3B56D7"/>
<path opacity="0.72" d="M411.408 140.784H391.067V145.39H411.408V140.784Z" fill="#D9D9D9"/>
<path opacity="0.72" d="M4.03712 73.5762H0V100.336H4.03712V73.5762Z" fill="#D9D9D9"/>
<path opacity="0.72" d="M14.0624 79.0146H10.0253V100.337H14.0624V79.0146Z" fill="#D9D9D9"/>
<path opacity="0.72" d="M24.0878 75.0139H20.0507V100.339H24.0878V75.0139Z" fill="#D9D9D9"/>
<path opacity="0.72" d="M34.1113 82.9116H30.0742V100.336H34.1113V82.9116Z" fill="#D9D9D9"/>
<path opacity="0.72" d="M44.1366 75.8337H40.0995V100.337H44.1366V75.8337Z" fill="#D9D9D9"/>
<path opacity="0.72" d="M54.1603 72.1411H50.1232V100.337H54.1603V72.1411Z" fill="#D9D9D9"/>
<path opacity="0.72" d="M64.1857 70.6018H60.1486V100.336H64.1857V70.6018Z" fill="#D9D9D9"/>
<path d="M4.03712 83.5479H0V100.337H4.03712V83.5479Z" fill="#5D96FF"/>
<path d="M14.0624 86.9595H10.0253V100.337H14.0624V86.9595Z" fill="#5D96FF"/>
<path d="M24.0878 84.4487H20.0507V100.336H24.0878V84.4487Z" fill="#5D96FF"/>
<path d="M34.1113 89.4055H30.0742V100.337H34.1113V89.4055Z" fill="#5D96FF"/>
<path d="M44.1366 84.9656H40.0995V100.339H44.1366V84.9656Z" fill="#5D96FF"/>
<path d="M54.1603 82.6472H50.1232V100.337H54.1603V82.6472Z" fill="#5D96FF"/>
<path d="M64.1857 81.6814H60.1486V100.337H64.1857V81.6814Z" fill="#5D96FF"/>
<path d="M479.08 75.9129C477.678 71.9975 474.777 68.7991 471.016 67.0214C467.255 65.2436 462.941 65.0321 459.024 66.4333C455.106 67.8346 451.907 70.7338 450.128 74.4932C448.349 78.2527 448.138 82.5644 449.54 86.4798C449.659 86.8118 449.787 87.1378 449.926 87.4557C451.549 91.1878 454.56 94.1432 458.322 95.6973C462.085 97.2515 466.305 97.2827 470.09 95.7843C473.875 94.2859 476.929 91.3753 478.606 87.6675C480.284 83.9598 480.454 79.7454 479.08 75.9149V75.9129ZM468.271 92.2623C465.462 93.2694 462.376 93.1706 459.637 91.9862C456.899 90.8017 454.714 88.6203 453.526 85.8845C453.423 85.6456 453.323 85.4006 453.236 85.1516C452.453 82.9623 452.337 80.5901 452.903 78.3349C453.468 76.0797 454.69 74.0428 456.414 72.4818C458.138 70.9208 460.286 69.9057 462.587 69.565C464.888 69.2243 467.238 69.5732 469.341 70.5676C471.443 71.5621 473.204 73.1574 474.399 75.1518C475.595 77.1462 476.172 79.4501 476.057 81.7723C475.943 84.0945 475.142 86.3305 473.756 88.1977C472.37 90.0649 470.461 91.4794 468.271 92.2623Z" fill="#F0F0F0"/>
<path d="M453.082 77.6883L449.335 76.52C450.31 73.4072 452.231 70.6751 454.83 68.7031C457.43 66.7311 460.579 65.6171 463.841 65.5159L463.958 69.4397C461.513 69.5158 459.152 70.3508 457.203 71.8289C455.254 73.307 453.814 75.3549 453.082 77.6883Z" fill="#3B56D7"/>
<path d="M453.527 85.8844L449.927 87.4495C449.787 87.1317 449.66 86.8057 449.54 86.4736C448.386 83.2671 448.315 79.771 449.338 76.5203L453.085 77.6885C452.32 80.1263 452.374 82.7473 453.239 85.1515C453.326 85.4005 453.423 85.6455 453.527 85.8844Z" fill="#5D6FC3"/>
<path d="M452.359 91.353C451.36 90.1787 450.541 88.8633 449.928 87.4494L453.528 85.8843C453.987 86.9443 454.602 87.9303 455.351 88.81L452.359 91.353Z" fill="#8B9AE2"/>
<path d="M122.265 124.715H111.774C109.865 124.715 108.318 126.262 108.318 128.169V138.655C108.318 140.563 109.865 142.109 111.774 142.109H122.265C124.173 142.109 125.721 140.563 125.721 138.655V128.169C125.721 126.262 124.173 124.715 122.265 124.715Z" fill="#B9C2EE"/>
<path d="M122.265 179.24H111.774C109.865 179.24 108.318 180.787 108.318 182.695V193.18C108.318 195.088 109.865 196.635 111.774 196.635H122.265C124.173 196.635 125.721 195.088 125.721 193.18V182.695C125.721 180.787 124.173 179.24 122.265 179.24Z" fill="#B9C2EE"/>
<path d="M116.426 192.142L111.597 187.949C111.5 187.868 111.42 187.768 111.362 187.656C111.304 187.544 111.269 187.421 111.259 187.296C111.248 187.17 111.264 187.043 111.303 186.923C111.342 186.803 111.405 186.692 111.488 186.597C111.571 186.501 111.672 186.424 111.786 186.368C111.899 186.312 112.022 186.279 112.148 186.272C112.275 186.264 112.401 186.282 112.52 186.323C112.639 186.365 112.749 186.43 112.843 186.515L116.258 189.479L121.12 184.051C121.203 183.958 121.303 183.882 121.416 183.828C121.528 183.774 121.65 183.742 121.775 183.735C121.899 183.728 122.024 183.746 122.142 183.787C122.26 183.828 122.368 183.892 122.462 183.975C122.555 184.058 122.631 184.159 122.685 184.271C122.739 184.384 122.77 184.506 122.777 184.63C122.785 184.755 122.767 184.879 122.726 184.997C122.685 185.115 122.621 185.224 122.538 185.317L116.426 192.142Z" fill="white"/>
<path d="M122.265 151.871H111.774C109.865 151.871 108.318 153.418 108.318 155.325V165.811C108.318 167.719 109.865 169.265 111.774 169.265H122.265C124.173 169.265 125.721 167.719 125.721 165.811V155.325C125.721 153.418 124.173 151.871 122.265 151.871Z" fill="#B9C2EE"/>
<path d="M116.426 164.772L111.597 160.583C111.5 160.502 111.42 160.403 111.362 160.29C111.304 160.178 111.269 160.056 111.259 159.93C111.248 159.804 111.264 159.677 111.303 159.557C111.342 159.437 111.405 159.326 111.488 159.231C111.571 159.136 111.672 159.058 111.786 159.002C111.899 158.946 112.022 158.913 112.148 158.906C112.275 158.898 112.401 158.916 112.52 158.958C112.639 159 112.749 159.065 112.843 159.149L116.258 162.116L121.12 156.687C121.203 156.594 121.303 156.519 121.416 156.464C121.528 156.41 121.65 156.379 121.775 156.372C121.899 156.365 122.024 156.382 122.142 156.423C122.26 156.464 122.368 156.528 122.462 156.611C122.555 156.695 122.631 156.795 122.685 156.908C122.739 157.02 122.77 157.142 122.777 157.266C122.785 157.391 122.767 157.516 122.726 157.633C122.685 157.751 122.621 157.86 122.538 157.953L116.426 164.772Z" fill="white"/>
<path d="M122.265 206.61H111.774C109.865 206.61 108.318 208.157 108.318 210.064V220.55C108.318 222.458 109.865 224.004 111.774 224.004H122.265C124.173 224.004 125.721 222.458 125.721 220.55V210.064C125.721 208.157 124.173 206.61 122.265 206.61Z" fill="#B9C2EE"/>
<path d="M116.426 219.512L111.597 215.319C111.5 215.238 111.42 215.138 111.362 215.026C111.304 214.914 111.269 214.791 111.259 214.665C111.248 214.54 111.264 214.413 111.303 214.293C111.342 214.173 111.405 214.062 111.488 213.967C111.571 213.871 111.672 213.793 111.786 213.738C111.899 213.682 112.022 213.649 112.148 213.641C112.275 213.634 112.401 213.652 112.52 213.693C112.639 213.735 112.749 213.8 112.843 213.885L116.258 216.851L121.12 211.421C121.203 211.328 121.303 211.252 121.416 211.198C121.528 211.144 121.65 211.112 121.775 211.105C121.899 211.098 122.024 211.116 122.142 211.157C122.26 211.198 122.368 211.262 122.462 211.345C122.555 211.428 122.631 211.529 122.685 211.641C122.739 211.754 122.77 211.876 122.777 212C122.785 212.125 122.767 212.249 122.726 212.367C122.685 212.485 122.621 212.593 122.538 212.686L116.426 219.512Z" fill="white"/>
<path d="M114.987 134.74C114.986 134.524 115.001 134.307 115.032 134.093C115.06 133.887 115.117 133.686 115.2 133.495C115.29 133.298 115.412 133.116 115.561 132.959C115.742 132.775 115.951 132.622 116.18 132.503L116.687 132.23C116.902 132.115 117.109 131.985 117.307 131.841C117.503 131.697 117.679 131.526 117.829 131.333C117.973 131.151 118.051 130.925 118.05 130.693C118.057 130.548 118.028 130.403 117.967 130.271C117.905 130.139 117.812 130.024 117.696 129.936C117.465 129.755 117.179 129.658 116.885 129.662C116.705 129.659 116.526 129.697 116.363 129.774C116.217 129.845 116.081 129.933 115.958 130.037C115.837 130.137 115.73 130.254 115.642 130.383L115.405 130.721L113.889 129.662C114.133 129.078 114.559 128.588 115.105 128.265C115.672 127.928 116.321 127.755 116.981 127.765C117.36 127.766 117.737 127.82 118.101 127.927C118.465 128.031 118.805 128.206 119.101 128.442C119.405 128.689 119.652 129 119.823 129.353C120.019 129.776 120.115 130.24 120.102 130.707C120.119 131.199 119.999 131.685 119.756 132.112C119.496 132.519 119.146 132.859 118.733 133.106C118.531 133.241 118.322 133.364 118.107 133.475C117.907 133.576 117.713 133.689 117.525 133.813C117.36 133.922 117.216 134.059 117.098 134.218C116.988 134.373 116.931 134.559 116.936 134.749L114.987 134.74ZM115.032 138.344V136.137H116.96V138.344H115.032Z" fill="white"/>
<path opacity="0.72" d="M259.444 129.47H136.805V133.741H259.444V129.47Z" fill="#D9D9D9"/>
<path d="M164.199 121.217C163.049 122.283 162.029 123.481 161.16 124.787C159.718 126.949 155.894 127.064 155.726 130.016C155.558 132.968 160.932 133.054 163.749 132.098C166.567 131.142 166.99 128.251 168.7 127.534C170.41 126.817 171.289 126.228 171.159 124.821C171.029 123.414 170.083 121.13 170.083 121.13C169.534 121.306 168.972 121.442 168.402 121.535C167.77 121.606 165.676 121.63 164.199 121.217Z" fill="#202443"/>
<path d="M183.524 41.2421C183.524 41.2421 182.444 47.6645 181.573 51.9062C181.219 53.6272 180.9 54.9877 180.702 55.417C180.455 55.9576 178.425 58.1341 175.944 60.6812C171.589 65.1618 165.834 70.8046 165.834 70.8046L163.591 66.5447C163.591 66.5447 168.702 60.5556 172.166 56.5589C173.77 54.7104 175.022 53.287 175.251 53.0825C175.974 52.4346 176.815 46.0528 177.998 40.7947C179.181 35.5366 181.543 32.623 181.543 32.623L183.524 41.2421Z" fill="#00CA69"/>
<path d="M175.948 60.6872C171.593 65.1678 165.838 70.8106 165.838 70.8106L163.591 66.5446C163.591 66.5446 168.702 60.5556 172.166 56.5588C173.223 57.0792 175.172 58.3223 175.948 60.6872Z" fill="#FFE1BD"/>
<path d="M203.874 119.46C203.874 119.46 205.353 121.094 206.228 122.092C207.103 123.09 210.454 124.853 210.47 127.797C210.49 130.988 207.998 130.709 205.782 130.591C203.566 130.474 201.765 128.945 200.834 127.137C199.902 125.329 197.416 124.855 197.242 123.4C197.068 121.944 198.393 119.318 198.393 119.318L203.874 119.46Z" fill="#202443"/>
<path d="M198.678 116.595L198.392 119.312C198.392 119.312 203.019 121.337 203.874 119.46L203.671 117.04L198.678 116.595Z" fill="#5F8CC9"/>
<path d="M164.452 119.251L164.201 121.217C166.121 121.796 168.174 121.766 170.076 121.13L170.138 119.381L164.452 119.251Z" fill="#5F8CC9"/>
<path d="M204.135 69.9439C204.297 70.5149 174.528 69.9439 174.528 69.9439C174.528 69.9439 182.762 63.9529 183.295 62.3514C183.828 60.7498 181.199 51.1488 180.864 48.0247C180.589 45.5242 179.902 34.3378 181.551 32.6371C183.273 30.8513 189.48 28.9805 189.48 28.9805L198.528 29.3145C199.405 29.5039 200.262 29.7751 201.089 30.1244C202.156 30.6205 208.261 32.793 209.252 35.8421C210.242 38.8913 203.161 48.6928 203.161 48.6928C203.161 48.6928 203.147 49.1322 203.126 49.855C203.098 50.8167 203.057 52.2846 203.021 53.8659C202.974 55.921 202.932 58.1846 202.932 59.8367C202.924 63.714 203.975 69.373 204.135 69.9439Z" fill="#00CA69"/>
<path d="M204.135 69.9439C204.135 69.9439 208.187 75.8883 208.241 79.9458C208.296 84.0033 206.742 95.2565 206.621 97.4857C206.499 99.7149 204.411 118.291 204.411 118.291C204.411 118.291 202.79 119.796 197.929 117.911C197.929 117.911 196.857 100.296 196.742 98.4069C196.626 96.5179 196.628 87.834 195.54 86.5767C194.453 85.3193 187.879 81.3753 187.021 80.6322C186.162 79.8891 171.22 83.4546 169.655 83.8595C165.603 84.9104 167.449 91.9583 168.346 95.1229C169.845 100.411 171.158 119.51 171.158 119.51C171.158 119.51 168.269 120.741 163.432 119.701C163.432 119.701 153.934 85.2161 153.63 81.7863C153.326 78.3564 153.174 72.7015 176.582 68.4031L204.135 69.9439Z" fill="#323657"/>
<path d="M191.95 9.32289C191.95 9.32289 184.095 7.55129 185.889 17.4318C187.684 27.3122 189.572 28.0877 194.31 26.0428C199.048 23.9978 198.625 17.6687 198.864 14.5648C199.103 11.461 194.46 9.4302 191.95 9.32289Z" fill="#FFE1BD"/>
<path d="M189.876 31.5069C189.876 31.5069 193.354 35.1938 198.852 31.843C198.852 31.843 197.622 23.8556 198.269 19.9641C198.915 16.0727 191.098 25.9936 191.098 25.9936C191.199 26.0463 191.268 26.4188 191.284 26.9473C191.296 27.4764 191.268 28.0056 191.201 28.5306C191.039 29.8223 190.638 31.189 189.876 31.5069Z" fill="#FFE1BD"/>
<path d="M196.166 16.1217C196.269 15.249 197.989 14.9291 198.133 16.2371C198.277 17.545 197.349 19.837 196.695 19.6122C196.04 19.3875 196.024 17.3223 196.166 16.1217Z" fill="#FFE1BD"/>
<path d="M198.485 19.6348C198.485 19.6348 198.283 16.5228 197.144 16.4256C196.006 16.3285 195.834 17.5817 195.834 17.5817L194.685 17.7984C194.685 17.7984 195.048 15.0691 193.911 14.5933C192.775 14.1175 186.552 16.0956 185.641 15.2938C184.729 14.4921 185.158 8.95859 186.807 8.20743C188.456 7.45627 193.01 5.75351 196.346 8.00496C196.346 8.00496 198.947 7.70733 199.332 9.80491C199.717 11.9025 199.192 18.0737 198.485 19.6348Z" fill="#3B56D7"/>
<path d="M191.202 28.531C196.873 26.7817 197.301 23.3681 197.307 23.3154C195.439 26.5225 191.285 26.9477 191.285 26.9477C191.296 27.4768 191.269 28.006 191.202 28.531Z" fill="#DFAC87"/>
<path d="M201.173 30.1584C201.173 30.1584 197.014 38.4211 190.309 37.8866C183.604 37.3521 189.167 29.0468 189.471 28.978C189.807 28.8869 196.352 27.257 201.173 30.1584Z" fill="#FFE1BD"/>
<path d="M171.121 69.5246C171.121 69.5246 191.679 72.0574 204.139 69.9437L180.339 66.9714C180.339 66.9714 180.202 67.5768 171.121 69.5246Z" fill="#00CA69"/>
<path d="M186.497 66.0303L184.966 66.8057C184.966 66.8057 185.314 69.2354 186.153 69.9744L187.872 69.535C187.872 69.535 187.514 66.8746 186.497 66.0303Z" fill="#FFE1BD"/>
<path d="M210.287 61.0573C209.981 61.4116 205.94 63.0354 201.374 64.7929C195.135 67.1962 188.102 69.4719 188.102 69.4719L186.499 66.0299C186.499 66.0299 193.869 62.0271 198.856 59.2209C201.208 57.8947 203.025 56.8358 203.282 56.5888C204.082 55.8275 204.295 54.6066 203.701 52.4747C203.108 50.3427 201.757 40.5472 201.605 39.4053C201.453 38.2634 201.985 35.2122 204.846 35.0603C207.706 34.9085 209.16 35.7143 209.16 35.7143C209.16 35.7143 209.877 36.0139 210.412 42.9485C210.947 49.8831 211.012 60.2171 210.287 61.0573Z" fill="#00CA69"/>
<path d="M203.119 49.8453C203.091 50.807 203.05 52.2749 203.014 53.8562C200.222 47.0209 201.835 41.5643 201.863 41.4712C201.561 43.3278 203.093 49.7542 203.119 49.8453Z" fill="#00B15C"/>
<path d="M181.573 51.906C181.218 53.627 180.9 54.9876 180.702 55.4168C179.75 50.8066 180.607 44.9026 180.607 44.9026C180.738 47.723 181.573 51.906 181.573 51.906Z" fill="#00B15C"/>
<path d="M201.374 64.7929C195.135 67.1962 187.873 69.5408 187.873 69.5408L186.498 66.03C186.498 66.03 193.867 62.0272 198.854 59.2209C198.838 59.227 200.661 60.1098 201.374 64.7929Z" fill="#FFE1BD"/>
<path d="M186.054 69.7457L156.834 69.3145L171.587 76.8018L186.054 69.7457Z" fill="#5D6FC3"/>
<path d="M171.587 76.8019L186.055 71.2016V69.7458L170.445 75.3745L171.587 76.8019Z" fill="#8B9AE2"/>
<path d="M185.299 66.8643C185.299 66.8643 183.476 66.5808 182.212 66.2872C181.235 66.0605 178.807 66.3723 178.189 66.9979C177.571 67.6235 175.604 71.9888 175.231 72.2621C174.859 72.5354 175.434 73.1449 176.076 72.8351C176.076 72.8351 176.684 74.7444 178.156 74.0297C179.629 73.3149 180.64 71.7559 181.416 71.4806C182.191 71.2052 186.703 69.8183 186.703 69.8183C186.703 69.8183 186.461 66.3986 185.299 66.8643Z" fill="#FFE1BD"/>
<path d="M178.633 66.7122C178.633 66.7122 177.46 67.2791 177.155 67.522C176.849 67.765 175.609 68.7024 175.307 68.9211C175.005 69.1398 175.761 69.7613 177.979 68.8016C180.197 67.8419 178.633 66.7122 178.633 66.7122Z" fill="#FFE1BD"/>
<path d="M171.587 76.8017L162.895 53.0825L134.876 53.5401L143.159 75.3986L171.587 76.8017Z" fill="#5D6FC3"/>
<path d="M153.93 63.5763C154.787 65.2851 154.538 67.1458 153.355 67.733C152.172 68.3201 150.535 67.409 149.68 65.7083C148.825 64.0076 149.084 62.1408 150.257 61.5536C151.43 60.9665 153.075 61.8675 153.93 63.5763Z" fill="#8B9AE2"/>
<path d="M287.982 193.893H285.74C285.356 193.893 285.045 194.204 285.045 194.588V197.043C285.045 197.427 285.356 197.738 285.74 197.738H287.982C288.366 197.738 288.677 197.427 288.677 197.043V194.588C288.677 194.204 288.366 193.893 287.982 193.893Z" fill="#E0E0E0"/>
<path opacity="0.72" d="M259.444 142.288H136.805V146.558H259.444V142.288Z" fill="#D9D9D9"/>
<path opacity="0.72" d="M259.081 155.709H136.442V159.98H259.081V155.709Z" fill="#D9D9D9"/>
<path opacity="0.72" d="M259.081 169.623H136.442V173.893H259.081V169.623Z" fill="#D9D9D9"/>
<path opacity="0.72" d="M259.081 185.252H136.442V189.522H259.081V185.252Z" fill="#D9D9D9"/>
<path opacity="0.72" d="M259.081 199.166H136.442V203.436H259.081V199.166Z" fill="#D9D9D9"/>
<path opacity="0.72" d="M259.081 212.587H136.442V216.857H259.081V212.587Z" fill="#D9D9D9"/>
<path opacity="0.72" d="M259.081 226.501H136.442V230.771H259.081V226.501Z" fill="#D9D9D9"/>
<path opacity="0.72" d="M279.08 166.232H267.704C267.321 166.232 267.01 166.543 267.01 166.926V169.382C267.01 169.766 267.321 170.077 267.704 170.077H279.08C279.464 170.077 279.775 169.766 279.775 169.382V166.926C279.775 166.543 279.464 166.232 279.08 166.232Z" fill="#D9D9D9"/>
<path opacity="0.72" d="M279.08 175.452H267.704C267.321 175.452 267.01 175.763 267.01 176.147V178.603C267.01 178.986 267.321 179.297 267.704 179.297H279.08C279.464 179.297 279.775 178.986 279.775 178.603V176.147C279.775 175.763 279.464 175.452 279.08 175.452Z" fill="#D9D9D9"/>
<path opacity="0.72" d="M279.08 184.674H267.704C267.321 184.674 267.01 184.985 267.01 185.368V187.824C267.01 188.208 267.321 188.518 267.704 188.518H279.08C279.464 188.518 279.775 188.208 279.775 187.824V185.368C279.775 184.985 279.464 184.674 279.08 184.674Z" fill="#D9D9D9"/>
<path opacity="0.72" d="M279.08 193.893H267.704C267.321 193.893 267.01 194.204 267.01 194.588V197.044C267.01 197.427 267.321 197.738 267.704 197.738H279.08C279.464 197.738 279.775 197.427 279.775 197.044V194.588C279.775 194.204 279.464 193.893 279.08 193.893Z" fill="#D9D9D9"/>
<path opacity="0.72" d="M279.08 203.112H267.704C267.321 203.112 267.01 203.422 267.01 203.806V206.262C267.01 206.646 267.321 206.956 267.704 206.956H279.08C279.464 206.956 279.775 206.646 279.775 206.262V203.806C279.775 203.422 279.464 203.112 279.08 203.112Z" fill="#D9D9D9"/>
<path opacity="0.72" d="M279.08 212.332H267.704C267.321 212.332 267.01 212.642 267.01 213.026V215.482C267.01 215.866 267.321 216.176 267.704 216.176H279.08C279.464 216.176 279.775 215.866 279.775 215.482V213.026C279.775 212.642 279.464 212.332 279.08 212.332Z" fill="#D9D9D9"/>
<path opacity="0.72" d="M287.982 166.232H285.74C285.356 166.232 285.045 166.543 285.045 166.926V169.382C285.045 169.766 285.356 170.077 285.74 170.077H287.982C288.366 170.077 288.677 169.766 288.677 169.382V166.926C288.677 166.543 288.366 166.232 287.982 166.232Z" fill="#D9D9D9"/>
<path opacity="0.72" d="M287.982 175.452H285.74C285.356 175.452 285.045 175.763 285.045 176.147V178.603C285.045 178.986 285.356 179.297 285.74 179.297H287.982C288.366 179.297 288.677 178.986 288.677 178.603V176.147C288.677 175.763 288.366 175.452 287.982 175.452Z" fill="#D9D9D9"/>
<path opacity="0.72" d="M287.982 184.674H285.74C285.356 184.674 285.045 184.985 285.045 185.368V187.824C285.045 188.208 285.356 188.518 285.74 188.518H287.982C288.366 188.518 288.677 188.208 288.677 187.824V185.368C288.677 184.985 288.366 184.674 287.982 184.674Z" fill="#D9D9D9"/>
<path opacity="0.72" d="M287.982 203.112H285.74C285.356 203.112 285.045 203.422 285.045 203.806V206.262C285.045 206.646 285.356 206.956 285.74 206.956H287.982C288.366 206.956 288.677 206.646 288.677 206.262V203.806C288.677 203.422 288.366 203.112 287.982 203.112Z" fill="#D9D9D9"/>
<path opacity="0.72" d="M287.982 212.332H285.74C285.356 212.332 285.045 212.642 285.045 213.026V215.482C285.045 215.866 285.356 216.176 285.74 216.176H287.982C288.366 216.176 288.677 215.866 288.677 215.482V213.026C288.677 212.642 288.366 212.332 287.982 212.332Z" fill="#D9D9D9"/>
<path d="M247.672 263.399C247.672 263.399 248.407 266.286 248.506 266.719C248.605 267.152 253.133 265.958 253.133 265.958V262.427C253.133 262.427 248.202 262.923 247.672 263.399Z" fill="#666FB3"/>
<path d="M248.417 266.353C248.417 266.353 247.149 268.277 245.822 269.2C244.496 270.123 239.371 271.314 238.623 272.201C238.082 272.842 237.333 275.266 245.553 274.158C251.393 273.373 254.273 273.571 254.8 272.555C255.327 271.538 253.133 265.643 253.133 265.643C253.133 265.643 251.885 266.323 248.417 266.353Z" fill="#202443"/>
<path d="M232.385 178.232L230.316 178.433L249.465 375.046L251.533 374.845L232.385 178.232Z" fill="#B9C2EE"/>
<path d="M265.791 174.796L263.713 175.003L283.476 372.546L285.554 372.338L265.791 174.796Z" fill="#B9C2EE"/>
<path d="M265.081 177.894L231.631 181.142L231.832 183.21L265.282 179.961L265.081 177.894Z" fill="#B9C2EE"/>
<path d="M266.59 193.441L233.14 196.69L233.341 198.757L266.791 195.508L266.59 193.441Z" fill="#B9C2EE"/>
<path d="M268.089 209.014L234.639 212.257L234.839 214.325L268.29 211.082L268.089 209.014Z" fill="#B9C2EE"/>
<path d="M269.594 224.569L236.143 227.812L236.344 229.879L269.794 226.636L269.594 224.569Z" fill="#B9C2EE"/>
<path d="M271.104 240.11L237.654 243.353L237.854 245.421L271.305 242.178L271.104 240.11Z" fill="#B9C2EE"/>
<path d="M272.63 255.631L239.18 258.88L239.381 260.947L272.831 257.698L272.63 255.631Z" fill="#B9C2EE"/>
<path d="M274.144 271.174L240.694 274.423L240.895 276.49L274.345 273.242L274.144 271.174Z" fill="#B9C2EE"/>
<path d="M275.631 286.754L242.18 289.997L242.381 292.064L275.831 288.822L275.631 286.754Z" fill="#B9C2EE"/>
<path d="M277.143 302.298L243.692 305.541L243.893 307.608L277.343 304.365L277.143 302.298Z" fill="#B9C2EE"/>
<path d="M278.652 317.846L245.202 321.089L245.402 323.156L278.853 319.913L278.652 317.846Z" fill="#B9C2EE"/>
<path d="M280.163 333.392L246.712 336.635L246.913 338.702L280.364 335.459L280.163 333.392Z" fill="#B9C2EE"/>
<path d="M281.669 348.942L248.218 352.185L248.419 354.252L281.87 351.009L281.669 348.942Z" fill="#B9C2EE"/>
<path d="M283.183 364.484L249.732 367.727L249.933 369.794L283.384 366.551L283.183 364.484Z" fill="#B9C2EE"/>
<path d="M203.409 150.99C203.409 150.99 203.837 151.518 204.137 151.658C204.137 151.658 204.704 151.873 205.095 152.049C205.197 152.091 205.297 152.141 205.393 152.197C205.668 152.367 206.219 152.82 206.995 153.043C207.771 153.266 211.265 154.055 211.265 154.055L212.075 151.982L212.659 150.305C212.659 150.305 209.418 146.114 208.725 145.823C208.659 145.795 208.591 145.771 208.522 145.752C207.915 145.562 207.372 145.679 207.039 145.616C206.916 145.594 205.682 145.456 205.419 145.713C205.262 145.847 205.141 146.018 205.068 146.21C204.995 146.403 204.972 146.611 205.002 146.815C205.002 146.815 204.305 147.546 204.256 148.232C204.256 148.232 203.592 148.886 203.77 149.747C203.768 149.743 203.168 150.48 203.409 150.99Z" fill="#FFE1BD"/>
<path d="M240.898 178.198C240.088 177.678 239.045 176.973 235.429 175.161C228.694 171.792 220.376 165.685 218.794 164.805C216.364 163.448 208.684 154.074 208.684 154.074C209.089 152.657 212.721 149.822 212.721 149.822C212.721 149.822 224.365 160.846 226.901 162.203C229.091 163.369 239.898 164.548 242.875 164.853L243.637 164.93C246.752 169.162 242.634 179.306 240.898 178.198Z" fill="#00CA69"/>
<path d="M242.086 202.626C242.086 202.626 238.792 214.855 237.923 219.228C237.166 223.037 235.642 233.182 235.428 235.594C235.213 238.005 245.151 261.352 246.188 265.559L255.247 264.105C255.247 264.105 245.69 239.809 248.181 234.409C251.89 226.379 252.372 226.62 255.293 220.006C258.214 213.391 264.901 213.233 266.698 200.959C266.698 200.965 244.517 198.732 242.086 202.626Z" fill="#323657"/>
<path d="M258.189 143.207C258.189 143.207 252.175 140.961 249.402 145.537C246.629 150.113 246.894 159.277 249.926 160.403C252.959 161.528 257.512 160.941 259.066 158.078C260.62 155.215 262.019 151.073 261.953 148.307C261.886 145.541 259.773 144.007 258.189 143.207Z" fill="#FFE1BD"/>
<path d="M250.941 160.122C250.941 160.122 251.184 161.699 250.781 162.474C250.378 163.25 258.347 163.272 258.347 163.272C258.347 163.272 258.995 159.048 260.221 155.481C261.446 151.913 250.941 160.122 250.941 160.122Z" fill="#FFE1BD"/>
<path d="M260.215 155.481C260.215 155.481 259.666 156.388 257.42 156.036C255.174 155.684 252.437 152.699 251.501 152.371C250.565 152.043 250.555 151.495 250.555 151.495L249.968 152.351L248.973 152.414C248.973 152.414 249.88 149.743 248.511 148.654C247.142 147.565 249.929 140.013 257.13 142.527C257.13 142.527 262.66 144.05 262.458 147.184C262.255 150.318 261.459 153.916 260.215 155.481Z" fill="#3B56D7"/>
<path d="M250.708 150.35C250.834 149.824 252.175 148.326 252.689 149.929C253.204 151.533 251.913 153.711 251.194 153.527C250.475 153.343 250.39 151.687 250.708 150.35Z" fill="#FFE1BD"/>
<path d="M273.651 183.11C273.584 183.897 272.683 184.752 272.069 185.173C271.664 185.451 271.188 185.607 270.698 185.624L270.341 185.637L264.09 185.839C264.09 185.839 259.443 170.828 268.16 165.104C268.429 165.139 274.255 175.874 273.651 183.11Z" fill="#00CA69"/>
<path d="M254.801 272.548C254.275 273.56 251.394 273.358 245.554 274.152C244.28 274.339 242.993 274.434 241.705 274.435L241.377 270.928C243.085 270.335 245.072 269.714 245.834 269.197C247.16 268.274 248.428 266.351 248.428 266.351C251.896 266.32 253.144 265.64 253.144 265.64C253.144 265.64 255.326 271.536 254.801 272.548Z" fill="#202443"/>
<path d="M250.935 162.016C250.935 162.016 255.842 160.877 258.605 161.814L259.022 162.199C259.022 162.199 259.863 163.818 256.7 163.948C253.538 164.078 248.565 164.312 250.935 162.016Z" fill="#3B56D7"/>
<path d="M270.105 276.897C270.105 276.897 270.84 279.785 270.939 280.218C271.038 280.651 275.568 279.457 275.568 279.457V275.927C275.568 275.927 270.635 276.422 270.105 276.897Z" fill="#666FB3"/>
<path d="M266.697 200.965C266.697 200.965 268.348 207.772 268.836 214.587C269.288 220.886 270.111 227.792 270.765 234.379C271.494 241.722 273.572 253.593 273.68 257.521C273.787 261.449 277.097 278.622 277.097 278.622L268.636 279.594C268.636 279.594 263.138 249.26 261.84 246.158C260.541 243.056 254.104 220.951 253.887 218.469C253.67 215.986 266.697 200.965 266.697 200.965Z" fill="#323657"/>
<path d="M270.85 279.851C270.85 279.851 269.582 281.775 268.255 282.698C266.928 283.621 261.803 284.812 261.056 285.701C260.517 286.34 259.765 288.764 267.985 287.658C273.825 286.871 276.708 287.069 277.233 286.053C277.757 285.037 275.567 279.141 275.567 279.141C275.567 279.141 274.318 279.821 270.85 279.851Z" fill="#202443"/>
<path d="M240.374 217.9C239.653 217.796 242.163 196.327 241.972 194.98C241.843 194.081 241.863 187.104 241.916 182.753L241.132 178.352C240.575 177.959 239.999 177.596 239.406 177.262C238.316 176.633 236.947 175.914 235.428 175.155C235.604 174.114 235.727 173.296 235.774 172.818C236.153 168.951 238.752 166.902 240.23 166.039C240.554 165.845 240.893 165.675 241.243 165.533C241.802 165.294 242.353 165.066 242.886 164.845C246.435 163.387 250.94 162.01 250.94 162.01H258.18C258.18 162.01 263.691 163.112 266.977 164.454C267.395 164.627 267.793 164.846 268.164 165.106L267.18 185.738C267.181 185.742 267.181 185.746 267.18 185.75C267.18 185.758 267.18 185.767 267.18 185.776C266.738 188.679 266.27 192.103 266.116 194.504C266.051 195.484 267.174 200.747 267.759 205.58L269.805 217.138C269.805 217.138 268.612 221.931 240.374 217.9Z" fill="#00CA69"/>
<g opacity="0.72">
<g opacity="0.72">
<path opacity="0.72" d="M360.531 36.6196H274.523C270.563 36.6196 267.353 39.8286 267.353 43.787V145.947C267.353 149.905 270.563 153.114 274.523 153.114H360.531C364.491 153.114 367.701 149.905 367.701 145.947V43.787C367.701 39.8286 364.491 36.6196 360.531 36.6196Z" fill="#D9D9D9"/>
</g>
</g>
<path opacity="0.72" d="M338.338 5H273.679C271.439 5 269.623 6.81478 269.623 9.05342V28.5329C269.623 30.7716 271.439 32.5864 273.679 32.5864H338.338C340.577 32.5864 342.393 30.7716 342.393 28.5329V9.05342C342.393 6.81478 340.577 5 338.338 5Z" fill="#F1F1F1"/>
<path d="M342.711 127.74H322.905V127.348H342.318V119.866H342.711V127.74Z" fill="#E2F3FE"/>
<path d="M305.409 127.741H279.647V127.348H305.016V115.103H305.409V127.741Z" fill="#E2F3FE"/>
<path d="M297.374 123.252H279.647V125.612H297.374V123.252Z" fill="url(#paint0_linear)"/>
<path d="M333.331 123.252H322.905V125.612H333.331V123.252Z" fill="url(#paint1_linear)"/>
<path d="M326.556 27.764C324.861 27.764 323.205 27.2618 321.796 26.321C320.388 25.3801 319.29 24.0428 318.641 22.4783C317.993 20.9137 317.823 19.1921 318.154 17.5311C318.484 15.8702 319.3 14.3445 320.498 13.147C321.696 11.9496 323.223 11.1341 324.885 10.8037C326.546 10.4733 328.269 10.6429 329.834 11.2909C331.399 11.939 332.737 13.0365 333.678 14.4446C334.62 15.8526 335.122 17.5081 335.122 19.2016C335.12 21.4718 334.217 23.6484 332.611 25.2537C331.005 26.859 328.827 27.7618 326.556 27.764ZM326.556 11.0441C324.942 11.0441 323.364 11.5225 322.022 12.4189C320.679 13.3152 319.633 14.5893 319.016 16.0798C318.398 17.5704 318.236 19.2106 318.551 20.793C318.866 22.3754 319.643 23.8289 320.785 24.9698C321.926 26.1106 323.38 26.8875 324.964 27.2023C326.547 27.5171 328.188 27.3555 329.679 26.7381C331.17 26.1207 332.445 25.0751 333.342 23.7336C334.238 22.3921 334.717 20.815 334.717 19.2016C334.717 17.0373 333.857 14.9616 332.327 13.4305C330.797 11.8994 328.721 11.0381 326.556 11.036V11.0441Z" fill="url(#paint2_linear)"/>
<path d="M311.248 12.3254H285.842V14.5587H311.248V12.3254Z" fill="url(#paint3_linear)"/>
<path d="M311.249 18.0774H289.591V20.3106H311.249V18.0774Z" fill="url(#paint4_linear)"/>
<path d="M311.249 23.8296H276.422V26.0628H311.249V23.8296Z" fill="url(#paint5_linear)"/>
<path d="M284.115 46.6194H275.63V48.4315H284.115V46.6194Z" fill="url(#paint6_linear)"/>
<path d="M324.163 53.4426H311.001V55.2547H324.163V53.4426Z" fill="url(#paint7_linear)"/>
<path d="M302.014 53.4426H293.978V55.2547H302.014V53.4426Z" fill="url(#paint8_linear)"/>
<path d="M291.551 53.4426H275.63V55.2547H291.551V53.4426Z" fill="url(#paint9_linear)"/>
<path d="M299.27 46.6194H286.698V48.4315H299.27V46.6194Z" fill="url(#paint10_linear)"/>
<path d="M307.982 53.4426H304.53V55.2547H307.982V53.4426Z" fill="url(#paint11_linear)"/>
<path d="M324.162 46.7205H314.771V48.5326H324.162V46.7205Z" fill="url(#paint12_linear)"/>
<path d="M335.521 53.4426H327.514V55.2547H335.521V53.4426Z" fill="url(#paint13_linear)"/>
<path d="M312.315 46.7205H302.361V48.5326H312.315V46.7205Z" fill="url(#paint14_linear)"/>
<path d="M140.845 336.346C140.586 338.168 129.625 345.844 127.466 347.377C125.734 348.606 124.225 349.171 121.607 350.155C115.656 351.714 78.3112 362.849 78.3112 362.849C78.2373 362.457 78.1127 362.076 77.9405 361.716C76.5469 362.27 75.1046 362.631 74.2012 362.914C72.8116 363.349 61.7759 363.696 59.5173 364.129C57.2587 364.562 52.7415 365.259 50.9164 363.522C49.0912 361.784 52.0446 358.055 54.5625 357.095C57.0804 356.135 66.2931 355.88 67.944 355.704C69.5949 355.528 71.7664 354.923 72.8055 355.271C73.1337 355.38 74.5901 354.953 76.4294 354.317C76.3828 353.641 76.3727 353.216 76.3727 353.216L86.1768 350.381L84.3538 333.032C84.3538 333.032 88.642 316.982 105.678 329.24C105.678 329.24 109.48 330.357 110.784 330.703C110.928 330.73 111.075 330.734 111.22 330.718C113.819 330.515 124.994 327.144 129.029 327.144C133.374 327.144 134.764 326.883 136.322 327.664C137.88 328.446 141.106 334.524 140.845 336.346Z" fill="#323657"/>
<path d="M123.386 363.53C121.563 365.267 117.044 364.571 114.785 364.137C112.527 363.704 101.493 363.356 100.101 362.922C98.7096 362.489 96.1046 361.882 94.2815 360.665C93.9693 360.494 93.6426 360.351 93.3051 360.238L90.5462 362.226L52.1804 350.019C49.8833 349.389 48.0582 348.432 46.8428 347.377C44.8455 345.64 33.7247 338.171 33.4634 336.346C33.2021 334.522 36.4168 328.45 37.9806 327.663C39.5444 326.875 40.936 327.142 45.2729 327.142C49.6098 327.142 62.2155 331.05 63.52 330.702C64.1115 330.544 65.3431 329.92 66.5017 329.284C67.8954 328.525 69.1958 327.75 69.1958 327.75C87.8561 319.424 89.9324 333.048 89.9324 333.048L88.8284 349.867C88.8284 349.867 90.3841 350.637 92.4057 351.598L101.655 354.21L100.439 355.083C100.962 355.253 101.333 355.33 101.485 355.285C102.526 354.937 104.699 355.547 106.346 355.719C107.993 355.891 117.206 356.154 119.716 357.11C122.225 358.065 125.211 361.793 123.386 363.53Z" fill="#323657"/>
<path d="M66.5058 329.284C67.7921 329.376 76.4862 334.409 78.5503 335.614C75.4146 333.976 63.524 330.702 63.524 330.702C64.1155 330.544 65.3471 329.92 66.5058 329.284Z" fill="#787878"/>
<path d="M111.221 330.716C111.221 330.716 96.243 334.348 93.5002 335.869C93.6258 335.778 101.4 329.878 105.474 329.092C105.474 329.092 109.481 330.356 110.785 330.712C110.929 330.738 111.076 330.743 111.221 330.726V330.716Z" fill="#787878"/>
<path d="M123.386 363.53C121.563 365.267 117.044 364.571 114.786 364.137C112.527 363.704 101.493 363.356 100.102 362.922C99.6965 362.799 99.2022 362.659 98.6492 362.495C97.2778 362.09 95.5803 361.532 94.2819 360.673C93.9697 360.502 93.643 360.359 93.3055 360.246L100.249 355.237L100.452 355.093C100.975 355.263 101.345 355.34 101.497 355.295C102.538 354.947 104.712 355.557 106.359 355.729C108.006 355.901 117.218 356.164 119.728 357.12C122.238 358.075 125.212 361.793 123.386 363.53Z" fill="#FFE1BD"/>
<path d="M123.386 363.53C121.563 365.267 117.043 364.571 114.785 364.137C112.526 363.704 101.492 363.356 100.101 362.923C99.6957 362.799 99.2014 362.659 98.6484 362.495C98.6484 362.495 101.687 359.491 100.251 355.229L100.453 355.085C100.976 355.255 101.347 355.332 101.499 355.287C102.54 354.939 104.713 355.549 106.36 355.721C108.007 355.893 117.22 356.156 119.729 357.112C122.239 358.067 125.211 361.793 123.386 363.53Z" fill="#8B9AE2"/>
<path d="M70.3144 333.119C70.3347 333.166 70.3306 333.198 70.3002 333.22C70.128 333.35 70.1564 333.289 70.3144 333.119Z" fill="#E55353"/>
<path d="M120.53 312.813C120.384 312.519 112.47 300.076 110.325 294.403C108.18 288.729 103.032 286.122 100.602 285.312C99.7347 285.022 98.1871 284.52 96.5504 283.992C93.6132 283.042 90.4025 282.011 90.4025 282.011H80.2743C80.2743 282.011 76.7618 283.188 73.0326 284.494C69.589 285.709 65.9772 287.014 64.7538 287.626C62.2055 288.899 57.9192 297.988 57.0563 299.031C56.1934 300.074 49.5067 312.453 48.5486 317.211C47.7991 320.906 69.7429 331.73 70.3405 333.117C71.0353 332.345 74.2318 329.284 74.2318 329.284C74.2318 329.284 73.2088 328.64 71.7666 327.692C77.6409 327.962 92.0068 327.456 94.069 327.559C94.5114 327.577 94.9545 327.568 95.3958 327.531C96.0318 327.994 100.146 331.626 100.146 331.626C100.146 331.626 110.274 327.419 114.943 322.718C121.537 316.026 121.255 314.289 120.53 312.813ZM62.8942 321.045C60.7207 318.442 57.7308 316.864 58.4844 315.706C59.2379 314.548 65.6086 303.548 65.6086 303.548C65.6086 303.548 68.9104 310.786 69.8381 314.55C70.7659 318.314 70.6909 320.035 70.3 321.207C69.9495 322.256 69.668 322.971 69.354 326.097C66.7652 324.323 63.8888 322.24 62.8942 321.045ZM107.712 319.802C106.859 320.77 103.488 322.91 100.458 324.674C100.227 322.572 99.8785 319.268 99.8502 318.081C99.7914 316.285 100.545 311.133 101.471 309.173C102.396 307.213 103.034 301.821 103.034 301.821C103.034 301.821 110.71 312.242 111.927 313.341C113.145 314.441 110.588 316.534 107.712 319.802Z" fill="#00CA69"/>
<path d="M86.5399 254.164C86.5399 254.164 94.4683 255.413 93.261 267.81C92.0537 280.208 85.0571 279.191 84.5892 279.179C84.1213 279.167 77.5663 279.404 77.0538 264.269C77.0538 264.269 76.831 253.077 86.5399 254.164Z" fill="#FFE1BD"/>
<path d="M93.3825 264.308C93.3825 264.308 94.2515 263.381 94.5695 264.32C94.8875 265.26 93.3845 269.443 93.3318 269.639C93.3318 269.639 93.1738 270.001 92.9652 269.801C92.7565 269.601 93.3825 264.308 93.3825 264.308Z" fill="#FFE1BD"/>
<path d="M77.2689 264.152C77.2689 264.152 76.4181 263.208 76.0818 264.14C75.7456 265.071 77.1534 269.284 77.2162 269.481C77.2162 269.481 77.3681 269.849 77.5808 269.653C77.7935 269.456 77.2689 264.152 77.2689 264.152Z" fill="#FFE1BD"/>
<path d="M93.3783 266.209L92.244 267.725C92.244 267.725 92.2764 264.401 92.0941 263.878C91.9118 263.356 91.6342 261.765 91.4864 261.388C91.3385 261.011 84.6802 259.149 78.8018 261.933C78.8018 261.933 79.059 264.324 78.4959 264.536C77.9328 264.749 78.2103 268.43 78.2103 268.43L77.2765 267.377C77.2765 267.377 75.8484 257.841 76.2008 256.849C76.5533 255.857 77.6775 249.878 89.7382 253.425C89.7382 253.425 93.4979 252.629 94.2514 255.223C95.0049 257.816 93.3783 266.209 93.3783 266.209Z" fill="#3B56D7"/>
<path d="M74.8677 345.484C74.8677 345.484 62.7341 338.215 57.4329 337.071C52.4255 335.99 50.5984 334.119 50.5984 334.119C50.5984 334.119 58.5632 334.119 63.8623 337.881C67.47 340.436 74.8677 345.484 74.8677 345.484Z" fill="#202443"/>
<path d="M85.6569 350.551C85.6569 350.551 106.764 339.474 115.381 337.071C120.316 335.694 122.216 334.119 122.216 334.119C122.216 334.119 109.167 335.393 101.232 340.169C97.4502 342.445 85.6569 350.551 85.6569 350.551Z" fill="#202443"/>
<path d="M77.9452 361.721C76.5515 362.276 75.1093 362.637 74.2058 362.92C72.8162 363.355 61.7805 363.702 59.5219 364.135C57.2633 364.568 52.7461 365.265 50.921 363.527C49.0959 361.79 52.0493 358.061 54.5672 357.101C57.085 356.141 66.2977 355.886 67.9486 355.71C69.5995 355.534 71.771 354.929 72.8102 355.277C73.1383 355.386 74.5947 354.959 76.434 354.323C76.4887 355.429 77.9452 361.721 77.9452 361.721Z" fill="#FFE1BD"/>
<path d="M85.6569 360.671L106.406 354.534L102.304 353.281C102.304 353.281 85.7217 359.29 85.6569 360.671Z" fill="#323657"/>
<path d="M85.6569 360.671L95.3678 357.71L88.6346 361.618L85.6569 360.671Z" fill="#202443"/>
<path d="M78.9879 335.869L78.5503 335.614C78.701 335.69 78.8472 335.775 78.9879 335.869Z" fill="#525252"/>
<path d="M74.2058 362.92C72.8162 363.356 61.7805 363.702 59.5219 364.135C57.2633 364.568 52.7461 365.265 50.921 363.528C49.0959 361.79 52.0493 358.061 54.5672 357.101C57.085 356.142 66.2977 355.886 67.9486 355.71C69.5995 355.534 71.771 354.929 72.8102 355.277C72.8162 355.279 70.031 359.535 74.2058 362.92Z" fill="#8B9AE2"/>
<path d="M67.3471 334.119L64.1506 315.939L105.49 314.984L102.822 332.884C102.822 332.884 89.6272 337.711 85.1485 340.527C85.1526 340.517 73.8353 335.868 67.3471 334.119Z" fill="#5D6FC3"/>
<path d="M91.3847 281.787C91.3847 281.777 90.3719 281.289 90.3719 281.289C89.8776 280.184 90.2442 275.527 90.2442 275.527C90.2442 275.527 80.1484 272.96 80.436 274.919C80.7237 276.879 79.567 281.445 79.567 281.445L74.3875 284.016C74.3875 284.016 79.9053 298.827 86.2476 296.916C92.5899 295.004 94.9802 283.482 94.9802 283.482L91.3847 281.787Z" fill="#FFE1BD"/>
<path d="M80.5392 277.062C80.5392 277.062 82.2043 279.204 85.028 279.204C86.8835 279.204 88.2083 278.691 90.0577 276.889C90.0577 276.889 89.2657 280.305 85.0402 280.623C85.0402 280.623 81.9369 280.969 80.5392 277.062Z" fill="#DFAC87"/>
<path d="M356.303 85.3343C358.13 83.1809 359.026 80.3896 358.794 77.5746C358.563 74.7596 357.223 72.1514 355.069 70.3238C352.915 68.4963 350.124 67.599 347.31 67.8294C344.496 68.0599 341.889 69.3991 340.062 71.5525C339.908 71.7355 339.759 71.9213 339.62 72.1113C337.976 74.3323 337.261 77.1058 337.624 79.8457C337.988 82.5856 339.402 85.0772 341.568 86.7941C343.734 88.5111 346.482 89.3187 349.231 89.0464C351.981 88.7741 354.516 87.4433 356.302 85.335L356.303 85.3343ZM343.021 84.5291C341.476 83.2196 340.486 81.3712 340.253 79.359C340.019 77.3469 340.56 75.3217 341.766 73.6945C341.871 73.5526 341.981 73.4111 342.098 73.2753C343.12 72.0716 344.475 71.1981 345.993 70.7651C347.511 70.3321 349.124 70.3591 350.627 70.8427C352.13 71.3264 353.456 72.2449 354.437 73.4821C355.419 74.7194 356.011 76.2198 356.14 77.7936C356.269 79.3675 355.929 80.9441 355.162 82.324C354.395 83.704 353.236 84.8254 351.832 85.5463C350.428 86.2672 348.841 86.5554 347.273 86.3743C345.705 86.1933 344.225 85.5511 343.021 84.5291Z" fill="white"/>
<path d="M346.435 70.651L345.849 68.051C348.011 67.5676 350.269 67.7694 352.311 68.6284C354.353 69.4874 356.077 70.961 357.244 72.8445L354.977 74.2456C354.102 72.8336 352.809 71.7289 351.279 71.0848C349.748 70.4407 348.055 70.289 346.435 70.651Z" fill="#3B56D7"/>
<path d="M341.766 73.6943L339.624 72.1092C339.763 71.9191 339.912 71.7334 340.066 71.5504C341.56 69.7833 343.591 68.5547 345.85 68.0524L346.435 70.6524C344.742 71.0303 343.22 71.9518 342.099 73.2764C341.983 73.4121 341.872 73.5525 341.766 73.6943Z" fill="#5D6FC3"/>
<path d="M338.154 74.8643C338.505 73.8786 339.001 72.9504 339.624 72.1099L341.766 73.6951C341.299 74.3251 340.928 75.0211 340.665 75.7602L338.154 74.8643Z" fill="#8B9AE2"/>
<path d="M358.208 106.253C357.257 103.595 355.287 101.423 352.734 100.216C350.18 99.0091 347.251 98.8655 344.592 99.8169C341.932 100.768 339.76 102.737 338.552 105.289C337.344 107.842 337.201 110.769 338.153 113.427C338.234 113.653 338.32 113.874 338.415 114.09C339.517 116.624 341.561 118.63 344.115 119.685C346.67 120.741 349.535 120.762 352.105 119.744C354.675 118.727 356.748 116.751 357.887 114.234C359.026 111.716 359.141 108.855 358.208 106.254V106.253ZM350.87 117.353C348.963 118.037 346.867 117.97 345.008 117.166C343.149 116.362 341.666 114.88 340.859 113.023C340.789 112.861 340.722 112.695 340.662 112.525C340.131 111.039 340.052 109.429 340.436 107.897C340.82 106.366 341.65 104.983 342.82 103.923C343.99 102.864 345.449 102.174 347.011 101.943C348.573 101.712 350.169 101.949 351.596 102.624C353.024 103.299 354.219 104.382 355.031 105.736C355.842 107.09 356.234 108.655 356.156 110.231C356.079 111.808 355.535 113.326 354.594 114.594C353.653 115.861 352.357 116.822 350.87 117.353Z" fill="white"/>
<path d="M340.558 107.458L338.013 106.665C338.675 104.551 339.979 102.696 341.744 101.358C343.509 100.019 345.647 99.2623 347.862 99.1936L347.942 101.858C346.282 101.909 344.679 102.476 343.355 103.48C342.032 104.483 341.054 105.874 340.558 107.458Z" fill="#3B56D7"/>
<path d="M340.859 113.023L338.415 114.085C338.32 113.87 338.234 113.648 338.153 113.423C337.369 111.246 337.321 108.872 338.015 106.665L340.559 107.458C340.04 109.113 340.077 110.893 340.664 112.525C340.723 112.694 340.789 112.861 340.859 113.023Z" fill="#5D6FC3"/>
<path d="M340.066 116.736C339.388 115.939 338.832 115.046 338.416 114.086L340.86 113.023C341.172 113.743 341.589 114.412 342.097 115.009L340.066 116.736Z" fill="#8B9AE2"/>
<path d="M325.922 84.886C323.618 78.4501 318.85 73.1929 312.668 70.2707C306.485 67.3485 299.395 67.0008 292.956 69.3041C286.517 71.6074 281.257 76.373 278.333 82.5525C275.41 88.732 275.062 95.8192 277.366 102.255C277.563 102.801 277.773 103.337 278.002 103.859C280.669 109.994 285.618 114.852 291.803 117.406C297.987 119.961 304.923 120.012 311.145 117.549C317.367 115.086 322.387 110.302 325.144 104.207C327.902 98.1129 328.181 91.1856 325.922 84.8893V84.886ZM308.155 111.76C303.539 113.415 298.465 113.253 293.964 111.306C289.463 109.359 285.872 105.773 283.919 101.277C283.749 100.884 283.586 100.481 283.443 100.072C282.155 96.4734 281.965 92.5741 282.894 88.8672C283.824 85.1602 285.833 81.8121 288.666 79.2462C291.5 76.6802 295.031 75.0118 298.813 74.4517C302.595 73.8917 306.458 74.4652 309.914 76.0998C313.37 77.7344 316.264 80.3566 318.229 83.6349C320.194 86.9132 321.142 90.7003 320.954 94.5173C320.766 98.3343 319.449 102.01 317.171 105.079C314.893 108.148 311.756 110.473 308.155 111.76Z" fill="white"/>
<path d="M283.189 87.8038L277.03 85.8836C278.632 80.7669 281.789 76.276 286.062 73.0346C290.335 69.7931 295.511 67.9621 300.873 67.7957L301.066 74.2454C297.047 74.3704 293.166 75.743 289.963 78.1726C286.759 80.6022 284.392 83.9684 283.189 87.8038Z" fill="#3B56D7"/>
<path d="M283.919 101.276L278.002 103.848C277.773 103.326 277.563 102.79 277.366 102.244C275.47 96.9736 275.353 91.2269 277.034 85.8835L283.193 87.8038C281.936 91.8109 282.025 96.1191 283.446 100.071C283.59 100.48 283.749 100.883 283.919 101.276Z" fill="#5D6FC3"/>
<path d="M281.999 110.265C280.358 108.335 279.012 106.173 278.004 103.849L283.92 101.276C284.676 103.019 285.686 104.639 286.917 106.085L281.999 110.265Z" fill="#8B9AE2"/>
<defs>
<linearGradient id="paint0_linear" x1="30714.7" y1="1720.21" x2="32265.9" y2="1720.21" gradientUnits="userSpaceOnUse">
<stop stop-color="#D5E4FF"/>
<stop offset="1" stop-color="#EDFFFE"/>
</linearGradient>
<linearGradient id="paint1_linear" x1="20450.2" y1="1720.21" x2="20986.8" y2="1720.21" gradientUnits="userSpaceOnUse">
<stop stop-color="#D5E4FF"/>
<stop offset="1" stop-color="#EDFFFE"/>
</linearGradient>
<linearGradient id="paint2_linear" x1="32977.2" y1="2693.58" x2="34426.1" y2="2693.58" gradientUnits="userSpaceOnUse">
<stop stop-color="#D5E4FF"/>
<stop offset="1" stop-color="#EDFFFE"/>
</linearGradient>
<linearGradient id="paint3_linear" x1="44682.5" y1="298.76" x2="47869.1" y2="298.76" gradientUnits="userSpaceOnUse">
<stop stop-color="#D5E4FF"/>
<stop offset="1" stop-color="#EDFFFE"/>
</linearGradient>
<linearGradient id="paint4_linear" x1="38538.4" y1="367.958" x2="40854.1" y2="367.958" gradientUnits="userSpaceOnUse">
<stop stop-color="#D5E4FF"/>
<stop offset="1" stop-color="#EDFFFE"/>
</linearGradient>
<linearGradient id="paint5_linear" x1="59517.5" y1="437.156" x2="65505.3" y2="437.156" gradientUnits="userSpaceOnUse">
<stop stop-color="#D5E4FF"/>
<stop offset="1" stop-color="#EDFFFE"/>
</linearGradient>
<linearGradient id="paint6_linear" x1="14676.2" y1="584.104" x2="15031.7" y2="584.104" gradientUnits="userSpaceOnUse">
<stop stop-color="#D5E4FF"/>
<stop offset="1" stop-color="#EDFFFE"/>
</linearGradient>
<linearGradient id="paint7_linear" x1="24947.8" y1="651.997" x2="25803.1" y2="651.997" gradientUnits="userSpaceOnUse">
<stop stop-color="#D5E4FF"/>
<stop offset="1" stop-color="#EDFFFE"/>
</linearGradient>
<linearGradient id="paint8_linear" x1="14659.2" y1="651.997" x2="14978" y2="651.997" gradientUnits="userSpaceOnUse">
<stop stop-color="#D5E4FF"/>
<stop offset="1" stop-color="#EDFFFE"/>
</linearGradient>
<linearGradient id="paint9_linear" x1="27296.2" y1="651.997" x2="28547.6" y2="651.997" gradientUnits="userSpaceOnUse">
<stop stop-color="#D5E4FF"/>
<stop offset="1" stop-color="#EDFFFE"/>
</linearGradient>
<linearGradient id="paint10_linear" x1="22308.1" y1="584.104" x2="23088.3" y2="584.104" gradientUnits="userSpaceOnUse">
<stop stop-color="#D5E4FF"/>
<stop offset="1" stop-color="#EDFFFE"/>
</linearGradient>
<linearGradient id="paint11_linear" x1="6654.99" y1="651.997" x2="6713.85" y2="651.997" gradientUnits="userSpaceOnUse">
<stop stop-color="#D5E4FF"/>
<stop offset="1" stop-color="#EDFFFE"/>
</linearGradient>
<linearGradient id="paint12_linear" x1="18066.8" y1="585.111" x2="18502.1" y2="585.111" gradientUnits="userSpaceOnUse">
<stop stop-color="#D5E4FF"/>
<stop offset="1" stop-color="#EDFFFE"/>
</linearGradient>
<linearGradient id="paint13_linear" x1="15967.8" y1="651.997" x2="16284.3" y2="651.997" gradientUnits="userSpaceOnUse">
<stop stop-color="#D5E4FF"/>
<stop offset="1" stop-color="#EDFFFE"/>
</linearGradient>
<linearGradient id="paint14_linear" x1="18508.8" y1="585.111" x2="18998" y2="585.111" gradientUnits="userSpaceOnUse">
<stop stop-color="#D5E4FF"/>
<stop offset="1" stop-color="#EDFFFE"/>
</linearGradient>
</defs>
</svg>
