<svg width="480" height="380" viewBox="0 0 480 380" fill="none" xmlns="http://www.w3.org/2000/svg">
<path d="M23.3567 63.2634C23.9126 64.5997 24.6543 65.8509 25.5598 66.9801L24.2549 69.729L26.9016 71.7123L29.5461 73.6957L31.8166 71.6688C33.1541 72.2217 34.5626 72.584 36.0008 72.7453L37.0164 75.6117L40.2786 75.1441L43.5516 74.6765L43.7256 71.6319C45.0614 71.075 46.3125 70.3334 47.4422 69.4288L50.189 70.7337L52.1767 68.1131L54.1601 65.4686L52.1289 63.1873C52.6854 61.8495 53.0515 60.4403 53.2162 59.0008L56.0826 57.9874L55.6085 54.7144L55.1409 51.4414L52.0962 51.2674C51.5393 49.9316 50.7978 48.6805 49.8932 47.5507L51.198 44.804L48.5535 42.8206L45.909 40.835L43.6473 42.8619C42.3094 42.3149 40.9019 41.957 39.4652 41.7985L38.4518 38.9321L35.1787 39.3997L31.9166 39.8673L31.7426 42.9119C30.4068 43.4688 29.1557 44.2104 28.026 45.115L25.2792 43.8101L23.2958 46.4568L21.3103 49.1013L23.3372 51.3718C22.786 52.7097 22.4244 54.1181 22.2628 55.556L19.3965 56.5716L19.8641 59.8447L20.3316 63.1177L23.3567 63.2634ZM36.0921 45.7979C38.3605 45.4737 40.674 45.8295 42.7401 46.8203C44.8062 47.811 46.5322 49.3922 47.6996 51.3639C48.867 53.3356 49.4235 55.6092 49.2988 57.8972C49.174 60.1852 48.3735 62.3848 46.9986 64.2178C45.6237 66.0508 43.736 67.435 41.5744 68.1951C39.4128 68.9553 37.0743 69.0574 34.8547 68.4885C32.6351 67.9196 30.634 66.7053 29.1045 64.9991C27.5751 63.2928 26.5859 61.1714 26.2622 58.903C25.8282 55.8616 26.62 52.7725 28.4634 50.3148C30.3068 47.8572 33.0509 46.2325 36.0921 45.7979Z" fill="white"/>
<g opacity="0.69">
<path opacity="0.72" d="M249.064 47.6375H186.679C185.586 47.6375 184.7 48.5235 184.7 49.6165V51.6129C184.7 52.7059 185.586 53.592 186.679 53.592H249.064C250.157 53.592 251.043 52.7059 251.043 51.6129V49.6165C251.043 48.5235 250.157 47.6375 249.064 47.6375Z" fill="#D9D9D9"/>
<path opacity="0.72" d="M258.308 57.2646H186.673C185.58 57.2646 184.694 58.1507 184.694 59.2437V61.2401C184.694 62.3331 185.58 63.2192 186.673 63.2192H258.308C259.401 63.2192 260.287 62.3331 260.287 61.2401V59.2437C260.287 58.1507 259.401 57.2646 258.308 57.2646Z" fill="#D9D9D9"/>
</g>
<path d="M173.718 45.8423H162.157C160.055 45.8423 158.352 47.5462 158.352 49.6481V61.2092C158.352 63.3111 160.055 65.015 162.157 65.015H173.718C175.82 65.015 177.524 63.3111 177.524 61.2092V49.6481C177.524 47.5462 175.82 45.8423 173.718 45.8423Z" fill="#B9C2EE"/>
<path d="M167.581 57.7667L167.551 57.3448C167.453 56.4749 167.744 55.5114 168.556 54.5393C169.286 53.6694 169.691 53.0453 169.691 52.3167C169.691 51.4881 169.171 50.9379 168.149 50.9205C167.565 50.9189 166.993 51.0948 166.511 51.4251L166.122 50.4029C166.657 50.0136 167.581 49.7505 168.443 49.7505C170.306 49.7505 171.15 50.9031 171.15 52.1427C171.15 53.2453 170.535 54.0391 169.756 54.9699C169.043 55.8116 168.782 56.5271 168.832 57.3622L168.847 57.7841L167.581 57.7667ZM167.225 60.0371C167.216 59.9047 167.235 59.7719 167.28 59.6471C167.325 59.5223 167.396 59.4083 167.487 59.3122C167.579 59.2161 167.69 59.1401 167.812 59.0889C167.935 59.0378 168.066 59.0126 168.199 59.015C168.401 59.0068 168.601 59.0591 168.773 59.1653C168.946 59.2715 169.082 59.4267 169.166 59.611C169.249 59.7953 169.275 60.0003 169.242 60.1998C169.208 60.3992 169.115 60.584 168.975 60.7305C168.836 60.8769 168.656 60.9784 168.458 61.0217C168.26 61.0651 168.054 61.0485 167.866 60.974C167.678 60.8995 167.517 60.7705 167.402 60.6036C167.288 60.4367 167.226 60.2394 167.225 60.0371Z" fill="white"/>
<path d="M309.199 170.95L15.5365 1.40363C8.63381 -2.58271 0 2.39532 0 10.3745V349.466C0 357.441 8.63164 362.423 15.5365 358.437L309.199 188.89C316.104 184.904 316.104 174.937 309.199 170.95Z" fill="#8B9AE2"/>
<path opacity="0.4" d="M24.7282 134.496C25.9422 137.41 27.5593 140.139 29.5322 142.603L26.6746 148.597L32.4442 152.924L38.2117 157.252L43.1636 152.831C46.0836 154.036 49.1582 154.825 52.2976 155.175L54.5115 161.428L61.6513 160.408L68.791 159.388L69.1673 152.766C72.0813 151.552 74.8104 149.935 77.2748 147.962L83.2663 150.819L87.5788 145.061L91.9066 139.291L87.4918 134.328C88.696 131.408 89.4844 128.333 89.834 125.194L96.0887 122.98L95.0687 115.84L94.0487 108.701L87.4266 108.329C86.2118 105.415 84.5939 102.686 82.6204 100.221L85.478 94.2276L79.7084 89.902L73.9409 85.5742L68.9868 89.9933C66.0666 88.789 62.992 87.9999 59.8528 87.6489L57.6367 81.3965L50.5035 82.4273L43.3659 83.4473L42.9962 90.0586C40.0828 91.2739 37.3539 92.891 34.8886 94.8626L28.8972 92.0072L24.5694 97.7746L20.2416 103.544L24.6629 108.498C23.4576 111.418 22.6684 114.493 22.3185 117.632L16.0574 119.833L17.0773 126.971L18.0951 134.111L24.7282 134.496ZM52.4999 96.3958C57.4478 95.6894 62.494 96.4661 67.0005 98.6276C71.507 100.789 75.2713 104.238 77.8174 108.539C80.3635 112.84 81.5771 117.8 81.3047 122.79C81.0323 127.781 79.2861 132.579 76.287 136.577C73.2879 140.575 69.1705 143.594 64.4556 145.252C59.7406 146.911 54.6398 147.133 49.7982 145.893C44.9566 144.652 40.5916 142.003 37.2553 138.282C33.919 134.56 31.7611 129.933 31.0545 124.985C30.5854 121.7 30.768 118.354 31.5918 115.14C32.4156 111.925 33.8646 108.904 35.856 106.249C37.8474 103.594 40.3422 101.358 43.198 99.667C46.0537 97.9764 49.2145 96.8649 52.4999 96.3958Z" fill="white"/>
<path d="M245.861 148.65C245.861 148.65 263.525 142.911 264.96 143.552C266.395 144.194 266.589 145.205 264.96 145.812C263.331 146.419 248.023 151.871 248.023 151.871C248.023 151.871 269.851 148.726 271.147 148.974C271.906 149.12 272.393 151.051 271.545 151.46C270.697 151.869 249.162 156.281 249.162 156.281C249.162 156.281 269.544 153.382 270.556 153.935C271.441 154.418 271.46 156.327 269.957 156.653C268.455 156.979 249.63 160.785 249.63 160.785C249.63 160.785 264.549 159.652 265.116 160.664C265.467 161.281 265.962 162.927 262.109 163.093C258.255 163.258 249.162 164.654 249.162 164.654L245.861 148.65Z" fill="#FFE1BD"/>
<path d="M226.396 158.543C226.396 158.543 232.112 156.273 232.523 152.672C232.871 149.605 235.417 145.801 236.198 144.625C237.244 143.057 238.808 137.07 240.637 138.346C242.466 139.623 238.51 148.324 238.027 150.308C237.544 152.291 245.336 148.065 247.289 148.448C249.242 148.831 254.555 162.512 248.909 164.774C243.264 167.036 235.991 165.598 235.063 166.201C234.134 166.803 231.011 168.014 231.011 168.014L226.396 158.543Z" fill="#FFE1BD"/>
<path d="M157.491 261.089C157.619 262.742 157.756 264.317 157.885 265.724H76.0897C76.118 264.347 76.1572 262.783 76.1876 261.089C76.4638 247.453 76.8661 225.097 76.69 216.654C76.4725 204.602 73.9237 173.283 73.4278 171.472C73.4278 171.472 55.4817 145.396 36.6591 196.868C32.7728 207.475 68.3933 234.05 63.9676 234.877C59.542 235.703 59.7268 244.096 59.7268 244.096C59.7268 244.096 26.1724 214.873 26.8618 206.255C27.2446 201.47 53.5179 131.987 57.526 129.111C60.2596 127.154 77.4403 120.258 86.3459 116.883C90.478 115.308 93.6075 114.217 94.2555 114.175C96.2933 114.049 121.423 116.459 121.423 116.459C121.423 116.459 125.024 117.69 128.715 119.382C135.002 122.263 144.808 126.776 151.826 130.127C154.101 131.214 156.943 132.665 159.305 133.913C159.015 142.456 158.507 151.62 157.783 161.407C157.783 161.407 156.478 182.787 156.356 204.384C155.225 209.275 155.421 220.641 155.421 220.641C155.108 231.415 156.308 242.473 156.621 248.652C156.832 252.521 157.156 257.046 157.491 261.089Z" fill="#DBD8E3"/>
<path d="M161.024 261.09C159.843 253.445 158.723 245.486 157.797 237.87V237.811C157.652 236.571 157.507 235.339 157.362 234.114C157.359 234.051 157.353 233.989 157.342 233.927C156.751 228.77 156.268 223.842 155.915 219.325C155.688 215.935 155.84 212.529 156.368 209.172C157.764 186.078 158.462 161.725 158.462 161.725C159.201 151.747 159.623 142.439 159.908 133.751C159.908 133.751 128.355 118.845 125.49 117.988C125.49 117.988 131.473 132.039 135.96 163.456C137.7 175.519 140.89 195.829 143.213 216.559C144.126 224.736 145.633 233.011 147.068 240.806C148.428 248.154 149.726 255.081 150.424 261.083C150.474 261.448 150.513 261.812 150.552 262.171C150.661 263.204 150.787 264.393 150.935 265.711H161.759C161.507 264.2 161.261 262.645 161.024 261.09Z" fill="#323657"/>
<path d="M105.441 224.351C104.003 238.284 102.428 249.56 101.161 261.091C100.993 262.626 100.826 264.173 100.669 265.725H67.48C67.915 264.192 68.3347 262.647 68.7392 261.091C72.3015 247.662 75.1439 233.954 75.1439 225.642C75.1439 225.642 68.2368 175.973 65.9251 167.972C65.9251 167.972 45.0365 183.413 40.1541 194.117C35.7872 203.686 67.7954 232.893 67.4213 233.878C65.2465 239.635 56.9129 250.152 56.9129 250.152C56.9129 250.152 7.35 196.92 8.00895 190.346C8.48088 185.575 50.0341 132.519 54.0378 129.646C56.3605 127.985 73.5215 121.904 81.9444 118.577C83.4885 117.968 88.5056 116.078 89.8844 115.556C91.6656 117.544 104.22 131.053 108.57 182.397C109.307 191.064 106.995 209.386 105.441 224.351Z" fill="#323657"/>
<path d="M96.5829 116.848C96.5829 116.848 96.4089 108.221 93.0837 90.7686C92.1943 86.095 120.21 103.06 120.21 103.06C120.21 103.06 120.123 104.698 120.066 106.907C120.036 108.075 120.018 109.4 120.025 110.729C120.025 111.196 120.025 111.662 120.044 112.125C120.07 113.358 120.127 114.541 120.231 115.546C120.336 116.55 120.947 118.41 121.166 118.912C122.321 121.572 106.017 123.599 96.5829 116.848Z" fill="#FFE1BD"/>
<path d="M114.07 125.887L118.713 132.126C118.713 132.126 115.992 135.769 111.16 133.081L114.07 125.887Z" fill="#00CA69"/>
<path d="M117.47 132.381C117.47 132.381 135.085 200.186 131.451 252.967L125.525 263.406L119.982 252.469C119.982 252.469 118.459 158.061 113.634 132.205L117.47 132.381Z" fill="#00CA69"/>
<path d="M119.041 120.071L114.069 125.886C114.069 125.886 106.088 124.342 103.745 120.173C101.403 116.004 119.041 120.071 119.041 120.071Z" fill="#FFE1BD"/>
<path d="M120.18 114.98C120.18 114.98 119.604 119.415 114.069 125.887L120.111 134.005L123.373 117.166L120.18 114.98Z" fill="#C4C1CC"/>
<path d="M96.1239 110.762C96.1239 110.762 106.002 122.7 114.07 125.888L110.316 135.17L91.5396 114.981L96.1239 110.762Z" fill="#C4C1CC"/>
<path d="M241.24 168.228C241.24 168.228 198.675 214.47 188.632 211.999C183.989 210.857 176.956 202.841 171.143 195.306C169.227 192.824 167.348 190.219 165.56 187.642C158.429 177.346 152.842 167.479 152.842 167.479C152.842 167.479 131.767 142.779 148.678 131.77C148.678 131.77 155.806 131.05 159.86 134.04C163.603 136.802 172.711 154.19 174.19 157.413C175.669 160.636 187.169 183.357 188.243 184.029C189.317 184.701 200.611 177.923 206.648 173.858C216.406 167.292 228.663 155.847 228.663 155.847L241.24 168.228Z" fill="#323657"/>
<path d="M134.961 60.1138C134.961 60.1138 141.115 71.5248 138.066 73.2972C135.546 74.7652 141.019 85.9608 141.735 87.7898C142.45 89.6188 137.168 90.9498 136.048 92.1263C134.928 93.3028 131.601 107.785 127.251 108.22C122.901 108.654 103.303 101.85 97.9656 96.3018C92.6288 90.754 88.2488 65.6812 91.8111 55.1162C95.3733 44.5512 124.1 40.1821 134.961 60.1138Z" fill="#FFE1BD"/>
<path d="M136.188 62.5865C136.188 62.5865 142.471 50.2643 131.06 41.1238C119.649 31.9832 98.6078 48.0243 96.2351 48.6376C93.8624 49.2509 80.4007 50.173 87.2033 73.7974C93.036 94.0858 93.8516 94.9383 93.8516 94.9383C93.8516 94.9383 98.2011 83.1946 100.672 81.396C104.525 78.5971 112.974 79.2691 112.974 79.2691C112.974 79.2691 108.949 68.5823 115.24 67.0687C121.532 65.5551 129.824 60.2247 136.188 62.5865Z" fill="#3B56D7"/>
<path d="M106.282 73.1475C105.728 71.6817 103.934 65.3814 98.5271 69.0807C93.1207 72.7799 101.896 84.6563 102.84 84.8086C103.784 84.9608 110.943 85.4827 106.282 73.1475Z" fill="#FFE1BD"/>
<path d="M120.025 110.728C120.025 111.196 120.025 111.661 120.045 112.125C104.021 106.746 100.918 98.6519 100.918 98.6519C105.92 102.186 120.056 106.916 120.056 106.916C120.036 108.075 120.019 109.393 120.025 110.728Z" fill="#DFAC87"/>
<path d="M61.639 233.701C61.639 233.701 63.1613 234.973 64.7619 234.96C67.5347 234.936 70.6947 231.915 73.5936 234.66C76.4926 237.404 70.388 249.046 68.1893 250.411C65.9907 251.777 60.9952 249.324 55.6453 242.861C50.2954 236.397 61.639 233.701 61.639 233.701Z" fill="#EEA886"/>
<path d="M72.4844 233.879C76.4332 235.283 80.3028 236.9 84.0759 238.724C89.3214 241.284 95.4781 245.194 94.8496 246.523C93.8971 248.539 89.217 244.757 83.8432 242.571C78.8977 240.56 79.5328 241.795 79.5328 241.795C79.5328 241.795 79.3718 241.434 84.3325 244.685C89.6672 248.182 95.252 252.162 94.7583 253.26C94.1472 254.622 93.9558 254.739 91.8115 253.791C92.925 254.604 92.8597 255.028 92.5639 255.531C91.0416 258.141 82.3904 254.226 78.9586 252.68C81.5879 253.889 83.3864 255.059 81.4205 256.046C79.1696 257.175 67.2019 251.099 62.7066 249.339C57.8025 247.421 72.4844 233.879 72.4844 233.879Z" fill="#EEA886"/>
<path d="M67.4213 233.879C67.4213 233.879 66.2012 241.019 56.915 250.151C56.915 250.151 35.6262 226.663 31.8291 222.27L48.4856 212.606L67.4213 233.879Z" fill="#323657"/>
<path d="M312.388 261.09H19.4949V265.724H312.388V261.09Z" fill="white"/>
<path d="M173.718 74.0793H162.157C160.055 74.0793 158.352 75.7833 158.352 77.8852V89.4462C158.352 91.5481 160.055 93.2521 162.157 93.2521H173.718C175.82 93.2521 177.524 91.5481 177.524 89.4462V77.8852C177.524 75.7833 175.82 74.0793 173.718 74.0793Z" fill="#B9C2EE"/>
<g opacity="0.69">
<path opacity="0.72" d="M232.851 75.8765H186.417C185.47 75.8765 184.701 76.6447 184.701 77.5923V80.1151C184.701 81.0627 185.47 81.831 186.417 81.831H232.851C233.798 81.831 234.567 81.0627 234.567 80.1151V77.5923C234.567 76.6447 233.798 75.8765 232.851 75.8765Z" fill="#D9D9D9"/>
<path opacity="0.72" d="M244.245 85.5042H186.479C185.494 85.5042 184.695 86.3026 184.695 87.2875V89.6753C184.695 90.6602 185.494 91.4587 186.479 91.4587H244.245C245.23 91.4587 246.028 90.6602 246.028 89.6753V87.2875C246.028 86.3026 245.23 85.5042 244.245 85.5042Z" fill="#D9D9D9"/>
</g>
<g opacity="0.69">
<path opacity="0.72" d="M254.981 103.065H186.77C185.627 103.065 184.701 103.991 184.701 105.133V106.951C184.701 108.093 185.627 109.019 186.77 109.019H254.981C256.123 109.019 257.049 108.093 257.049 106.951V105.133C257.049 103.991 256.123 103.065 254.981 103.065Z" fill="#D9D9D9"/>
<path opacity="0.72" d="M249.184 112.692H186.55C185.526 112.692 184.695 113.523 184.695 114.547V116.792C184.695 117.816 185.526 118.647 186.55 118.647H249.184C250.208 118.647 251.039 117.816 251.039 116.792V114.547C251.039 113.523 250.208 112.692 249.184 112.692Z" fill="#D9D9D9"/>
</g>
<path d="M173.718 101.271H162.157C160.055 101.271 158.352 102.975 158.352 105.077V116.638C158.352 118.74 160.055 120.444 162.157 120.444H173.718C175.82 120.444 177.524 118.74 177.524 116.638V105.077C177.524 102.975 175.82 101.271 173.718 101.271Z" fill="#B9C2EE"/>
<path d="M167.282 88.2977L161.954 83.6764C161.848 83.587 161.761 83.4774 161.698 83.354C161.634 83.2306 161.596 83.0958 161.585 82.9575C161.575 82.8192 161.592 82.6802 161.635 82.5485C161.679 82.4168 161.748 82.2951 161.839 82.1904C161.93 82.0858 162.041 82.0002 162.165 81.9388C162.289 81.8774 162.425 81.8413 162.563 81.8326C162.702 81.824 162.84 81.8429 162.971 81.8884C163.102 81.9339 163.223 82.005 163.326 82.0975L167.089 85.3596L172.445 79.3812C172.632 79.1816 172.889 79.063 173.162 79.0508C173.435 79.0387 173.702 79.1338 173.906 79.316C174.11 79.4982 174.234 79.7529 174.253 80.0256C174.271 80.2983 174.182 80.5674 174.004 80.7752L167.282 88.2977Z" fill="white"/>
<path d="M167.285 115.483L161.957 110.869C161.747 110.687 161.619 110.429 161.599 110.152C161.579 109.875 161.671 109.602 161.853 109.392C162.035 109.182 162.292 109.053 162.569 109.034C162.846 109.014 163.12 109.106 163.329 109.288L167.092 112.55L172.448 106.567C172.539 106.461 172.649 106.374 172.774 106.312C172.898 106.249 173.034 106.212 173.173 106.203C173.312 106.193 173.452 106.212 173.584 106.257C173.715 106.302 173.837 106.374 173.941 106.466C174.045 106.559 174.129 106.672 174.189 106.798C174.248 106.924 174.282 107.06 174.289 107.2C174.295 107.339 174.273 107.478 174.225 107.609C174.177 107.739 174.103 107.859 174.007 107.961L167.285 115.483Z" fill="white"/>
<path d="M309.338 209.622H297.777C295.675 209.622 293.971 211.326 293.971 213.428V224.989C293.971 227.091 295.675 228.795 297.777 228.795H309.338C311.439 228.795 313.143 227.091 313.143 224.989V213.428C313.143 211.326 311.439 209.622 309.338 209.622Z" fill="#B9C2EE"/>
<g opacity="0.69">
<path opacity="0.72" d="M384.679 184.229H322.294C321.201 184.229 320.315 185.115 320.315 186.208V188.204C320.315 189.297 321.201 190.183 322.294 190.183H384.679C385.772 190.183 386.658 189.297 386.658 188.204V186.208C386.658 185.115 385.772 184.229 384.679 184.229Z" fill="#D9D9D9"/>
<path opacity="0.72" d="M393.928 193.856H322.293C321.2 193.856 320.314 194.742 320.314 195.835V197.832C320.314 198.925 321.2 199.811 322.293 199.811H393.928C395.021 199.811 395.907 198.925 395.907 197.832V195.835C395.907 194.742 395.021 193.856 393.928 193.856Z" fill="#D9D9D9"/>
</g>
<path d="M309.338 182.434H297.777C295.675 182.434 293.971 184.138 293.971 186.239V197.8C293.971 199.902 295.675 201.606 297.777 201.606H309.338C311.439 201.606 313.143 199.902 313.143 197.8V186.239C313.143 184.138 311.439 182.434 309.338 182.434Z" fill="#B9C2EE"/>
<g opacity="0.69">
<path opacity="0.72" d="M368.464 211.419H322.031C321.083 211.419 320.315 212.187 320.315 213.135V215.657C320.315 216.605 321.083 217.373 322.031 217.373H368.464C369.412 217.373 370.18 216.605 370.18 215.657V213.135C370.18 212.187 369.412 211.419 368.464 211.419Z" fill="#D9D9D9"/>
<path opacity="0.72" d="M379.864 221.047H322.098C321.113 221.047 320.314 221.846 320.314 222.83V225.218C320.314 226.203 321.113 227.002 322.098 227.002H379.864C380.848 227.002 381.647 226.203 381.647 225.218V222.83C381.647 221.846 380.848 221.047 379.864 221.047Z" fill="#D9D9D9"/>
</g>
<path d="M302.902 223.843L297.583 219.219C297.373 219.037 297.244 218.779 297.225 218.503C297.205 218.226 297.296 217.952 297.478 217.743C297.66 217.533 297.918 217.404 298.195 217.385C298.472 217.365 298.745 217.456 298.955 217.638L302.717 220.9L308.065 214.915C308.155 214.806 308.266 214.716 308.391 214.651C308.517 214.586 308.654 214.547 308.795 214.536C308.936 214.525 309.077 214.543 309.211 214.588C309.345 214.633 309.468 214.705 309.574 214.8C309.679 214.894 309.764 215.008 309.824 215.136C309.884 215.264 309.918 215.403 309.923 215.544C309.928 215.685 309.904 215.826 309.853 215.958C309.802 216.09 309.725 216.21 309.627 216.312L302.902 223.843Z" fill="white"/>
<path d="M233.434 308.353C234.319 312.192 234.165 321.111 234.165 321.111C234.406 329.57 233.462 338.257 233.221 343.108C233.221 343.256 233.206 343.406 233.199 343.561C233.136 344.705 233.062 345.918 232.982 347.149H296.267C296.246 345.983 296.222 344.783 296.204 343.561C296.076 336.399 295.963 328.555 295.952 322.955C310.414 319.136 326.031 314.151 325.746 310.507C325.446 306.755 314.179 251.523 311.03 249.267C308.883 247.725 295.395 242.321 288.401 239.668C285.167 238.435 282.701 237.576 282.197 237.545C280.596 237.445 260.869 239.335 260.869 239.335C260.869 239.335 258.042 240.305 255.149 241.632C250.215 243.896 242.522 247.436 237.001 250.065C235.22 250.911 232.991 252.06 231.129 253.043C231.354 259.745 231.751 266.937 232.321 274.616C232.321 274.616 233.336 291.401 233.434 308.353ZM296.133 314.743C296.911 304.228 300.082 286.164 300.434 284.886C300.434 284.886 301.922 286.293 301.931 286.293C301.939 286.293 302.42 286.362 302.424 286.356C302.578 286.403 302.728 286.459 302.874 286.525C302.874 286.525 312.443 299.9 312.554 307.09C312.606 310.52 305.125 312.977 296.137 314.743H296.133Z" fill="#DBD8E3"/>
<path d="M230.63 347.149H238.92C239.108 345.982 239.311 344.786 239.529 343.561C240.934 335.645 242.791 326.7 243.767 317.918C245.59 301.647 248.097 285.703 249.452 276.232C252.975 251.575 257.673 240.542 257.673 240.542C255.428 241.212 230.66 252.919 230.66 252.919C230.878 259.735 231.212 267.055 231.791 274.884C231.791 274.884 232.339 294.002 233.437 312.133C233.849 314.768 233.967 317.441 233.792 320.102C233.516 323.649 233.139 327.52 232.67 331.558C232.67 331.613 232.67 331.665 232.654 331.711C232.543 332.67 232.437 333.633 232.313 334.609C232.313 334.625 232.313 334.636 232.313 334.651C231.956 337.582 231.565 340.577 231.147 343.567C230.979 344.759 230.807 345.953 230.63 347.149Z" fill="#323657"/>
<path d="M254.34 319.872C256.223 324.315 262.715 335.289 262.715 335.289C262.715 335.289 267.413 334.138 274.324 332.348C274.778 336.263 275.237 339.96 275.677 343.561C275.822 344.764 275.97 345.954 276.112 347.15H300.763C300.473 345.943 300.194 344.747 299.927 343.561C298.42 336.885 297.363 330.674 297.211 326.142C313.739 321.42 329.946 316.138 329.693 313.597C329.319 309.853 316.904 251.949 313.755 249.694C311.939 248.389 298.464 243.605 291.853 241.008C290.646 240.53 286.52 238.981 285.437 238.568C284.034 240.13 274.367 250.799 270.951 291.104C270.529 296.106 271.408 305.266 272.382 314.435C262.374 317.105 254.018 319.113 254.34 319.872ZM299.419 305.488C300.412 297.456 301.543 289.379 302.359 286.552C302.359 286.552 305.147 292.176 304.929 300.427C304.888 302.093 302.765 303.802 299.419 305.488Z" fill="#323657"/>
<path d="M283.217 238.177C283.217 238.177 280.707 233.439 281.401 219.979C281.592 216.249 261.815 228.821 261.815 228.821C261.815 228.821 261.882 230.107 261.926 231.84C261.948 232.562 261.961 233.362 261.961 234.167C261.961 234.385 261.961 234.615 261.961 234.839C261.961 235.209 261.961 235.572 261.948 235.926C261.948 236.379 261.921 236.82 261.898 237.247C261.876 237.731 261.843 238.19 261.797 238.61C261.65 239.515 261.405 240.401 261.065 241.252C260.156 243.36 275.812 243.475 283.217 238.177Z" fill="#FFE1BD"/>
<path d="M266.636 246.739L262.991 251.637C262.991 251.637 265.127 254.497 268.92 252.385L266.636 246.739Z" fill="#F29127"/>
<path d="M263.964 251.841C263.964 251.841 250.611 284.463 253.46 325.89L257.672 333.534L262.422 327.023C262.422 327.023 263.187 272.001 266.989 251.711L263.964 251.841Z" fill="#F29127"/>
<path d="M262.736 242.172L266.637 246.739C266.637 246.739 272.9 245.525 274.74 242.252C276.58 238.979 262.736 242.172 262.736 242.172Z" fill="#FFE1BD"/>
<path d="M261.836 238.176C261.836 238.176 262.289 241.655 266.634 246.738L261.893 253.108L259.324 239.892L261.836 238.176Z" fill="#C4C1CC"/>
<path d="M282.026 233.989C282.026 233.989 272.968 244.232 266.635 246.738L269.582 254.023L284.036 238.078L282.026 233.989Z" fill="#C4C1CC"/>
<path d="M188.922 326.669C188.922 326.669 200.944 315.01 208.828 313.07C212.473 312.174 217.275 307.142 221.835 301.227C223.34 299.28 224.814 297.236 226.217 295.211C231.815 287.132 236.202 279.385 236.202 279.385C236.202 279.385 252.745 259.997 239.464 251.353C239.464 251.353 233.775 251.231 230.654 252.925C227.444 254.665 220.6 268.953 219.438 271.485C218.277 274.016 205.707 297.508 204.868 298.034C204.028 298.56 202.621 300.496 197.591 303.203C191.432 306.52 181.756 316.226 181.756 316.226L188.922 326.669Z" fill="#323657"/>
<path d="M246.625 340.165C246.625 340.165 248.303 340.098 249.017 339.709C249.017 339.709 250.274 338.904 251.192 338.384C251.429 338.248 251.674 338.124 251.924 338.014C252.666 337.721 254.382 337.297 255.963 336.09C257.544 334.883 262.705 330.064 262.705 330.064L259.384 324.944L257.846 319.873C257.846 319.873 245.831 321.069 244.228 322.021C244.077 322.111 243.932 322.21 243.793 322.317C242.514 323.254 241.958 324.492 241.342 325.057C241.125 325.275 239.024 327.508 239.141 328.417C239.302 329.679 239.926 330.488 240.709 330.87C240.709 330.87 241.144 333.326 242.401 334.424C242.401 334.424 242.719 336.701 244.687 337.616C244.678 337.616 245.261 339.891 246.625 340.165Z" fill="#FFE1BD"/>
<path d="M265.754 185.251C265.754 185.251 244.037 180.016 248.613 207.512C253.189 235.007 258.399 237.239 271.624 231.756C284.849 226.273 283.935 208.688 284.723 200.083C285.51 191.477 272.701 185.651 265.754 185.251Z" fill="#FFE1BD"/>
<path d="M277.166 204.294C277.49 201.878 282.285 201.062 282.616 204.694C282.946 208.326 280.295 214.654 278.483 214.002C276.672 213.349 276.722 207.623 277.166 204.294Z" fill="#FFE1BD"/>
<path d="M283.458 214.14C283.458 214.14 283.023 205.491 279.87 205.175C276.716 204.86 276.172 208.331 276.172 208.331L272.978 208.885C272.978 208.885 274.096 201.328 270.964 199.958C267.832 198.588 250.486 203.829 247.99 201.567C245.493 199.306 246.902 183.965 251.515 181.929C256.128 179.894 268.822 175.37 277.986 181.77C277.986 181.77 285.215 181.055 286.198 186.892C287.181 192.729 285.483 209.838 283.458 214.14Z" fill="#3B56D7"/>
<path d="M253.747 319.871L262.713 335.288C262.713 335.288 286.468 329.169 292.009 327.605L279.339 312.516C279.339 312.516 260.66 316.792 253.747 319.871Z" fill="#323657"/>
<path d="M261.896 237.257C273.545 236.07 278.059 227.104 278.059 227.104C270.733 234.365 261.966 234.167 261.966 234.167C261.966 234.385 261.966 234.615 261.966 234.839C261.966 235.209 261.966 235.572 261.953 235.927C261.936 236.401 261.92 236.836 261.896 237.257Z" fill="#DFAC87"/>
<path d="M244.911 286.119L251.246 345.019H167.863L161.528 286.119H244.911Z" fill="#00CA69"/>
<path d="M257.885 339.719H243.958V345.019H257.885V339.719Z" fill="#F29127"/>
<path d="M316.19 344.895H89.5623V348.483H316.19V344.895Z" fill="#3B56D7"/>
<path d="M208.871 314.622C209.541 317.902 208.012 320.983 205.455 321.507C202.897 322.032 200.281 319.794 199.611 316.505C198.941 313.217 200.481 310.144 203.028 309.622C205.574 309.1 208.201 311.343 208.871 314.622Z" fill="#F9B253"/>
<path d="M109.3 206.934H34.2638C30.6581 206.934 27.7351 209.857 27.7351 213.463V285.58C27.7351 289.186 30.6581 292.109 34.2638 292.109H109.3C112.905 292.109 115.828 289.186 115.828 285.58V213.463C115.828 209.857 112.905 206.934 109.3 206.934Z" fill="#F7F7F7"/>
<path d="M35.9014 282.29L35.2903 281.644L51.0834 266.742L67.0679 270.204L82.3348 252.793L95.6508 253.546L106.02 239.24L106.742 239.762L96.0858 254.461L82.7175 253.707L67.3898 271.185L51.3531 267.71L35.9014 282.29Z" fill="#3B56D7"/>
<path d="M69.5464 270.194C69.6451 270.652 69.6058 271.13 69.4334 271.566C69.2611 272.002 68.9633 272.377 68.5778 272.644C68.1923 272.911 67.7364 273.058 67.2675 273.066C66.7987 273.074 66.338 272.943 65.9436 272.689C65.5492 272.436 65.2388 272.071 65.0515 271.641C64.8643 271.211 64.8087 270.735 64.8917 270.274C64.9747 269.812 65.1926 269.386 65.5178 269.048C65.8431 268.71 66.2611 268.476 66.7192 268.376C67.0243 268.309 67.3396 268.303 67.647 268.358C67.9545 268.413 68.248 268.528 68.5108 268.697C68.7735 268.866 69.0002 269.085 69.178 269.342C69.3557 269.599 69.4809 269.889 69.5464 270.194Z" fill="#F1F1F1"/>
<path d="M67.8244 273.449C67.2775 273.569 66.7073 273.524 66.1859 273.32C65.6645 273.116 65.2155 272.762 64.8958 272.302C64.5761 271.842 64.4001 271.298 64.3901 270.738C64.3801 270.178 64.5365 269.628 64.8396 269.157C65.1427 268.686 65.5787 268.316 66.0925 268.094C66.6062 267.871 67.1745 267.806 67.7253 267.906C68.2761 268.007 68.7846 268.269 69.1863 268.659C69.588 269.049 69.8649 269.55 69.9818 270.097C70.1376 270.828 69.9983 271.59 69.5941 272.218C69.1899 272.846 68.5537 273.288 67.8244 273.449ZM66.8218 268.803C66.4486 268.884 66.1076 269.073 65.8418 269.347C65.5761 269.621 65.3977 269.967 65.3291 270.343C65.2606 270.718 65.3049 271.106 65.4566 271.456C65.6084 271.806 65.8606 272.104 66.1814 272.311C66.5022 272.517 66.8771 272.625 67.2588 272.618C67.6405 272.612 68.0117 272.492 68.3254 272.275C68.6392 272.058 68.8814 271.752 69.0214 271.397C69.1614 271.042 69.1929 270.653 69.1118 270.28C69.0034 269.781 68.7015 269.345 68.2722 269.068C67.8428 268.791 67.3213 268.696 66.8218 268.803Z" fill="#3B56D7"/>
<path d="M84.8416 252.897C84.9408 253.356 84.9019 253.833 84.7298 254.269C84.5577 254.706 84.2602 255.081 83.8749 255.349C83.4895 255.616 83.0336 255.763 82.5647 255.771C82.0958 255.78 81.6349 255.649 81.2403 255.395C80.8457 255.142 80.5351 254.777 80.3476 254.347C80.1602 253.917 80.1044 253.442 80.1872 252.98C80.27 252.518 80.4878 252.092 80.813 251.754C81.1382 251.416 81.5563 251.182 82.0144 251.081C82.3193 251.014 82.6345 251.008 82.9418 251.063C83.2492 251.118 83.5426 251.233 83.8053 251.402C84.068 251.571 84.2948 251.79 84.4726 252.046C84.6505 252.303 84.7759 252.592 84.8416 252.897Z" fill="#F1F1F1"/>
<path d="M83.1173 256.154C82.5704 256.274 82 256.229 81.4785 256.025C80.957 255.821 80.5079 255.467 80.1882 255.007C79.8685 254.547 79.6925 254.003 79.6826 253.443C79.6727 252.883 79.8293 252.332 80.1325 251.862C80.4358 251.391 80.8721 251.021 81.386 250.798C81.9 250.576 82.4684 250.511 83.0192 250.612C83.5701 250.713 84.0785 250.975 84.4801 251.366C84.8816 251.756 85.1582 252.257 85.2747 252.805C85.4299 253.535 85.2902 254.296 84.8861 254.924C84.4819 255.551 83.8461 255.993 83.1173 256.154ZM82.1126 251.517C81.7402 251.598 81.4002 251.787 81.1355 252.062C80.8708 252.336 80.6934 252.682 80.6256 253.057C80.5578 253.432 80.6027 253.819 80.7547 254.168C80.9066 254.518 81.1588 254.814 81.4793 255.02C81.7998 255.227 82.1742 255.333 82.5552 255.327C82.9362 255.32 83.3067 255.2 83.6198 254.983C83.9329 254.766 84.1746 254.461 84.3143 254.106C84.4541 253.752 84.4855 253.364 84.4048 252.992C84.2959 252.492 83.9934 252.057 83.5636 251.78C83.1339 251.504 82.612 251.409 82.1126 251.517Z" fill="#3B56D7"/>
<path d="M98.0589 253.427C98.158 253.885 98.1191 254.363 97.9471 254.799C97.775 255.235 97.4775 255.611 97.0922 255.878C96.7068 256.145 96.2509 256.292 95.782 256.301C95.3131 256.309 94.8522 256.178 94.4576 255.925C94.063 255.671 93.7524 255.306 93.5649 254.877C93.3775 254.447 93.3217 253.971 93.4045 253.509C93.4873 253.048 93.7051 252.621 94.0303 252.283C94.3555 251.945 94.7736 251.711 95.2317 251.611C95.5366 251.544 95.8517 251.538 96.1589 251.593C96.4661 251.648 96.7595 251.763 97.0221 251.932C97.2848 252.101 97.5115 252.32 97.6894 252.576C97.8673 252.833 97.9929 253.122 98.0589 253.427Z" fill="#F1F1F1"/>
<path d="M96.3371 256.685C95.7902 256.805 95.22 256.76 94.6986 256.556C94.1773 256.352 93.7282 255.997 93.4085 255.538C93.0888 255.078 92.9128 254.534 92.9028 253.974C92.8928 253.414 93.0492 252.864 93.3523 252.393C93.6554 251.922 94.0914 251.552 94.6052 251.329C95.1189 251.107 95.6872 251.042 96.238 251.142C96.7888 251.243 97.2973 251.505 97.699 251.895C98.1007 252.285 98.3776 252.786 98.4945 253.333C98.6503 254.064 98.511 254.826 98.1068 255.454C97.7026 256.082 97.0664 256.524 96.3371 256.685ZM95.3323 252.046C94.9593 252.126 94.6186 252.316 94.3532 252.59C94.0878 252.864 93.9097 253.211 93.8415 253.586C93.7732 253.962 93.8178 254.349 93.9697 254.699C94.1216 255.049 94.3739 255.346 94.6947 255.553C95.0155 255.76 95.3904 255.867 95.7719 255.86C96.1535 255.854 96.5245 255.734 96.8382 255.517C97.1518 255.299 97.394 254.994 97.5339 254.639C97.6739 254.284 97.7054 253.895 97.6245 253.522C97.5156 253.023 97.2132 252.587 96.7836 252.31C96.3539 252.034 95.8321 251.938 95.3323 252.046Z" fill="#3B56D7"/>
<path d="M53.5237 266.943C53.6229 267.401 53.584 267.878 53.4119 268.315C53.2399 268.751 52.9424 269.126 52.557 269.394C52.1716 269.661 51.7157 269.808 51.2468 269.817C50.7779 269.825 50.317 269.694 49.9224 269.441C49.5278 269.187 49.2172 268.822 49.0298 268.392C48.8423 267.963 48.7865 267.487 48.8693 267.025C48.9522 266.564 49.1699 266.137 49.4951 265.799C49.8204 265.461 50.2384 265.227 50.6965 265.127C51.0014 265.06 51.3165 265.054 51.6238 265.109C51.931 265.164 52.2243 265.279 52.487 265.448C52.7496 265.617 52.9764 265.835 53.1543 266.092C53.3322 266.348 53.4577 266.637 53.5237 266.943Z" fill="#F1F1F1"/>
<path d="M51.8007 270.199C51.2537 270.319 50.6833 270.274 50.1619 270.07C49.6404 269.866 49.1913 269.511 48.8716 269.052C48.5518 268.592 48.3758 268.047 48.3659 267.488C48.356 266.928 48.5126 266.377 48.8159 265.907C49.1192 265.436 49.5554 265.066 50.0694 264.843C50.5833 264.621 51.1517 264.556 51.7026 264.657C52.2534 264.758 52.7619 265.02 53.1634 265.41C53.565 265.801 53.8415 266.302 53.958 266.849C54.1132 267.579 53.9736 268.341 53.5694 268.969C53.1653 269.596 52.5295 270.038 51.8007 270.199ZM50.7981 265.562C50.4251 265.643 50.0843 265.832 49.8189 266.106C49.5536 266.38 49.3755 266.727 49.3072 267.103C49.239 267.478 49.2836 267.865 49.4354 268.215C49.5873 268.565 49.8396 268.863 50.1604 269.069C50.4812 269.276 50.8561 269.383 51.2377 269.376C51.6192 269.37 51.9903 269.25 52.3039 269.033C52.6176 268.816 52.8597 268.51 52.9997 268.155C53.1397 267.8 53.1712 267.412 53.0903 267.039C52.9819 266.539 52.6796 266.103 52.2498 265.826C51.82 265.549 51.2978 265.454 50.7981 265.562Z" fill="#3B56D7"/>
<path d="M58.5445 276.266H48.832V278.136H58.5445V276.266Z" fill="white"/>
<path d="M65.2989 257.069H55.5864V258.939H65.2989V257.069Z" fill="white"/>
<path d="M85.452 270.446H75.7395V272.316H85.452V270.446Z" fill="white"/>
<path d="M94.16 244.177H84.4475V246.047H94.16V244.177Z" fill="white"/>
<path d="M108.27 259.831H98.5576V261.701H108.27V259.831Z" fill="white"/>
<path d="M68.8105 213.445H34.2166V216.839H68.8105V213.445Z" fill="#F9B253"/>
<path d="M68.8105 222.579H34.2166V225.974H68.8105V222.579Z" fill="#8B9AE2"/>
<path d="M68.8105 231.712H34.2166V235.107H68.8105V231.712Z" fill="#8B9AE2"/>
<path d="M81.6434 213.445H75.8694V216.839H81.6434V213.445Z" fill="#F9B253"/>
<path d="M81.6434 222.579H75.8694V225.974H81.6434V222.579Z" fill="white"/>
<path d="M81.6434 231.712H75.8694V235.107H81.6434V231.712Z" fill="white"/>
<path d="M173.046 258.801C173.046 258.801 168.505 248.514 173.775 249.367C173.775 249.367 175.567 250.848 177.407 253.868C178.801 256.156 181.7 262.211 181.593 264.259C181.487 266.308 180.029 267.833 178.457 271.121C178.457 271.121 175.195 277.225 175.049 277.96L171.594 276.166C171.594 276.166 174.521 270.331 176.595 265.201L173.046 258.801Z" fill="#F9B253"/>
<path d="M201.674 277.809L132.099 265.966L130.086 277.794L199.661 289.637L201.674 277.809Z" fill="#3B56D7"/>
<path d="M131.861 267.387L128.145 266.754L126.617 275.733L130.332 276.365L131.861 267.387Z" fill="#B9C2EE"/>
<path d="M146.753 345.959H145.897C145.897 345.959 146.182 342.723 145.39 342.697C144.598 342.671 142.63 345.331 141.456 345.742C140.281 346.153 134.255 346.501 134.223 345.392C134.19 344.282 136.539 343.837 137.267 343.519C137.996 343.202 141.551 339.744 142.184 339.333C142.817 338.922 143.902 336.053 143.902 336.053L147.267 335.903C147.267 335.903 147.458 338.582 147.66 340.003C147.73 340.443 147.777 340.886 147.8 341.331C147.832 342.53 146.753 345.959 146.753 345.959Z" fill="#EEA886"/>
<path d="M168.431 345.315H167.717V342.31C167.122 342.36 165.123 344.252 164.505 344.8C163.888 345.348 163.037 345.322 160.432 345.487C157.827 345.652 157.581 344.093 157.994 343.562C158.407 343.032 159.734 342.799 160.432 342.475C161.13 342.151 163.862 339.056 164.592 338.328C165.323 337.599 165.767 335.5 165.767 335.5L168.811 335.766C168.809 336.946 168.919 338.123 169.14 339.282C169.14 339.282 169.14 339.282 169.14 339.295C169.17 339.432 169.203 339.567 169.238 339.698C169.692 341.359 168.431 345.315 168.431 345.315Z" fill="#EEA886"/>
<path d="M157.172 277.048C157.172 277.048 156.021 279.768 155.919 280.458C155.817 281.147 153.124 287.656 152.344 292.049C151.878 294.676 150.589 302.906 150.484 303.952C150.306 305.741 149.464 309.695 149.334 311.524C149.262 312.546 144.225 328.239 143.007 336.432C143.007 336.432 145.904 336.867 148.079 336.286C148.079 336.286 152.498 327.817 154.953 315.806C156.432 308.573 157.739 304.715 158.885 301.738C160.031 298.76 166.517 290.32 167.193 289.372C167.869 288.424 172.112 283.185 168.095 277.509C164.079 271.833 157.172 277.048 157.172 277.048Z" fill="#2A2B3C"/>
<path d="M171.674 301.156C171.307 303.6 171.694 306.81 172.461 315.744C173.229 324.678 171.117 335.495 171.117 335.495C168.466 336.402 165.411 335.495 165.411 335.495C165.483 334.867 165.411 313.719 165.411 311.834C165.411 309.948 164.871 307.81 164.73 305.649C164.637 304.174 163.949 301.456 163.179 298.689C162.947 297.859 162.708 297.024 162.477 296.215C162.344 295.76 162.218 295.314 162.092 294.884C161.005 291.115 159.545 276.561 159.545 276.561C159.545 276.561 167.644 270.037 171.589 276.178C175.534 282.32 173.507 286.787 173.368 287.555C173.229 288.322 172.042 298.713 171.674 301.156Z" fill="#2A2B3C"/>
<path d="M168.315 288.031C168.252 288.17 164.216 297.128 163.178 298.687C162.946 297.856 162.706 297.021 162.476 296.212C162.476 296.212 168.18 288.226 168.315 288.031Z" fill="#131521"/>
<path d="M168.431 345.315H167.717V342.31C167.122 342.36 165.123 344.252 164.505 344.8C163.888 345.348 163.037 345.322 160.432 345.487C157.827 345.653 157.581 344.093 157.994 343.563C158.407 343.032 159.734 342.799 160.432 342.475C163.22 342.625 166.621 338.706 168.261 338.713C169.131 338.713 169.131 339.198 169.148 339.289C169.148 339.289 169.148 339.289 169.148 339.302C169.179 339.439 169.212 339.574 169.246 339.705C169.692 341.36 168.431 345.315 168.431 345.315Z" fill="#162D40"/>
<path d="M146.753 345.959H145.897C145.897 345.959 146.182 342.722 145.39 342.696C144.598 342.67 142.63 345.33 141.456 345.741C140.281 346.152 134.255 346.5 134.223 345.391C134.19 344.282 136.539 343.836 137.267 343.518C139.753 343.518 143.791 340.778 145.051 340.224C145.88 339.896 146.788 339.82 147.66 340.006C147.73 340.446 147.777 340.89 147.8 341.335C147.832 342.529 146.753 345.959 146.753 345.959Z" fill="#162D40"/>
<path d="M164.324 242.885C164.324 242.885 165.616 246.304 164.611 248.946C164.611 248.946 169.35 248.639 169.528 248.076C169.706 247.513 169.339 242.4 169.989 240.886C170.639 239.373 164.324 242.885 164.324 242.885Z" fill="#FFE1BD"/>
<path d="M163.864 247.79C163.864 247.79 161.063 248.786 159.798 249.063C158.532 249.339 155.883 250.585 156.101 255.315C156.318 260.045 157.105 264.129 157.392 266.158C157.679 268.187 157.501 273.353 157.033 275.86C157.033 275.86 163.747 277.556 171.646 275.86C171.646 275.86 170.245 271.58 170.282 270.475C170.319 269.371 174.949 260.254 175.164 258.819C175.38 257.383 176.313 251.035 174.195 249.635C172.076 248.234 170.354 248.417 169.456 247.79C168.558 247.164 165.174 247.34 163.864 247.79Z" fill="#F9B253"/>
<path d="M174.67 283.281C163.198 286.326 154.07 283.281 154.07 283.281C154.861 281.655 155.493 279.956 155.958 278.209C156.258 277.089 156.493 275.953 156.663 274.806C157.596 268.558 156.38 263.771 156.38 263.771C157.704 252.876 174.191 249.624 175.518 253.078C176.844 256.531 172.96 271.376 172.762 272.651C172.564 273.925 174.67 283.281 174.67 283.281Z" fill="#F9B253"/>
<path d="M168.452 229.164C166.547 228.511 161.397 227.815 160.077 235.721C158.757 243.626 161.632 243.767 164.583 243.535C167.534 243.302 172.153 237.976 172.505 236.358C172.858 234.74 173.886 231.03 168.452 229.164Z" fill="#FFE1BD"/>
<path d="M161.139 232.201C161.139 232.201 162.714 235.567 164.776 236.739C164.776 236.739 166.08 240.315 168.869 241.761C168.869 241.761 176.298 236.842 171.987 230.994C167.677 225.146 161.627 229.802 161.139 232.201Z" fill="#3B56D7"/>
<path d="M164.593 235.574C164.761 235.161 165.874 234.486 166.374 235.622C166.875 236.757 165.07 238.736 164.589 238.629C164.108 238.523 163.96 237.133 164.593 235.574Z" fill="#FFE1BD"/>
<path d="M171.74 231.897C171.903 231.644 176.821 229.367 177.845 234.126C178.869 238.884 173.882 244.417 173.01 246.796C172.138 249.175 173.404 254.751 173.404 254.751C173.404 254.751 170.405 251.924 169.489 248.947C168.496 245.689 168.161 237.47 171.74 231.897Z" fill="#3B56D7"/>
<path d="M171.982 231.736C171.982 231.736 170.477 232.926 170.281 234.807C170.281 234.807 169.998 233.339 170.607 232.443C171.216 231.547 171.982 231.736 171.982 231.736Z" fill="#F29127"/>
<path d="M155.958 278.221C156.258 277.101 156.493 275.964 156.663 274.817L156.802 273.769C157.189 273.398 157.487 272.944 157.672 272.44C157.928 271.673 159.827 262.219 159.827 262.219C159.827 262.219 161.839 271.099 155.958 278.221Z" fill="#F29127"/>
<path d="M147.515 278.768C147.515 278.768 146.037 280.236 145.558 280.383C145.08 280.531 144.158 279.718 140.763 279.466C140.463 279.444 139.939 279.711 140.063 280.105C140.187 280.499 141.665 281.571 142.296 281.734C142.927 281.897 145.915 283.084 147.37 282.502C148.825 281.919 149.814 280.07 149.814 280.07L147.515 278.768Z" fill="#FFE1BD"/>
<path d="M159.005 249.322C159.005 249.322 155.077 250.879 154.845 256.338C154.612 261.797 154.41 264.648 154.192 265.489C153.975 266.331 153.572 269.719 152.583 271.757C151.624 273.734 145.33 279.991 145.33 279.991L148.375 282.855C148.375 282.855 157.148 274.051 157.681 272.44C158.213 270.828 160.408 259.628 160.582 257.741C160.719 256.218 162.726 249.435 159.005 249.322Z" fill="#F9B253"/>
<path d="M121.988 263.852C121.988 264.039 121.968 264.226 121.955 264.413H129.132C129.145 264.226 129.152 264.039 129.158 263.852H121.988ZM41.8718 261.869C41.8718 262.086 41.8718 262.304 41.8718 262.521C41.8849 263.43 41.924 264.33 42.0001 265.226C42.1847 267.744 42.5922 270.24 43.218 272.686C45.1578 280.295 49.123 287.237 54.692 292.774C54.9095 292.992 55.127 293.209 55.3314 293.405C56.1861 294.229 57.0712 295.023 58.0107 295.769C65.784 302.106 75.51 305.559 85.5389 305.542C85.7129 305.542 85.8869 305.542 86.0608 305.542C93.7027 305.464 101.189 303.371 107.763 299.475C116.781 294.132 123.585 285.733 126.94 275.802C127.282 274.777 127.589 273.738 127.862 272.684C128.345 270.783 128.7 268.853 128.925 266.905C128.969 266.488 129.015 266.068 129.047 265.644C129.08 265.22 129.117 264.831 129.136 264.42C129.149 264.233 129.156 264.046 129.162 263.858C129.182 263.445 129.195 263.041 129.202 262.628C129.202 262.377 129.202 262.125 129.202 261.875C129.202 240.017 113.141 221.907 92.1719 218.71C91.7652 218.647 91.3607 218.589 90.9475 218.536C90.4974 218.486 90.045 218.434 89.5948 218.395C89.1882 218.356 88.7771 218.325 88.3704 218.299C87.4288 218.234 86.4827 218.208 85.5432 218.208C84.7364 218.208 83.9383 218.228 83.151 218.273C81.7918 218.345 80.4499 218.491 79.1233 218.68C71.7623 219.781 64.8036 222.741 58.9052 227.281C53.0068 231.82 48.3636 237.789 45.4145 244.623C45.3493 244.764 45.2905 244.912 45.234 245.058C45.1775 245.203 45.1166 245.336 45.0666 245.471C44.7316 246.276 44.4264 247.092 44.151 247.92C43.4202 250.081 42.8646 252.298 42.4895 254.548C42.3785 255.146 42.2959 255.753 42.2111 256.364C42.2111 256.466 42.1915 256.582 42.1806 256.68C42.1806 256.68 42.1806 256.693 42.1806 256.706C42.1731 256.757 42.1687 256.808 42.1676 256.86C42.1552 256.92 42.1465 256.98 42.1415 257.041V257.086C42.1335 257.115 42.1291 257.145 42.1284 257.175C42.121 257.22 42.1166 257.265 42.1154 257.31C42.1024 257.421 42.0893 257.528 42.0828 257.641C42.0197 258.311 41.9675 258.987 41.9349 259.663C41.9349 259.753 41.9218 259.85 41.9218 259.94L41.9023 260.375C41.8783 260.87 41.8718 261.366 41.8718 261.869ZM51.6583 275.454L51.4908 275.03C51.369 274.713 51.2516 274.397 51.1363 274.076L50.8732 273.303C50.8079 273.11 50.7427 272.916 50.6861 272.723C50.6861 272.71 50.6861 272.697 50.6731 272.684C50.6589 272.648 50.648 272.612 50.6405 272.575C50.5382 272.253 50.4469 271.922 50.3577 271.596L50.2534 271.216C50.1577 270.868 50.0728 270.513 49.9902 270.159C49.9902 270.126 49.9706 270.089 49.9641 270.05C49.8923 269.722 49.8228 269.398 49.7575 269.065C49.7249 268.928 49.701 268.793 49.6749 268.658C49.5966 268.245 49.527 267.827 49.4574 267.408C49.3421 266.675 49.2573 265.933 49.1855 265.185C49.1616 264.935 49.1421 264.676 49.1225 264.42C49.1225 264.335 49.1225 264.259 49.1094 264.174C49.0899 263.826 49.0703 263.478 49.0572 263.13V263.028C49.0572 262.949 49.0572 262.867 49.0572 262.782C49.0572 262.48 49.0442 262.177 49.0442 261.875C49.0442 261.573 49.0442 261.307 49.0572 261.031C49.0763 259.911 49.1539 258.792 49.2899 257.68C49.2967 257.563 49.3097 257.447 49.3291 257.332C49.3277 257.329 49.327 257.326 49.327 257.322C49.327 257.319 49.3277 257.316 49.3291 257.312C49.3291 257.312 49.3291 257.312 49.3291 257.295C49.3255 257.271 49.3255 257.247 49.3291 257.223V257.21C49.3291 257.197 49.3291 257.191 49.3291 257.184C50.0086 251.87 51.8588 246.772 54.7464 242.259C58.0528 237.082 62.607 232.82 67.9907 229.863C69.4195 229.075 70.9003 228.386 72.4229 227.801C72.9079 227.614 73.4037 227.433 73.8996 227.272C76.7142 226.322 79.6365 225.728 82.5986 225.502C83.5642 225.417 84.5363 225.378 85.5237 225.378C85.8194 225.378 86.1087 225.378 86.4044 225.391C86.7459 225.391 87.0808 225.411 87.4244 225.424C87.668 225.437 87.9137 225.457 88.1573 225.476C88.2242 225.477 88.291 225.481 88.3574 225.489C88.7641 225.515 89.1751 225.552 89.5818 225.598L89.8906 225.637C90.0515 225.657 90.219 225.676 90.3799 225.702C90.5409 225.728 90.7475 225.746 90.9345 225.778C91.3477 225.837 91.7522 225.907 92.1589 225.978L92.2676 225.998C92.583 226.057 92.8983 226.12 93.2136 226.192L93.2724 226.205C93.4007 226.229 93.5377 226.261 93.666 226.294C93.9618 226.359 94.251 226.429 94.5359 226.511C94.6642 226.537 94.7925 226.57 94.9165 226.607C95.2514 226.698 95.5863 226.787 95.9212 226.892C96.2561 226.996 96.5584 227.083 96.8738 227.188C97.0216 227.233 97.1695 227.283 97.3087 227.335C97.9394 227.553 98.5636 227.77 99.1768 228.031C99.3443 228.097 99.5118 228.166 99.6792 228.249C99.9358 228.358 100.188 228.466 100.445 228.584C100.651 228.673 100.858 228.764 101.058 228.867C101.36 229.001 101.656 229.149 101.952 229.301C102.287 229.468 102.616 229.641 102.939 229.821C103.311 230.021 103.672 230.228 104.027 230.441C104.775 230.876 105.497 231.344 106.201 231.833C106.506 232.037 106.802 232.25 107.097 232.485C107.471 232.748 107.832 233.027 108.185 233.31C108.5 233.562 108.815 233.818 109.124 234.084C109.433 234.349 109.757 234.623 110.066 234.908C113.829 238.325 116.835 242.492 118.89 247.141C120.944 251.79 122.003 256.818 121.997 261.901C121.997 262.151 121.997 262.404 121.997 262.654C121.997 263.067 121.977 263.471 121.951 263.885C121.951 264.072 121.931 264.259 121.918 264.446C121.888 264.857 121.855 265.263 121.81 265.67C121.694 266.829 121.52 267.969 121.294 269.097C121.05 270.319 120.742 271.527 120.372 272.716C120.083 273.658 119.754 274.584 119.387 275.487C116.708 282.171 112.111 287.913 106.176 291.989C100.24 296.066 93.2305 298.295 86.0304 298.396C85.8564 298.396 85.6824 298.396 85.5084 298.396C78.8806 298.398 72.3772 296.596 66.6963 293.181C61.0154 289.767 56.3716 284.87 53.2632 279.017C53.1023 278.708 52.9414 278.399 52.787 278.09L52.5042 277.496C52.389 277.266 52.2868 277.033 52.1758 276.796L52.0715 276.563C51.9823 276.346 51.891 276.15 51.8083 275.937L51.6583 275.454Z" fill="#494F5C"/>
<path opacity="0.1" d="M111.262 287.586C125.465 273.383 125.465 250.355 111.262 236.153C97.0589 221.95 74.0316 221.95 59.8288 236.153C45.626 250.355 45.626 273.383 59.8288 287.586C74.0316 301.788 97.0589 301.788 111.262 287.586Z" fill="#B8B8B8"/>
<path opacity="0.3" d="M110.105 234.877C110.105 234.877 62.7411 229.005 53.3026 278.992C49.2758 271.4 48.0566 262.631 49.8598 254.228C51.6629 245.826 56.3728 238.329 63.1601 233.058C69.9475 227.786 78.3769 225.079 86.9643 225.412C95.5517 225.745 103.746 229.096 110.105 234.877Z" fill="#869AC2"/>
<path d="M54.698 319.611H34.5945V320.805H54.698V319.611Z" fill="#F29127"/>
<path d="M37.287 378.182H39.0486L39.0486 323.91H37.287L37.287 378.182Z" fill="#706865"/>
<path d="M65.5207 319.272H51.5479V320.977H65.5207V319.272Z" fill="#CCBDB7"/>
<path d="M61.1794 304.731H55.8882V320.803H61.1794V304.731Z" fill="#F29127"/>
<path d="M104.805 320.825H27.3811V323.911H104.805V320.825Z" fill="#B59074"/>
<path d="M12.5201 302.145C12.5201 302.145 11.6741 314.021 13.9946 315.441C15.4473 316.333 21.243 319.336 21.0712 319.897C20.8994 320.458 17.8091 324.899 17.8091 324.899C17.8091 324.899 6.67648 317.57 6.31764 315.258C5.96751 313.003 6.86568 297.86 8.39454 297.175C9.54064 296.653 10.1452 297.084 11.5893 298.156C13.6096 299.67 12.5201 302.145 12.5201 302.145Z" fill="#F9B253"/>
<path d="M32.8099 305.535L33.7907 305.174C33.7907 305.174 32.5663 302.301 32.0313 302.371C31.5657 302.441 31.104 302.535 30.6482 302.654L32.8099 305.535Z" fill="#EAD8CF"/>
<path d="M33.0352 306.032C32.909 305.938 30.9474 302.178 30.9474 302.178L26.761 302.748L29.0227 307.202L33.0352 306.032Z" fill="#DA9B5B"/>
<path d="M26.2188 370.772C26.2188 370.772 25.873 373.175 25.8295 373.536C25.786 373.897 21.978 373.318 21.978 373.318L21.6714 370.456C21.6714 370.456 25.7425 370.432 26.2188 370.772Z" fill="#424773"/>
<path d="M25.8696 373.23C25.8696 373.23 27.0766 374.679 28.2422 375.309C29.4079 375.94 31.2434 376.179 31.9393 376.832C32.4374 377.303 33.7531 379.335 28.9077 379.293C24.0623 379.252 21.731 379.58 21.2047 378.802C20.6784 378.023 21.9572 373.056 21.9572 373.056C21.9572 373.056 23.0989 373.48 25.8696 373.23Z" fill="#162D40"/>
<path d="M50.6065 370.801C50.6065 370.801 50.2585 373.193 50.215 373.565C50.1715 373.937 46.3657 373.347 46.3657 373.347L46.0569 370.488C46.0569 370.488 50.1367 370.455 50.6065 370.801Z" fill="#424773"/>
<path d="M50.2639 373.252C50.2639 373.252 51.4709 374.7 52.6366 375.331C53.8023 375.961 58.0974 376.481 58.7868 377.134C59.2849 377.606 60.1134 379.504 53.2956 379.326C48.4524 379.2 46.1188 379.613 45.5947 378.834C45.0706 378.056 46.345 373.091 46.345 373.091C46.345 373.091 47.4259 373.53 50.2639 373.252Z" fill="#162D40"/>
<path d="M13.9369 329.263C13.9369 329.263 27.7814 331.605 30.9001 332.09C34.0187 332.575 50.9797 336.798 53.1 338.084C54.7877 339.108 52.2149 363.681 51.6147 373.056H44.9534L44.4706 344.932C36.4566 345.132 30.7391 343.057 24.8977 343.945C19.0563 344.832 14.1979 346.091 10.4899 341.117C10.4856 341.128 10.3485 330.35 13.9369 329.263Z" fill="#2A2B3C"/>
<path d="M27.5813 373.091L21.0745 372.689L20.4394 344.943C16.9902 345.03 15.8093 344.811 13.0169 344.474L7.76489 332.26C12.3689 333.182 27.1203 336.903 29.0885 338.095C30.7739 339.119 28.1838 363.714 27.5813 373.091Z" fill="#2A2B3C"/>
<path d="M20.3067 277.377C20.3067 277.377 25.3826 275.975 27.3182 279.915C29.2537 283.856 28.3773 291.322 25.8198 292.024C23.2622 292.727 19.5847 291.918 18.5213 289.467C17.4578 287.016 16.614 283.53 16.8684 281.275C17.1229 279.019 18.9606 277.917 20.3067 277.377Z" fill="#FFE1BD"/>
<path d="M24.4932 291.239C24.4932 291.239 24.4367 294.234 24.7672 294.873C25.0978 295.513 17.7014 295.352 17.7014 295.352C17.7014 295.352 18.8671 291.755 18.206 288.688C17.5448 285.622 24.4932 291.239 24.4932 291.239Z" fill="#FFE1BD"/>
<path d="M17.807 287.554C17.807 287.554 18.2006 288.359 20.1166 288.228C22.0326 288.098 24.5553 285.788 25.3687 285.582C26.182 285.375 26.2386 284.914 26.2386 284.914L26.6735 285.677L27.5065 285.803C27.5065 285.803 26.9388 283.49 28.1719 282.674C29.405 281.858 27.6174 275.295 21.3758 276.878C21.3758 276.878 16.6109 277.748 16.5457 280.41C16.4804 283.072 16.8806 286.145 17.807 287.554Z" fill="#3B56D7"/>
<path d="M25.1634 294.797C25.1634 294.797 25.1416 293.577 24.5892 293.459C24.0368 293.342 18.7761 292.618 18.0954 292.885L17.8062 294.497C17.8062 294.497 19.1088 295.301 25.1634 294.797Z" fill="#E2D2CA"/>
<path d="M26.6826 284.369C26.5412 283.369 25.4038 282.221 24.7514 283.778C24.0989 285.335 25.1863 287.603 25.9214 287.475C26.6565 287.347 26.8718 285.726 26.6826 284.369Z" fill="#FFE1BD"/>
<path d="M47.1914 309.213C47.2247 309.232 47.2294 309.232 47.1914 309.213V309.213Z" fill="#323657"/>
<path d="M18.8296 278.092C18.8296 278.092 12.6424 277.8 17.7422 287.458L18.8296 278.092Z" fill="#3B56D7"/>
<path d="M5.0437 376.382L5.50475 377.676L24.9515 371.649L24.0185 369.029L5.0437 376.382Z" fill="#918783"/>
<path d="M25.6146 349.584H23.405V370.727H25.6146V349.584Z" fill="#918783"/>
<path d="M31.0318 348.462H17.9941V349.708H31.0318V348.462Z" fill="#5E5854"/>
<path d="M44.1546 376.381L43.6936 377.675L24.2468 371.649L25.0993 368.863L44.1546 376.381Z" fill="#918783"/>
<path d="M30.4514 377.538V379.043L24.2468 371.649L25.0993 368.863L30.4514 377.538Z" fill="#918783"/>
<path d="M45.9719 378.182C45.9719 378.541 45.8653 378.893 45.6655 379.192C45.4657 379.491 45.1818 379.724 44.8496 379.862C44.5173 379.999 44.1518 380.035 43.7991 379.965C43.4464 379.895 43.1225 379.722 42.8682 379.467C42.6139 379.213 42.4408 378.889 42.3706 378.537C42.3005 378.184 42.3365 377.818 42.4741 377.486C42.6117 377.154 42.8447 376.87 43.1437 376.67C43.4427 376.47 43.7942 376.364 44.1538 376.364C44.3926 376.364 44.629 376.411 44.8496 376.502C45.0701 376.594 45.2706 376.727 45.4394 376.896C45.6082 377.065 45.7421 377.266 45.8335 377.486C45.9249 377.707 45.9719 377.943 45.9719 378.182Z" fill="#BFB2AC"/>
<path d="M30.5991 378.182C30.5991 378.541 30.4925 378.893 30.2927 379.192C30.0929 379.491 29.809 379.724 29.4767 379.862C29.1445 379.999 28.779 380.035 28.4263 379.965C28.0736 379.895 27.7497 379.722 27.4954 379.467C27.2411 379.213 27.068 378.889 26.9978 378.537C26.9277 378.184 26.9637 377.818 27.1013 377.486C27.2389 377.154 27.4719 376.87 27.7709 376.67C28.0699 376.47 28.4214 376.364 28.781 376.364C29.0198 376.364 29.2562 376.411 29.4767 376.502C29.6973 376.594 29.8978 376.727 30.0666 376.896C30.2354 377.065 30.3693 377.266 30.4607 377.486C30.5521 377.707 30.5991 377.943 30.5991 378.182Z" fill="#BFB2AC"/>
<path d="M6.86106 378.182C6.86106 378.541 6.75443 378.893 6.55466 379.192C6.35488 379.491 6.07093 379.724 5.73871 379.862C5.4065 379.999 5.04094 380.035 4.68826 379.965C4.33558 379.895 4.01163 379.722 3.75736 379.467C3.5031 379.213 3.32994 378.889 3.25979 378.537C3.18964 378.184 3.22564 377.818 3.36325 377.486C3.50085 377.154 3.73389 376.87 4.03287 376.67C4.33186 376.47 4.68337 376.364 5.04295 376.364C5.52514 376.364 5.98758 376.555 6.32854 376.896C6.6695 377.237 6.86106 377.7 6.86106 378.182Z" fill="#BFB2AC"/>
<path d="M37.7119 343.743H11.4842C10.1978 343.743 9.15503 344.786 9.15503 346.072V346.133C9.15503 347.419 10.1978 348.462 11.4842 348.462H37.7119C38.9982 348.462 40.041 347.419 40.041 346.133V346.072C40.041 344.786 38.9982 343.743 37.7119 343.743Z" fill="#3B56D7"/>
<path d="M94.8975 323.911H93.136V378.182H94.8975V323.911Z" fill="#706865"/>
<path d="M79.0564 280.24H38.0143C36.7303 280.24 35.6895 281.28 35.6895 282.564V310.149C35.6895 311.433 36.7303 312.474 38.0143 312.474H79.0564C80.3404 312.474 81.3812 311.433 81.3812 310.149V282.564C81.3812 281.28 80.3404 280.24 79.0564 280.24Z" fill="#F29127"/>
<path d="M79.17 282.035H37.0557V307.475H79.17V282.035Z" fill="#F5F7FF"/>
<path d="M79.5945 281.983H37.4802V284.008H79.5945V281.983Z" fill="#CECFD6"/>
<path d="M47.1549 285.53H39.4453C39.0165 285.53 38.6689 285.878 38.6689 286.306V286.637C38.6689 287.066 39.0165 287.413 39.4453 287.413H47.1549C47.5837 287.413 47.9313 287.066 47.9313 286.637V286.306C47.9313 285.878 47.5837 285.53 47.1549 285.53Z" fill="#CECFD6"/>
<path d="M46.3263 288.675H40.2739C39.3875 288.675 38.6689 289.393 38.6689 290.28V304.77C38.6689 305.657 39.3875 306.375 40.2739 306.375H46.3263C47.2127 306.375 47.9313 305.657 47.9313 304.77V290.28C47.9313 289.393 47.2127 288.675 46.3263 288.675Z" fill="#CECFD6"/>
<path d="M68.0041 320.866V320.291C68.0041 320.291 67.1973 316.723 61.4929 316.723C55.7885 316.723 55.9037 320.866 55.9037 320.866H68.0041Z" fill="#2E436E"/>
<path d="M55.8276 317.253C55.8276 317.253 57.0672 317.158 57.5217 316.884C57.9762 316.61 60.6925 314.783 61.3297 315.074C61.9669 315.366 66.2142 316.668 66.0664 317.288C65.9185 317.908 65.527 317.849 65.2269 317.741C64.9268 317.632 61.843 316.984 61.5711 317.088C61.5711 317.088 64.6006 318.193 64.6158 319C64.631 319.807 63.9829 320.002 63.6959 320.305C63.4088 320.607 63.063 321.366 62.2823 321.425C61.5015 321.483 57.6957 320.157 56.9106 320.096C56.1255 320.035 54.6771 320.146 54.5771 320.018C54.477 319.889 55.8276 317.253 55.8276 317.253Z" fill="#FFE1BD"/>
<path d="M33.2674 296.486C29.3159 295.792 25.1577 294.796 25.1577 294.796L17.7983 294.496C17.7983 294.496 11.0457 295.981 8.38596 297.184C8.13369 297.297 8.13369 303.208 7.43994 304.759L9.64515 309.411C9.64515 309.411 10.9196 318.625 11.1849 322.725C11.3045 324.606 10.8413 340.906 10.8413 340.906C10.8413 340.906 11.4937 341.232 16.5239 341.775C21.5542 342.319 34.0938 341.575 34.1721 340.982C34.2504 340.388 31.7429 318.895 31.632 317.781C31.4602 316.074 32.1257 308.18 32.1257 308.18C33.0717 309.452 35.4835 315.191 37.9976 317.923C39.4764 319.528 46.801 320.513 48.1798 320.558C51.1853 320.661 56.6614 321.259 56.8266 320.965C56.955 320.791 57.3051 316.1 56.9615 315.985C56.6614 315.885 46.4813 315.3 43.8738 313.915C42.919 313.41 40.0679 307.19 40.0679 307.19C40.0679 307.19 35.4465 297.467 33.2674 296.486Z" fill="#F9B253"/>
<path d="M18.7654 310.935H6.4127C3.94206 310.935 1.93921 312.938 1.93921 315.409V335.963C1.93921 338.433 3.94206 340.436 6.4127 340.436H18.7654C21.236 340.436 23.2388 338.433 23.2388 335.963V315.409C23.2388 312.938 21.236 310.935 18.7654 310.935Z" fill="#3B56D7"/>
<path d="M19.4649 347.287C16.3267 347.287 13.78 346.232 11.8945 344.151C7.63632 339.451 8.40184 331.187 8.43663 330.837C8.46749 330.524 8.62139 330.236 8.86447 330.037C9.10754 329.837 9.41989 329.742 9.73279 329.773C10.0457 329.804 10.3335 329.958 10.533 330.201C10.7324 330.444 10.8271 330.757 10.7963 331.069C10.7854 331.165 10.1069 338.655 13.6561 342.565C15.0914 344.146 16.9922 344.916 19.4649 344.916C19.7792 344.916 20.0807 345.041 20.303 345.263C20.5252 345.486 20.6501 345.787 20.6501 346.101C20.6501 346.416 20.5252 346.717 20.303 346.94C20.0807 347.162 19.7792 347.287 19.4649 347.287Z" fill="#3B56D7"/>
<path d="M49.802 294.702C49.8016 295.956 50.0714 297.195 50.593 298.335C51.1147 299.475 51.8759 300.489 52.8249 301.309C52.925 301.396 53.0272 301.48 53.1316 301.561C53.236 301.641 53.3686 301.744 53.4904 301.833C54.6673 302.666 56.0325 303.194 57.4637 303.37C57.7225 303.401 57.9835 303.423 58.2488 303.431H58.5359C58.8186 303.431 59.0969 303.416 59.3731 303.39C59.6784 303.362 59.9819 303.317 60.2822 303.255C61.5812 302.992 62.8027 302.434 63.8531 301.626C64.1637 301.387 64.458 301.128 64.7339 300.85C64.7883 300.795 64.8405 300.741 64.8927 300.684C65.0886 300.477 65.2737 300.259 65.4472 300.032C66.2966 298.933 66.8714 297.647 67.1241 296.281C67.3767 294.915 67.2998 293.508 66.8998 292.178C66.4999 290.847 65.7883 289.631 64.8242 288.631C63.8601 287.631 62.6714 286.875 61.3566 286.427C60.0419 285.978 58.639 285.849 57.2646 286.052C55.8902 286.254 54.5839 286.781 53.454 287.589C52.3242 288.397 51.4035 289.464 50.7683 290.699C50.1332 291.935 49.8019 293.304 49.802 294.693V294.702Z" fill="#C5E7FF"/>
<path d="M52.8496 299.523L53.502 301.834C54.6789 302.668 56.0441 303.196 57.4753 303.372C57.7341 303.402 57.9951 303.424 58.2604 303.433H58.5475C58.8302 303.433 59.1086 303.418 59.3848 303.391C59.69 303.363 59.9935 303.318 60.2938 303.257C61.5928 302.993 62.8143 302.436 63.8648 301.628C63.9866 300.864 64.1192 300.018 64.2367 299.236C63.5842 298.996 61.5508 298.303 60.2634 297.865L60.209 297.848L60.1242 297.82L59.9067 297.746L59.7066 297.678L59.189 297.504H59.163H59.1477L57.4079 297.633L57.1165 297.654H57.0273H56.9882C56.8838 297.681 56.5793 297.761 56.177 297.872C55.144 298.203 53.4781 298.801 52.8496 299.523Z" fill="#D9C7C1"/>
<path d="M58.0819 290.364C58.0819 290.364 56.0028 290.716 56.3551 293.972C56.7075 297.227 58.543 296.94 58.6669 296.934C58.7909 296.927 60.5133 296.975 60.6025 292.993C60.6112 292.993 60.6307 290.051 58.0819 290.364Z" fill="#FFE1BD"/>
<path d="M57.17 295.988C57.17 295.988 57.2418 297.33 57.1157 297.622C56.9895 297.913 58.7859 298.835 59.9015 297.785C59.9015 297.785 59.6841 296.319 59.745 295.804C59.8059 295.288 57.17 295.988 57.17 295.988Z" fill="#FFE1BD"/>
<path d="M56.3138 293.053C56.3138 293.053 56.0811 292.812 56.0006 293.053C55.9201 293.294 56.3703 294.399 56.3421 294.449C56.3421 294.449 56.3834 294.545 56.4377 294.491C56.4921 294.436 56.3138 293.053 56.3138 293.053Z" fill="#FFE1BD"/>
<path d="M60.5771 292.963C60.5771 292.963 60.7946 292.713 60.8903 292.963C60.986 293.214 60.6489 294.303 60.6076 294.371C60.6076 294.371 60.5358 294.484 60.4792 294.434C60.4227 294.384 60.5771 292.963 60.5771 292.963Z" fill="#FFE1BD"/>
<path d="M56.1792 292.774C56.2509 293.209 56.3205 293.55 56.3205 293.55L56.6228 293.946C56.61 293.609 56.6195 293.271 56.6511 292.935C56.6685 292.882 56.6881 292.791 56.7098 292.691C56.7344 292.552 56.7663 292.414 56.8055 292.278C56.8425 292.18 58.5866 291.671 60.1394 292.384C60.1394 292.384 60.1264 292.519 60.1264 292.669C60.1264 292.819 60.1459 293.039 60.2264 293.069C60.3765 293.124 60.3134 294.092 60.3134 294.092L60.5548 293.813C60.5548 293.813 60.6244 293.307 60.694 292.726C60.7114 292.589 60.7266 292.45 60.7418 292.313C60.7766 291.728 60.7179 290.666 59.9567 290.042C59.4435 289.825 58.6236 289.636 57.2557 290.042C57.1154 290.048 56.9779 290.084 56.8534 290.149C56.003 291.093 56.1792 292.774 56.1792 292.774Z" fill="#E8734D"/>
<path d="M59.6036 296.5C59.4658 296.653 59.2942 296.772 59.1025 296.848C58.9107 296.923 58.7041 296.953 58.4988 296.935C58.2958 296.943 58.0932 296.911 57.9033 296.838C57.7134 296.766 57.5401 296.656 57.394 296.515C57.394 296.515 57.7594 297.278 58.5032 297.272C59.2469 297.265 59.6036 296.5 59.6036 296.5Z" fill="#DFAC87"/>
<path d="M60.1116 297.815C60.1116 297.815 59.5549 298.785 58.4979 298.876C57.8259 298.933 57.2453 298.085 56.9756 297.667C57.4819 297.482 58.02 297.4 58.5585 297.426C59.0969 297.451 59.6249 297.583 60.1116 297.815Z" fill="#FFE1BD"/>
<path d="M57.1674 297.361C57.5492 297.811 57.9981 298.2 58.4984 298.513L57.9351 299.383L56.9739 297.669L57.1674 297.361Z" fill="#EDDAD3"/>
<path d="M59.857 297.49C59.4859 297.928 59.0215 298.278 58.4978 298.514L59.1154 299.408L60.2028 297.844L59.857 297.49Z" fill="#EDDAD3"/>
<path d="M58.4989 298.513L58.0161 299.246C58.1673 299.327 58.3364 299.368 58.5077 299.365C58.6789 299.361 58.8466 299.315 58.9948 299.229L58.4989 298.513Z" fill="#5073AB"/>
<path d="M52.2908 299.385L52.3038 299.432C52.356 299.622 52.5604 300.346 52.8258 301.309C52.9258 301.396 53.028 301.481 53.1324 301.562C53.2368 301.642 53.3695 301.744 53.4912 301.833C54.6681 302.667 56.0333 303.195 57.4645 303.371C57.3341 300.346 56.9752 297.667 56.9752 297.667C56.6925 297.74 56.425 297.814 56.1706 297.884C53.9545 298.519 52.8301 299.078 52.4474 299.289C52.3473 299.354 52.2908 299.385 52.2908 299.385Z" fill="#323657"/>
<path d="M60.2832 303.26C61.5822 302.997 62.8037 302.44 63.8541 301.632C64.1647 301.393 64.459 301.133 64.7349 300.855C64.7893 300.801 64.8415 300.746 64.8937 300.69C65.0459 300.037 65.1481 299.618 65.1546 299.589C65.1546 299.589 64.0673 298.878 60.2527 297.85C60.2527 297.945 60.2505 300.401 60.2832 303.26Z" fill="#323657"/>
<path d="M58.2186 299.33C58.2534 300.126 58.2578 301.67 58.2447 303.434H58.5318C58.8145 303.434 59.0929 303.419 59.3691 303.392C59.281 302.022 59.0869 300.661 58.7884 299.321C58.7471 299.145 58.721 299.058 58.721 299.058L58.2078 299.143C58.2186 299.202 58.2186 299.263 58.2186 299.33Z" fill="#5073AB"/>
<path d="M51.8467 300.32C52.1454 300.675 52.4719 301.006 52.8231 301.309C52.9232 301.396 53.0254 301.481 53.1298 301.562L52.4426 299.293C52.3915 299.331 52.3467 299.377 52.3099 299.428C52.1213 299.706 51.9659 300.006 51.8467 300.32Z" fill="#323657"/>
<path d="M64.7417 300.855C64.7961 300.8 64.8483 300.746 64.9005 300.689C65.0964 300.482 65.2815 300.264 65.455 300.037C65.4002 299.862 65.2987 299.706 65.1614 299.585L64.7417 300.855Z" fill="#323657"/>
<path d="M303.203 194.357L303.171 193.935C303.073 193.065 303.364 192.102 304.175 191.13C304.906 190.26 305.311 189.638 305.311 188.907C305.311 188.081 304.793 187.528 303.771 187.513C303.186 187.51 302.614 187.686 302.131 188.015L301.742 186.993C302.279 186.604 303.203 186.341 304.062 186.341C305.928 186.341 306.772 187.491 306.772 188.733C306.772 189.836 306.155 190.632 305.376 191.56C304.663 192.404 304.404 193.117 304.452 193.952L304.469 194.374L303.203 194.357ZM302.847 196.627C302.838 196.495 302.857 196.363 302.902 196.238C302.947 196.113 303.017 195.999 303.109 195.903C303.2 195.807 303.31 195.731 303.433 195.68C303.555 195.629 303.686 195.603 303.819 195.605C304.021 195.597 304.221 195.649 304.394 195.755C304.566 195.86 304.703 196.015 304.787 196.2C304.871 196.384 304.897 196.589 304.864 196.789C304.83 196.988 304.738 197.173 304.598 197.32C304.459 197.467 304.279 197.568 304.081 197.612C303.883 197.655 303.677 197.639 303.489 197.564C303.301 197.49 303.139 197.361 303.025 197.194C302.91 197.027 302.848 196.83 302.847 196.627Z" fill="white"/>
</svg>
