<svg width="153" height="92" viewBox="0 0 153 92" fill="none" xmlns="http://www.w3.org/2000/svg">
<path d="M18.4608 87H16.9668V81.492H9.94683V87H8.45283V74.994H9.94683V80.16H16.9668V74.994H18.4608V87ZM25.1373 87.216C23.8413 87.216 22.7793 86.796 21.9513 85.956C21.1233 85.104 20.7093 84 20.7093 82.644C20.7093 81.372 21.1173 80.298 21.9333 79.422C22.7493 78.534 23.7693 78.09 24.9933 78.09C26.2773 78.09 27.2913 78.534 28.0353 79.422C28.7913 80.298 29.1693 81.408 29.1693 82.752V83.094H22.1313C22.1913 83.946 22.5033 84.66 23.0673 85.236C23.6313 85.812 24.3633 86.1 25.2633 86.1C26.3433 86.1 27.2373 85.734 27.9453 85.002L28.5933 85.884C27.7053 86.772 26.5533 87.216 25.1373 87.216ZM27.8373 82.104C27.8253 81.36 27.5733 80.694 27.0813 80.106C26.5893 79.506 25.8873 79.206 24.9753 79.206C24.1113 79.206 23.4273 79.5 22.9233 80.088C22.4313 80.676 22.1673 81.348 22.1313 82.104H27.8373ZM34.2899 87H32.9399V79.494H30.4199V78.306H36.8279V79.494H34.2899V87ZM46.0287 78.09C47.0127 78.09 47.8047 78.6 48.4047 79.62V74.994H49.7547V79.602C50.0187 79.146 50.3547 78.78 50.7627 78.504C51.1827 78.228 51.6327 78.09 52.1127 78.09C53.0487 78.09 53.8047 78.504 54.3807 79.332C54.9567 80.148 55.2447 81.252 55.2447 82.644C55.2447 84.036 54.9507 85.146 54.3627 85.974C53.7867 86.802 53.0367 87.216 52.1127 87.216C51.1287 87.216 50.3427 86.706 49.7547 85.686V90.312H48.4047V85.704C48.1407 86.16 47.7987 86.526 47.3787 86.802C46.9587 87.078 46.5087 87.216 46.0287 87.216C45.0927 87.216 44.3367 86.808 43.7607 85.992C43.1847 85.164 42.8967 84.054 42.8967 82.662C42.8967 81.27 43.1847 80.16 43.7607 79.332C44.3487 78.504 45.1047 78.09 46.0287 78.09ZM46.4067 79.296C45.7467 79.296 45.2247 79.614 44.8407 80.25C44.4567 80.874 44.2647 81.678 44.2647 82.662C44.2647 83.646 44.4567 84.45 44.8407 85.074C45.2247 85.698 45.7467 86.01 46.4067 86.01C46.8147 86.01 47.2047 85.878 47.5767 85.614C47.9487 85.35 48.2247 85.02 48.4047 84.624V80.7C48.2127 80.304 47.9307 79.974 47.5587 79.71C47.1867 79.434 46.8027 79.296 46.4067 79.296ZM51.7347 86.01C52.3947 86.01 52.9167 85.698 53.3007 85.074C53.6847 84.438 53.8767 83.628 53.8767 82.644C53.8767 81.66 53.6847 80.856 53.3007 80.232C52.9167 79.608 52.3947 79.296 51.7347 79.296C51.3387 79.296 50.9547 79.434 50.5827 79.71C50.2107 79.974 49.9347 80.298 49.7547 80.682V84.606C49.9467 85.002 50.2227 85.338 50.5827 85.614C50.9547 85.878 51.3387 86.01 51.7347 86.01ZM64.512 85.902C63.732 86.778 62.694 87.216 61.398 87.216C60.102 87.216 59.058 86.778 58.266 85.902C57.486 85.026 57.096 83.94 57.096 82.644C57.096 81.348 57.486 80.268 58.266 79.404C59.058 78.528 60.102 78.09 61.398 78.09C62.694 78.09 63.732 78.528 64.512 79.404C65.304 80.268 65.7 81.348 65.7 82.644C65.7 83.94 65.304 85.026 64.512 85.902ZM59.274 85.038C59.802 85.686 60.51 86.01 61.398 86.01C62.286 86.01 62.988 85.686 63.504 85.038C64.02 84.378 64.278 83.58 64.278 82.644C64.278 81.708 64.02 80.916 63.504 80.268C62.988 79.62 62.286 79.296 61.398 79.296C60.51 79.296 59.802 79.626 59.274 80.286C58.758 80.934 58.5 81.72 58.5 82.644C58.5 83.58 58.758 84.378 59.274 85.038ZM70.8348 87H69.4848V79.494H66.9648V78.306H73.3728V79.494H70.8348V87ZM82.055 85.902C81.275 86.778 80.237 87.216 78.941 87.216C77.645 87.216 76.601 86.778 75.809 85.902C75.029 85.026 74.639 83.94 74.639 82.644C74.639 81.348 75.029 80.268 75.809 79.404C76.601 78.528 77.645 78.09 78.941 78.09C80.237 78.09 81.275 78.528 82.055 79.404C82.847 80.268 83.243 81.348 83.243 82.644C83.243 83.94 82.847 85.026 82.055 85.902ZM76.817 85.038C77.345 85.686 78.053 86.01 78.941 86.01C79.829 86.01 80.531 85.686 81.047 85.038C81.563 84.378 81.821 83.58 81.821 82.644C81.821 81.708 81.563 80.916 81.047 80.268C80.531 79.62 79.829 79.296 78.941 79.296C78.053 79.296 77.345 79.626 76.817 80.286C76.301 80.934 76.043 81.72 76.043 82.644C76.043 83.58 76.301 84.378 76.817 85.038ZM91.5278 78.306V79.494H86.7938V87H85.4438V78.306H91.5278ZM97.5676 87.216C96.3436 87.216 95.3656 86.706 94.6336 85.686V90.312H93.2836V78.306H94.6336V79.602C94.9576 79.146 95.3776 78.78 95.8936 78.504C96.4096 78.228 96.9676 78.09 97.5676 78.09C98.7196 78.09 99.6496 78.504 100.358 79.332C101.078 80.148 101.438 81.252 101.438 82.644C101.438 84.036 101.078 85.146 100.358 85.974C99.6496 86.802 98.7196 87.216 97.5676 87.216ZM97.2256 86.01C98.0776 86.01 98.7556 85.698 99.2596 85.074C99.7636 84.438 100.016 83.628 100.016 82.644C100.016 81.66 99.7636 80.856 99.2596 80.232C98.7556 79.608 98.0776 79.296 97.2256 79.296C96.7096 79.296 96.2056 79.434 95.7136 79.71C95.2336 79.974 94.8736 80.298 94.6336 80.682V84.606C94.8736 85.002 95.2336 85.338 95.7136 85.614C96.2056 85.878 96.7096 86.01 97.2256 86.01ZM110.37 87H109.02V86.01C108.288 86.814 107.328 87.216 106.14 87.216C105.336 87.216 104.628 86.958 104.016 86.442C103.404 85.926 103.098 85.224 103.098 84.336C103.098 83.424 103.398 82.722 103.998 82.23C104.61 81.726 105.324 81.474 106.14 81.474C107.376 81.474 108.336 81.87 109.02 82.662V81.096C109.02 80.52 108.816 80.07 108.408 79.746C108 79.422 107.472 79.26 106.824 79.26C105.804 79.26 104.916 79.662 104.16 80.466L103.53 79.53C104.454 78.57 105.612 78.09 107.004 78.09C108 78.09 108.81 78.33 109.434 78.81C110.058 79.29 110.37 80.028 110.37 81.024V87ZM106.626 86.244C107.706 86.244 108.504 85.884 109.02 85.164V83.526C108.504 82.806 107.706 82.446 106.626 82.446C106.002 82.446 105.486 82.626 105.078 82.986C104.682 83.334 104.484 83.79 104.484 84.354C104.484 84.906 104.682 85.362 105.078 85.722C105.486 86.07 106.002 86.244 106.626 86.244ZM115.867 78.09C116.851 78.09 117.643 78.6 118.243 79.62V74.994H119.593V79.602C119.857 79.146 120.193 78.78 120.601 78.504C121.021 78.228 121.471 78.09 121.951 78.09C122.887 78.09 123.643 78.504 124.219 79.332C124.795 80.148 125.083 81.252 125.083 82.644C125.083 84.036 124.789 85.146 124.201 85.974C123.625 86.802 122.875 87.216 121.951 87.216C120.967 87.216 120.181 86.706 119.593 85.686V90.312H118.243V85.704C117.979 86.16 117.637 86.526 117.217 86.802C116.797 87.078 116.347 87.216 115.867 87.216C114.931 87.216 114.175 86.808 113.599 85.992C113.023 85.164 112.735 84.054 112.735 82.662C112.735 81.27 113.023 80.16 113.599 79.332C114.187 78.504 114.943 78.09 115.867 78.09ZM116.245 79.296C115.585 79.296 115.063 79.614 114.679 80.25C114.295 80.874 114.103 81.678 114.103 82.662C114.103 83.646 114.295 84.45 114.679 85.074C115.063 85.698 115.585 86.01 116.245 86.01C116.653 86.01 117.043 85.878 117.415 85.614C117.787 85.35 118.063 85.02 118.243 84.624V80.7C118.051 80.304 117.769 79.974 117.397 79.71C117.025 79.434 116.641 79.296 116.245 79.296ZM121.573 86.01C122.233 86.01 122.755 85.698 123.139 85.074C123.523 84.438 123.715 83.628 123.715 82.644C123.715 81.66 123.523 80.856 123.139 80.232C122.755 79.608 122.233 79.296 121.573 79.296C121.177 79.296 120.793 79.434 120.421 79.71C120.049 79.974 119.773 80.298 119.593 80.682V84.606C119.785 85.002 120.061 85.338 120.421 85.614C120.793 85.878 121.177 86.01 121.573 86.01ZM128.734 87H127.438V78.306H128.788V84.948L133.342 78.306H134.674V87H133.324V80.232L128.734 87ZM138.666 87H137.37V78.306H138.72V84.948L143.274 78.306H144.606V87H143.256V80.232L138.666 87Z" fill="#A4A4A4"/>
<path d="M97.9509 15.5492C98.6831 16.2815 98.6831 17.4686 97.9509 18.2009C97.2186 18.9331 96.0315 18.9331 95.2992 18.2009C94.5669 17.4686 94.5669 16.2815 95.2992 15.5492C96.0315 14.8169 97.2186 14.8169 97.9509 15.5492Z" fill="#A4A4A4"/>
<path d="M100.375 7.50029H90.6797C89.9051 5.31763 87.8196 3.75037 85.3751 3.75037H66.6252C64.2161 3.75037 62.1678 5.2797 61.3674 7.41338L64.3843 10.4303C64.5976 10.1259 64.7503 9.77559 64.7503 9.37539C64.7503 8.34088 65.5907 7.50042 66.6252 7.50042H85.3751C86.4096 7.50042 87.2501 8.34088 87.2501 9.37539C87.2501 10.4118 88.0887 11.2503 89.1251 11.2503H100.375C101.409 11.2503 102.25 12.0908 102.25 13.1253V46.8752C102.25 47.2748 102.097 47.625 101.883 47.9294L104.556 50.6021C105.444 49.6074 106 48.3103 106 46.8752V13.1252C106 10.0234 103.477 7.50029 100.375 7.50029Z" fill="#A4A4A4"/>
<path d="M89.8079 35.8539C90.5739 34.054 90.9998 32.0762 90.9998 30C90.9998 21.7291 84.2707 15 75.9998 15C73.9236 15 71.9459 15.4259 70.1459 16.1919L73.1232 19.1693C74.047 18.9232 74.9994 18.7499 75.9998 18.7499C82.2034 18.7499 87.2497 23.7963 87.2497 29.9998C87.2497 31.0003 87.0765 31.9527 86.8304 32.8764C86.8305 32.8766 89.8079 35.8539 89.8079 35.8539Z" fill="#A4A4A4"/>
<path d="M46 2.65154L50.9198 7.57132C48.1535 7.92241 46 10.2648 46 13.1251V46.875C46 49.9768 48.5232 52.5 51.625 52.5H95.8486L103.349 60L106 57.3486L48.6514 0L46 2.65154ZM51.625 48.7501C50.5905 48.7501 49.7501 47.9096 49.7501 46.8751V13.1251C49.7501 12.0906 50.5905 11.2502 51.625 11.2502H54.5986L64.2339 20.8854C62.2541 23.4192 61.0001 26.5427 61.0001 30.0002C61.0001 38.271 67.7292 45.0002 76.0001 45.0002C79.458 45.0002 82.5893 43.7548 85.1244 41.7759L92.0987 48.7502L51.625 48.7501ZM66.8954 23.5471L82.463 39.1147C80.6301 40.4299 78.4238 41.2501 75.9999 41.2501C69.7964 41.2501 64.75 36.2038 64.75 30.0002C64.7499 27.5769 65.5798 25.3791 66.8954 23.5471Z" fill="#A4A4A4"/>
</svg>
