<svg width="17" height="15" viewBox="0 0 17 15" fill="none" xmlns="http://www.w3.org/2000/svg">
<path d="M14.5872 1.13121L14.5872 1.13122L5.90412 11.551L2.66109 7.65934C2.66109 7.65934 2.66108 7.65933 2.66108 7.65933C2.48191 7.44431 2.23833 7.32812 1.9859 7.32813C1.73348 7.32813 1.4899 7.44433 1.3107 7.65932L1.3107 7.65932C0.960819 8.07914 0.960827 8.74726 1.31069 9.16709L5.2289 13.8689C5.22891 13.8689 5.22892 13.8689 5.22892 13.8689C5.4081 14.084 5.65178 14.2 5.90419 14.2C6.15659 14.2 6.40021 14.0838 6.57931 13.8689L15.9375 2.63902C15.9375 2.63902 15.9376 2.63902 15.9376 2.63901C16.2874 2.21919 16.2874 1.55105 15.9376 1.13122C15.7584 0.916203 15.5148 0.8 15.2624 0.8C15.01 0.8 14.7664 0.916201 14.5872 1.13121Z" fill="#00CA69" stroke="#00CA69" stroke-width="0.4"/>
</svg>
