<svg width="215" height="42" viewBox="0 0 215 42" fill="none" xmlns="http://www.w3.org/2000/svg">
<path d="M21.2417 21.6958C21.2417 24.8935 20.2899 27.5871 18.3796 29.7675C16.3861 32.0521 13.7958 33.199 10.6248 33.199C7.44551 33.199 4.86355 32.0521 2.86996 29.7675C0.958885 27.5871 0 24.8935 0 21.6958C0 18.4892 0.958885 15.7966 2.86996 13.624C4.88568 11.3607 7.47613 10.2297 10.6248 10.2297C13.7958 10.2297 16.3861 11.3607 18.3796 13.624C20.2899 15.7966 21.2417 18.4892 21.2417 21.6958ZM14.9283 21.6958C14.9283 20.2474 14.5813 19.0248 13.8866 18.0364C13.1093 16.9129 12.0215 16.3548 10.6248 16.3548C9.22768 16.3548 8.14032 16.9129 7.36223 18.0364C6.66031 19.0248 6.31294 20.2474 6.31294 21.6958C6.31294 23.1362 6.66031 24.3734 7.36223 25.3915C8.14032 26.515 9.22768 27.074 10.6248 27.074C12.0215 27.074 13.1093 26.515 13.8866 25.3915C14.5813 24.3734 14.9283 23.1362 14.9283 21.6958ZM44.0688 21.6958C44.0688 24.6828 43.2079 27.2927 41.4785 29.5255C39.6285 31.9693 37.2423 33.199 34.3427 33.199C32.296 33.199 30.5598 32.6032 29.1401 31.4266C29.1401 31.6976 29.1703 32.354 29.2309 33.4035C29.2912 34.4584 29.321 35.3185 29.321 35.9975C29.321 39.7476 28.2034 41.6179 25.9688 41.6179C25.0547 41.6179 24.3076 41.2934 23.7107 40.652C23.1218 40.0039 22.8271 39.2254 22.8271 38.3063V13.9184C22.8271 13.0282 23.1294 12.2584 23.7333 11.6103C24.3372 10.9689 25.0852 10.6453 25.9763 10.6453C27.3198 10.6453 28.3018 11.3152 28.9212 12.6514C30.2425 11.0371 32.0473 10.2297 34.3351 10.2297C37.2423 10.2297 39.6209 11.436 41.4785 13.8581C43.2003 16.0988 44.0688 18.7087 44.0688 21.6958ZM37.7555 21.6958C37.7555 20.2474 37.4014 19.0248 36.7066 18.0364C35.9281 16.9129 34.8411 16.3548 33.444 16.3548C32.0473 16.3548 30.96 16.9129 30.1819 18.0364C29.4871 19.0248 29.1401 20.2474 29.1401 21.6958C29.1401 23.1362 29.4871 24.3734 30.1819 25.3915C30.96 26.515 32.0473 27.074 33.444 27.074C34.8411 27.074 35.9281 26.515 36.7066 25.3915C37.4014 24.3734 37.7555 23.1362 37.7555 21.6958ZM67.0391 21.0176C67.0391 22.0725 66.7897 22.7967 66.2912 23.2048C65.7931 23.6041 65.0155 23.8077 63.9658 23.8077H52.5708C52.5708 25.0148 53.1375 25.9422 54.2701 26.5903C55.1837 27.0966 56.3013 27.3538 57.6226 27.3538C58.6502 27.3538 59.8807 27.013 61.323 26.3427C62.7654 25.6633 63.6937 25.3309 64.0947 25.3309C64.8267 25.3309 65.4457 25.5952 65.9593 26.1383C66.4649 26.6743 66.7223 27.3228 66.7223 28.07C66.7223 29.7964 65.4311 31.1406 62.8478 32.1057C60.8773 32.8294 58.8762 33.199 56.8303 33.199C53.538 33.199 50.8798 32.1057 48.8487 29.926C46.817 27.7455 45.7983 25.0072 45.7983 21.6958C45.7983 18.5419 46.8551 15.8493 48.9692 13.6022C51.0757 11.3532 53.6967 10.2297 56.8224 10.2297C59.7296 10.2297 62.161 11.2934 64.1097 13.4204C66.0572 15.5482 67.0391 18.0824 67.0391 21.0176ZM60.7266 19.4325C60.6961 18.4666 60.2507 17.5919 59.3898 16.7992C58.5288 16.0077 57.6155 15.6159 56.6487 15.6159C55.6521 15.6159 54.723 16.0077 53.8624 16.7992C53.0019 17.5919 52.5708 18.4666 52.5708 19.4325H60.7266ZM88.25 29.4719C88.25 30.3931 87.9558 31.1695 87.3675 31.8184C86.7705 32.4602 86.0226 32.7847 85.1091 32.7847C82.9042 32.7847 81.8013 31.0344 81.8013 27.5419C81.8013 26.8704 81.8469 25.8147 81.9373 24.3587C82.0357 22.91 82.0813 21.8467 82.0813 21.1752C82.0813 17.4707 80.8805 15.6159 78.4868 15.6159C76.0928 15.6159 74.8999 17.4707 74.8999 21.1752C74.8999 21.8467 74.9376 22.91 75.0054 24.3587C75.0811 25.8147 75.1188 26.8704 75.1188 27.5419C75.1188 31.0344 74.0314 32.7847 71.857 32.7847C70.9429 32.7847 70.1958 32.4602 69.6065 31.8184C69.01 31.1695 68.7154 30.3931 68.7154 29.4719V13.9117C68.7154 12.9972 69.01 12.2217 69.6065 11.5952C70.1958 10.9614 70.9509 10.6453 71.8646 10.6453C73.3747 10.6453 74.424 11.3152 75.0129 12.6514C76.0325 11.0371 77.8368 10.2297 80.4197 10.2297C82.8134 10.2297 84.7165 10.8628 86.1135 12.1225C87.5407 13.4739 88.25 15.3287 88.25 17.6902V29.4719ZM108.056 28.8017C108.056 30.227 107.129 31.3581 105.271 32.1889C103.799 32.8593 102.199 33.2039 100.582 33.199C97.4014 33.199 94.8198 32.0521 92.8266 29.7675C90.9157 27.5871 89.9568 24.8935 89.9568 21.6958C89.9568 18.4892 90.9311 15.7819 92.8866 13.5638C94.8421 11.339 97.4014 10.2297 100.582 10.2297C102.416 10.2297 103.994 10.5011 105.309 11.0371C107.143 11.7613 108.056 12.8923 108.056 14.4314C108.056 15.2079 107.815 15.8944 107.332 16.4907C106.849 17.0789 106.229 17.3808 105.475 17.3808C104.96 17.3808 104.22 17.2073 103.254 16.8686C102.288 16.5207 101.518 16.3548 100.952 16.3548C99.4487 16.3548 98.278 16.8904 97.44 17.9611C96.6621 18.927 96.2693 20.1642 96.2693 21.6958C96.2693 23.1362 96.6167 24.3587 97.32 25.3468C98.0962 26.5012 99.1923 27.074 100.589 27.074C101.209 27.074 102.053 26.893 103.133 26.5225C104.214 26.1617 104.992 25.9731 105.475 25.9731C106.177 25.9731 106.78 26.2742 107.295 26.8629C107.801 27.4587 108.056 28.0993 108.056 28.8017ZM131.004 29.4719C131.004 30.3931 130.71 31.1695 130.121 31.8184C129.525 32.4602 128.77 32.7847 127.855 32.7847C126.481 32.7847 125.5 32.1128 124.911 30.7777C123.59 32.3925 121.784 33.199 119.497 33.199C116.568 33.199 114.167 31.9693 112.308 29.5255C110.617 27.2927 109.765 24.6828 109.765 21.6958C109.765 18.7087 110.617 16.0988 112.308 13.8581C114.197 11.436 116.589 10.2297 119.497 10.2297C121.784 10.2297 123.59 11.0371 124.911 12.6514C125.5 11.3152 126.481 10.6453 127.855 10.6453C128.747 10.6453 129.495 10.9689 130.1 11.6103C130.703 12.2584 131.004 13.0206 131.004 13.9117V29.4719ZM124.692 21.6958C124.692 20.2474 124.345 19.0248 123.65 18.0364C122.842 16.9129 121.754 16.3548 120.388 16.3548C118.991 16.3548 117.904 16.9129 117.125 18.0364C116.424 19.0248 116.077 20.2474 116.077 21.6958C116.077 23.1362 116.415 24.3734 117.087 25.3915C117.889 26.515 118.991 27.074 120.388 27.074C121.784 27.074 122.872 26.515 123.65 25.3915C124.345 24.3734 124.692 23.1362 124.692 21.6958ZM147.112 13.4956C147.112 14.8458 146.455 15.7735 145.141 16.2786C143.925 16.6867 142.716 17.1023 141.508 17.5309C140.186 18.286 139.53 19.6888 139.53 21.7259V29.4719C139.53 30.3931 139.227 31.1695 138.64 31.8184C138.042 32.4602 137.287 32.7847 136.374 32.7847C135.453 32.7847 134.697 32.4602 134.109 31.8184C133.511 31.1695 133.217 30.3931 133.217 29.4719V13.9117C133.217 12.9972 133.511 12.2217 134.101 11.5952C134.697 10.9614 135.453 10.6453 136.367 10.6453C137.876 10.6453 138.925 11.3152 139.515 12.6514C140.867 11.0371 142.317 10.2297 143.88 10.2297C144.77 10.2297 145.534 10.5534 146.167 11.1947C146.793 11.8436 147.112 12.613 147.112 13.4956ZM163.581 13.7825C163.581 15.1852 163.029 16.0679 161.936 16.4458C161.398 16.634 160.272 16.7318 158.558 16.7318V29.4719C158.558 30.3931 158.256 31.1695 157.669 31.8184C157.071 32.4602 156.316 32.7847 155.403 32.7847C154.513 32.7847 153.756 32.4602 153.151 31.8184C152.548 31.1695 152.247 30.3931 152.247 29.4719V16.7318C150.947 16.7318 150.004 16.5659 149.408 16.2423C148.593 15.7895 148.19 14.967 148.19 13.7825C148.19 12.5987 148.606 11.7914 149.444 11.3607C150.011 11.0438 150.947 10.8786 152.247 10.8786V8.17798C152.247 5.00243 153.295 3.41855 155.403 3.41855C157.502 3.41855 158.558 5.00243 158.558 8.17798V10.8786C160.272 10.8786 161.398 10.9765 161.936 11.1646C163.029 11.5418 163.581 12.4177 163.581 13.7825ZM214.296 9.95207C214.279 8.01579 210.697 7.13689 201.426 7.13689C179.672 7.13689 174.153 6.20863 168.247 0C170.731 3.72794 172.091 10.7202 195.084 10.3722C219.074 10.0031 204.439 16.5517 200.181 23.9503C207.86 17.1032 214.273 12.59 214.296 9.98009V9.95207ZM183.727 29.8349C183.726 31.6347 182.244 33.1154 180.442 33.1158C178.622 33.1158 177.15 31.6457 177.15 29.8349C177.15 29.834 177.15 29.8332 177.15 29.8323C177.15 28.0295 178.635 26.546 180.44 26.546C180.441 26.546 180.441 26.546 180.442 26.546C182.256 26.546 183.727 28.0165 183.727 29.8349ZM198.708 29.8349C198.707 31.6347 197.225 33.1154 195.423 33.1158C193.605 33.1158 192.132 31.6457 192.132 29.8349C192.132 29.834 192.132 29.8332 192.132 29.8323C192.132 28.0295 193.617 26.546 195.421 26.546C195.422 26.546 195.422 26.546 195.423 26.546C197.237 26.546 198.708 28.0165 198.708 29.8349Z" fill="url(#paint0_linear)"/>
<defs>
<linearGradient id="paint0_linear" x1="107.148" y1="32.9214" x2="107.148" y2="8.63396e-05" gradientUnits="userSpaceOnUse">
<stop stop-color="#04B6F0"/>
<stop offset="1" stop-color="#3ECAF0"/>
</linearGradient>
</defs>
</svg>
