<svg width="187" height="187" viewBox="0 0 187 187" fill="none" xmlns="http://www.w3.org/2000/svg">
<path d="M54.7554 133.031C47.6912 125.651 33.5167 139.127 28.3798 158.295C47.7337 153.979 61.8134 140.406 54.7554 133.031Z" fill="url(#paint0_linear)"/>
<path d="M73.2165 156.845C69.4986 152.961 62.0386 160.053 59.3351 170.141C69.521 167.87 76.9311 160.726 73.2165 156.845Z" fill="url(#paint1_linear)"/>
<path d="M30.6647 114.294C26.9468 110.41 19.4868 117.502 16.7833 127.59C26.9692 125.319 34.3793 118.175 30.6647 114.294Z" fill="url(#paint2_linear)"/>
<path d="M69.7492 152.029L74.7777 157.596L85.4919 116.759L65.5805 127.151L69.7492 152.029Z" fill="#F7F9FF"/>
<path d="M35.3384 117.065L29.7592 112.024L70.596 101.31L60.2157 121.234L35.3384 117.065Z" fill="#F7F9FF"/>
<path d="M39.6314 95.8156L39.0319 95.2161C36.8244 96.8669 34.7459 98.6836 32.8146 100.65C30.0475 103.468 27.4984 106.491 25.1893 109.695L25.7032 110.209C29.701 104.826 34.3832 99.9879 39.6314 95.8156Z" fill="url(#paint3_linear)"/>
<path d="M25.7153 110.221L26.5473 111.053C30.8037 105.893 35.5143 101.126 40.6223 96.807L39.6312 95.8159C34.3865 99.9928 29.7084 104.835 25.7153 110.221Z" fill="white"/>
<path d="M26.5469 111.054L25.201 109.708C24.54 110.589 23.9036 111.47 23.3038 112.364L32.2476 121.307C33.1369 120.712 34.0304 120.087 34.9279 119.435L26.5469 111.054Z" fill="#3B56D7"/>
<path d="M25.715 110.222L23.8055 112.865L24.5397 113.599L26.547 111.054L25.715 110.222Z" fill="#4744C6"/>
<path opacity="0.1" d="M25.7153 110.221L26.5473 111.053C30.8037 105.893 35.5143 101.126 40.6223 96.807L39.6312 95.8159C34.3865 99.9928 29.7084 104.835 25.7153 110.221Z" fill="#382FB2"/>
<path d="M68.1456 152.652L68.9776 153.484C73.2341 148.324 77.9446 143.556 83.0526 139.238L82.0861 138.271C76.8302 142.434 72.1433 147.269 68.1456 152.652Z" fill="white"/>
<path d="M96.6865 132.824C94.5454 130.683 83.0171 136.706 83.0171 136.706L92.9029 146.592C92.9029 146.592 98.6074 134.721 96.6865 132.824Z" fill="#3B56D7"/>
<path d="M92.8674 146.555L82.9692 136.657C82.4919 136.963 81.9901 137.293 81.5006 137.636L91.8759 148.011C92.2186 147.522 92.5613 147.032 92.8674 146.555Z" fill="#382FB2"/>
<g opacity="0.5">
<path opacity="0.1" d="M96.5769 132.714C92.7589 132.911 85.9912 136.228 83.6782 137.366L84.6203 138.308C87.4595 136.962 95.7447 133.032 96.5769 132.714Z" fill="white"/>
</g>
<path d="M83.6779 137.366L82.0869 138.271L83.0535 139.238L84.62 138.308L83.6779 137.366Z" fill="#4744C6"/>
<path d="M68.9786 153.485L77.3596 161.866C80.5667 159.561 83.5943 157.016 86.4163 154.253C88.3894 152.327 90.2066 150.248 91.8506 148.035L83.0536 139.238C77.9456 143.557 73.235 148.325 68.9786 153.485Z" fill="#F7F9FF"/>
<path d="M82.0878 138.271L81.4761 137.66C79.2685 139.31 77.19 141.127 75.2587 143.094C72.4981 145.917 69.9494 148.94 67.6335 152.138L68.1474 152.652C72.145 147.27 76.8319 142.435 82.0878 138.271Z" fill="url(#paint4_linear)"/>
<path d="M68.9789 153.485L67.6331 152.139C66.9721 153.02 66.3479 153.913 65.7359 154.795L74.6797 163.738C75.569 163.143 76.4624 162.518 77.3599 161.866L68.9789 153.485Z" fill="#3B56D7"/>
<path d="M68.147 152.653L66.2375 155.296L66.9717 156.03L68.979 153.485L68.147 152.653Z" fill="#4744C6"/>
<path opacity="0.1" d="M68.147 152.652L68.9789 153.484C73.2354 148.324 77.9459 143.556 83.0539 139.238L82.0874 138.271C76.8315 142.434 72.1446 147.269 68.147 152.652Z" fill="#382FB2"/>
<g opacity="0.1">
<path opacity="0.1" d="M148.991 37.4753C138.406 38.0033 119.706 47.1843 113.294 50.318L115.924 52.9485C123.72 49.2394 146.629 38.369 148.991 37.4753Z" fill="white"/>
</g>
<path d="M49.1333 127.252L49.8551 127.974C59.207 111.281 77.6528 84.3933 111.518 55.5937L108.814 52.8898C83.6848 72.9782 63.3051 98.3715 49.1333 127.252Z" fill="white"/>
<path d="M157.716 29.361L148.17 37.8062L149.259 38.8951L157.716 29.361Z" fill="#382FB2"/>
<path d="M149.296 37.7814C143.375 31.8597 111.323 48.3973 111.323 48.3973L138.668 75.7425C138.668 75.7425 154.558 43.0425 149.296 37.7814Z" fill="#00CA69"/>
<path d="M138.668 75.7923L111.286 48.4103C109.965 49.2427 108.582 50.1852 107.15 51.2255L135.853 79.9289C136.894 78.497 137.836 77.114 138.668 75.7923Z" fill="#3B56D7"/>
<path d="M113.244 50.3669L108.814 52.8885L111.542 55.568L115.874 52.9974L113.244 50.3669Z" fill="#4744C6"/>
<path d="M49.8542 127.974L61.3796 139.499C78.8189 130.698 103.834 114.173 120.883 97.1243C126.328 91.8066 131.341 86.0648 135.877 79.9532L111.517 55.5932C77.6519 84.3927 59.1694 111.244 49.8542 127.974Z" fill="#F7F9FF"/>
<path d="M108.814 52.8892L107.15 51.2252C101.044 55.7673 95.3023 60.7804 89.9785 66.2185C72.9539 83.2432 56.2094 108.063 47.359 125.478L49.1331 127.252C63.305 98.3708 83.6847 72.9776 108.814 52.8892Z" fill="url(#paint5_linear)"/>
<path d="M49.8549 127.973L47.4079 125.526C46.5755 127.141 45.841 128.683 45.1922 130.189L56.8399 141.836C58.3085 141.151 59.8627 140.404 61.5027 139.621L49.8549 127.973Z" fill="#3B56D7"/>
<path d="M49.1342 127.251L46.9674 131.963L47.469 132.464L49.856 127.973L49.1342 127.251Z" fill="#4744C6"/>
<path d="M113.848 90.4561C112.12 92.1845 109.918 93.3617 107.521 93.8389C105.124 94.316 102.64 94.0717 100.382 93.1369C98.1244 92.202 96.1948 90.6186 94.8374 88.5868C93.48 86.5551 92.7557 84.1662 92.7561 81.7224C92.7566 79.2785 93.4816 76.8894 94.8397 74.8572C96.1978 72.8249 98.1278 71.2409 100.386 70.3053C102.644 69.3697 105.128 69.1246 107.525 69.6009C109.922 70.0773 112.123 71.2538 113.851 72.9816C116.168 75.2984 117.469 78.4411 117.469 81.7182C117.468 84.9953 116.166 88.1385 113.848 90.4561Z" fill="#4744C6"/>
<path d="M95.652 91.1804C93.7708 89.304 92.4887 86.9114 91.9682 84.3055C91.4476 81.6997 91.712 78.9976 92.7278 76.5415C93.7437 74.0855 95.4653 71.9858 97.6747 70.5082C99.8842 69.0307 102.482 68.2418 105.14 68.2413C107.797 68.2409 110.395 69.0289 112.604 70.5057C114.813 71.9825 116.534 74.0816 117.549 76.5374C118.564 78.9931 118.827 81.695 118.306 84.3011C117.784 86.9072 116.501 89.3002 114.62 91.1773C112.102 93.6887 108.691 95.0994 105.135 95.1C101.579 95.1006 98.1691 93.691 95.652 91.1804ZM113.13 73.703C111.551 72.1199 109.539 71.0407 107.347 70.6019C105.154 70.1631 102.881 70.3845 100.814 71.2381C98.7476 72.0917 96.9803 73.5391 95.736 75.3971C94.4918 77.2551 93.8265 79.4403 93.8244 81.6761C93.8223 83.9119 94.4835 86.0979 95.7243 87.9574C96.965 89.8169 98.7296 91.2664 100.795 92.1224C102.86 92.9785 105.133 93.2026 107.326 92.7665C109.519 92.3304 111.533 91.2535 113.115 89.6723C115.232 87.5548 116.423 84.6837 116.426 81.6896C116.429 78.6955 115.243 75.823 113.13 73.703Z" fill="#6278DF"/>
<path opacity="0.1" d="M49.1332 127.251L49.855 127.973C59.207 111.28 77.6527 84.3922 111.518 55.5926L108.814 52.8887C83.6847 72.9771 63.305 98.3704 49.1332 127.251Z" fill="#382FB2"/>
<path d="M54.5311 90.1168C52.39 87.9757 40.8616 93.9982 40.8616 93.9982L50.7475 103.884C50.7475 103.884 56.452 92.0132 54.5311 90.1168Z" fill="#3B56D7"/>
<path d="M50.6987 103.835L40.8128 93.9491C40.3355 94.2551 39.8337 94.5855 39.3441 94.9283L49.7195 105.304C50.0622 104.814 50.4049 104.325 50.6987 103.835Z" fill="#382FB2"/>
<g opacity="0.5">
<path opacity="0.1" d="M54.4215 90.0068C50.5913 90.191 43.8236 93.5084 41.5106 94.6468L42.4649 95.6011C45.3042 94.2546 53.5893 90.3251 54.4215 90.0068Z" fill="white"/>
</g>
<path d="M41.5224 94.6583L39.9193 95.5518L40.8981 96.5306L42.4646 95.6004L41.5224 94.6583Z" fill="#4744C6"/>
<path d="M26.5475 111.053L34.9285 119.434C38.1355 117.129 41.1631 114.584 43.9852 111.821C45.9583 109.896 47.7755 107.817 49.4195 105.604L40.6225 96.8068C35.5145 101.125 30.8039 105.893 26.5475 111.053Z" fill="#F7F9FF"/>
<defs>
<linearGradient id="paint0_linear" x1="52.3408" y1="134.491" x2="36.5916" y2="150.24" gradientUnits="userSpaceOnUse">
<stop stop-color="#FFEF9D"/>
<stop offset="1" stop-color="#F9B253"/>
</linearGradient>
<linearGradient id="paint1_linear" x1="71.9457" y1="157.613" x2="63.657" y2="165.902" gradientUnits="userSpaceOnUse">
<stop stop-color="#FFEF9D"/>
<stop offset="1" stop-color="#F9B253"/>
</linearGradient>
<linearGradient id="paint2_linear" x1="29.3939" y1="115.062" x2="21.1051" y2="123.351" gradientUnits="userSpaceOnUse">
<stop stop-color="#FFEF9D"/>
<stop offset="1" stop-color="#F9B253"/>
</linearGradient>
<linearGradient id="paint3_linear" x1="-2054.43" y1="3029.36" x2="-2004.13" y2="3188.12" gradientUnits="userSpaceOnUse">
<stop stop-color="white"/>
<stop offset="1" stop-color="#382FB2"/>
</linearGradient>
<linearGradient id="paint4_linear" x1="-1968.76" y1="3115.02" x2="-1918.56" y2="3274.25" gradientUnits="userSpaceOnUse">
<stop stop-color="white"/>
<stop offset="1" stop-color="#382FB2"/>
</linearGradient>
<linearGradient id="paint5_linear" x1="-6903.61" y1="14303.7" x2="-6091.95" y2="15617.9" gradientUnits="userSpaceOnUse">
<stop stop-color="white"/>
<stop offset="1" stop-color="#382FB2"/>
</linearGradient>
</defs>
</svg>
