<svg width="1920" height="813" viewBox="0 0 1920 813" fill="none" xmlns="http://www.w3.org/2000/svg">
<path d="M1920 0H0V812H1920V0Z" fill="url(#paint0_linear)"/>
<path d="M553 812C559.9 811.87 568.438 811.914 578.225 812H645.474C716.648 810.647 802.513 802.953 841 767.586C917 697.749 905 615.586 859 541.586C813 467.586 795 383.586 813 325.586C831 267.586 873 263.586 899 263.586C939 263.586 969 261.588 975 247.588C981 233.588 983 205.586 1011 193.586C1039 181.586 1057 181.586 1125 193.586C1219 210.175 1237 245.587 1457 139.587C1677 33.5872 1691.15 179.588 1843 179.588C1899 179.588 1923 127.588 1923 111.586V812H645.474C620.306 812.479 596.975 812.164 578.225 812H553Z" fill="white"/>
<g opacity="0.63">
<path opacity="0.63" d="M1600.76 47.6646C1599.24 47.6646 1598 46.3965 1598 44.8323C1598 43.2681 1599.24 42 1600.76 42C1602.29 42 1603.53 43.2681 1603.53 44.8323C1603.53 46.3965 1602.29 47.6646 1600.76 47.6646Z" fill="white"/>
<path opacity="0.63" d="M1386.76 156.665C1385.24 156.665 1384 155.397 1384 153.832C1384 152.268 1385.24 151 1386.76 151C1388.29 151 1389.53 152.268 1389.53 153.832C1389.53 155.397 1388.29 156.665 1386.76 156.665Z" fill="white"/>
<path opacity="0.63" d="M1191.19 307.965C1189.66 307.965 1188.42 306.697 1188.42 305.132C1188.42 303.568 1189.66 302.3 1191.19 302.3C1192.71 302.3 1193.95 303.568 1193.95 305.132C1193.95 306.697 1192.71 307.965 1191.19 307.965Z" fill="white"/>
<path opacity="0.63" d="M1118.21 416.3C1116.69 416.3 1115.45 415.032 1115.45 413.468C1115.45 411.904 1116.69 410.636 1118.21 410.636C1119.74 410.636 1120.97 411.904 1120.97 413.468C1120.97 415.032 1119.74 416.3 1118.21 416.3Z" fill="white"/>
<path opacity="0.63" d="M1017.35 319.746C1015.82 319.746 1014.59 318.478 1014.59 316.914C1014.59 315.349 1015.82 314.081 1017.35 314.081C1018.88 314.081 1020.11 315.349 1020.11 316.914C1020.11 318.478 1018.88 319.746 1017.35 319.746Z" fill="white"/>
<path opacity="0.63" d="M876.235 232.107C874.709 232.107 873.471 230.839 873.471 229.274C873.471 227.71 874.709 226.442 876.235 226.442C877.761 226.442 878.998 227.71 878.998 229.274C878.998 230.839 877.761 232.107 876.235 232.107Z" fill="white"/>
<path opacity="0.63" d="M520.239 176.777C518.712 176.777 517.475 175.509 517.475 173.945C517.475 172.38 518.712 171.112 520.239 171.112C521.765 171.112 523.002 172.38 523.002 173.945C523.002 175.509 521.765 176.777 520.239 176.777Z" fill="white"/>
<path opacity="0.63" d="M1003 777.832C1003 778.392 1003.16 778.94 1003.47 779.406C1003.77 779.872 1004.2 780.235 1004.71 780.449C1005.21 780.663 1005.77 780.719 1006.3 780.61C1006.84 780.501 1007.33 780.231 1007.72 779.835C1008.1 779.439 1008.37 778.934 1008.47 778.385C1008.58 777.835 1008.53 777.266 1008.32 776.748C1008.11 776.231 1007.75 775.789 1007.3 775.477C1006.84 775.166 1006.31 775 1005.76 775C1005.03 775 1004.33 775.298 1003.81 775.83C1003.29 776.361 1003 777.081 1003 777.832Z" fill="white"/>
<path opacity="0.63" d="M387.763 156.665C386.237 156.665 385 155.397 385 153.832C385 152.268 386.237 151 387.763 151C389.29 151 390.527 152.268 390.527 153.832C390.527 155.397 389.29 156.665 387.763 156.665Z" fill="white"/>
<path opacity="0.63" d="M282.881 161.999C281.355 161.999 280.118 160.731 280.118 159.167C280.118 157.603 281.355 156.335 282.881 156.335C284.407 156.335 285.645 157.603 285.645 159.167C285.645 160.731 284.407 161.999 282.881 161.999Z" fill="white"/>
<path opacity="0.63" d="M234.586 325.307C233.06 325.307 231.823 324.039 231.823 322.474C231.823 320.91 233.06 319.642 234.586 319.642C236.112 319.642 237.35 320.91 237.35 322.474C237.35 324.039 236.112 325.307 234.586 325.307Z" fill="white"/>
<path opacity="0.63" d="M362.955 494.601C361.429 494.601 360.192 493.333 360.192 491.768C360.192 490.204 361.429 488.936 362.955 488.936C364.482 488.936 365.719 490.204 365.719 491.768C365.719 493.333 364.482 494.601 362.955 494.601Z" fill="white"/>
<path opacity="0.63" d="M180.954 693.438C179.427 693.438 178.19 692.17 178.19 690.605C178.19 689.041 179.427 687.773 180.954 687.773C182.48 687.773 183.717 689.041 183.717 690.605C183.717 692.17 182.48 693.438 180.954 693.438Z" fill="white"/>
<path opacity="0.63" d="M100.506 513.075C98.9799 513.075 97.7428 511.807 97.7428 510.242C97.7428 508.678 98.9799 507.41 100.506 507.41C102.032 507.41 103.27 508.678 103.27 510.242C103.27 511.807 102.032 513.075 100.506 513.075Z" fill="white"/>
<path opacity="0.63" d="M190.876 390.384C190.876 390.944 191.038 391.492 191.342 391.958C191.645 392.424 192.077 392.787 192.582 393.001C193.086 393.215 193.642 393.271 194.178 393.162C194.714 393.053 195.207 392.783 195.593 392.387C195.979 391.991 196.243 391.486 196.349 390.937C196.456 390.387 196.401 389.818 196.192 389.3C195.983 388.783 195.629 388.341 195.174 388.029C194.72 387.718 194.186 387.552 193.639 387.552C192.906 387.552 192.203 387.85 191.685 388.382C191.167 388.913 190.876 389.633 190.876 390.384Z" fill="white"/>
<path opacity="0.63" d="M385.375 270.594C383.849 270.594 382.612 269.326 382.612 267.762C382.612 266.197 383.849 264.929 385.375 264.929C386.902 264.929 388.139 266.197 388.139 267.762C388.139 269.326 386.902 270.594 385.375 270.594Z" fill="white"/>
<path opacity="0.63" d="M826.763 162.673C825.237 162.673 824 161.405 824 159.841C824 158.276 825.237 157.008 826.763 157.008C828.29 157.008 829.527 158.276 829.527 159.841C829.527 161.405 828.29 162.673 826.763 162.673Z" fill="white"/>
<path opacity="0.63" d="M354 554.832C354 555.392 354.162 555.94 354.466 556.406C354.769 556.872 355.201 557.235 355.706 557.449C356.211 557.663 356.766 557.719 357.302 557.61C357.838 557.501 358.331 557.231 358.717 556.835C359.104 556.439 359.367 555.934 359.473 555.385C359.58 554.835 359.525 554.266 359.316 553.748C359.107 553.231 358.753 552.789 358.298 552.477C357.844 552.166 357.31 552 356.763 552C356.03 552 355.327 552.298 354.809 552.83C354.291 553.361 354 554.081 354 554.832Z" fill="white"/>
<path opacity="0.63" d="M320 751.832C320 752.392 320.162 752.94 320.465 753.406C320.769 753.872 321.201 754.235 321.706 754.449C322.211 754.663 322.766 754.719 323.302 754.61C323.838 754.501 324.331 754.231 324.717 753.835C325.103 753.439 325.367 752.934 325.473 752.385C325.58 751.835 325.525 751.266 325.316 750.748C325.107 750.231 324.753 749.789 324.298 749.477C323.844 749.166 323.31 749 322.763 749C322.03 749 321.327 749.298 320.809 749.83C320.291 750.361 320 751.081 320 751.832Z" fill="white"/>
<path opacity="0.63" d="M844.473 401.412C844.474 401.975 844.637 402.525 844.944 402.992C845.25 403.459 845.686 403.822 846.194 404.034C846.703 404.247 847.262 404.299 847.799 404.184C848.337 404.07 848.829 403.793 849.213 403.391C849.597 402.988 849.855 402.478 849.954 401.924C850.054 401.371 849.99 400.799 849.771 400.283C849.552 399.767 849.188 399.329 848.726 399.026C848.263 398.722 847.723 398.567 847.174 398.58C846.452 398.597 845.765 398.902 845.26 399.432C844.756 399.961 844.473 400.672 844.473 401.412Z" fill="white"/>
<path opacity="0.63" d="M1115.23 265.919C1113.71 265.919 1112.47 264.651 1112.47 263.087C1112.47 261.523 1113.71 260.255 1115.23 260.255C1116.76 260.255 1118 261.523 1118 263.087C1118 264.651 1116.76 265.919 1115.23 265.919Z" fill="white"/>
<path opacity="0.63" d="M1500.6 309.484C1499.07 309.484 1497.83 308.216 1497.83 306.652C1497.83 305.087 1499.07 303.819 1500.6 303.819C1502.12 303.819 1503.36 305.087 1503.36 306.652C1503.36 308.216 1502.12 309.484 1500.6 309.484Z" fill="white"/>
<path opacity="0.63" d="M1530.32 227.205C1528.79 227.205 1527.55 225.937 1527.55 224.372C1527.55 222.808 1528.79 221.54 1530.32 221.54C1531.84 221.54 1533.08 222.808 1533.08 224.372C1533.08 225.937 1531.84 227.205 1530.32 227.205Z" fill="white"/>
<path opacity="0.63" d="M1592.03 126.407C1591.97 126.81 1592 127.222 1592.11 127.614C1592.22 128.006 1592.41 128.369 1592.67 128.678C1592.93 128.988 1593.25 129.236 1593.61 129.406C1593.97 129.576 1594.37 129.665 1594.76 129.665C1595.16 129.665 1595.55 129.576 1595.92 129.406C1596.28 129.236 1596.6 128.988 1596.86 128.678C1597.12 128.369 1597.31 128.006 1597.42 127.614C1597.53 127.222 1597.55 126.81 1597.5 126.407C1597.4 125.737 1597.07 125.126 1596.56 124.684C1596.06 124.243 1595.42 124 1594.76 124C1594.1 124 1593.46 124.243 1592.96 124.684C1592.46 125.126 1592.13 125.737 1592.03 126.407Z" fill="white"/>
<path opacity="0.63" d="M1666.22 161.163C1664.7 161.163 1663.46 159.895 1663.46 158.331C1663.46 156.767 1664.7 155.499 1666.22 155.499C1667.75 155.499 1668.99 156.767 1668.99 158.331C1668.99 159.895 1667.75 161.163 1666.22 161.163Z" fill="white"/>
<path opacity="0.63" d="M860.763 767.665C859.237 767.665 858 766.397 858 764.832C858 763.268 859.237 762 860.763 762C862.29 762 863.527 763.268 863.527 764.832C863.527 766.397 862.29 767.665 860.763 767.665Z" fill="white"/>
<path opacity="0.63" d="M1035.5 581.411C1033.97 581.411 1032.74 580.143 1032.74 578.578C1032.74 577.014 1033.97 575.746 1035.5 575.746C1037.03 575.746 1038.26 577.014 1038.26 578.578C1038.26 580.143 1037.03 581.411 1035.5 581.411Z" fill="white"/>
<path opacity="0.63" d="M1166.69 515.044C1165.17 515.044 1163.93 513.776 1163.93 512.212C1163.93 510.648 1165.17 509.38 1166.69 509.38C1168.22 509.38 1169.46 510.648 1169.46 512.212C1169.46 513.776 1168.22 515.044 1166.69 515.044Z" fill="white"/>
<path opacity="0.63" d="M1058.61 581.278C1057.09 581.278 1055.85 580.01 1055.85 578.446C1055.85 576.882 1057.09 575.614 1058.61 575.614C1060.14 575.614 1061.38 576.882 1061.38 578.446C1061.38 580.01 1060.14 581.278 1058.61 581.278Z" fill="white"/>
<path opacity="0.63" d="M1168.08 605.871C1166.55 605.871 1165.32 604.603 1165.32 603.038C1165.32 601.474 1166.55 600.206 1168.08 600.206C1169.6 600.206 1170.84 601.474 1170.84 603.038C1170.84 604.603 1169.6 605.871 1168.08 605.871Z" fill="white"/>
<path opacity="0.63" d="M1253.49 767.361C1251.96 767.361 1250.73 766.093 1250.73 764.529C1250.73 762.965 1251.96 761.697 1253.49 761.697C1255.02 761.697 1256.25 762.965 1256.25 764.529C1256.25 766.093 1255.02 767.361 1253.49 767.361Z" fill="white"/>
<path opacity="0.63" d="M1773.24 84.5605C1771.71 84.5605 1770.48 83.2925 1770.48 81.7283C1770.48 80.164 1771.71 78.896 1773.24 78.896C1774.76 78.896 1776 80.164 1776 81.7283C1776 83.2925 1774.76 84.5605 1773.24 84.5605Z" fill="white"/>
<path opacity="0.63" d="M1509.22 93.3821C1507.69 93.3821 1506.45 92.114 1506.45 90.5498C1506.45 88.9856 1507.69 87.7175 1509.22 87.7175C1510.74 87.7175 1511.98 88.9856 1511.98 90.5498C1511.98 92.114 1510.74 93.3821 1509.22 93.3821Z" fill="white"/>
<path opacity="0.63" d="M1624.23 342.766C1622.71 342.766 1621.47 341.498 1621.47 339.934C1621.47 338.37 1622.71 337.102 1624.23 337.102C1625.76 337.102 1627 338.37 1627 339.934C1627 341.498 1625.76 342.766 1624.23 342.766Z" fill="white"/>
<path opacity="0.63" d="M1503.75 142.881C1502.23 142.881 1500.99 141.613 1500.99 140.048C1500.99 138.484 1502.23 137.216 1503.75 137.216C1505.28 137.216 1506.52 138.484 1506.52 140.048C1506.52 141.613 1505.28 142.881 1503.75 142.881Z" fill="white"/>
<path opacity="0.63" d="M793.474 108.369C793.474 108.932 793.637 109.482 793.944 109.949C794.25 110.416 794.686 110.779 795.195 110.992C795.703 111.204 796.262 111.256 796.799 111.142C797.337 111.027 797.829 110.751 798.213 110.348C798.597 109.946 798.855 109.435 798.954 108.881C799.054 108.328 798.99 107.756 798.771 107.24C798.552 106.724 798.189 106.286 797.726 105.983C797.263 105.679 796.723 105.524 796.174 105.537C795.452 105.554 794.765 105.86 794.261 106.389C793.756 106.918 793.473 107.629 793.474 108.369Z" fill="white"/>
<path opacity="0.63" d="M1015.23 162.226C1013.71 162.226 1012.47 160.958 1012.47 159.393C1012.47 157.829 1013.71 156.561 1015.23 156.561C1016.76 156.561 1018 157.829 1018 159.393C1018 160.958 1016.76 162.226 1015.23 162.226Z" fill="white"/>
<path opacity="0.63" d="M440 113.832C440 114.392 440.162 114.94 440.466 115.406C440.769 115.872 441.201 116.235 441.706 116.449C442.211 116.663 442.766 116.719 443.302 116.61C443.838 116.501 444.331 116.231 444.717 115.835C445.104 115.439 445.367 114.934 445.473 114.385C445.58 113.835 445.525 113.266 445.316 112.748C445.107 112.231 444.753 111.789 444.298 111.477C443.844 111.166 443.31 111 442.763 111C442.03 111 441.328 111.298 440.809 111.83C440.291 112.361 440 113.081 440 113.832Z" fill="white"/>
<path opacity="0.63" d="M165.813 102.457C164.287 102.457 163.049 101.189 163.049 99.6249C163.049 98.0606 164.287 96.7926 165.813 96.7926C167.339 96.7926 168.576 98.0606 168.576 99.6249C168.576 101.189 167.339 102.457 165.813 102.457Z" fill="white"/>
<path opacity="0.63" d="M159.041 179.055C157.515 179.055 156.278 177.787 156.278 176.223C156.278 174.658 157.515 173.39 159.041 173.39C160.567 173.39 161.805 174.658 161.805 176.223C161.805 177.787 160.567 179.055 159.041 179.055Z" fill="white"/>
<path opacity="0.63" d="M196.274 217.939C196.274 218.499 196.436 219.046 196.74 219.512C197.043 219.978 197.475 220.341 197.98 220.555C198.485 220.77 199.041 220.826 199.577 220.716C200.113 220.607 200.605 220.337 200.991 219.941C201.378 219.545 201.641 219.04 201.748 218.491C201.854 217.942 201.8 217.372 201.59 216.855C201.381 216.337 201.027 215.895 200.573 215.584C200.118 215.272 199.584 215.106 199.037 215.106C198.305 215.106 197.602 215.405 197.083 215.936C196.565 216.467 196.274 217.187 196.274 217.939Z" fill="white"/>
<path opacity="0.63" d="M112.763 319.665C111.237 319.665 110 318.396 110 316.832C110 315.268 111.237 314 112.763 314C114.29 314 115.527 315.268 115.527 316.832C115.527 318.396 114.29 319.665 112.763 319.665Z" fill="white"/>
<path opacity="0.63" d="M105.905 223.279C104.378 223.279 103.141 222.011 103.141 220.447C103.141 218.882 104.378 217.614 105.905 217.614C107.431 217.614 108.668 218.882 108.668 220.447C108.668 222.011 107.431 223.279 105.905 223.279Z" fill="white"/>
<path opacity="0.63" d="M538.031 105.258C538.131 105.928 538.461 106.539 538.962 106.98C539.463 107.422 540.102 107.665 540.763 107.665C541.424 107.665 542.063 107.422 542.564 106.98C543.066 106.539 543.396 105.928 543.495 105.258C543.555 104.855 543.529 104.443 543.419 104.051C543.31 103.659 543.118 103.296 542.859 102.986C542.6 102.677 542.278 102.429 541.916 102.258C541.555 102.088 541.161 102 540.763 102C540.365 102 539.972 102.088 539.61 102.258C539.249 102.429 538.927 102.677 538.668 102.986C538.408 103.296 538.217 103.659 538.107 104.051C537.997 104.443 537.972 104.855 538.031 105.258Z" fill="white"/>
<path opacity="0.63" d="M316.763 48.6646C315.237 48.6646 314 47.3965 314 45.8323C314 44.2681 315.237 43 316.763 43C318.289 43 319.526 44.2681 319.526 45.8323C319.526 47.3965 318.289 48.6646 316.763 48.6646Z" fill="white"/>
<path opacity="0.63" d="M919.569 488.999C918.043 488.999 916.806 487.731 916.806 486.167C916.806 484.602 918.043 483.334 919.569 483.334C921.095 483.334 922.332 484.602 922.332 486.167C922.332 487.731 921.095 488.999 919.569 488.999Z" fill="white"/>
<path opacity="0.63" d="M954.233 719.381C952.707 719.381 951.469 718.113 951.469 716.549C951.469 714.984 952.707 713.716 954.233 713.716C955.759 713.716 956.996 714.984 956.996 716.549C956.996 718.113 955.759 719.381 954.233 719.381Z" fill="white"/>
<path opacity="0.63" d="M233.763 519.665C232.237 519.665 231 518.397 231 516.832C231 515.268 232.237 514 233.763 514C235.289 514 236.526 515.268 236.526 516.832C236.526 518.397 235.289 519.665 233.763 519.665Z" fill="white"/>
<path opacity="0.63" d="M288.763 419.664C287.237 419.664 286 418.396 286 416.832C286 415.268 287.237 414 288.763 414C290.289 414 291.526 415.268 291.526 416.832C291.526 418.396 290.289 419.664 288.763 419.664Z" fill="white"/>
<path opacity="0.63" d="M1435.76 50.6646C1434.24 50.6646 1433 49.3965 1433 47.8323C1433 46.2681 1434.24 45 1435.76 45C1437.29 45 1438.53 46.2681 1438.53 47.8323C1438.53 49.3965 1437.29 50.6646 1435.76 50.6646Z" fill="white"/>
</g>
<defs>
<linearGradient id="paint0_linear" x1="850.382" y1="461.802" x2="1207.43" y2="1496.93" gradientUnits="userSpaceOnUse">
<stop stop-color="#3B56D7" stop-opacity="0.8"/>
<stop offset="1" stop-color="#3B56D7" stop-opacity="0"/>
</linearGradient>
</defs>
</svg>
