<svg width="215" height="62" viewBox="0 0 215 62" fill="none" xmlns="http://www.w3.org/2000/svg">
<path d="M128.559 42.5156C128.559 45.9149 127.086 48.6635 123.651 48.6635C120.216 48.6635 118.732 45.9149 118.732 42.5156V30.9058H112.462V42.5156C112.462 49.2304 116.827 54.6655 123.618 54.6655C130.41 54.6655 134.823 49.2277 134.823 42.5156V30.8842H128.548L128.559 42.5156Z" fill="#2AA9E0"/>
<path d="M197.723 23.7999H191.474V54.0691H197.723V23.7999Z" fill="#2AA9E0"/>
<path d="M202.34 24.9177H204.124V29.7128H205.432V24.9177H207.213V23.8297H202.34V24.9177Z" fill="#2AA9E0"/>
<path d="M212.457 23.8297L211.141 27.8742H211.125L209.733 23.8297H207.895V29.7128H209.117V25.5846H209.133L210.587 29.7128H211.6L213.057 25.5414H213.071V29.7128H214.295V23.8297H212.457Z" fill="#2AA9E0"/>
<path d="M98.4254 34.9831C98.3579 35.1235 98.3552 35.2018 98.1146 35.1991C98.0586 35.1943 98.0061 35.1701 97.9661 35.1306C97.9261 35.0911 97.9012 35.0389 97.8957 34.9831L97.2282 30.9331H91.6285V54.0529H97.9038V41.5386C97.9038 40.5126 100.69 35.6121 106.084 36.8703C108.809 37.5102 109.965 38.6577 109.965 38.6577V31.6162C109.145 31.168 108.267 30.8372 107.355 30.6334C101.968 29.4022 98.5687 34.6861 98.4254 34.9831Z" fill="#2AA9E0"/>
<path d="M149.418 30.447C142.589 30.447 137.049 35.9279 137.049 42.6859V61.6666H143.34V53.3481V50.2296C143.34 50.2296 143.34 49.9839 143.575 49.9785C143.811 49.9731 143.824 50.1135 143.873 50.2296C144.348 51.4041 146.967 55.8698 152.791 54.4685C155.668 53.6898 158.162 51.8891 159.804 49.4042C161.447 46.9193 162.125 43.921 161.712 40.9719C161.299 38.0227 159.823 35.3255 157.561 33.3863C155.299 31.447 152.407 30.399 149.426 30.4389L149.418 30.447ZM149.418 48.8823C148.195 48.8706 147.002 48.4976 145.99 47.8102C144.978 47.1229 144.193 46.1519 143.732 45.0194C143.271 43.887 143.156 42.6437 143.401 41.446C143.646 40.2483 144.24 39.1498 145.108 38.2886C145.977 37.4274 147.081 36.842 148.281 36.6062C149.482 36.3704 150.725 36.4946 151.856 36.9632C152.986 37.4318 153.952 38.2239 154.632 39.2398C155.313 40.2557 155.677 41.45 155.68 42.6724C155.68 43.4904 155.518 44.3004 155.204 45.0557C154.89 45.8111 154.429 46.497 153.849 47.074C153.269 47.651 152.58 48.1078 151.822 48.4182C151.065 48.7285 150.253 48.8862 149.435 48.8823H149.418Z" fill="#2AA9E0"/>
<path d="M176.564 30.4473C169.73 30.4473 164.189 35.9282 164.189 42.6862C164.198 45.3636 165.083 47.9646 166.71 50.0921C168.337 52.2197 170.616 53.7568 173.2 54.4689C179.008 55.8701 181.626 51.4044 182.099 50.2299C182.151 50.1138 182.197 49.9788 182.399 49.9788C182.602 49.9788 182.634 50.2299 182.634 50.2299V54.0612H188.926V42.6862C188.909 39.4261 187.598 36.3059 185.28 34.011C182.963 31.7162 179.828 30.4344 176.564 30.4473ZM176.564 48.8826C175.341 48.8709 174.148 48.4979 173.136 47.8106C172.125 47.1232 171.339 46.1522 170.878 45.0197C170.417 43.8873 170.302 42.644 170.547 41.4463C170.792 40.2486 171.386 39.1501 172.254 38.2889C173.123 37.4277 174.227 36.8424 175.427 36.6065C176.628 36.3707 177.872 36.4949 179.002 36.9635C180.132 37.4321 181.098 38.2242 181.778 39.2401C182.459 40.256 182.824 41.4503 182.826 42.6727C182.824 43.4916 182.66 44.302 182.343 45.0575C182.027 45.8129 181.565 46.4987 180.983 47.0755C180.401 47.6523 179.711 48.1088 178.952 48.4189C178.194 48.7289 177.381 48.8866 176.562 48.8826H176.564Z" fill="#2AA9E0"/>
<path d="M72.4909 23.7867H64.8292V54.0263H71.9693C81.3471 54.0263 88.8008 52.2146 88.8008 38.9065C88.8008 25.4715 81.766 23.7867 72.4909 23.7867ZM73.7476 48.8343L71.1558 48.7694V29.0301H73.68C79.4635 29.0301 82.4849 29.84 82.4849 38.9011C82.4795 48.3564 79.0581 48.8343 73.7476 48.8343Z" fill="#2AA9E0"/>
<path d="M25.7599 38.2383C23.83 38.238 21.9433 38.8094 20.3385 39.8803C18.7336 40.9512 17.4827 42.4735 16.7439 44.2547C16.0051 46.0359 15.8116 47.996 16.1879 49.8871C16.5642 51.7781 17.4933 53.5152 18.8579 54.8787C20.2224 56.2422 21.961 57.1708 23.8538 57.5471C25.7466 57.9234 27.7086 57.7304 29.4917 56.9927C31.2747 56.2549 32.7987 55.0055 33.871 53.4024C34.9432 51.7993 35.5155 49.9145 35.5155 47.9864C35.5155 45.4014 34.4878 42.9222 32.6583 41.0941C30.8288 39.2661 28.3474 38.2388 25.7599 38.2383Z" fill="#2AA9E0"/>
<path d="M37.893 36.3782C39.5725 38.1281 40.8522 40.2209 41.6442 42.5125C42.4362 44.804 42.7216 47.2399 42.4806 49.6522C42.2396 52.0645 41.4781 54.396 40.2485 56.486C39.0189 58.576 37.3503 60.3749 35.3579 61.7587C43.4037 59.2796 50.0616 53.2382 53.0427 45.9192C57.1636 35.7959 53.3258 28.1719 46.8844 21.2671C47.5956 24.4563 47.061 27.7964 45.3899 30.605C43.7187 33.4136 41.0371 35.4786 37.893 36.3782Z" fill="#2AA9E0"/>
<path d="M26.8748 24.0326C26.8745 25.5072 27.3119 26.9489 28.1317 28.1752C28.9515 29.4016 30.1169 30.3575 31.4805 30.9221C32.8442 31.4867 34.3448 31.6346 35.7925 31.3471C37.2403 31.0596 38.5702 30.3497 39.6141 29.307C40.658 28.2644 41.369 26.9359 41.6571 25.4896C41.9452 24.0433 41.7975 22.5441 41.2327 21.1816C40.6679 19.8192 39.7114 18.6546 38.4841 17.8353C37.2568 17.016 35.8138 16.5787 34.3377 16.5787C32.3588 16.5787 30.4608 17.3639 29.0613 18.7618C27.6618 20.1596 26.8753 22.0555 26.8748 24.0326Z" fill="#2AA9E0"/>
<path d="M12.9078 58.788C10.9573 56.473 9.66985 53.6741 9.18166 50.6877C8.69347 47.7013 9.02276 44.6385 10.1347 41.8238C11.2466 39.0091 13.0997 36.5472 15.4978 34.6988C17.8959 32.8504 20.7497 31.6843 23.757 31.324C22.4279 29.397 21.6514 27.1436 21.5113 24.8075C21.3713 22.4715 21.8732 20.1416 22.9626 18.0699C24.0521 15.9981 25.6877 14.2633 27.6926 13.053C29.6975 11.8427 31.9954 11.203 34.3379 11.203C34.9154 11.2039 35.4922 11.2434 36.0644 11.3213C31.8602 7.69606 27.6652 4.01903 24.3529 0C26.0442 17.6031 8.30574 11.2067 1.74959 27.427C-2.65079 38.3102 1.31473 51.763 12.9078 58.788Z" fill="#2AA9E0"/>
</svg>
