<svg width="28" height="38" viewBox="0 0 28 38" fill="none" xmlns="http://www.w3.org/2000/svg">
<path d="M21.389 0H2.32268C1.04248 0 0 1.02809 0 2.2895V35.0435C0 36.3068 1.04248 37.3333 2.32268 37.3333H25.6772C26.9585 37.3333 28 36.3068 28 35.0435V7.07928L21.389 0ZM21.9372 3.42595L24.8349 6.52957H21.9372V3.42595ZM26.0492 35.0436C26.0492 35.2453 25.8817 35.4108 25.6761 35.4108H2.32268C2.1174 35.4108 1.95085 35.2453 1.95085 35.0436V2.2895C1.95085 2.08735 2.1174 1.92353 2.32268 1.92353H19.9854V7.49126C19.9854 8.02137 20.4235 8.45112 20.9618 8.45112H26.0492V35.0436Z" fill="black"/>
<path d="M0 24.8889H28V36.3334C28 36.8856 27.5523 37.3334 27 37.3334H1C0.447715 37.3334 0 36.8856 0 36.3334V24.8889Z" fill="#3B56D7"/>
<path d="M8.675 34V33.208C8.477 33.4793 8.22033 33.703 7.905 33.879C7.597 34.0477 7.256 34.132 6.882 34.132C6.53733 34.132 6.21833 34.0697 5.925 33.945C5.639 33.813 5.38967 33.6297 5.177 33.395C4.97167 33.153 4.81033 32.8597 4.693 32.515C4.57567 32.1703 4.517 31.7817 4.517 31.349C4.517 30.9237 4.572 30.5387 4.682 30.194C4.79933 29.8493 4.96067 29.556 5.166 29.314C5.37867 29.072 5.628 28.885 5.914 28.753C6.20733 28.621 6.53 28.555 6.882 28.555C7.24133 28.555 7.575 28.6393 7.883 28.808C8.19833 28.9693 8.46233 29.1967 8.675 29.49V26.663H9.5V34H8.675ZM7.08 33.395C7.41 33.395 7.72167 33.3143 8.015 33.153C8.30833 32.9917 8.52833 32.7937 8.675 32.559V30.15C8.52833 29.9153 8.30833 29.7137 8.015 29.545C7.72167 29.3763 7.41 29.292 7.08 29.292C6.816 29.292 6.57767 29.3433 6.365 29.446C6.15233 29.5487 5.97267 29.6917 5.826 29.875C5.67933 30.0583 5.56567 30.2783 5.485 30.535C5.41167 30.7843 5.375 31.0557 5.375 31.349C5.375 31.6423 5.41167 31.9137 5.485 32.163C5.56567 32.4123 5.67933 32.6287 5.826 32.812C5.97267 32.9953 6.15233 33.1383 6.365 33.241C6.57767 33.3437 6.816 33.395 7.08 33.395ZM13.4731 34.132C13.0698 34.132 12.7031 34.0587 12.3731 33.912C12.0505 33.7653 11.7755 33.5673 11.5481 33.318C11.3208 33.0613 11.1448 32.7643 11.0201 32.427C10.9028 32.0897 10.8441 31.7267 10.8441 31.338C10.8441 30.9567 10.9028 30.5973 11.0201 30.26C11.1448 29.9153 11.3208 29.6183 11.5481 29.369C11.7755 29.1197 12.0505 28.9217 12.3731 28.775C12.7031 28.6283 13.0698 28.555 13.4731 28.555C13.8765 28.555 14.2395 28.6283 14.5621 28.775C14.8921 28.9217 15.1708 29.1197 15.3981 29.369C15.6255 29.6183 15.7978 29.9153 15.9151 30.26C16.0398 30.5973 16.1021 30.9567 16.1021 31.338C16.1021 31.7267 16.0398 32.0897 15.9151 32.427C15.7978 32.7643 15.6255 33.0613 15.3981 33.318C15.1708 33.5673 14.8921 33.7653 14.5621 33.912C14.2395 34.0587 13.8765 34.132 13.4731 34.132ZM13.4731 33.395C13.7591 33.395 14.0085 33.34 14.2211 33.23C14.4411 33.1127 14.6245 32.9623 14.7711 32.779C14.9251 32.5883 15.0388 32.3683 15.1121 32.119C15.1928 31.8697 15.2331 31.6093 15.2331 31.338C15.2331 31.0667 15.1928 30.81 15.1121 30.568C15.0388 30.3187 14.9251 30.1023 14.7711 29.919C14.6245 29.7283 14.4411 29.578 14.2211 29.468C14.0085 29.3507 13.7591 29.292 13.4731 29.292C13.1871 29.292 12.9341 29.3507 12.7141 29.468C12.4941 29.578 12.3071 29.7283 12.1531 29.919C12.0065 30.1023 11.8928 30.3187 11.8121 30.568C11.7388 30.81 11.7021 31.0667 11.7021 31.338C11.7021 31.6093 11.7388 31.8697 11.8121 32.119C11.8928 32.3683 12.0065 32.5883 12.1531 32.779C12.3071 32.9623 12.4941 33.1127 12.7141 33.23C12.9341 33.34 13.1871 33.395 13.4731 33.395ZM19.7901 34.132C19.3941 34.132 19.0311 34.0623 18.7011 33.923C18.3784 33.7763 18.0997 33.5783 17.8651 33.329C17.6377 33.0797 17.4581 32.7863 17.3261 32.449C17.2014 32.1043 17.1391 31.734 17.1391 31.338C17.1391 30.942 17.2014 30.5753 17.3261 30.238C17.4581 29.9007 17.6377 29.6073 17.8651 29.358C18.0997 29.1087 18.3784 28.9143 18.7011 28.775C19.0311 28.6283 19.3941 28.555 19.7901 28.555C20.2741 28.555 20.6664 28.643 20.9671 28.819C21.2751 28.995 21.5317 29.215 21.7371 29.479L21.1871 29.985C21.0111 29.743 20.8094 29.567 20.5821 29.457C20.3621 29.347 20.1127 29.292 19.8341 29.292C19.5481 29.292 19.2914 29.3433 19.0641 29.446C18.8441 29.5487 18.6534 29.6917 18.4921 29.875C18.3307 30.0583 18.2061 30.2747 18.1181 30.524C18.0374 30.7733 17.9971 31.0447 17.9971 31.338C17.9971 31.6313 18.0374 31.9063 18.1181 32.163C18.2061 32.4123 18.3307 32.6287 18.4921 32.812C18.6534 32.9953 18.8441 33.1383 19.0641 33.241C19.2914 33.3437 19.5481 33.395 19.8341 33.395C20.3914 33.395 20.8424 33.164 21.1871 32.702L21.7371 33.208C21.5317 33.472 21.2751 33.692 20.9671 33.868C20.6664 34.044 20.2741 34.132 19.7901 34.132Z" fill="white"/>
</svg>
