<svg width="215" height="44" viewBox="0 0 215 44" fill="none" xmlns="http://www.w3.org/2000/svg">
<path d="M66.3056 9.06274V26.8922C66.3056 28.4872 66.4195 29.9683 64.9954 31.0506C63.6853 32.1329 61.4637 32.4746 59.0712 32.4746C55.4256 32.4746 51.5521 31.6202 51.5521 31.6202L50.6976 33.8987C50.6976 33.8987 56.1092 35.038 60.0396 35.0949C63.3435 35.1519 66.2486 34.4114 67.8436 32.5886C69.1537 31.1075 69.5525 29.3986 69.4955 26.4935V9.06274H66.3056Z" fill="#3B3A40"/>
<path d="M92.9076 18.9359C90.5152 17.6258 87.6101 16.9422 84.3062 16.9422C81.0593 16.9422 78.1542 17.6258 75.7048 18.9359C72.6287 20.5878 71.0907 23.0373 71.0907 26.1133C71.0907 29.1893 72.6287 31.6387 75.7048 33.2907C78.1542 34.6008 81.0023 35.2844 84.3062 35.2844C87.5531 35.2844 90.4582 34.6008 92.8507 33.2907C95.9267 31.6387 97.4647 29.1893 97.4647 26.1133C97.4647 22.9803 95.9267 20.5878 92.9076 18.9359ZM91.0279 31.4678C89.1481 32.5501 86.9265 33.0628 84.3062 33.0628C81.6289 33.0628 79.3504 32.5501 77.5276 31.5248C75.306 30.2716 74.2237 28.5057 74.2237 26.1133C74.2237 23.7778 75.363 21.955 77.5276 20.7018C79.3504 19.6764 81.6289 19.1638 84.3062 19.1638C86.9265 19.1638 89.205 19.6764 91.0848 20.7018C93.2494 21.955 94.3887 23.7778 94.3887 26.1133C94.3317 28.3918 93.2494 30.2146 91.0279 31.4678Z" fill="#3B3A40"/>
<path d="M120.934 18.9359C118.541 17.6258 115.636 16.9422 112.332 16.9422C109.085 16.9422 106.18 17.6258 103.731 18.9359C100.655 20.5878 99.1169 23.0373 99.1169 26.1133C99.1169 29.1893 100.655 31.6387 103.731 33.2907C106.18 34.6008 109.028 35.2844 112.332 35.2844C115.579 35.2844 118.484 34.6008 120.877 33.2907C123.953 31.6387 125.491 29.1893 125.491 26.1133C125.491 22.9803 123.953 20.5878 120.934 18.9359ZM119.054 31.4678C117.174 32.5501 114.953 33.0628 112.332 33.0628C109.655 33.0628 107.377 32.5501 105.554 31.5248C103.332 30.2716 102.25 28.5057 102.25 26.1133C102.25 23.7778 103.389 21.955 105.554 20.7018C107.377 19.6764 109.655 19.1638 112.332 19.1638C114.953 19.1638 117.231 19.6764 119.111 20.7018C121.276 21.955 122.415 23.7778 122.415 26.1133C122.358 28.3918 121.276 30.2146 119.054 31.4678Z" fill="#3B3A40"/>
<path d="M159.611 18.4802C157.902 17.4549 155.68 16.9422 153.06 16.9422C149.699 16.9422 147.022 17.9675 144.971 20.0182C143.035 17.9675 140.3 16.9422 136.94 16.9422C134.205 16.9422 131.984 17.5118 130.275 18.5941C130.275 18.1954 130.275 17.1701 130.275 17.1701H127.256V34.8856H130.275V22.8094C130.503 21.955 131.072 21.1575 131.984 20.4739C133.237 19.6195 134.832 19.1638 136.826 19.1638C138.591 19.1638 140.072 19.5055 141.326 20.2461C142.807 21.1005 143.49 22.2398 143.49 23.8348V34.9995H146.452V23.7778C146.452 22.1828 147.136 21.0436 148.617 20.1891C149.87 19.5055 151.408 19.1068 153.174 19.1068C154.94 19.1068 156.478 19.4486 157.731 20.1891C159.212 21.0436 159.896 22.1828 159.896 23.7778V34.9426H162.915V24.1765C162.858 21.6702 161.718 19.7334 159.611 18.4802Z" fill="#3B3A40"/>
<path d="M165.25 9.08051V34.9418H168.269V9.08051H165.25Z" fill="#3B3A40"/>
<path d="M201.936 9.08051V29.0746H204.955V9.08051H201.936Z" fill="#3B3A40"/>
<path d="M194.016 17.1707C194.016 17.1707 194.016 19.6201 194.016 20.1897C191.452 18.0251 188.035 16.8859 183.819 16.8859C180.458 16.8859 177.553 17.5125 175.161 18.8226C172.199 20.4745 170.661 22.867 170.661 26.0569C170.661 29.1899 172.199 31.6393 175.275 33.2343C177.667 34.5445 180.572 35.1711 183.933 35.1711C185.585 35.1711 187.237 35.0002 188.718 34.6014C190.826 34.0318 192.592 33.2343 193.959 32.152C193.959 32.7786 193.959 34.8862 193.959 34.8862H196.978V17.1707H194.016ZM173.851 26.1139C173.851 23.7784 174.99 21.9556 177.155 20.7024C178.977 19.6771 181.313 19.1644 183.99 19.1644C187.294 19.1644 189.857 19.9619 191.68 21.5568C193.275 22.9809 194.073 24.8038 194.073 27.0253C194.073 27.0253 194.073 28.9621 194.073 29.133C192.819 30.557 190.94 31.6393 188.547 32.3799C187.123 32.8356 185.585 33.0634 183.99 33.0634C181.256 33.0634 178.977 32.5508 177.155 31.5824C174.933 30.2722 173.851 28.5064 173.851 26.1139Z" fill="#3B3A40"/>
<path d="M203.475 31.5828C201.367 31.5828 201.082 32.6651 201.082 33.3487C201.082 34.0323 201.424 35.1146 203.475 35.1146C205.582 35.1146 205.867 33.9753 205.867 33.3487C205.867 32.7221 205.525 31.5828 203.475 31.5828Z" fill="#3B3A40"/>
<path d="M214.295 12.271C214.295 14.0369 213.156 15.5179 211.105 15.5179C209.055 15.5179 207.915 14.0369 207.915 12.271C207.915 10.5052 209.055 9.02411 211.105 9.02411C213.156 9.02411 214.295 10.5052 214.295 12.271ZM208.599 12.271C208.599 13.7521 209.51 14.8913 211.105 14.8913C212.7 14.8913 213.612 13.7521 213.612 12.271C213.612 10.79 212.7 9.6507 211.105 9.6507C209.51 9.6507 208.599 10.79 208.599 12.271ZM211.732 12.6697C212.985 12.4419 212.871 10.5621 211.447 10.5621H209.909V13.866H210.536V12.7267H211.105L212.017 13.866H212.7V13.752L211.732 12.6697ZM211.447 11.1317C212.188 11.1317 212.188 12.214 211.447 12.214H210.536V11.1317H211.447Z" fill="#3B3A40"/>
<path d="M7.63307 22.128L6.83559 21.3305C4.27224 18.7671 3.53172 15.1785 4.44313 11.9316C1.87979 11.3619 0 9.08339 0 6.34915C0 3.21618 2.56335 0.652832 5.69632 0.652832C8.54449 0.652832 10.88 2.70351 11.3357 5.43774C14.4117 4.69722 17.7725 5.55167 20.165 7.94412L20.5068 8.2859L16.2915 12.5012L15.9497 12.1594C14.5826 10.7923 12.361 10.7923 10.9939 12.1594C9.62679 13.5265 9.62679 15.7481 10.9939 17.1152L20.4498 26.5711L16.2345 30.7864L11.7914 26.3432L7.63307 22.128Z" fill="#7AC143"/>
<path d="M12.3639 17.4559L16.807 13.0127L21.0223 8.79746L21.8198 7.99998C24.3262 5.49359 27.9718 4.69611 31.1618 5.60752C31.5605 2.81632 33.953 0.708679 36.8011 0.708679C39.9341 0.708679 42.4974 3.27203 42.4974 6.405C42.4974 9.31013 40.3328 11.7026 37.5416 12.0444C38.4531 15.2343 37.6556 18.823 35.1492 21.3294L34.8074 21.6712L30.7061 17.4559L31.0478 17.1141C32.415 15.747 32.415 13.5254 31.0478 12.1583C29.6807 10.7912 27.4592 10.7912 26.092 12.1583L25.2945 12.9558L21.0793 17.1711L16.6361 21.6142L12.3639 17.4559Z" fill="#F9A541"/>
<path d="M31.3296 38.7029C28.0827 39.6713 24.437 38.9307 21.8737 36.3674L21.5319 36.0256L25.7472 31.8103L26.089 32.1521C27.4561 33.5192 29.6776 33.5192 31.0448 32.1521C32.4119 30.785 32.4119 28.5634 31.0448 27.1963L30.2473 26.3988L26.032 22.1836L21.5889 17.7404L25.8041 13.5251L35.317 23.038C37.7095 25.4305 38.5639 28.8483 37.8234 31.9812C40.6146 32.38 42.7222 34.7724 42.7222 37.6206C42.7222 40.7536 40.1589 43.3169 37.0259 43.3169C34.1777 43.2599 31.8422 41.2662 31.3296 38.7029Z" fill="#F44321"/>
<path d="M29.6785 26.8572L25.2354 31.3004L21.0201 35.5157L20.2226 36.3131C17.7732 38.7626 14.3554 39.56 11.2794 38.8195C10.7097 41.3829 8.43121 43.2627 5.69697 43.2627C2.56399 43.2627 0.000648499 40.6993 0.000648499 37.5663C0.000648499 34.8891 1.88044 32.6105 4.38682 32.0409C3.58933 28.851 4.38682 25.4332 6.83624 22.9837L7.17802 22.642L11.3933 26.8572L11.0515 27.199C9.6844 28.5661 9.6844 30.7877 11.0515 32.1548C12.4186 33.5219 14.6402 33.5219 16.0073 32.1548L16.8048 31.3573L21.0201 27.1421L25.4632 22.6989L29.6785 26.8572Z" fill="#5091CD"/>
</svg>
