<svg width="1680" height="739" viewBox="0 0 1680 739" fill="none" xmlns="http://www.w3.org/2000/svg">
<g opacity="0.63">
<path opacity="0.63" d="M1503.76 5.66458C1502.24 5.66458 1501 4.39655 1501 2.83231C1501 1.26808 1502.24 0 1503.76 0C1505.29 0 1506.53 1.26808 1506.53 2.83231C1506.53 4.39655 1505.29 5.66458 1503.76 5.66458Z" fill="white"/>
<path opacity="0.63" d="M1289.76 114.665C1288.24 114.665 1287 113.397 1287 111.832C1287 110.268 1288.24 109 1289.76 109C1291.29 109 1292.53 110.268 1292.53 111.832C1292.53 113.397 1291.29 114.665 1289.76 114.665Z" fill="white"/>
<path opacity="0.63" d="M1094.19 265.965C1092.66 265.965 1091.42 264.697 1091.42 263.132C1091.42 261.568 1092.66 260.3 1094.19 260.3C1095.71 260.3 1096.95 261.568 1096.95 263.132C1096.95 264.697 1095.71 265.965 1094.19 265.965Z" fill="white"/>
<path opacity="0.63" d="M1021.21 374.3C1019.69 374.3 1018.45 373.032 1018.45 371.468C1018.45 369.904 1019.69 368.636 1021.21 368.636C1022.74 368.636 1023.97 369.904 1023.97 371.468C1023.97 373.032 1022.74 374.3 1021.21 374.3Z" fill="white"/>
<path opacity="0.63" d="M920.35 277.746C918.824 277.746 917.587 276.478 917.587 274.914C917.587 273.349 918.824 272.081 920.35 272.081C921.876 272.081 923.113 273.349 923.113 274.914C923.113 276.478 921.876 277.746 920.35 277.746Z" fill="white"/>
<path opacity="0.63" d="M779.235 190.107C777.709 190.107 776.471 188.839 776.471 187.274C776.471 185.71 777.709 184.442 779.235 184.442C780.761 184.442 781.998 185.71 781.998 187.274C781.998 188.839 780.761 190.107 779.235 190.107Z" fill="white"/>
<path opacity="0.63" d="M423.239 134.777C421.712 134.777 420.475 133.509 420.475 131.945C420.475 130.38 421.712 129.112 423.239 129.112C424.765 129.112 426.002 130.38 426.002 131.945C426.002 133.509 424.765 134.777 423.239 134.777Z" fill="white"/>
<path opacity="0.63" d="M906 735.832C906 736.392 906.162 736.94 906.465 737.406C906.769 737.872 907.201 738.235 907.706 738.449C908.211 738.663 908.766 738.719 909.302 738.61C909.838 738.501 910.33 738.231 910.717 737.835C911.103 737.439 911.367 736.934 911.473 736.385C911.58 735.835 911.525 735.266 911.316 734.748C911.107 734.231 910.753 733.789 910.298 733.477C909.844 733.166 909.31 733 908.763 733C908.03 733 907.327 733.298 906.809 733.83C906.291 734.361 906 735.081 906 735.832Z" fill="white"/>
<path opacity="0.63" d="M290.763 114.665C289.237 114.665 288 113.397 288 111.832C288 110.268 289.237 109 290.763 109C292.29 109 293.527 110.268 293.527 111.832C293.527 113.397 292.29 114.665 290.763 114.665Z" fill="white"/>
<path opacity="0.63" d="M185.881 119.999C184.355 119.999 183.118 118.731 183.118 117.167C183.118 115.603 184.355 114.335 185.881 114.335C187.407 114.335 188.645 115.603 188.645 117.167C188.645 118.731 187.407 119.999 185.881 119.999Z" fill="white"/>
<path opacity="0.63" d="M137.586 283.307C136.06 283.307 134.823 282.039 134.823 280.474C134.823 278.91 136.06 277.642 137.586 277.642C139.112 277.642 140.35 278.91 140.35 280.474C140.35 282.039 139.112 283.307 137.586 283.307Z" fill="white"/>
<path opacity="0.63" d="M265.955 452.601C264.429 452.601 263.192 451.333 263.192 449.768C263.192 448.204 264.429 446.936 265.955 446.936C267.482 446.936 268.719 448.204 268.719 449.768C268.719 451.333 267.482 452.601 265.955 452.601Z" fill="white"/>
<path opacity="0.63" d="M83.9536 651.438C82.4275 651.438 81.1903 650.17 81.1903 648.605C81.1903 647.041 82.4275 645.773 83.9536 645.773C85.4798 645.773 86.7168 647.041 86.7168 648.605C86.7168 650.17 85.4798 651.438 83.9536 651.438Z" fill="white"/>
<path opacity="0.63" d="M3.50607 471.075C1.97986 471.075 0.742805 469.807 0.742805 468.242C0.742805 466.678 1.97986 465.41 3.50607 465.41C5.03228 465.41 6.26953 466.678 6.26953 468.242C6.26953 469.807 5.03228 471.075 3.50607 471.075Z" fill="white"/>
<path opacity="0.63" d="M93.8758 348.384C93.8758 348.944 94.0379 349.492 94.3415 349.958C94.6452 350.424 95.0766 350.787 95.5815 351.001C96.0865 351.215 96.6422 351.271 97.1782 351.162C97.7142 351.053 98.2066 350.783 98.593 350.387C98.9795 349.991 99.2427 349.486 99.3493 348.937C99.4559 348.387 99.4011 347.818 99.1919 347.3C98.9828 346.783 98.6287 346.341 98.1742 346.029C97.7198 345.718 97.1856 345.552 96.6391 345.552C95.9062 345.552 95.2034 345.85 94.6852 346.382C94.167 346.913 93.8758 347.633 93.8758 348.384Z" fill="white"/>
<path opacity="0.63" d="M288.375 228.594C286.849 228.594 285.612 227.326 285.612 225.762C285.612 224.197 286.849 222.929 288.375 222.929C289.902 222.929 291.139 224.197 291.139 225.762C291.139 227.326 289.902 228.594 288.375 228.594Z" fill="white"/>
<path opacity="0.63" d="M729.763 120.673C728.237 120.673 727 119.405 727 117.841C727 116.276 728.237 115.008 729.763 115.008C731.29 115.008 732.527 116.276 732.527 117.841C732.527 119.405 731.29 120.673 729.763 120.673Z" fill="white"/>
<path opacity="0.63" d="M257 512.832C257 513.392 257.162 513.94 257.466 514.406C257.769 514.872 258.201 515.235 258.706 515.449C259.211 515.663 259.766 515.719 260.302 515.61C260.838 515.501 261.331 515.231 261.717 514.835C262.104 514.439 262.367 513.934 262.473 513.385C262.58 512.835 262.525 512.266 262.316 511.748C262.107 511.231 261.753 510.789 261.298 510.477C260.844 510.166 260.31 510 259.763 510C259.03 510 258.327 510.298 257.809 510.83C257.291 511.361 257 512.081 257 512.832Z" fill="white"/>
<path opacity="0.63" d="M223 709.832C223 710.392 223.162 710.94 223.465 711.406C223.769 711.872 224.201 712.235 224.706 712.449C225.211 712.663 225.766 712.719 226.302 712.61C226.838 712.501 227.331 712.231 227.717 711.835C228.103 711.439 228.367 710.934 228.473 710.385C228.58 709.835 228.525 709.266 228.316 708.748C228.107 708.231 227.753 707.789 227.298 707.477C226.844 707.166 226.31 707 225.763 707C225.03 707 224.327 707.298 223.809 707.83C223.291 708.361 223 709.081 223 709.832Z" fill="white"/>
<path opacity="0.63" d="M747.473 359.412C747.474 359.975 747.637 360.525 747.944 360.992C748.25 361.459 748.686 361.822 749.194 362.034C749.703 362.247 750.262 362.299 750.799 362.184C751.337 362.07 751.829 361.793 752.213 361.391C752.597 360.988 752.855 360.478 752.954 359.924C753.054 359.371 752.99 358.799 752.771 358.283C752.552 357.767 752.188 357.329 751.726 357.026C751.263 356.722 750.723 356.567 750.174 356.58C749.452 356.597 748.765 356.902 748.26 357.432C747.756 357.961 747.473 358.672 747.473 359.412Z" fill="white"/>
<path opacity="0.63" d="M1018.23 223.919C1016.71 223.919 1015.47 222.651 1015.47 221.087C1015.47 219.523 1016.71 218.255 1018.23 218.255C1019.76 218.255 1021 219.523 1021 221.087C1021 222.651 1019.76 223.919 1018.23 223.919Z" fill="white"/>
<path opacity="0.63" d="M1403.6 267.484C1402.07 267.484 1400.83 266.216 1400.83 264.652C1400.83 263.087 1402.07 261.819 1403.6 261.819C1405.12 261.819 1406.36 263.087 1406.36 264.652C1406.36 266.216 1405.12 267.484 1403.6 267.484Z" fill="white"/>
<path opacity="0.63" d="M1433.32 185.205C1431.79 185.205 1430.55 183.937 1430.55 182.372C1430.55 180.808 1431.79 179.54 1433.32 179.54C1434.84 179.54 1436.08 180.808 1436.08 182.372C1436.08 183.937 1434.84 185.205 1433.32 185.205Z" fill="white"/>
<path opacity="0.63" d="M1495.03 84.4065C1494.97 84.8098 1495 85.2216 1495.11 85.6137C1495.22 86.0058 1495.41 86.369 1495.67 86.6783C1495.93 86.9877 1496.25 87.236 1496.61 87.4062C1496.97 87.5764 1497.37 87.6646 1497.76 87.6646C1498.16 87.6646 1498.55 87.5764 1498.92 87.4062C1499.28 87.236 1499.6 86.9877 1499.86 86.6783C1500.12 86.369 1500.31 86.0058 1500.42 85.6137C1500.53 85.2216 1500.55 84.8098 1500.5 84.4065C1500.4 83.7368 1500.07 83.1258 1499.56 82.6843C1499.06 82.2428 1498.42 82 1497.76 82C1497.1 82 1496.46 82.2428 1495.96 82.6843C1495.46 83.1258 1495.13 83.7368 1495.03 84.4065Z" fill="white"/>
<path opacity="0.63" d="M1569.22 119.163C1567.7 119.163 1566.46 117.895 1566.46 116.331C1566.46 114.767 1567.7 113.499 1569.22 113.499C1570.75 113.499 1571.99 114.767 1571.99 116.331C1571.99 117.895 1570.75 119.163 1569.22 119.163Z" fill="white"/>
<path opacity="0.63" d="M763.763 725.665C762.237 725.665 761 724.397 761 722.832C761 721.268 762.237 720 763.763 720C765.29 720 766.527 721.268 766.527 722.832C766.527 724.397 765.29 725.665 763.763 725.665Z" fill="white"/>
<path opacity="0.63" d="M938.5 539.411C936.974 539.411 935.737 538.143 935.737 536.578C935.737 535.014 936.974 533.746 938.5 533.746C940.026 533.746 941.264 535.014 941.264 536.578C941.264 538.143 940.026 539.411 938.5 539.411Z" fill="white"/>
<path opacity="0.63" d="M1069.69 473.044C1068.17 473.044 1066.93 471.776 1066.93 470.212C1066.93 468.648 1068.17 467.38 1069.69 467.38C1071.22 467.38 1072.46 468.648 1072.46 470.212C1072.46 471.776 1071.22 473.044 1069.69 473.044Z" fill="white"/>
<path opacity="0.63" d="M961.612 539.278C960.086 539.278 958.849 538.01 958.849 536.446C958.849 534.882 960.086 533.614 961.612 533.614C963.138 533.614 964.375 534.882 964.375 536.446C964.375 538.01 963.138 539.278 961.612 539.278Z" fill="white"/>
<path opacity="0.63" d="M1071.08 563.871C1069.55 563.871 1068.32 562.603 1068.32 561.038C1068.32 559.474 1069.55 558.206 1071.08 558.206C1072.6 558.206 1073.84 559.474 1073.84 561.038C1073.84 562.603 1072.6 563.871 1071.08 563.871Z" fill="white"/>
<path opacity="0.63" d="M1156.49 725.361C1154.96 725.361 1153.73 724.093 1153.73 722.529C1153.73 720.965 1154.96 719.697 1156.49 719.697C1158.02 719.697 1159.25 720.965 1159.25 722.529C1159.25 724.093 1158.02 725.361 1156.49 725.361Z" fill="white"/>
<path opacity="0.63" d="M1676.24 42.5605C1674.71 42.5605 1673.48 41.2925 1673.48 39.7283C1673.48 38.164 1674.71 36.896 1676.24 36.896C1677.76 36.896 1679 38.164 1679 39.7283C1679 41.2925 1677.76 42.5605 1676.24 42.5605Z" fill="white"/>
<path opacity="0.63" d="M1412.22 51.3821C1410.69 51.3821 1409.45 50.114 1409.45 48.5498C1409.45 46.9856 1410.69 45.7175 1412.22 45.7175C1413.74 45.7175 1414.98 46.9856 1414.98 48.5498C1414.98 50.114 1413.74 51.3821 1412.22 51.3821Z" fill="white"/>
<path opacity="0.63" d="M1527.23 300.766C1525.71 300.766 1524.47 299.498 1524.47 297.934C1524.47 296.37 1525.71 295.102 1527.23 295.102C1528.76 295.102 1530 296.37 1530 297.934C1530 299.498 1528.76 300.766 1527.23 300.766Z" fill="white"/>
<path opacity="0.63" d="M1406.75 100.881C1405.23 100.881 1403.99 99.6127 1403.99 98.0485C1403.99 96.4843 1405.23 95.2162 1406.75 95.2162C1408.28 95.2162 1409.52 96.4843 1409.52 98.0485C1409.52 99.6127 1408.28 100.881 1406.75 100.881Z" fill="white"/>
<path opacity="0.63" d="M696.474 66.3694C696.474 66.9323 696.637 67.4823 696.944 67.9494C697.25 68.4165 697.686 68.7793 698.195 68.9917C698.703 69.204 699.262 69.2562 699.799 69.1416C700.337 69.027 700.829 68.7508 701.213 68.3482C701.597 67.9457 701.855 67.435 701.954 66.8814C702.054 66.3278 701.99 65.7564 701.771 65.2402C701.552 64.7239 701.189 64.2861 700.726 63.9828C700.263 63.6795 699.723 63.5243 699.174 63.5371C698.452 63.5539 697.765 63.8597 697.261 64.3891C696.756 64.9184 696.473 65.6292 696.474 66.3694Z" fill="white"/>
<path opacity="0.63" d="M918.235 120.226C916.709 120.226 915.472 118.958 915.472 117.393C915.472 115.829 916.709 114.561 918.235 114.561C919.761 114.561 920.998 115.829 920.998 117.393C920.998 118.958 919.761 120.226 918.235 120.226Z" fill="white"/>
<path opacity="0.63" d="M343 71.8323C343 72.3925 343.162 72.9401 343.466 73.4058C343.769 73.8716 344.201 74.2346 344.706 74.449C345.211 74.6633 345.766 74.7194 346.302 74.6102C346.838 74.5009 347.331 74.2311 347.717 73.835C348.104 73.4389 348.367 72.9342 348.473 72.3848C348.58 71.8354 348.525 71.266 348.316 70.7484C348.107 70.2309 347.753 69.7885 347.298 69.4773C346.844 69.1661 346.31 69 345.763 69C345.03 69 344.328 69.2984 343.809 69.8296C343.291 70.3607 343 71.0811 343 71.8323Z" fill="white"/>
<path opacity="0.63" d="M68.8128 60.4571C67.2867 60.4571 66.0494 59.1891 66.0494 57.6249C66.0494 56.0606 67.2867 54.7926 68.8128 54.7926C70.339 54.7926 71.5762 56.0606 71.5762 57.6249C71.5762 59.1891 70.339 60.4571 68.8128 60.4571Z" fill="white"/>
<path opacity="0.63" d="M62.0413 137.055C60.5152 137.055 59.278 135.787 59.278 134.223C59.278 132.658 60.5152 131.39 62.0413 131.39C63.5675 131.39 64.8047 132.658 64.8047 134.223C64.8047 135.787 63.5675 137.055 62.0413 137.055Z" fill="white"/>
<path opacity="0.63" d="M99.2741 175.939C99.2741 176.499 99.4361 177.046 99.7398 177.512C100.043 177.978 100.475 178.341 100.98 178.555C101.485 178.77 102.041 178.826 102.577 178.716C103.113 178.607 103.605 178.337 103.991 177.941C104.378 177.545 104.641 177.04 104.748 176.491C104.854 175.942 104.8 175.372 104.59 174.855C104.381 174.337 104.027 173.895 103.573 173.584C103.118 173.272 102.584 173.106 102.037 173.106C101.305 173.106 100.602 173.405 100.083 173.936C99.5652 174.467 99.2741 175.187 99.2741 175.939Z" fill="white"/>
<path opacity="0.63" d="M15.7634 277.665C14.2372 277.665 13 276.396 13 274.832C13 273.268 14.2372 272 15.7634 272C17.2895 272 18.5267 273.268 18.5267 274.832C18.5267 276.396 17.2895 277.665 15.7634 277.665Z" fill="white"/>
<path opacity="0.63" d="M8.90461 181.279C7.37845 181.279 6.14124 180.011 6.14124 178.447C6.14124 176.882 7.37845 175.614 8.90461 175.614C10.4308 175.614 11.668 176.882 11.668 178.447C11.668 180.011 10.4308 181.279 8.90461 181.279Z" fill="white"/>
<path opacity="0.63" d="M441.031 63.2581C441.131 63.9278 441.461 64.5388 441.962 64.9803C442.463 65.4218 443.102 65.6646 443.763 65.6646C444.424 65.6646 445.063 65.4218 445.564 64.9803C446.066 64.5388 446.396 63.9278 446.495 63.2581C446.555 62.8548 446.529 62.443 446.419 62.0509C446.31 61.6588 446.118 61.2956 445.859 60.9862C445.6 60.6769 445.278 60.4286 444.916 60.2583C444.555 60.0881 444.161 60 443.763 60C443.365 60 442.972 60.0881 442.61 60.2583C442.249 60.4286 441.927 60.6769 441.668 60.9862C441.408 61.2956 441.217 61.6588 441.107 62.0509C440.997 62.443 440.972 62.8548 441.031 63.2581Z" fill="white"/>
<path opacity="0.63" d="M219.763 6.66458C218.237 6.66458 217 5.39653 217 3.8323C217 2.26807 218.237 1 219.763 1C221.289 1 222.526 2.26807 222.526 3.8323C222.526 5.39653 221.289 6.66458 219.763 6.66458Z" fill="white"/>
<path opacity="0.63" d="M822.569 446.999C821.043 446.999 819.806 445.731 819.806 444.167C819.806 442.602 821.043 441.334 822.569 441.334C824.095 441.334 825.332 442.602 825.332 444.167C825.332 445.731 824.095 446.999 822.569 446.999Z" fill="white"/>
<path opacity="0.63" d="M857.233 677.381C855.707 677.381 854.469 676.113 854.469 674.549C854.469 672.984 855.707 671.716 857.233 671.716C858.759 671.716 859.996 672.984 859.996 674.549C859.996 676.113 858.759 677.381 857.233 677.381Z" fill="white"/>
<path opacity="0.63" d="M136.763 477.665C135.237 477.665 134 476.397 134 474.832C134 473.268 135.237 472 136.763 472C138.289 472 139.526 473.268 139.526 474.832C139.526 476.397 138.289 477.665 136.763 477.665Z" fill="white"/>
<path opacity="0.63" d="M191.763 377.664C190.237 377.664 189 376.396 189 374.832C189 373.268 190.237 372 191.763 372C193.289 372 194.526 373.268 194.526 374.832C194.526 376.396 193.289 377.664 191.763 377.664Z" fill="white"/>
<path opacity="0.63" d="M1338.76 8.66458C1337.24 8.66458 1336 7.39655 1336 5.83231C1336 4.26808 1337.24 3 1338.76 3C1340.29 3 1341.53 4.26808 1341.53 5.83231C1341.53 7.39655 1340.29 8.66458 1338.76 8.66458Z" fill="white"/>
</g>
</svg>
