<svg width="47" height="71" viewBox="0 0 47 71" fill="none" xmlns="http://www.w3.org/2000/svg">
<path d="M46.7162 23.3581C46.7162 44.8475 28.0297 70.775 23.3581 70.775C18.92 70.775 0 43.446 0 23.3581C0 10.4578 10.4578 0 23.3581 0C36.2584 0 46.7162 10.4578 46.7162 23.3581Z" fill="#363D43"/>
<path d="M36.4197 37.1604C36.4036 37.1048 36.3953 37.0473 36.3952 36.9894L24.9732 11.1387C24.9364 11.1387 24.8833 11.045 24.8179 10.8578C24.7374 10.647 24.6432 10.4417 24.5359 10.2432C24.4112 10.0181 24.2558 9.81124 24.0741 9.62855C23.9825 9.53634 23.8728 9.46384 23.7519 9.41553C23.631 9.36722 23.5015 9.34413 23.3712 9.3477C23.1999 9.33134 23.0273 9.36037 22.8708 9.43185C22.7144 9.50333 22.5797 9.61472 22.4804 9.75473C22.3323 9.97686 22.1959 10.2065 22.0717 10.4426C21.9532 10.6706 21.851 10.9066 21.7529 11.1468L10.335 36.9894C10.3334 37.0475 10.3238 37.105 10.3064 37.1604C10.2874 37.2098 10.2777 37.2622 10.2778 37.3151C10.2778 37.6529 10.5189 37.8198 11.0052 37.8198H22.37V31.5962H19.8282L23.3712 21.3186L26.9388 31.584H24.3561V37.8401H35.7087C36.195 37.8401 36.4361 37.6732 36.4361 37.3354C36.4428 37.2766 36.4372 37.217 36.4197 37.1604Z" fill="white"/>
</svg>
