<svg width="215" height="42" viewBox="0 0 215 42" fill="none" xmlns="http://www.w3.org/2000/svg">
<path d="M50.9372 17.5617H53.8235V32.0909H58.7018V13.22H50.9372V17.5617ZM62.0028 22.6514C62.0028 28.6924 66.068 32.6356 71.6537 32.6356C73.4575 32.7055 75.2387 32.2141 76.7515 31.2291V25.8629C76.1795 26.4864 75.4883 26.9889 74.7189 27.3408C73.9495 27.6927 73.1173 27.8868 72.2716 27.9118C69.2552 27.9118 67.4421 25.6759 67.4421 22.814C67.4421 19.7163 69.3609 17.3991 72.2716 17.3991C73.1392 17.4246 73.9904 17.6411 74.7648 18.0332C75.5391 18.4252 76.2175 18.9833 76.7515 19.6675V14.1875C75.2018 13.1798 73.3883 12.6536 71.5398 12.6753C66.4502 12.6753 62.0028 16.3421 62.0028 22.6514ZM99.6388 20.5781H96.8663V17.7487H105.517V13.22H91.5815V32.0909H99.6388C101.013 32.0909 107.054 32.1478 107.054 26.2451C107.054 20.5537 101.07 20.5781 99.6388 20.5781ZM99.1266 28.3183H96.8663V24.3913H99.1266C100.802 24.3913 101.769 24.8791 101.769 26.367C101.769 27.8549 100.81 28.3183 99.1266 28.3183ZM114.875 24.5458V13.22H109.753V32.0909H114.932L122.25 20.7651V32.0909H127.348V13.22H122.177L114.875 24.5458ZM129.51 17.7487H133.657V32.0909H138.942V17.7487H143.088V13.22H129.518L129.51 17.7487ZM153.211 13.22H145.251V32.0909H150.544V25.8629H153.211C158.544 25.8629 160.089 22.1392 160.089 19.5293C160.089 16.9194 158.585 13.22 153.219 13.22H153.211ZM152.032 21.7083H150.528V17.3747H152.032C154.3 17.3747 154.617 18.5861 154.617 19.5293C154.642 20.3261 154.406 21.7083 152.032 21.7083ZM167.35 24.5458V13.22H162.276V32.0909H167.48L174.797 20.7651V32.0909H179.895V13.22H174.716L167.35 24.5458ZM200.132 13.22H193.928L188.237 21.1472V13.22H182.952V32.0909H188.237V23.9604L193.709 32.0909H200.319L192.953 22.3343L200.132 13.22ZM209.823 17.3991C210.69 17.4235 211.54 17.6396 212.314 18.0318C213.087 18.424 213.764 18.9826 214.295 19.6675V14.1875C212.758 13.1848 210.959 12.6587 209.124 12.6753C204.002 12.6753 199.555 16.3421 199.555 22.6514C199.555 28.6924 203.62 32.6356 209.205 32.6356C211.007 32.7054 212.785 32.2139 214.295 31.2291V25.8629C213.725 26.4868 213.036 26.9898 212.267 27.3417C211.499 27.6937 210.668 27.8876 209.823 27.9118C206.799 27.9118 204.994 25.6759 204.994 22.814C205.018 19.7163 206.937 17.3991 209.848 17.3991H209.823ZM84.1177 19.6675C83.5063 19.6675 82.9087 19.8489 82.4004 20.1888C81.8921 20.5286 81.4962 21.0116 81.2626 21.5766C81.0289 22.1417 80.9682 22.7633 81.0881 23.3628C81.208 23.9624 81.503 24.5129 81.9359 24.9446C82.3689 25.3764 82.9201 25.67 83.52 25.7883C84.1198 25.9066 84.7413 25.8442 85.3057 25.6092C85.8701 25.3741 86.3521 24.9768 86.6906 24.4676C87.0291 23.9585 87.2089 23.3604 87.2073 22.749C87.2052 21.931 86.8787 21.1472 86.2995 20.5695C85.7203 19.9919 84.9357 19.6675 84.1177 19.6675Z" fill="#201600"/>
<path d="M20.7416 1.6227e-06C19.2319 -0.000599352 17.7267 0.165731 16.2536 0.495962V20.7653C16.2538 21.6452 16.5114 22.5059 16.9945 23.2414C17.4776 23.9768 18.1652 24.555 18.9727 24.9047C19.7801 25.2544 20.6723 25.3604 21.5392 25.2096C22.4061 25.0588 23.21 24.6579 23.852 24.0561C24.494 23.4543 24.946 22.6779 25.1525 21.8225C25.3589 20.9671 25.3107 20.0701 25.0139 19.2417C24.7171 18.4133 24.1845 17.6898 23.4818 17.1602C22.779 16.6306 21.9368 16.3181 21.0587 16.261V12.6592C22.653 12.7166 24.1952 13.2418 25.4932 14.1694C26.7912 15.097 27.7877 16.386 28.3584 17.8757C28.9291 19.3655 29.049 20.9903 28.703 22.5477C28.357 24.1051 27.5604 25.5263 26.4126 26.6343C25.2647 27.7423 23.8162 28.4881 22.2476 28.7788C20.6789 29.0695 19.0594 28.8923 17.5907 28.2693C16.122 27.6462 14.8691 26.6048 13.988 25.2749C13.1069 23.9449 12.6365 22.3851 12.6355 20.7897V1.6261C12.1233 1.84562 11.6273 2.08954 11.1313 2.34159V20.7653C11.1291 22.6569 11.6842 24.5073 12.7273 26.0853C13.7704 27.6633 15.2553 28.8991 16.9966 29.6381C18.7378 30.3772 20.6583 30.587 22.518 30.2411C24.3777 29.8952 26.0944 29.0091 27.4535 27.6934C28.8126 26.3777 29.7539 24.6907 30.16 22.8432C30.566 20.9957 30.4187 19.0694 29.7365 17.3051C29.0543 15.5408 27.8674 14.0166 26.3241 12.9228C24.7808 11.829 22.9494 11.2142 21.0587 11.155V7.5451C23.6617 7.60432 26.1894 8.43039 28.325 9.91982C30.4606 11.4092 32.1092 13.4958 33.0642 15.918C34.0192 18.3403 34.2382 20.9905 33.6936 23.5366C33.1491 26.0827 31.8653 28.4115 30.003 30.2312C28.1408 32.051 25.783 33.2806 23.2249 33.7662C20.6669 34.2518 18.0225 33.9717 15.6229 32.961C13.2234 31.9503 11.1755 30.254 9.73578 28.0845C8.29607 25.9151 7.52861 23.369 7.52953 20.7653V4.75634C3.76429 7.86869 1.21791 12.2097 0.338793 17.015C-0.540324 21.8203 0.304202 26.7817 2.72365 31.0255C5.14311 35.2694 8.98233 38.5234 13.5652 40.2148C18.1482 41.9061 23.1809 41.9262 27.7772 40.2715C32.3735 38.6169 36.2386 35.3936 38.6918 31.1692C41.1451 26.9448 42.0292 21.9904 41.1885 17.1782C40.3478 12.366 37.8362 8.00478 34.0959 4.86245C30.3557 1.72013 25.6266 -0.00175933 20.7416 1.6227e-06Z" fill="#BE4849"/>
</svg>
