<svg width="228" height="61" viewBox="0 0 228 61" fill="none" xmlns="http://www.w3.org/2000/svg">
<path d="M31.984 27.0641V48.2124H28.0402V25.5802L31.984 27.0641Z" fill="black"/>
<path d="M16.2285 25.0922C16.2285 19.6844 19.1764 16.7365 22.6323 16.7365C26.0881 16.7365 26.5761 17.2344 30.5 19.1964C34.4239 21.1583 35.4199 21.6563 37.3918 21.6563C39.3637 21.6563 40.3397 20.1624 40.3397 17.2244H43.7756C44.2736 23.1203 40.8277 25.5802 37.3719 25.5802C33.916 25.5802 32.94 25.0822 29.5041 23.1203C26.0682 21.1583 25.0723 20.6604 23.1004 20.6604C21.1284 20.6604 20.1524 22.1542 19.6644 25.5802L16.2285 25.0922Z" fill="black"/>
<path d="M30.5 61C24.4677 61 18.5708 59.2112 13.5551 55.8598C8.53942 52.5084 4.63016 47.745 2.32169 42.1718C0.0132153 36.5987 -0.590786 30.4662 0.586062 24.5498C1.76291 18.6333 4.66775 13.1988 8.93325 8.93325C13.1988 4.66775 18.6333 1.76291 24.5498 0.586062C30.4662 -0.590786 36.5987 0.0132153 42.1718 2.32169C47.745 4.63016 52.5084 8.53942 55.8598 13.5551C59.2112 18.5708 61 24.4677 61 30.5C60.9908 38.5863 57.7744 46.3387 52.0566 52.0566C46.3387 57.7744 38.5863 60.9908 30.5 61ZM30.5 1.99185C24.8577 1.99185 19.3421 3.66499 14.6507 6.7997C9.95924 9.9344 6.30272 14.3899 4.1435 19.6027C1.98428 24.8155 1.41933 30.5516 2.52009 36.0855C3.62085 41.6194 6.33789 46.7026 10.3276 50.6923C14.3173 54.682 19.4006 57.3991 24.9345 58.4998C30.4684 59.6006 36.2044 59.0356 41.4172 56.8764C46.6301 54.7172 51.0855 51.0607 54.2202 46.3693C57.3549 41.6779 59.0281 36.1622 59.0281 30.5199C59.0228 22.9554 56.0155 15.7023 50.6666 10.3534C45.3177 5.00445 38.0645 1.99713 30.5 1.99185Z" fill="black"/>
<path d="M80.3507 25.7993V40.6633H78.5033V25.7993H74.4698V24.0564H84.3842V25.7993H80.3507Z" fill="black"/>
<path d="M87.6408 25.1469C87.8931 25.1459 88.1401 25.2199 88.3503 25.3593C88.5606 25.4988 88.7248 25.6976 88.8221 25.9304C88.9193 26.1632 88.9453 26.4197 88.8966 26.6673C88.848 26.9149 88.727 27.1425 88.5489 27.3213C88.3708 27.5001 88.1437 27.622 87.8963 27.6716C87.6489 27.7212 87.3923 27.6962 87.1591 27.5999C86.9258 27.5036 86.7265 27.3402 86.5862 27.1304C86.4459 26.9207 86.371 26.674 86.371 26.4217C86.3723 26.0849 86.5063 25.7621 86.744 25.5235C86.9817 25.2848 87.3039 25.1495 87.6408 25.1469ZM88.5371 30.3307V40.6633H86.7444V30.3307H88.5371Z" fill="black"/>
<path d="M94.0396 22.5078V40.6633H92.2469V22.5078H94.0396Z" fill="black"/>
<path d="M105.667 22.5078H107.46V40.6633H105.667V39.2193C105.256 39.7672 104.722 40.2105 104.108 40.5133C103.493 40.8162 102.816 40.9699 102.131 40.9621C99.5172 40.9621 97.1021 39.1197 97.1021 35.4846C97.1021 31.8495 99.4923 30.0817 102.131 30.0817C102.815 30.0641 103.493 30.211 104.108 30.51C104.724 30.8089 105.258 31.2512 105.667 31.7997V22.5078ZM98.9445 35.4846C98.9445 37.7005 100.189 39.3686 102.331 39.3686C104.472 39.3686 105.767 37.5511 105.767 35.5095C105.767 32.8454 103.924 31.6752 102.331 31.6752C100.588 31.6752 98.9445 32.9699 98.9445 35.4846Z" fill="black"/>
<path d="M119.087 30.3307H120.88V40.6634H119.087V39.2193C118.676 39.7672 118.142 40.2106 117.527 40.5134C116.913 40.8162 116.236 40.9699 115.551 40.9621C112.937 40.9621 110.522 39.1197 110.522 35.4846C110.522 31.8495 112.912 30.0817 115.551 30.0817C116.235 30.0642 116.913 30.211 117.528 30.51C118.144 30.8089 118.678 31.2512 119.087 31.7997V30.3307ZM112.364 35.4846C112.364 37.7005 113.609 39.3687 115.751 39.3687C117.892 39.3687 119.186 37.5511 119.186 35.5095C119.186 32.8454 117.344 31.6752 115.751 31.6752C113.983 31.6752 112.364 32.9699 112.364 35.4846Z" fill="black"/>
<path d="M134.175 24.0564C135.843 24.0564 137.237 24.2506 138.358 25.2266C138.849 25.6774 139.236 26.229 139.494 26.8435C139.752 27.458 139.874 28.121 139.852 28.787C139.852 31.1274 138.383 33.4429 134.598 33.4429H133.005V40.6633H131.162V24.0564H134.175ZM133.005 31.7001H134.499C136.69 31.7001 138.009 30.6046 138.009 28.7123C138.009 26.0731 135.544 25.8242 134.349 25.8242H133.005V31.7001Z" fill="black"/>
<path d="M144.184 36.351C144.184 37.0731 144.184 37.9196 144.682 38.5669C144.915 38.8157 145.196 39.014 145.509 39.1496C145.822 39.2851 146.159 39.3551 146.5 39.3551C146.84 39.3551 147.177 39.2851 147.49 39.1496C147.803 39.014 148.084 38.8157 148.317 38.5669C148.815 37.9196 148.815 37.0731 148.815 36.351V30.3307H150.608V36.5552C150.608 37.825 150.483 38.7711 149.662 39.6674C148.818 40.4976 147.683 40.963 146.5 40.963C145.316 40.963 144.181 40.4976 143.337 39.6674C142.516 38.7711 142.391 37.825 142.391 36.5552V30.3307H144.184V36.351Z" fill="black"/>
<path d="M156.11 40.6633H154.318V22.5078H156.11V31.7748C156.531 31.2409 157.068 30.8106 157.681 30.5171C158.294 30.2236 158.966 30.0746 159.646 30.0817C162.882 30.0817 164.675 32.7707 164.675 35.5593C164.675 38.3478 162.858 40.9621 159.72 40.9621C159.023 40.9794 158.332 40.8303 157.705 40.5272C157.077 40.2241 156.53 39.7757 156.11 39.2193V40.6633ZM162.833 35.5593C162.833 33.0197 161.115 31.6752 159.446 31.6752C157.778 31.6752 156.011 33.0446 156.011 35.5344C156.011 37.6507 157.355 39.3686 159.471 39.3686C161.588 39.3686 162.833 37.6258 162.833 35.5593Z" fill="black"/>
<path d="M169.53 22.5078V40.6633H167.738V22.5078H169.53Z" fill="black"/>
<path d="M174.136 25.1469C174.389 25.1459 174.636 25.2199 174.846 25.3593C175.056 25.4988 175.22 25.6976 175.318 25.9304C175.415 26.1632 175.441 26.4197 175.392 26.6673C175.343 26.9149 175.222 27.1425 175.044 27.3213C174.866 27.5001 174.639 27.622 174.392 27.6716C174.144 27.7212 173.888 27.6962 173.655 27.5999C173.421 27.5036 173.222 27.3402 173.082 27.1304C172.941 26.9207 172.866 26.674 172.866 26.4217C172.868 26.0849 173.002 25.7621 173.24 25.5235C173.477 25.2848 173.799 25.1495 174.136 25.1469ZM175.033 30.3307V40.6633H173.24V30.3307H175.033Z" fill="black"/>
<path d="M183 32.7209C182.892 32.4217 182.697 32.162 182.439 31.9755C182.182 31.789 181.874 31.6843 181.556 31.6752C181.393 31.66 181.229 31.6799 181.075 31.7336C180.921 31.7873 180.78 31.8735 180.662 31.9863C180.544 32.0991 180.452 32.236 180.391 32.3877C180.33 32.5393 180.303 32.7022 180.311 32.8653C180.311 33.6122 180.809 33.8612 181.979 34.3592C183.473 34.9816 184.17 35.4547 184.569 35.9526C184.951 36.4217 185.147 37.0161 185.116 37.6208C185.116 39.7869 183.548 41.0069 181.556 41.0069C180.748 41.022 179.958 40.7722 179.306 40.2955C178.654 39.8189 178.176 39.1418 177.946 38.3677L179.489 37.7204C179.689 38.2681 180.286 39.4135 181.581 39.4135C181.802 39.4259 182.024 39.3923 182.231 39.3148C182.439 39.2373 182.629 39.1176 182.788 38.9632C182.947 38.8087 183.072 38.623 183.156 38.4176C183.24 38.2123 183.28 37.9918 183.274 37.7702C183.274 36.7743 182.577 36.4755 181.606 36.0522C180.361 35.5045 179.564 35.1061 179.091 34.5584C178.753 34.1268 178.585 33.5866 178.618 33.0396C178.618 31.222 179.888 30.1514 181.631 30.1514C182.237 30.1375 182.834 30.3088 183.341 30.6424C183.848 30.976 184.242 31.4561 184.469 32.0188L183 32.7209Z" fill="black"/>
<path d="M187.83 22.5078H189.623V31.5258C189.968 31.0693 190.417 30.7006 190.932 30.4497C191.446 30.1988 192.013 30.0728 192.586 30.0817C193.158 30.0565 193.728 30.1728 194.245 30.4204C194.761 30.6679 195.209 31.039 195.548 31.5009C196.071 32.2727 196.146 33.1193 196.146 34.2646V40.6633H194.353V34.3144C194.408 33.6488 194.242 32.9837 193.88 32.4221C193.678 32.1721 193.418 31.974 193.124 31.8441C192.83 31.7142 192.508 31.6563 192.187 31.6752C191.844 31.661 191.501 31.7254 191.186 31.8635C190.871 32.0015 190.592 32.2096 190.37 32.4719C189.673 33.2935 189.623 34.5135 189.623 35.2605V40.6633H187.83V22.5078Z" fill="black"/>
<path d="M200.752 25.1469C201.005 25.1459 201.252 25.2199 201.462 25.3593C201.672 25.4988 201.836 25.6976 201.933 25.9304C202.031 26.1632 202.057 26.4197 202.008 26.6673C201.959 26.9149 201.838 27.1425 201.66 27.3213C201.482 27.5001 201.255 27.622 201.008 27.6716C200.76 27.7212 200.504 27.6962 200.271 27.5999C200.037 27.5036 199.838 27.3402 199.698 27.1304C199.557 26.9207 199.482 26.674 199.482 26.4217C199.484 26.0849 199.618 25.7621 199.855 25.5235C200.093 25.2848 200.415 25.1495 200.752 25.1469ZM201.673 30.3307V40.6633H199.881V30.3307H201.673Z" fill="black"/>
<path d="M205.358 30.3307H207.151V31.5258C207.497 31.0693 207.945 30.7007 208.46 30.4498C208.975 30.1989 209.541 30.0728 210.114 30.0817C210.686 30.0565 211.256 30.1729 211.773 30.4204C212.29 30.6679 212.737 31.0391 213.077 31.5009C213.599 32.2728 213.674 33.1193 213.674 34.2646V40.6634H211.882V34.3144C211.936 33.6488 211.77 32.9837 211.408 32.4222C211.206 32.1722 210.947 31.9741 210.652 31.8442C210.358 31.7143 210.037 31.6564 209.715 31.6752C209.372 31.661 209.03 31.7254 208.715 31.8635C208.4 32.0016 208.12 32.2097 207.898 32.4719C207.201 33.2936 207.151 34.5136 207.151 35.2605V40.6634H205.358V30.3307Z" fill="black"/>
<path d="M225.302 30.3307H227.094V40.4144C227.094 41.5348 227.094 43.1283 226.098 44.4727C225.609 45.0954 224.98 45.5936 224.262 45.9267C223.543 46.2599 222.756 46.4186 221.965 46.3899C221.289 46.4124 220.616 46.3008 219.983 46.0615C219.351 45.8221 218.772 45.4599 218.28 44.9956C217.846 44.5565 217.504 44.0353 217.273 43.4625C217.042 42.8897 216.927 42.2768 216.936 41.6593H218.704C218.701 42.4459 218.984 43.2066 219.5 43.8005C219.819 44.1366 220.206 44.3997 220.636 44.5717C221.066 44.7436 221.528 44.8203 221.99 44.7964C222.536 44.8393 223.084 44.7264 223.569 44.4708C224.053 44.2152 224.456 43.8274 224.729 43.3523C225.168 42.5454 225.367 41.6295 225.302 40.7132V39.2193C224.891 39.7672 224.356 40.2106 223.742 40.5134C223.128 40.8162 222.451 40.9699 221.766 40.9621C221.114 40.9741 220.466 40.8571 219.859 40.6178C219.252 40.3786 218.699 40.0217 218.231 39.5679C217.722 39.0213 217.327 38.3785 217.071 37.6772C216.814 36.976 216.701 36.2304 216.737 35.4846C216.701 34.75 216.814 34.0158 217.071 33.3266C217.328 32.6375 217.722 32.0078 218.231 31.476C219.185 30.5726 220.452 30.073 221.766 30.0817C222.45 30.0662 223.127 30.214 223.742 30.5128C224.357 30.8116 224.891 31.2528 225.302 31.7997V30.3307ZM219.625 32.6462C219.272 33.0269 218.998 33.4737 218.818 33.9609C218.639 34.448 218.557 34.9659 218.579 35.4846C218.549 36.0448 218.638 36.6049 218.84 37.1283C219.041 37.6518 219.351 38.1268 219.749 38.5221C220.348 39.0844 221.144 39.3885 221.965 39.3687C222.382 39.3858 222.799 39.3173 223.188 39.1675C223.578 39.0176 223.933 38.7895 224.231 38.4972C224.613 38.1006 224.913 37.6326 225.114 37.1199C225.314 36.6072 225.412 36.06 225.401 35.5095C225.435 34.4319 225.041 33.3847 224.306 32.5964C223.677 31.9935 222.836 31.6625 221.965 31.6752C221.53 31.6693 221.097 31.7524 220.695 31.9194C220.292 32.0863 219.928 32.3337 219.625 32.6462Z" fill="black"/>
</svg>
