<svg width="218" height="50" viewBox="0 0 218 50" fill="none" xmlns="http://www.w3.org/2000/svg">
<path d="M126.436 19.4694H117.855V20.3798C120.539 20.3798 120.97 20.9551 120.97 24.3591V30.4958C120.97 33.8994 120.539 34.5227 117.855 34.5227C115.794 34.2353 114.403 33.1324 112.485 31.023L110.28 28.6262C113.252 28.0982 114.834 26.229 114.834 24.1193C114.834 21.4831 112.581 19.4694 108.362 19.4694H99.9248V20.3798C102.609 20.3798 103.041 20.9551 103.041 24.3591V30.4958C103.041 33.8994 102.609 34.5227 99.9248 34.5227V35.4335H109.465V34.5227C106.781 34.5227 106.349 33.8994 106.349 30.4958V28.7704H107.164L112.485 35.4335H126.436C133.291 35.4335 136.264 31.7905 136.264 27.4272C136.264 23.0648 133.292 19.4694 126.436 19.4694ZM106.349 27.2831V20.9078H108.315C110.472 20.9078 111.431 22.3938 111.431 24.1197C111.431 25.7979 110.472 27.2835 108.315 27.2835H106.349V27.2831ZM126.58 33.9474H126.244C124.519 33.9474 124.279 33.5163 124.279 31.3109V20.9078C124.279 20.9078 126.388 20.9078 126.58 20.9078C131.566 20.9078 132.476 24.5508 132.476 27.3796C132.476 30.3036 131.565 33.9474 126.58 33.9474Z" fill="#00749A"/>
<path d="M73.2229 29.0578L76.5308 19.2773C77.49 16.4489 77.0585 15.6342 73.9903 15.6342V14.675H83.003V15.6342C79.9829 15.6342 79.2639 16.3532 78.0653 19.853L72.5996 36.2486H71.9767L67.0862 21.2429L62.1009 36.2486H61.4775L56.1563 19.853C55.0058 16.3532 54.2387 15.6342 51.458 15.6342V14.675H62.1009V15.6342C59.2721 15.6342 58.5047 16.3052 59.5119 19.2773L62.7238 29.0578L67.5658 14.675H68.4769L73.2229 29.0578Z" fill="#00749A"/>
<path d="M89.522 36.0564C84.2489 36.0564 79.9341 32.1736 79.9341 27.4268C79.9341 22.7289 84.2493 18.8453 89.522 18.8453C94.7956 18.8453 99.11 22.7289 99.11 27.4268C99.11 32.1736 94.7956 36.0564 89.522 36.0564ZM89.522 20.3325C85.112 20.3325 83.5775 24.311 83.5775 27.4272C83.5775 30.5918 85.112 34.5227 89.522 34.5227C93.981 34.5227 95.515 30.5918 95.515 27.4272C95.515 24.311 93.981 20.3325 89.522 20.3325Z" fill="#00749A"/>
<path d="M148.104 34.4747V35.4335H137.126V34.4747C140.338 34.4747 140.914 33.66 140.914 28.8652V21.1952C140.914 16.4005 140.338 15.6338 137.126 15.6338V14.6746H147.049C151.987 14.6746 154.721 17.2155 154.721 20.62C154.721 23.9279 151.987 26.5165 147.049 26.5165H144.317V28.8648C144.317 33.66 144.892 34.4747 148.104 34.4747ZM147.049 16.4005H144.317V24.7426H147.049C149.734 24.7426 150.981 22.873 150.981 20.62C150.981 18.3189 149.734 16.4005 147.049 16.4005Z" fill="#464342"/>
<path d="M187.655 30.9273L187.415 31.7901C186.984 33.3722 186.456 33.9474 183.052 33.9474H182.381C179.888 33.9474 179.457 33.3722 179.457 29.9685V27.7635C183.196 27.7635 183.484 28.0986 183.484 30.5919H184.395V23.4483H183.484C183.484 25.9412 183.196 26.2767 179.457 26.2767V20.9078H182.093C185.497 20.9078 186.024 21.4831 186.456 23.0652L186.696 23.9756H187.463L187.128 19.4694H173.033V20.3798C175.717 20.3798 176.149 20.9551 176.149 24.3591V30.4958C176.149 33.6095 175.782 34.3939 173.666 34.5058C171.654 34.1986 170.273 33.1013 168.383 31.023L166.178 28.6262C169.15 28.0982 170.732 26.229 170.732 24.1193C170.732 21.4831 168.479 19.4694 164.261 19.4694H155.823V20.3798C158.507 20.3798 158.939 20.9551 158.939 24.3591V30.4958C158.939 33.8994 158.508 34.5227 155.823 34.5227V35.4335H165.364V34.5227C162.679 34.5227 162.247 33.8994 162.247 30.4958V28.7704H163.062L168.384 35.4335H188.087L188.375 30.9277H187.655V30.9273ZM162.247 27.2831V20.9078H164.212C166.37 20.9078 167.329 22.3938 167.329 24.1197C167.329 25.7979 166.37 27.2835 164.212 27.2835H162.247V27.2831Z" fill="#464342"/>
<path d="M197.387 36.0564C195.469 36.0564 193.791 35.05 193.072 34.4262C192.832 34.6664 192.401 35.3854 192.305 36.0564H191.394V29.4413H192.353C192.737 32.6051 194.941 34.4747 197.77 34.4747C199.304 34.4747 200.551 33.612 200.551 32.174C200.551 30.9277 199.448 29.9685 197.483 29.0578L194.75 27.7635C192.832 26.852 191.394 25.2698 191.394 23.1609C191.394 20.8598 193.551 18.8946 196.524 18.8946C198.106 18.8946 199.448 19.4698 200.263 20.1408C200.503 19.949 200.743 19.4214 200.887 18.8457H201.797V24.5032H200.791C200.455 22.2497 199.209 20.3802 196.668 20.3802C195.326 20.3802 194.079 21.1472 194.079 22.3462C194.079 23.5925 195.086 24.2634 197.387 25.3183L200.023 26.6126C202.325 27.7151 203.235 29.4898 203.235 30.9277C203.235 33.9475 200.598 36.0564 197.387 36.0564Z" fill="#464342"/>
<path d="M212.152 36.0564C210.234 36.0564 208.556 35.05 207.837 34.4262C207.597 34.6664 207.166 35.3854 207.07 36.0564H206.159V29.4413H207.118C207.502 32.6051 209.707 34.4747 212.535 34.4747C214.07 34.4747 215.316 33.612 215.316 32.174C215.316 30.9277 214.214 29.9685 212.248 29.0578L209.515 27.7635C207.597 26.852 206.159 25.2698 206.159 23.1609C206.159 20.8598 208.316 18.8946 211.289 18.8946C212.871 18.8946 214.213 19.4698 215.028 20.1408C215.268 19.949 215.508 19.4214 215.651 18.8457H216.562V24.5032H215.556C215.22 22.2497 213.973 20.3802 211.433 20.3802C210.091 20.3802 208.844 21.1472 208.844 22.3462C208.844 23.5925 209.85 24.2634 212.152 25.3183L214.788 26.6126C217.09 27.7151 218 29.4898 218 30.9277C218 33.9475 215.363 36.0564 212.152 36.0564Z" fill="#464342"/>
<path d="M3.51538 24.7309C3.51538 33.1288 8.39575 40.3861 15.4727 43.8253L5.35223 16.0965C4.17503 18.7351 3.51538 21.6551 3.51538 24.7309Z" fill="#464342"/>
<path d="M39.0544 23.6603C39.0544 21.0382 38.1125 19.2223 37.3047 17.809C36.2292 16.0613 35.2212 14.5814 35.2212 12.8337C35.2212 10.8834 36.7004 9.06798 38.7839 9.06798C38.8779 9.06798 38.9672 9.07969 39.0588 9.08494C35.2842 5.62681 30.2552 3.51544 24.7318 3.51544C17.3198 3.51544 10.7987 7.31833 7.00513 13.0784C7.50289 13.0933 7.972 13.1038 8.37045 13.1038C10.5896 13.1038 14.0247 12.8345 14.0247 12.8345C15.1684 12.7671 15.3033 14.4469 14.1608 14.5822C14.1608 14.5822 13.0114 14.7174 11.7325 14.7844L19.4586 37.7653L24.1016 23.8403L20.7961 14.7836C19.6536 14.7166 18.5712 14.5814 18.5712 14.5814C17.4279 14.5143 17.562 12.7663 18.7053 12.8337C18.7053 12.8337 22.209 13.103 24.2937 13.103C26.5125 13.103 29.948 12.8337 29.948 12.8337C31.0925 12.7663 31.2269 14.4461 30.0841 14.5814C30.0841 14.5814 28.9323 14.7166 27.6558 14.7836L35.3229 37.5905L37.4391 30.5188C38.3564 27.5843 39.0544 25.4765 39.0544 23.6603Z" fill="#464342"/>
<path d="M25.1041 26.5867L18.7385 45.084C20.6392 45.6428 22.6492 45.9484 24.7319 45.9484C27.2026 45.9484 29.5719 45.5212 31.7773 44.7457C31.7204 44.6549 31.6688 44.5584 31.6264 44.4534L25.1041 26.5867Z" fill="#464342"/>
<path d="M43.3482 14.5519C43.4394 15.2277 43.4911 15.9531 43.4911 16.7335C43.4911 18.8864 43.089 21.3066 41.8779 24.3328L35.3972 43.0699C41.7047 39.3918 45.9472 32.5583 45.9472 24.7313C45.9476 21.0426 45.0054 17.574 43.3482 14.5519Z" fill="#464342"/>
<path d="M24.7317 0C11.095 0 0 11.0942 0 24.7309C0 38.3692 11.095 49.463 24.7317 49.463C38.368 49.463 49.4646 38.3692 49.4646 24.7309C49.4642 11.0942 38.368 0 24.7317 0ZM24.7317 48.3294C11.7203 48.3294 1.134 37.7431 1.134 24.7309C1.134 11.7195 11.7199 1.134 24.7317 1.134C37.7427 1.134 48.3282 11.7195 48.3282 24.7309C48.3282 37.7431 37.7427 48.3294 24.7317 48.3294Z" fill="#464342"/>
</svg>
