<svg width="154" height="48" viewBox="0 0 154 48" fill="none" xmlns="http://www.w3.org/2000/svg">
<path d="M36.4939 19.983L46.0611 4.62927H22.9919L19.7515 9.72145L36.4939 19.983Z" fill="url(#paint0_linear)"/>
<path opacity="0.15" d="M19.7515 9.72157L21.4489 7.09833L36.4939 19.9831L19.7515 9.72157Z" fill="black"/>
<path d="M41.509 47.8357V24.7665L36.5711 21.6032L26.0781 38.1914L41.509 47.8357Z" fill="url(#paint1_linear)"/>
<path opacity="0.15" d="M26.0781 38.1914L28.7014 39.8116L36.5711 21.6032L26.0781 38.1914Z" fill="black"/>
<path d="M4.3208 0V23.0691L9.7216 26.2324L36.4941 19.983L4.3208 0Z" fill="url(#paint2_linear)"/>
<path d="M9.56713 28.007L0 43.0521H23.0691L36.5711 21.6032L9.56713 28.007Z" fill="url(#paint3_linear)"/>
<path d="M50.459 34.7964H53.468L55.0111 15.9708H51.9249V13.3475H58.7145L64.8868 28.084C65.2726 29.087 65.4269 29.8585 65.4269 29.8585H65.5041C65.5041 29.8585 65.6584 29.087 66.0441 28.084L72.2165 13.3475H79.0061V15.9708H75.9199L77.463 34.7964H80.472V37.4968H71.2135V34.7964H74.0682L72.988 20.3686C72.988 19.597 73.0652 18.3626 73.0652 18.3626H72.988C72.988 18.3626 72.6794 19.5199 72.4479 20.2143L66.97 32.9447H63.961L58.483 20.2143C58.1744 19.5199 57.943 18.3626 57.943 18.3626H57.8658C57.8658 18.3626 58.0201 19.597 57.943 20.3686L56.8628 34.7964H59.7175V37.4968H50.459V34.7964Z" fill="black"/>
<path d="M94.6682 12.8849C101.612 12.8849 107.013 18.2857 107.013 25.2296C107.013 32.3278 101.612 37.8829 94.6682 37.8829C87.7243 37.8829 82.3235 32.3278 82.3235 25.2296C82.3235 18.2857 87.7243 12.8849 94.6682 12.8849ZM94.6682 34.8738C99.5289 34.8738 103.464 30.7075 103.464 25.2296C103.464 19.9831 99.5289 15.8939 94.6682 15.8939C89.8074 15.8939 85.7954 19.9059 85.7954 25.2296C85.7954 30.6304 89.8074 34.8738 94.6682 34.8738Z" fill="black"/>
<path d="M109.25 34.7964H112.259V15.9708H109.25V13.3475H119.512C121.518 13.3475 122.984 13.4247 124.604 13.9648C129.156 15.4307 132.165 19.597 132.165 25.4608C132.165 31.3245 129.311 35.4137 124.604 36.8796C123.061 37.4197 121.441 37.4968 119.512 37.4968H109.25V34.7964ZM119.358 34.6421C120.901 34.6421 122.212 34.4878 123.447 34.0249C126.687 32.8676 128.693 29.7814 128.693 25.3836C128.693 20.9087 126.687 17.8225 123.524 16.6652C122.212 16.2022 120.978 16.1251 119.435 16.1251H115.731V34.6421H119.358Z" fill="black"/>
<path d="M133.4 34.7967H135.637L141.809 25.2296L135.714 15.8939H133.477V13.2707H141.038V15.8939H139.263L143.275 22.2206C143.661 22.7607 143.893 23.1464 143.893 23.1464H143.97C143.97 23.1464 144.201 22.6835 144.51 22.2206L148.368 15.8939H146.67V13.2707H154V15.8939H151.762L145.513 25.5382L151.608 34.7967H153.923V37.4971H146.362V34.7967H148.136L144.124 28.4701C143.738 27.93 143.507 27.4671 143.507 27.4671H143.43C143.43 27.4671 143.198 27.93 142.89 28.4701L139.032 34.7967H140.806V37.4971H133.4V34.7967Z" fill="black"/>
<defs>
<linearGradient id="paint0_linear" x1="42.1493" y1="13.1934" x2="25.0211" y2="2.03689" gradientUnits="userSpaceOnUse">
<stop stop-color="#80C3E6"/>
<stop offset="1" stop-color="#3380C2"/>
</linearGradient>
<linearGradient id="paint1_linear" x1="45.1507" y1="38.9475" x2="32.3508" y2="30.4914" gradientUnits="userSpaceOnUse">
<stop stop-color="#F38649"/>
<stop offset="0.18" stop-color="#F28147"/>
<stop offset="0.41" stop-color="#EF7242"/>
<stop offset="0.65" stop-color="#EA5A3A"/>
<stop offset="0.91" stop-color="#E4382E"/>
<stop offset="1" stop-color="#E12A29"/>
</linearGradient>
<linearGradient id="paint2_linear" x1="2.96289" y1="20.8857" x2="27.4594" y2="5.57825" gradientUnits="userSpaceOnUse">
<stop stop-color="#42AB4A"/>
<stop offset="1" stop-color="#ADD155"/>
</linearGradient>
<linearGradient id="paint3_linear" x1="8.30951" y1="48.2831" x2="28.223" y2="16.4184" gradientUnits="userSpaceOnUse">
<stop stop-color="#42AB4A"/>
<stop offset="1" stop-color="#ADD155"/>
</linearGradient>
</defs>
</svg>
