<svg width="101" height="96" viewBox="0 0 101 96" fill="none" xmlns="http://www.w3.org/2000/svg">
<path d="M7.83378 94.2012C7.6642 86.0962 7.50124 77.8718 9.46847 70.0061C13.9502 52.087 36.1218 38.0769 46.7224 59.408C59.3267 84.7568 26.08 93.2059 7.83378 94.2012Z" fill="url(#paint0_linear)"/>
<path d="M17.9242 82.5409C17.8035 77.0547 17.7004 71.4827 19.0301 66.1576C22.0699 54.0238 37.0769 44.531 44.2576 58.9428C52.7923 76.145 30.2818 81.8611 17.9242 82.5409Z" fill="url(#paint1_linear)"/>
<path d="M84.1868 41.5488L81.3362 85.2241L75.0362 92.4353L62.1757 70.5459L84.1868 41.5488Z" fill="#00CA69"/>
<path d="M77.6792 82.3707L81.533 42.1746L84.1868 41.5488L81.3362 85.2241L75.0362 92.4353L72.5633 88.2272L77.6792 82.3707Z" fill="#F1F1F1"/>
<path d="M54.4678 12.969L11.2894 20.1287L4.73818 27.1135L27.7986 37.742L54.4678 12.969Z" fill="#00CA69"/>
<path d="M14.4938 23.4843L54.1106 15.6663L54.4681 12.9689L11.2897 20.1287L4.7385 27.1135L9.17014 29.1613L14.4938 23.4843Z" fill="#F1F1F1"/>
<path d="M96.4276 13.6919C97.3052 9.87242 97.8088 5.31784 95.0698 2.53441C92.0423 -0.550399 86.9491 0.318534 82.8216 1.60239C66.8274 6.48313 51.6808 13.7995 37.9152 23.294C32.5862 26.9598 27.2662 31.2425 24.7484 37.2105C17.0999 55.3538 39.1613 76.0552 56.7073 76.0274C64.3362 76.0214 69.957 66.7685 74.4377 60.8039C84.9898 46.8154 92.4819 30.764 96.4276 13.6919Z" fill="url(#paint2_linear)"/>
<path d="M75.1563 6.66517C77.2882 10.3877 79.9516 13.7794 83.0624 16.7332C86.145 19.6523 89.7839 21.9207 93.7622 23.4029C94.7807 20.2025 95.6661 16.9653 96.4183 13.6915C97.2959 9.8721 97.7995 5.31752 95.0605 2.5341C92.0329 -0.550713 86.9398 0.318217 82.8123 1.60208C79.8361 2.51257 76.8906 3.50283 73.9758 4.57287C74.3622 5.26594 74.7491 5.97287 75.1563 6.66517Z" fill="#00CA69"/>
<path d="M47.8215 33.0924C45.2225 40.4965 49.1178 48.6055 56.5219 51.2045C63.9259 53.8034 72.0349 49.9081 74.6339 42.5041C77.2328 35.1001 73.3376 26.991 65.9335 24.3921C58.5295 21.7931 50.4205 25.6884 47.8215 33.0924Z" fill="#3B56D7"/>
<path d="M69.9022 45.9253C68.3257 47.6234 66.2813 48.816 64.0275 49.3524C61.7736 49.8888 59.4115 49.7448 57.2399 48.9387C55.0683 48.1326 53.1847 46.7005 51.8273 44.8236C50.47 42.9467 49.6998 40.7092 49.6141 38.3942C49.5285 36.0791 50.1313 33.7904 51.3462 31.8175C52.5612 29.8445 54.3338 28.276 56.4399 27.3102C58.5459 26.3445 60.8909 26.0248 63.1781 26.3917C65.4654 26.7586 67.5923 27.7956 69.2898 29.3715C71.5662 31.4847 72.9095 34.416 73.0243 37.5204C73.1392 40.6248 72.0161 43.6482 69.9022 45.9253Z" fill="url(#paint3_radial)"/>
<defs>
<linearGradient id="paint0_linear" x1="45.4043" y1="56.395" x2="6.26842" y2="92.188" gradientUnits="userSpaceOnUse">
<stop stop-color="#FF3F6D" stop-opacity="0.5"/>
<stop offset="0.369792" stop-color="#FFB8AF" stop-opacity="0.88"/>
<stop offset="0.739583" stop-color="#FFD99F" stop-opacity="0.99"/>
<stop offset="1" stop-color="#FFEA79"/>
</linearGradient>
<linearGradient id="paint1_linear" x1="-896.248" y1="-7381.1" x2="-2448.89" y2="-7194.83" gradientUnits="userSpaceOnUse">
<stop stop-color="#FF3F90" stop-opacity="0.5"/>
<stop offset="0.770833" stop-color="#FFDD9D"/>
</linearGradient>
<linearGradient id="paint2_linear" x1="26.397" y1="71.429" x2="92.2692" y2="-3.88276" gradientUnits="userSpaceOnUse">
<stop stop-color="#E6E6E6"/>
<stop offset="1" stop-color="#F1F1F1"/>
</linearGradient>
<radialGradient id="paint3_radial" cx="0" cy="0" r="1" gradientUnits="userSpaceOnUse" gradientTransform="translate(63.8629 51.4905) rotate(42.8721) scale(30.4593 30.4694)">
<stop stop-color="#3B56D7"/>
<stop offset="1" stop-color="#F9B253"/>
</radialGradient>
</defs>
</svg>
