<svg width="217" height="215" viewBox="0 0 217 215" fill="none" xmlns="http://www.w3.org/2000/svg">
<path d="M60.0597 153.778C52.7205 145.691 46.142 151.866 40.2173 172.279C60.9122 168.139 67.3923 161.859 60.0597 153.778Z" fill="url(#paint0_linear)"/>
<path d="M33.9387 129.973C29.5113 123.247 24.637 127.535 19.2451 142.81C33.5473 141.069 40.0414 134.352 33.9387 129.973Z" fill="url(#paint1_linear)"/>
<path d="M82.7557 181.083C78.3283 174.357 73.454 178.645 68.0621 193.921C82.3643 192.18 88.8585 185.462 82.7557 181.083Z" fill="url(#paint2_linear)"/>
<path d="M36.3612 135.391L36.2829 135.309C36.8974 134.733 36.3612 135.391 36.3612 135.391Z" fill="#DFF3F4"/>
<path d="M170.809 49.5887L170.638 49.3157C170.451 49.0055 170.227 48.7196 169.97 48.4645C169.624 48.1476 169.256 47.856 168.868 47.592L176.087 42.1633C176.151 42.1025 176.236 42.0694 176.324 42.0715C176.412 42.0735 176.495 42.1104 176.556 42.174C176.617 42.2377 176.65 42.3229 176.648 42.4109C176.646 42.4989 176.609 42.5824 176.545 42.6432L170.809 49.5887Z" fill="url(#paint3_linear)"/>
<path d="M131.263 35.8825L125.402 40.2944C125.373 40.3172 125.35 40.3455 125.332 40.3778C125.315 40.41 125.305 40.4454 125.302 40.4819C125.299 40.5183 125.303 40.5549 125.315 40.5895C125.327 40.6241 125.346 40.656 125.37 40.683L126.55 41.9181C126.575 41.945 126.606 41.9662 126.64 41.9802C126.674 41.9943 126.711 42.0009 126.748 41.9995C126.785 41.9982 126.821 41.989 126.854 41.9725C126.887 41.9561 126.916 41.9328 126.939 41.9041L131.621 36.2571C131.671 36.2096 131.7 36.1444 131.701 36.0757C131.703 36.007 131.677 35.9405 131.63 35.8908C131.582 35.8412 131.517 35.8124 131.448 35.8108C131.38 35.8092 131.313 35.835 131.263 35.8825Z" fill="url(#paint4_linear)"/>
<path d="M86.9183 155.493L59.2443 126.519C59.2443 126.519 84.1515 101.61 85.296 101.636C85.6736 101.645 86.2558 100.977 86.5068 100.771C87.3533 100.063 88.1774 99.3318 88.996 98.5948C90.908 96.8693 92.7643 95.0739 94.5868 93.2548C95.5938 92.293 96.6007 91.3313 97.5797 90.3403C103.406 84.7194 109.193 79.0576 114.992 73.4075C118.029 70.4539 121.067 67.5079 124.104 64.5696C125.515 63.222 126.932 61.8689 128.343 60.5213C130.271 58.7783 132.388 57.2559 134.654 55.9822C136.683 54.7156 138.751 53.5166 140.857 52.3853C142.283 51.6278 143.743 50.8826 145.23 50.1895C148.468 48.6322 151.865 47.4295 155.361 46.6023C156.369 46.3677 157.381 46.1847 158.403 46.0478C161.383 45.6522 164.601 45.6571 167.419 46.838C167.921 47.0486 168.402 47.3049 168.856 47.6037C169.244 47.8677 169.612 48.1594 169.958 48.4763C170.215 48.7314 170.439 49.0173 170.626 49.3275L170.797 49.6005C171.755 51.3927 172.252 53.3953 172.243 55.4278C172.29 57.8892 171.971 60.3441 171.296 62.7119C170.713 64.816 169.979 66.8754 169.099 68.8738C168.482 70.3063 167.814 71.709 167.096 73.082C166.077 75.0626 164.967 76.9953 163.796 78.8866C161.203 83.0756 158.493 87.1073 154.928 90.5241C148.793 96.384 142.556 102.184 136.382 107.969C130.905 113.088 125.428 118.196 120.018 123.386C118.262 125.063 116.553 126.696 114.876 128.41C114.454 128.812 112.985 129.947 112.958 130.622C112.944 131.755 86.9183 155.493 86.9183 155.493Z" fill="#00CA69"/>
<path opacity="0.8" d="M149.929 68.7041L149.8 68.5695C149.692 68.3898 149.563 68.2235 149.416 68.074C149.213 67.8922 148.999 67.7228 148.775 67.567L152.97 64.4108C153.008 64.3752 153.057 64.3559 153.109 64.3571C153.161 64.3583 153.209 64.3799 153.245 64.4171C153.281 64.4544 153.3 64.5043 153.299 64.5558C153.298 64.6073 153.276 64.6562 153.239 64.6918L149.929 68.7041Z" fill="url(#paint5_linear)"/>
<path d="M85.686 94.6218C82.1734 97.9768 78.6082 101.382 75.1483 104.687C63.4397 115.87 53.0073 125.834 48.5772 129.998C47.9914 130.555 47.2088 130.856 46.401 130.837C45.5933 130.817 44.8263 130.478 44.2683 129.894L33.646 118.773C33.088 118.188 32.7844 117.407 32.8019 116.599C32.8195 115.791 33.1566 115.023 33.7395 114.463C36.7427 111.595 42.5736 106.026 49.6704 99.1915C51.854 97.1058 54.1606 94.9027 56.5492 92.6214C65.5999 83.9768 75.763 74.2698 84.5912 65.8377C89.6084 61.0457 94.1982 56.6619 97.9098 53.1168C100.38 50.7572 102.464 48.7666 104.028 47.2736C104.613 46.7144 105.134 46.2168 105.567 45.803C106.504 44.9084 107.066 44.3716 107.177 44.2653C108.78 43.0138 112.101 41.8015 118.448 39.6565C120.173 38.9784 122.048 38.7761 123.878 39.0707C125.281 39.434 126.492 40.3174 127.268 41.5415C128.673 43.6577 127.965 46.5615 127.114 48.7292C124.68 54.9715 123.316 58.2325 121.992 59.7767C121.881 59.883 121.319 60.4198 120.383 61.3144C119.949 61.7282 119.434 62.2203 118.843 62.785C112.996 68.5714 99.478 81.4824 85.686 94.6218Z" fill="#F7F9FF"/>
<path d="M119.102 62.7546L104.214 47.1671C104.799 46.608 105.32 46.1103 105.753 45.6965L120.619 61.2606C120.191 61.7031 119.693 62.1899 119.102 62.7546Z" fill="#3B56D7"/>
<path d="M100.403 60.9925L92.6459 68.4014C92.2812 68.7512 91.8511 69.0255 91.3802 69.2086C90.9092 69.3917 90.4068 69.48 89.9017 69.4685C89.3966 69.4569 88.8987 69.3457 88.4367 69.1413C87.9747 68.9368 87.5577 68.6431 87.2095 68.277L84.7552 65.7074L92.9512 57.8792C94.8012 56.1122 96.5223 54.4683 98.0913 52.9698L100.54 55.5335C101.004 56.0134 101.332 56.6077 101.491 57.2558C101.657 57.9191 101.644 58.6148 101.453 59.2715C101.262 59.9282 100.899 60.5222 100.403 60.9925Z" fill="#CCD9E2"/>
<path d="M91.7669 88.9192L76.8286 73.2791L73.5326 76.4271L88.471 92.0673L91.7669 88.9192Z" fill="#3B56D7"/>
<path opacity="0.8" d="M79.9373 70.3096L94.8756 85.9497" stroke="url(#paint6_linear)" stroke-miterlimit="10"/>
<path d="M44.4045 129.735L33.8773 118.713L31.4887 120.995L42.016 132.016L44.4045 129.735Z" fill="url(#paint7_linear)"/>
<path d="M44.4045 129.735L33.8773 118.713L31.4887 120.995L42.016 132.016L44.4045 129.735Z" fill="#3B56D7"/>
<path d="M42.407 132.425L31.4604 120.965C30.4569 119.914 28.7916 119.876 27.7408 120.88L26.4704 122.093C25.4196 123.097 25.3813 124.762 26.3847 125.812L37.3313 137.273C38.3348 138.324 40.0001 138.362 41.0509 137.358L42.3213 136.145C43.3721 135.141 43.4105 133.476 42.407 132.425Z" fill="#F7F9FF"/>
<path d="M180.769 87.7141L176.087 93.3611C176.064 93.3898 176.035 93.4131 176.002 93.4296C175.969 93.446 175.932 93.4552 175.895 93.4565C175.859 93.4579 175.822 93.4513 175.788 93.4372C175.753 93.4232 175.723 93.402 175.697 93.3751L174.518 92.1401C174.493 92.113 174.475 92.0812 174.463 92.0466C174.451 92.012 174.447 91.9753 174.45 91.9389C174.453 91.9025 174.463 91.867 174.48 91.8348C174.497 91.8026 174.521 91.7742 174.55 91.7515L180.411 87.3395C180.461 87.292 180.527 87.2663 180.596 87.2678C180.665 87.2694 180.73 87.2982 180.777 87.3479C180.825 87.3975 180.851 87.464 180.849 87.5327C180.847 87.6014 180.819 87.6666 180.769 87.7141Z" fill="url(#paint8_linear)"/>
<path d="M82.9859 170.128L93.6082 181.25C93.8839 181.54 94.2143 181.773 94.5802 181.935C94.9462 182.098 95.3406 182.186 95.7409 182.196C96.1411 182.206 96.5394 182.136 96.9128 181.992C97.2863 181.847 97.6275 181.631 97.9171 181.354C105.34 174.264 130.119 150.721 148.858 132.822C153.875 128.03 158.465 123.646 162.177 120.101C164.647 117.742 166.731 115.751 168.295 114.258C168.88 113.699 169.401 113.201 169.834 112.787C170.771 111.893 171.333 111.356 171.444 111.25C172.768 109.706 174.131 106.445 176.565 100.202C177.322 98.5102 177.61 96.6462 177.4 94.805C177.101 93.3871 176.274 92.1359 175.087 91.3053C173.037 89.8042 170.104 90.3783 167.9 91.1295C161.552 93.2745 158.232 94.4868 156.629 95.7383C156.518 95.8446 155.956 96.3814 155.019 97.276C154.586 97.6898 154.071 98.1819 153.479 98.7466C140.72 110.787 93.9 155.652 83.1912 165.936C82.6255 166.475 82.2887 167.211 82.2504 167.992C82.2122 168.772 82.4755 169.537 82.9859 170.128Z" fill="#F7F9FF"/>
<path d="M153.367 98.63L168.255 114.217C168.841 113.658 169.362 113.161 169.795 112.747L154.918 97.1711C154.468 97.5902 153.959 98.0653 153.367 98.63Z" fill="#3B56D7"/>
<path d="M154.269 117.39L146.512 124.799C146.146 125.147 145.852 125.564 145.648 126.026C145.443 126.488 145.332 126.986 145.32 127.491C145.309 127.996 145.397 128.499 145.58 128.97C145.763 129.441 146.037 129.871 146.387 130.235L148.858 132.822L153.174 128.667C155.156 126.774 157.026 124.988 158.77 123.322C159.941 122.203 161.129 121.103 162.177 120.102L159.734 117.544C159.499 117.298 159.233 117.086 158.941 116.913C158.22 116.463 157.369 116.265 156.523 116.351C155.678 116.438 154.884 116.803 154.269 117.39Z" fill="#CCD9E2"/>
<path d="M122.68 127.884L137.618 143.524L140.914 140.376L125.976 124.735L122.68 127.884Z" fill="#3B56D7"/>
<path opacity="0.8" d="M144.018 137.401L129.085 121.767" stroke="url(#paint9_linear)" stroke-miterlimit="10"/>
<path d="M80.642 172.457L91.1693 183.479L93.5578 181.198L83.0306 170.176L80.642 172.457Z" fill="url(#paint10_linear)"/>
<path d="M80.642 172.457L91.1693 183.479L93.5578 181.198L83.0306 170.176L80.642 172.457Z" fill="#3B56D7"/>
<path d="M75.1695 176.889L86.116 188.35C87.1195 189.401 88.7849 189.439 89.8357 188.435L91.106 187.222C92.1568 186.218 92.1952 184.553 91.1917 183.502L80.2451 172.041C79.2416 170.991 77.5763 170.953 76.5255 171.956L75.2551 173.17C74.2043 174.173 74.166 175.839 75.1695 176.889Z" fill="#F7F9FF"/>
<path d="M70.0421 154.408L59.744 143.626L57.1272 146.126L67.4252 156.908L70.0421 154.408Z" fill="url(#paint11_linear)"/>
<path d="M63.8784 161.986L51.8752 149.419C51.3191 148.837 51.0172 148.057 51.0357 147.252C51.0542 146.448 51.3918 145.683 51.974 145.127C52.5563 144.571 53.3355 144.269 54.1404 144.287C54.9453 144.306 55.7098 144.643 56.2659 145.225L68.2691 157.792C68.5454 158.08 68.7621 158.419 68.9067 158.791C69.0514 159.163 69.1211 159.56 69.1119 159.959C69.1027 160.357 69.0148 160.75 68.8532 161.115C68.6916 161.48 68.4595 161.809 68.1702 162.084C67.8825 162.36 67.5429 162.577 67.1711 162.722C66.7993 162.867 66.4026 162.936 66.0038 162.927C65.6049 162.918 65.2118 162.83 64.8471 162.669C64.4823 162.507 64.1531 162.275 63.8784 161.986Z" fill="url(#paint12_linear)"/>
<path d="M63.8784 161.986L51.8752 149.419C51.3191 148.837 51.0172 148.057 51.0357 147.252C51.0542 146.448 51.3918 145.683 51.974 145.127C52.5563 144.571 53.3355 144.269 54.1404 144.287C54.9453 144.306 55.7098 144.643 56.2659 145.225L68.2691 157.792C68.5454 158.08 68.7621 158.419 68.9067 158.791C69.0514 159.163 69.1211 159.56 69.1119 159.959C69.1027 160.357 69.0148 160.75 68.8532 161.115C68.6916 161.48 68.4595 161.809 68.1702 162.084C67.8825 162.36 67.5429 162.577 67.1711 162.722C66.7993 162.867 66.4026 162.936 66.0038 162.927C65.6049 162.918 65.2118 162.83 64.8471 162.669C64.4823 162.507 64.1531 162.275 63.8784 161.986Z" fill="#3B56D7"/>
<path d="M69.1723 153.615L60.3054 144.332" stroke="#F200FF" stroke-width="0.15" stroke-miterlimit="10"/>
<g style="mix-blend-mode:multiply" opacity="0.2">
<path d="M171.127 63.3549C170.341 59.2769 168.365 55.5229 165.449 52.5658C162.533 49.6087 158.807 47.5806 154.74 46.7369C154.992 46.6819 155.248 46.6399 155.504 46.6113C156.942 46.8388 168.359 49.0638 171.275 62.6541C171.239 62.8975 171.19 63.1312 171.127 63.3549Z" fill="black"/>
</g>
<path d="M171.309 62.7003L171.281 62.671C168.37 49.0751 156.948 46.8557 155.51 46.6282L155.379 46.608C156.386 46.3734 157.398 46.1904 158.42 46.0535C161.401 45.6579 164.619 45.6628 167.437 46.8438C167.938 47.0543 168.419 47.3107 168.874 47.6095C169.261 47.8735 169.63 48.1651 169.976 48.4821C170.233 48.7371 170.457 49.023 170.643 49.3332L170.814 49.6063C171.773 51.3984 172.27 53.4011 172.26 55.4335C172.304 57.8895 171.984 60.3384 171.309 62.7003Z" fill="#3B56D7"/>
<g style="mix-blend-mode:multiply" opacity="0.2">
<path d="M84.6723 144.385C98.4078 131.21 118.448 111.767 119.227 111.023C122.418 107.976 125.642 104.963 128.86 101.945C132.184 98.8377 135.53 95.7424 138.82 92.5999C140.894 90.6054 142.728 88.3762 144.287 85.9574C145.017 84.8233 145.719 83.6713 146.37 82.4896C147.022 81.3079 147.626 80.1709 148.124 78.9341C149.308 76.4606 149.94 73.7597 149.978 71.0181C149.993 69.7624 149.667 68.5263 149.036 67.441C148.839 67.1649 148.604 66.9185 148.337 66.7093C147.972 66.4098 147.564 66.1651 147.128 65.9832C145.43 65.3666 143.599 65.2082 141.82 65.524C138.726 66.0132 135.735 67.019 132.974 68.4993C132.366 68.8003 131.769 69.113 131.178 69.4315C129.978 70.074 128.811 70.7744 127.655 71.4865C126.389 72.2048 125.207 73.0632 124.132 74.0454C123.301 74.8394 122.47 75.6334 121.638 76.4274C119.835 78.1496 118.038 79.8663 116.274 81.6294C113.259 84.5091 110.306 87.4417 107.313 90.3448C103.149 91.6224 98.8999 92.6062 94.5978 93.2889C92.7361 95.067 90.9022 96.8858 89.0069 98.6288C91.9675 98.6972 94.9215 98.9407 97.8532 99.3579C89.8174 106.944 77.5209 118.543 68.3246 127.293C64.5369 130.911 61.2702 134.031 59.0397 136.161C58.8108 136.378 58.6057 136.619 58.4277 136.88C57.8014 137.739 57.445 138.765 57.4036 139.828C57.3492 140.955 57.6565 142.069 58.2808 143.009C58.3926 143.126 58.469 143.288 58.5692 143.416C58.6768 143.541 58.7906 143.66 58.9102 143.773L67.777 153.056C68.7641 154.09 70.1199 154.691 71.5486 154.729C72.9774 154.767 74.3634 154.239 75.4045 153.259C77.698 151.125 80.9706 147.999 84.6723 144.385Z" fill="black"/>
</g>
<g style="mix-blend-mode:multiply" opacity="0.1">
<path d="M116.349 113.94C114.935 117.148 116.308 115.468 116.206 127.105C118.017 125.275 119.896 123.503 121.797 121.765C124.387 109.967 126.527 106.054 126.527 106.054C126.527 106.054 117.757 110.726 116.349 113.94Z" fill="black"/>
</g>
<g style="mix-blend-mode:multiply" opacity="0.1">
<path d="M85.8607 94.538C82.3481 97.8929 78.7828 101.298 75.323 104.603C73.542 105.364 72.8538 104.913 67.4783 105.38C60.216 105.981 54.2829 102.312 52.2475 101.939C51.6012 101.796 51.0195 101.445 50.5917 100.94C50.1638 100.435 49.9133 99.8038 49.8786 99.1427C52.0623 97.0571 54.3688 94.854 56.7574 92.5726C68.9124 96.0626 85.2352 94.5981 85.8607 94.538Z" fill="black"/>
</g>
<g style="mix-blend-mode:multiply" opacity="0.1">
<path d="M120.081 130.366C116.569 133.721 113.003 137.126 109.544 140.431C108.702 142.175 109.121 142.883 108.408 148.232C107.474 155.459 110.866 161.554 111.145 163.604C111.259 164.256 111.582 164.854 112.067 165.304C112.552 165.755 113.172 166.034 113.83 166.099C116.014 164.013 118.321 161.81 120.709 159.529C117.781 147.226 119.992 130.988 120.081 130.366Z" fill="black"/>
</g>
<path d="M106.05 93.477L61.2432 135.949L32.7307 106.097C32.3489 105.7 32.0363 105.242 31.8057 104.741C31.3325 103.754 31.1841 102.641 31.3817 101.564C31.5793 100.486 32.1128 99.4991 32.9058 98.7433L39.0937 92.833C39.7924 92.1676 40.6621 91.7094 41.606 91.5096C42.5498 91.3097 43.5306 91.3762 44.4388 91.7014L45.1886 91.959C76.1097 102.755 106.05 93.477 106.05 93.477Z" fill="#EAEBEB"/>
<path d="M45.1933 91.9983L31.8337 104.758C31.3605 103.771 31.2121 102.658 31.4097 101.581C31.6073 100.503 32.1408 99.5161 32.9338 98.7603L39.1159 92.8556C39.8145 92.1901 40.6843 91.7319 41.6282 91.5321C42.572 91.3323 43.5528 91.3987 44.461 91.7239L45.1933 91.9983Z" fill="#3B56D7"/>
<path d="M122.062 110.241C122.062 110.241 111.298 140.3 121.047 171.944C121.33 172.866 121.352 173.849 121.109 174.783C120.866 175.716 120.368 176.564 119.672 177.232L113.507 183.119C112.509 184.073 111.172 184.591 109.792 184.559C108.412 184.528 107.101 183.949 106.148 182.951L77.4229 152.877L122.062 110.241Z" fill="#EAEBEB"/>
<path d="M120.812 171.195L107.453 183.955C108.418 184.473 109.522 184.672 110.608 184.524C111.693 184.376 112.704 183.888 113.495 183.131L119.66 177.243C120.356 176.576 120.854 175.728 121.097 174.794C121.34 173.86 121.318 172.878 121.035 171.955L120.812 171.195Z" fill="#3B56D7"/>
<path d="M76.8001 153.819C75.7647 154.796 74.3861 155.326 72.9627 155.295C71.5393 155.264 70.1857 154.673 69.1948 153.651L60.3 144.338C60.1804 144.225 60.0666 144.106 59.959 143.981C59.8472 143.864 59.7298 143.741 59.6706 143.574C59.0464 142.634 58.739 141.52 58.7935 140.393C58.8348 139.331 59.1913 138.304 59.8175 137.445C59.9955 137.184 60.2006 136.943 60.4295 136.726C62.66 134.596 65.9267 131.476 69.7144 127.858C83.9801 114.288 105.733 93.8249 107.426 92.186C109.118 90.5472 110.938 88.8311 112.691 87.0676L114.23 85.5971C115.401 84.4787 116.563 83.3507 117.715 82.2128C119.518 80.4906 121.282 78.7389 123.079 77.0108C123.911 76.2168 124.742 75.4228 125.573 74.6288C126.648 73.6466 127.83 72.7882 129.096 72.0699C130.252 71.3578 131.419 70.6573 132.619 70.0149C133.21 69.6964 133.807 69.3837 134.415 69.0827C137.176 67.6024 140.167 66.5966 143.261 66.1073C145.04 65.7916 146.871 65.95 148.569 66.5666C149.005 66.7485 149.413 66.9932 149.778 67.2927C150.045 67.5018 150.28 67.7483 150.477 68.0244C151.108 69.1097 151.434 70.3458 151.419 71.6015C151.381 74.3431 150.748 77.0439 149.565 79.5175C149.045 80.7308 148.474 81.8915 147.811 83.073C147.149 84.2544 146.458 85.4067 145.728 86.5408C144.169 88.9596 142.335 91.1887 140.261 93.1833C137 96.2978 133.678 99.3708 130.383 102.45L130.301 102.528L128.843 103.921C126.139 106.504 123.384 109.035 120.685 111.624C119.883 112.39 99.8655 131.811 86.13 144.986C82.3609 148.541 79.0884 151.667 76.8001 153.819Z" fill="#F7F9FF"/>
<path d="M128.837 103.926L112.708 87.0394L114.248 85.5688L130.383 102.462C129.938 102.864 129.429 103.362 128.837 103.926Z" fill="#3B56D7"/>
<path d="M107.96 123.9L91.7694 106.949L88.4734 110.097L104.664 127.048L107.96 123.9Z" fill="#3B56D7"/>
<path d="M102.56 129.181L86.3132 112.172L83.0172 115.32L99.2637 132.33L102.56 129.181Z" fill="#3B56D7"/>
<path d="M147.788 83.0606C147.036 79.7302 145.392 76.6669 143.034 74.1979C140.676 71.7288 137.691 69.9467 134.399 69.0418C137.16 67.5615 140.15 66.5557 143.245 66.0665C145.024 65.7507 146.855 65.9091 148.553 66.5257C148.989 66.7076 149.396 66.9523 149.761 67.2518C150.028 67.461 150.264 67.7074 150.46 67.9835C151.092 69.0688 151.417 70.3049 151.403 71.5606C151.365 74.3022 150.732 77.003 149.549 79.4766C149.044 80.7418 148.434 81.8959 147.788 83.0606Z" fill="#3B56D7"/>
<path d="M76.8002 153.819C75.7648 154.796 74.3862 155.327 72.9628 155.295C71.5395 155.264 70.1858 154.673 69.1949 153.651L60.3001 144.338C60.1805 144.225 60.0667 144.106 59.9591 143.981C59.8473 143.864 59.7299 143.741 59.6707 143.574C59.0823 142.618 58.778 141.515 58.7936 140.393C58.8349 139.331 59.1914 138.304 59.8176 137.445C59.9956 137.184 60.2007 136.943 60.4296 136.726C62.6601 134.596 65.9268 131.476 69.7146 127.858L86.0729 144.985C82.361 148.541 79.0885 151.667 76.8002 153.819Z" fill="#3B56D7"/>
<path d="M136.409 90.1692L134.102 92.3722C134.057 92.1083 133.998 91.847 133.925 91.5895C133.788 91.0711 133.623 90.5578 133.439 90.0612C133.24 89.5458 133.005 89.0449 132.735 88.5622C132.54 88.1946 132.318 87.8413 132.073 87.505C131.696 87.0133 131.288 86.5468 130.851 86.1086L130.588 85.8335C130.074 85.272 129.514 84.7554 128.912 84.2894C128.72 84.1476 128.529 84.0172 128.331 83.8925C127.571 83.4196 126.762 83.0288 125.919 82.7266L125.533 82.5918C125.311 82.5123 125.09 82.4442 124.862 82.3818C124.862 82.3818 124.499 82.2475 124.464 82.281L126.805 80.0444C126.914 79.9394 127.049 79.8668 127.197 79.8348C127.344 79.8028 127.498 79.8126 127.64 79.8631L131.273 81.1944L134.476 82.3669L135.303 84.9909L136.636 89.2239C136.695 89.3865 136.705 89.5627 136.664 89.7307C136.624 89.8988 136.535 90.0512 136.409 90.1692Z" fill="#CCD9E2"/>
<defs>
<linearGradient id="paint0_linear" x1="62.6167" y1="150.444" x2="45.3645" y2="166.803" gradientUnits="userSpaceOnUse">
<stop stop-color="#FFEF9D"/>
<stop offset="1" stop-color="#F9B253"/>
</linearGradient>
<linearGradient id="paint1_linear" x1="35.8963" y1="127.589" x2="21.9083" y2="137.227" gradientUnits="userSpaceOnUse">
<stop stop-color="#FFEF9D"/>
<stop offset="1" stop-color="#F9B253"/>
</linearGradient>
<linearGradient id="paint2_linear" x1="84.7133" y1="178.699" x2="70.7254" y2="188.337" gradientUnits="userSpaceOnUse">
<stop stop-color="#FFEF9D"/>
<stop offset="1" stop-color="#F9B253"/>
</linearGradient>
<linearGradient id="paint3_linear" x1="172.222" y1="44.388" x2="174.146" y2="46.4015" gradientUnits="userSpaceOnUse">
<stop stop-color="#EAEBEB"/>
<stop offset="0.12" stop-color="#C2D2EA"/>
<stop offset="0.23" stop-color="#9AB8E9"/>
<stop offset="0.76" stop-color="#EAEBEB"/>
</linearGradient>
<linearGradient id="paint4_linear" x1="-605.733" y1="1369.57" x2="-601.499" y2="1374" gradientUnits="userSpaceOnUse">
<stop stop-color="#EAEBEB"/>
<stop offset="0.12" stop-color="#C2D2EA"/>
<stop offset="0.23" stop-color="#9AB8E9"/>
<stop offset="0.76" stop-color="#EAEBEB"/>
</linearGradient>
<linearGradient id="paint5_linear" x1="150.759" y1="65.6943" x2="151.878" y2="66.865" gradientUnits="userSpaceOnUse">
<stop stop-color="#100260"/>
<stop offset="0.14" stop-color="#2B015C"/>
<stop offset="0.27" stop-color="#3D0159"/>
<stop offset="0.37" stop-color="#430158"/>
<stop offset="1" stop-color="#100260"/>
</linearGradient>
<linearGradient id="paint6_linear" x1="-nan" y1="-nan" x2="-nan" y2="-nan" gradientUnits="userSpaceOnUse">
<stop stop-color="#100260"/>
<stop offset="0.07" stop-color="#26015D"/>
<stop offset="0.18" stop-color="#430158"/>
<stop offset="0.27" stop-color="#550055"/>
<stop offset="0.34" stop-color="#5B0054"/>
<stop offset="1" stop-color="#100260"/>
</linearGradient>
<linearGradient id="paint7_linear" x1="32.683" y1="119.854" x2="43.2102" y2="130.876" gradientUnits="userSpaceOnUse">
<stop stop-color="#EAEBEB"/>
<stop offset="0.96" stop-color="#9AB8E9"/>
</linearGradient>
<linearGradient id="paint8_linear" x1="-1343.26" y1="597.389" x2="-1347.51" y2="592.94" gradientUnits="userSpaceOnUse">
<stop stop-color="#EAEBEB"/>
<stop offset="0.12" stop-color="#C2D2EA"/>
<stop offset="0.23" stop-color="#9AB8E9"/>
<stop offset="0.76" stop-color="#EAEBEB"/>
</linearGradient>
<linearGradient id="paint9_linear" x1="-nan" y1="-nan" x2="-nan" y2="-nan" gradientUnits="userSpaceOnUse">
<stop stop-color="#100260"/>
<stop offset="0.07" stop-color="#26015D"/>
<stop offset="0.18" stop-color="#430158"/>
<stop offset="0.27" stop-color="#550055"/>
<stop offset="0.34" stop-color="#5B0054"/>
<stop offset="1" stop-color="#100260"/>
</linearGradient>
<linearGradient id="paint10_linear" x1="-3945.73" y1="-2418.19" x2="-4144.07" y2="-2625.84" gradientUnits="userSpaceOnUse">
<stop stop-color="#EAEBEB"/>
<stop offset="0.96" stop-color="#9AB8E9"/>
</linearGradient>
<linearGradient id="paint11_linear" x1="1653.92" y1="3589.48" x2="1843.5" y2="3787.97" gradientUnits="userSpaceOnUse">
<stop stop-color="#EAEBEB"/>
<stop offset="0.12" stop-color="#C2D2EA"/>
<stop offset="0.23" stop-color="#9AB8E9"/>
<stop offset="0.76" stop-color="#EAEBEB"/>
</linearGradient>
<linearGradient id="paint12_linear" x1="2356.18" y1="5586.96" x2="2825.38" y2="6078.21" gradientUnits="userSpaceOnUse">
<stop stop-color="#EAEBEB"/>
<stop offset="0.96" stop-color="#9AB8E9"/>
</linearGradient>
</defs>
</svg>
