<svg width="470" height="562" viewBox="0 0 470 562" fill="none" xmlns="http://www.w3.org/2000/svg">
<path d="M341.795 97.2882C341.795 97.2882 345.086 74.2373 330.603 79.1199C316.121 84.0025 336.891 97.2882 336.891 97.2882H341.795Z" fill="#FFD7C0"/>
<path d="M186.906 362.189L48.223 474.675L59.0893 488.068L197.773 375.581L186.906 362.189Z" fill="url(#paint0_linear)"/>
<path d="M330.603 79.1198C324.022 81.341 324.756 85.4064 327.48 88.9479C332.07 92.5731 336.975 87.5858 340.056 91.0434C341.732 92.9923 340.244 86.1398 339.909 81.5506C338.232 78.9521 335.403 77.5272 330.603 79.1198Z" fill="#FFD7C0"/>
<path d="M342.99 97.2883H336.933C341.606 124.53 316.603 126.437 298.683 125.327C303.063 129.308 304.971 137.125 306.605 145.109C356.802 139.388 342.99 97.2883 342.99 97.2883Z" fill="#323657"/>
<path d="M311.908 39.9332L309.581 40.7714C308.085 41.2748 306.616 41.8553 305.18 42.5107C303.015 43.4914 300.958 44.6922 299.039 46.094C296.425 48.0518 294.134 50.4063 292.248 53.0722C291.033 54.7486 289.733 56.7603 288.287 59.1702C286.841 61.5801 285.206 64.43 283.131 67.5524C280.817 71.1471 278.134 74.4902 275.125 77.5271C271.745 80.8981 267.864 83.7256 263.619 85.9093C259.628 87.9226 255.405 89.4358 251.043 90.4147C247.014 91.3011 242.922 91.8755 238.803 92.133C234.821 92.3845 230.923 92.4054 227.088 92.2797C225.159 92.2797 223.252 92.0911 221.366 91.9863L216 91.5463C210.498 90.8452 204.909 91.4335 199.674 93.2646C197.662 94.0615 195.907 95.3952 194.602 97.1204C193.158 99.1403 192.171 101.45 191.709 103.889C190.754 109.658 190.711 115.542 191.583 121.324C192.275 127.212 193.365 132.87 194.329 138.088C195.293 143.306 196.194 148.273 196.635 152.757C197.229 156.685 196.928 160.697 195.754 164.492C195.304 165.722 194.531 166.808 193.517 167.638C192.504 168.467 191.286 169.009 189.991 169.207C189.353 169.307 188.708 169.364 188.062 169.375H187.392H188.041C188.66 169.25 189.27 169.082 189.865 168.872C190.787 168.537 191.635 168.024 192.359 167.363C193.247 166.454 193.845 165.301 194.078 164.052C194.491 160.517 194.096 156.935 192.925 153.574C191.793 149.509 190.095 144.962 188.209 139.953C186.323 134.945 184.206 129.476 182.341 123.398C180.111 116.707 178.951 109.706 178.903 102.653C178.981 98.3082 179.959 94.027 181.775 90.0794C183.875 85.7041 187.092 81.96 191.101 79.2245C194.846 76.6807 198.99 74.7824 203.362 73.6085C207.356 72.4524 211.445 71.6598 215.581 71.2405L220.905 70.6957C222.56 70.5071 224.216 70.2975 225.83 70.046C228.976 69.5772 232.096 68.9477 235.178 68.1601C240.247 67.0896 245.028 64.946 249.199 61.8734C252.105 59.293 254.274 55.9886 255.487 52.2968C257.247 47.9591 259.113 42.0287 261.9 36.0564C266.765 25.4006 274.285 16.172 283.739 9.25447C286.341 7.29048 289.064 5.49177 291.892 3.86894L294.197 2.50684L311.908 39.9332Z" fill="#00CA69"/>
<path d="M294.074 -1.00532e-05L292.731 0.642151L364.666 150.959L366.008 150.317L294.074 -1.00532e-05Z" fill="#E8E8E8"/>
<path d="M350.682 198.251C343.137 187.396 326.286 194.27 326.286 194.27L319.873 212.291L323.352 215.204C332.05 209.295 341.272 203.595 350.682 198.251Z" fill="#323657"/>
<path d="M316.994 386.743L164.649 510.311L178.553 527.447L330.898 403.88L316.994 386.743Z" fill="url(#paint1_linear)"/>
<path d="M210.944 255.951L19.4972 411.233L33.401 428.37L224.848 273.087L210.944 255.951Z" fill="url(#paint2_linear)"/>
<path d="M237.617 274.03L46.1699 429.313L51.4296 435.796L242.877 280.513L237.617 274.03Z" fill="url(#paint3_linear)"/>
<path d="M317.848 362.172L126.401 517.455L131.66 523.938L323.107 368.655L317.848 362.172Z" fill="url(#paint4_linear)"/>
<path d="M236.269 368.388L97.5851 480.874L103.165 487.751L241.849 375.265L236.269 368.388Z" fill="url(#paint5_linear)"/>
<path d="M300.338 249.697C300.338 249.697 221.345 241.315 210.803 255.816C200.26 270.317 267.664 289.931 267.664 289.931L300.338 249.697Z" fill="#E8E8E8"/>
<path d="M273.994 282.136L300.339 249.697C300.339 249.697 257.458 245.191 230.651 248.586C211.495 273.083 258.359 280.396 273.994 282.136Z" fill="#C9D1F4"/>
<path d="M355.271 317.488C355.271 317.488 347.097 396.469 330.812 403.845C314.527 411.221 309.162 341.167 309.162 341.167L355.271 317.488Z" fill="#E8E8E8"/>
<path d="M318.175 336.578L355.271 317.488C355.271 317.488 350.828 360.362 341.984 385.886C314.15 399.591 316.645 352.232 318.175 336.578Z" fill="#C9D1F4"/>
<g style="mix-blend-mode:multiply">
<path d="M351.624 344.562C354.118 329.474 355.355 317.488 355.355 317.488L309.246 341.167C309.246 341.167 310.189 353.447 312.494 367.173C327.211 362.998 340.659 355.227 351.624 344.562Z" fill="#E8E8E8"/>
</g>
<path d="M373.065 320.61C320.312 363.401 294.952 350.995 275.041 326.477C255.13 301.959 248.235 274.508 300.988 231.738C353.741 188.968 446.148 146.931 466.059 171.47C485.97 196.009 425.818 277.777 373.065 320.61Z" fill="#E8E8E8"/>
<path d="M318.491 286.449L313.915 289.754L301.176 272.115L296.937 277.755L294.25 274.034L301.328 263.718L301.818 263.364L318.491 286.449ZM331.386 262.632C333.689 265.82 334.79 268.735 334.69 271.377C334.591 274.019 333.269 276.258 330.725 278.095C328.213 279.91 325.693 280.469 323.166 279.772C320.639 279.075 318.243 277.192 315.978 274.122L312.913 269.879C310.588 266.659 309.488 263.735 309.614 261.107C309.75 258.471 311.074 256.246 313.586 254.431C316.098 252.617 318.618 252.058 321.145 252.755C323.664 253.441 326.056 255.319 328.322 258.389L331.386 262.632ZM323.449 261.282C322.069 259.371 320.802 258.174 319.649 257.69C318.499 257.187 317.37 257.336 316.262 258.136C315.185 258.914 314.689 259.907 314.774 261.114C314.862 262.303 315.527 263.791 316.769 265.576L320.817 271.181C322.174 273.06 323.437 274.276 324.607 274.828C325.78 275.363 326.931 275.222 328.061 274.406C329.179 273.598 329.671 272.577 329.534 271.342C329.397 270.108 328.688 268.581 327.405 266.76L323.449 261.282Z" fill="#E13738"/>
<path d="M320.605 258.079C368.035 219.605 439.106 172.623 462.16 168.097C436.255 151.479 350.827 191.148 300.925 231.738C254.543 269.353 254.271 295.044 268.418 317.383C269.738 306.256 282.439 289.051 320.605 258.079Z" fill="url(#paint6_linear)" fill-opacity="0.7"/>
<path d="M279.233 323.019L261.334 300.953L256.346 311.955L270.85 329.83L285.353 347.704L297.132 345.106L279.233 323.019Z" fill="#C9D1F4"/>
<path d="M268.566 331.674L254.272 314.092L248.614 324.235L260.183 338.484L271.752 352.734L282.839 349.276L268.566 331.674Z" fill="#C9D1F4"/>
<path d="M442.523 245.443C443.801 243.62 445.038 241.818 446.253 239.995C433.353 234.183 421.991 225.435 413.076 214.45C404.16 203.466 397.937 190.548 394.904 176.73L388.805 179.245C392.157 193.628 398.734 207.061 408.04 218.529C417.346 229.997 429.137 239.2 442.523 245.443Z" fill="#C9D1F4"/>
<path d="M418.148 210.384C426.531 220.956 437.445 229.244 449.879 234.483C467.024 207.45 475.512 183.058 466.101 171.47C456.691 159.882 431.058 163.088 401.129 174.341C403.678 187.596 409.532 199.993 418.148 210.384Z" fill="#C9D1F4"/>
<g style="mix-blend-mode:multiply">
<path d="M269.425 349.885L271.751 352.735L282.839 349.277L277.808 343.074L269.425 349.885Z" fill="#E8E8E8"/>
</g>
<g style="mix-blend-mode:multiply">
<path d="M373.066 320.609C422.969 280.123 479.516 204.726 468.575 176.017C459.395 197.685 398.741 257.554 351.311 296.028C319.16 322.097 300.298 332.512 288.435 334.523L285.102 337.227L280.051 341.418L285.312 347.914L297.091 345.294C314.508 353.132 337.604 349.339 373.066 320.609Z" fill="#E8E8E8"/>
</g>
<path d="M326.285 194.27L287.721 219.752C287.721 219.752 339.342 230.858 336.743 260.259C334.145 289.659 324.965 307.282 324.965 307.282H332.07C332.07 307.282 390.398 232.074 330.854 210.28L326.285 194.27Z" fill="#323657"/>
<path d="M331.714 305.187L331.253 307.282L338.861 311.138L324.19 312.144L325.846 306.653L331.714 305.187Z" fill="#3F3B50"/>
<path d="M326.285 194.27C330.058 189.011 328.968 174.719 316.309 169.124C303.65 163.529 310.629 121.534 290.844 122.666C271.059 123.797 255.465 212.187 287.721 219.752L326.285 194.27Z" fill="white"/>
<path d="M352.883 171.198V178.113C352.883 178.113 308.345 187.166 286.108 173.147C286.108 173.147 266.575 198.985 273.533 219.752C273.533 219.752 253.475 211.369 259.512 183.604C265.548 155.838 260.895 127.674 281.791 122.644C302.687 117.615 294.156 148.964 294.156 148.964C294.156 148.964 293.507 173.084 352.883 171.198Z" fill="#323657"/>
<path d="M284.284 119.836C286.652 119.71 286.904 128.91 293.233 127.401C299.563 125.892 297.216 119.019 297.216 119.019C297.216 119.019 307.695 119.941 311.006 106.446C314.318 92.9504 295.979 63.571 281.664 65.5827C267.349 67.5944 259.05 121.198 284.284 119.836Z" fill="#FFD7C0"/>
<path d="M352.882 171.198C352.882 171.198 379.353 165.917 379.919 175.808C380.485 185.699 352.882 178.113 352.882 178.113V171.198Z" fill="#FFD7C0"/>
<path d="M298.683 128.911C301.24 128.177 300.947 133.856 300.947 133.856C300.947 133.856 302.016 149.531 282.084 158.584C262.152 167.636 262.027 173.776 261 177.443C259.973 181.111 243.248 163.697 261 157.934C278.752 152.171 297.656 140.541 298.725 133.479C298.683 133.584 294.785 129.917 298.683 128.911Z" fill="#00CA69"/>
<path d="M294.324 55.0631C297.447 45.717 311.091 79.0571 296.525 81.0688C281.958 83.0805 274.707 87.4811 280.219 92.8038C280.219 92.8038 271.06 91.7141 275.817 98.8599C280.575 106.006 264.814 107.64 262.069 98.8599C259.323 90.0796 260.601 69.711 275.273 63.2357C289.944 56.7605 290.3 67.0496 294.324 55.0631Z" fill="#6278DF"/>
<path d="M253.349 337.542C229.959 308.708 174.607 353.301 150.295 421.196C221.68 411.326 276.718 366.356 253.349 337.542Z" fill="url(#paint7_radial)"/>
<g filter="url(#filter0_d)">
<path d="M359.966 474.527C355.592 474.53 351.32 475.854 347.712 478.326C344.103 480.798 341.325 484.301 339.741 488.378C330.507 481.591 319.02 478.605 307.649 480.036C296.278 481.467 285.889 487.206 278.625 496.069C274.776 488.052 268.929 481.16 261.647 476.054C254.365 470.947 245.892 467.799 237.043 466.911C228.193 466.023 219.263 467.425 211.111 470.983C202.96 474.54 195.86 480.134 190.494 487.226C188.906 482.522 185.882 478.434 181.847 475.539C177.812 472.644 172.971 471.088 168.005 471.09C167.544 471.09 167.125 471.09 166.664 471.09C172.008 461.509 173.749 450.332 171.573 439.58C169.396 428.827 163.446 419.207 154.797 412.456C146.147 405.706 135.369 402.27 124.408 402.77C113.447 403.27 103.026 407.672 95.0269 415.181C95.1736 413.714 95.2575 412.227 95.2575 410.718C95.2575 398.491 90.3995 386.765 81.7524 378.119C73.1052 369.473 61.3772 364.616 49.1482 364.616C47.1998 364.631 45.2541 364.764 43.3217 365.014C46.9294 359.34 48.937 352.797 49.1325 346.077C49.3281 339.356 47.7042 332.707 44.4325 326.833C53.2238 322.991 60.6408 316.571 65.702 308.421C70.7632 300.272 73.2298 290.778 72.7754 281.195C72.3209 271.613 68.9669 262.395 63.1573 254.761C57.3476 247.127 49.3562 241.437 40.2408 238.444C40.2408 237.647 40.3665 236.851 40.3665 236.055C40.3745 230.263 38.6202 224.606 35.3364 219.835C41.5075 212.775 45.808 204.279 47.8439 195.127C49.8798 185.974 49.586 176.457 46.9895 167.447C50.6012 165.405 53.6988 162.566 56.0461 159.145C58.3935 155.724 59.9285 151.813 60.5341 147.709C61.1397 143.605 60.8 139.417 59.5407 135.465C58.2815 131.512 56.136 127.899 53.268 124.901C50.4 121.904 46.8851 119.601 42.9915 118.168C39.0979 116.735 34.9285 116.21 30.8011 116.633C26.6737 117.056 22.6975 118.416 19.1757 120.609C15.6538 122.802 12.6795 125.77 10.4794 129.287C7.06463 128.189 3.55706 127.403 0 126.94V546.446H352.358C356.136 539.75 358.122 532.193 358.122 524.506C358.104 522.266 357.915 520.031 357.556 517.821C358.356 517.912 359.161 517.961 359.966 517.967C365.611 517.792 370.966 515.427 374.897 511.373C378.827 507.319 381.026 501.894 381.026 496.247C381.026 490.601 378.827 485.176 374.897 481.122C370.966 477.068 365.611 474.702 359.966 474.527Z" fill="white"/>
</g>
<g filter="url(#filter1_d)">
<path d="M50.866 292.509C50.8677 295.595 49.9358 298.609 48.1927 301.156C46.4497 303.703 43.9769 305.663 41.0992 306.779C45.9069 313.297 48.0246 321.413 47.0142 329.448C46.0037 337.483 41.9425 344.823 35.6709 349.948C41.3328 352.66 46.2021 356.783 49.8108 361.92C53.4195 367.057 55.6465 373.035 56.2779 379.281C56.9093 385.526 55.9239 391.829 53.4162 397.584C50.9086 403.339 46.963 408.353 41.9585 412.143C45.2786 413.264 48.1639 415.398 50.2089 418.243C52.254 421.088 53.356 424.503 53.3601 428.006C53.3601 428.321 53.3601 428.635 53.3601 428.949C60.1228 425.166 68.0167 423.928 75.6134 425.459C83.21 426.99 90.0077 431.189 94.7765 437.296C99.5452 443.404 101.97 451.016 101.612 458.756C101.254 466.496 98.1374 473.852 92.8254 479.494C93.8733 479.494 94.9212 479.347 95.9901 479.347C104.606 479.347 112.869 482.769 118.961 488.86C125.054 494.952 128.476 503.213 128.476 511.828C128.467 513.23 128.369 514.63 128.183 516.019C132.394 513.302 137.297 511.847 142.309 511.828C146.796 511.829 151.209 512.969 155.136 515.139C157.891 508.981 162.439 503.797 168.188 500.264C173.936 496.732 180.617 495.015 187.356 495.339C194.096 495.662 200.581 498.011 205.964 502.078C211.347 506.145 215.378 511.742 217.53 518.135C218.096 518.135 218.662 518.135 219.228 518.135C223.316 518.13 227.308 519.373 230.671 521.698C235.64 517.342 241.621 514.3 248.068 512.85C254.516 511.401 261.224 511.59 267.579 513.4C269.012 510.842 271.012 508.645 273.424 506.979C275.837 505.313 278.599 504.22 281.499 503.786C284.399 503.351 287.36 503.586 290.155 504.472C292.95 505.358 295.506 506.871 297.626 508.897C299.746 510.922 301.374 513.406 302.386 516.158C303.398 518.91 303.767 521.856 303.464 524.773C303.162 527.689 302.196 530.497 300.64 532.983C299.085 535.468 296.981 537.565 294.49 539.112C295.271 541.499 295.825 543.955 296.146 546.446H0.103882V297.873C6.2181 294.369 13.352 293.074 20.3081 294.206C20.0917 292.143 20.2969 290.057 20.9111 288.075C21.5253 286.093 22.5357 284.257 23.8811 282.677C25.2265 281.098 26.8788 279.808 28.7378 278.886C30.5968 277.964 32.6237 277.429 34.6956 277.314C36.7675 277.199 38.8412 277.506 40.7909 278.216C42.7406 278.927 44.5256 280.026 46.0377 281.447C47.5498 282.867 48.7575 284.581 49.5875 286.482C50.4174 288.384 50.8524 290.434 50.866 292.509Z" fill="white"/>
</g>
<defs>
<filter id="filter0_d" x="-15" y="101.491" width="411.026" height="459.955" filterUnits="userSpaceOnUse" color-interpolation-filters="sRGB">
<feFlood flood-opacity="0" result="BackgroundImageFix"/>
<feColorMatrix in="SourceAlpha" type="matrix" values="0 0 0 0 0 0 0 0 0 0 0 0 0 0 0 0 0 0 127 0"/>
<feOffset/>
<feGaussianBlur stdDeviation="7.5"/>
<feColorMatrix type="matrix" values="0 0 0 0 0 0 0 0 0 0 0 0 0 0 0 0 0 0 0.2 0"/>
<feBlend mode="normal" in2="BackgroundImageFix" result="effect1_dropShadow"/>
<feBlend mode="normal" in="SourceGraphic" in2="effect1_dropShadow" result="shape"/>
</filter>
<filter id="filter1_d" x="-14.8961" y="262.291" width="333.463" height="299.156" filterUnits="userSpaceOnUse" color-interpolation-filters="sRGB">
<feFlood flood-opacity="0" result="BackgroundImageFix"/>
<feColorMatrix in="SourceAlpha" type="matrix" values="0 0 0 0 0 0 0 0 0 0 0 0 0 0 0 0 0 0 127 0"/>
<feOffset/>
<feGaussianBlur stdDeviation="7.5"/>
<feColorMatrix type="matrix" values="0 0 0 0 0 0 0 0 0 0 0 0 0 0 0 0 0 0 0.2 0"/>
<feBlend mode="normal" in2="BackgroundImageFix" result="effect1_dropShadow"/>
<feBlend mode="normal" in="SourceGraphic" in2="effect1_dropShadow" result="shape"/>
</filter>
<linearGradient id="paint0_linear" x1="191.44" y1="369.583" x2="54.2503" y2="480.893" gradientUnits="userSpaceOnUse">
<stop stop-color="white" stop-opacity="0.5"/>
<stop offset="1" stop-color="white" stop-opacity="0"/>
</linearGradient>
<linearGradient id="paint1_linear" x1="322.955" y1="396.075" x2="172.251" y2="518.35" gradientUnits="userSpaceOnUse">
<stop stop-color="white" stop-opacity="0.5"/>
<stop offset="1" stop-color="white" stop-opacity="0"/>
</linearGradient>
<linearGradient id="paint2_linear" x1="216.656" y1="265.484" x2="27.2708" y2="419.144" gradientUnits="userSpaceOnUse">
<stop stop-color="white" stop-opacity="0.5"/>
<stop offset="1" stop-color="white" stop-opacity="0"/>
</linearGradient>
<linearGradient id="paint3_linear" x1="239.019" y1="278.252" x2="49.6338" y2="431.912" gradientUnits="userSpaceOnUse">
<stop stop-color="white" stop-opacity="0.5"/>
<stop offset="1" stop-color="white" stop-opacity="0"/>
</linearGradient>
<linearGradient id="paint4_linear" x1="319.25" y1="366.394" x2="129.864" y2="520.054" gradientUnits="userSpaceOnUse">
<stop stop-color="white" stop-opacity="0.5"/>
<stop offset="1" stop-color="white" stop-opacity="0"/>
</linearGradient>
<linearGradient id="paint5_linear" x1="238.167" y1="372.534" x2="100.977" y2="483.844" gradientUnits="userSpaceOnUse">
<stop stop-color="white" stop-opacity="0.5"/>
<stop offset="1" stop-color="white" stop-opacity="0"/>
</linearGradient>
<linearGradient id="paint6_linear" x1="55729.1" y1="17764.6" x2="75186" y2="17764.6" gradientUnits="userSpaceOnUse">
<stop stop-color="white" stop-opacity="0.5"/>
<stop offset="1" stop-color="white" stop-opacity="0"/>
</linearGradient>
<radialGradient id="paint7_radial" cx="0" cy="0" r="1" gradientUnits="userSpaceOnUse" gradientTransform="translate(251 338.5) rotate(139.899) scale(74.5184 41.451)">
<stop stop-color="#F4E956" stop-opacity="0.92"/>
<stop offset="1" stop-color="#E66440" stop-opacity="0.95"/>
</radialGradient>
</defs>
</svg>
